<?xml version="1.0" encoding="utf-8"?>
<!-- Generator: Adobe Illustrator 19.0.0, SVG Export Plug-In . SVG Version: 6.00 Build 0)  -->
<svg version="1.1" id="Layer_1" xmlns="http://www.w3.org/2000/svg" xmlns:xlink="http://www.w3.org/1999/xlink" x="0px" y="0px"
	 viewBox="0 0 258 208.7" style="enable-background:new 0 0 258 208.7;" xml:space="preserve">
<style type="text/css">
	.st0{fill:#71BF9D;}
	.st1{fill:none;stroke:#E57E54;stroke-width:0.9971;stroke-linecap:round;stroke-linejoin:round;stroke-miterlimit:10;}
	.st2{fill:none;stroke:#E57E54;stroke-width:0.7983;stroke-linecap:round;stroke-linejoin:round;stroke-miterlimit:10;}
	.st3{fill:#FFFFFF;}
	.st4{fill:#FFD25A;}
	.st5{fill:#FDBD58;}
	.st6{fill:none;stroke:#FFFFFF;stroke-width:0.9735;stroke-miterlimit:10;}
	.st7{fill:#774582;}
	.st8{fill:#9D68AA;}
	.st9{fill:#FFFFFF;stroke:#774582;stroke-width:0.9736;stroke-miterlimit:10;}
	.st10{fill-rule:evenodd;clip-rule:evenodd;fill:#774582;}
	.st11{fill-rule:evenodd;clip-rule:evenodd;fill:#FFFFFF;stroke:#774582;stroke-width:1.0244;stroke-miterlimit:10;}
	.st12{fill:none;stroke:#774582;stroke-width:1.265;stroke-miterlimit:10;}
	.st13{fill:#FFFFFF;stroke:#774582;stroke-width:1.0244;stroke-linecap:round;stroke-linejoin:round;stroke-miterlimit:10;}
	.st14{opacity:0.7;fill:#A1ABAE;}
	.st15{fill:#DD4127;}
	.st16{fill:#E2E2E2;}
	.st17{fill:#F26244;}
	.st18{fill:none;}
	.st19{fill:none;stroke:#EEE8DA;stroke-width:1.1573;stroke-linecap:round;stroke-miterlimit:10;}
	.st20{fill:none;stroke:#EEE8DA;stroke-width:1.1573;stroke-miterlimit:10;}
	.st21{fill:#3B8461;}
	.st22{opacity:0.2;fill:#774582;}
	.st23{fill:#DFBCD9;}
	.st24{fill:none;stroke:#FFFFFF;stroke-width:0.9734;stroke-miterlimit:10;}
	.st25{fill:#FAEEF5;}
	.st26{fill:#A1ABAE;}
	.st27{fill:#FFCC5A;stroke:#774582;stroke-width:0.9736;stroke-miterlimit:10;}
	.st28{fill-rule:evenodd;clip-rule:evenodd;fill:#9D68AA;}
	.st29{fill:#FAAF73;}
	.st30{fill:#3E2344;}
	.st31{fill:#FFDCAE;}
	.st32{fill:#FFFFFF;stroke:#F26244;stroke-width:1.8544;stroke-linecap:round;stroke-linejoin:round;stroke-miterlimit:10;}
	.st33{fill:#F58877;}
	.st34{fill:#F79442;}
	.st35{clip-path:url(#XMLID_7_);fill:#F7ACC0;}
	.st36{clip-path:url(#XMLID_7_);fill:#FAAF73;}
	.st37{fill:#552F5E;}
	.st38{fill:#F29353;}
	.st39{clip-path:url(#XMLID_8_);fill:#F7ACC0;}
	.st40{clip-path:url(#XMLID_8_);fill:#FAAF73;}
	.st41{fill:none;stroke:#FFFFFF;stroke-width:0.4986;stroke-miterlimit:10;}
	.st42{fill-rule:evenodd;clip-rule:evenodd;fill:#FAAF73;}
	.st43{fill:#E57E54;}
	.st44{opacity:0.5;fill:#E57E54;}
	.st45{opacity:0.7;fill-rule:evenodd;clip-rule:evenodd;fill:#A1ABAE;}
	.st46{fill:none;stroke:#FFFFFF;stroke-width:0.4986;stroke-linecap:round;stroke-linejoin:round;stroke-miterlimit:10;}
	.st47{fill-rule:evenodd;clip-rule:evenodd;fill:#F26244;}
	.st48{opacity:0.5;}
	.st49{fill-rule:evenodd;clip-rule:evenodd;fill:#DD4127;}
	.st50{clip-path:url(#XMLID_11_);fill:#DD4127;}
	.st51{fill:#F6B519;}
	.st52{opacity:0.5;fill:#FDBD58;}
	.st53{clip-path:url(#XMLID_12_);fill:#DD4127;}
	.st54{fill:none;stroke:#FFFFFF;stroke-width:0.4986;stroke-linecap:round;stroke-miterlimit:10;}
	.st55{opacity:0.3;fill:#774582;}
</style>
<g id="XMLID_21_">
	<g id="XMLID_405_">
		<path id="XMLID_470_" class="st0" d="M221.8,136.9c-0.8-4-8.2-4.7-8.2-4.7s4.3-7.2,1.3-10.5s-10.1,4.4-10.1,4.4s-2.3-4.9-5.8,0
			c0,0-5.8-4.4-10.8-2.1c-3.6,1.6-3,5.9-2.5,8.2H87.6c-0.1-0.2-0.2-0.3-0.3-0.5c-3.3-4-12.9-1.9-12.9-1.9s4-9.9-2.6-12.9
			c-6.6-3-14.3,2.8-14.3,2.8c-4.6-6.4-7.7,0-7.7,0s-9.4-10.2-13.4-5.8c-4.1,4.3,1.7,13.9,1.7,13.9s-9.8,0.9-10.9,6.2
			c-1,5.3,17,10.8,17,10.8L209,145C209,145,222.6,140.9,221.8,136.9z"/>
		<g id="XMLID_465_">
			<path id="XMLID_469_" class="st1" d="M53.2,143.2c-3-8.4-7.5-16.2-13.2-23"/>
			<path id="XMLID_468_" class="st1" d="M53.2,143.5c0.2-6.6,0.9-13.2,2.1-19.8"/>
			<path id="XMLID_467_" class="st1" d="M51.4,138.9c-4.3-2.1-8.9-3.6-13.6-4.4"/>
			<path id="XMLID_466_" class="st1" d="M47.1,129.9c0.9-2,1.5-4.1,1.7-6.3"/>
		</g>
		<g id="XMLID_460_">
			<path id="XMLID_464_" class="st2" d="M201.6,143.9c2.4-6.7,6-13,10.6-18.4"/>
			<path id="XMLID_463_" class="st2" d="M201.6,144.1c-0.2-5.3-0.7-10.6-1.7-15.8"/>
			<path id="XMLID_462_" class="st2" d="M203,140.5c3.4-1.7,7.1-2.9,10.9-3.5"/>
			<path id="XMLID_461_" class="st2" d="M206.5,133.3c-0.7-1.6-1.2-3.3-1.4-5"/>
		</g>
		<g id="XMLID_433_">
			<g id="XMLID_447_">
				<g id="XMLID_458_">
					<path id="XMLID_459_" class="st3" d="M44.8,116.2c0.1,0,0.1,0.1,0.2,0.1c0.1,0.1,0.1,0.1,0.1,0.2c0,0.1,0,0.2-0.1,0.2
						c0,0-0.1,0-0.1,0c-0.1,0-0.1-0.1-0.2-0.1c-0.1-0.1-0.1-0.1-0.1-0.2c0-0.1,0-0.2,0.1-0.2C44.7,116.2,44.8,116.2,44.8,116.2z"/>
				</g>
				<g id="XMLID_456_">
					<path id="XMLID_457_" class="st3" d="M45.5,116.7c0.1,0,0.1,0.1,0.2,0.1c0.1,0.1,0.1,0.1,0.1,0.2c0,0.1,0,0.2-0.1,0.2
						c0,0-0.1,0-0.1,0c-0.1,0-0.1-0.1-0.2-0.1c-0.1-0.1-0.1-0.1-0.1-0.2c0-0.1,0-0.2,0.1-0.2C45.4,116.7,45.4,116.7,45.5,116.7z"/>
				</g>
				<g id="XMLID_454_">
					<path id="XMLID_455_" class="st3" d="M46.1,117.3c0.1,0,0.1,0.1,0.2,0.1c0.1,0.1,0.1,0.1,0.1,0.2c0,0.1,0,0.2-0.1,0.2
						c0,0-0.1,0-0.1,0c-0.1,0-0.1-0.1-0.2-0.1c-0.1-0.1-0.1-0.1-0.1-0.2c0-0.1,0-0.2,0.1-0.2C46.1,117.3,46.1,117.3,46.1,117.3z"/>
				</g>
				<g id="XMLID_452_">
					<path id="XMLID_453_" class="st3" d="M47.3,118.3c0.1,0,0.1,0.1,0.2,0.1c0.1,0.1,0.1,0.1,0.1,0.2c0,0.1,0,0.2-0.1,0.2
						c0,0-0.1,0-0.1,0c-0.1,0-0.1-0.1-0.2-0.1c-0.1-0.1-0.1-0.1-0.1-0.2c0-0.1,0-0.2,0.1-0.2C47.2,118.3,47.2,118.3,47.3,118.3z"/>
				</g>
				<g id="XMLID_450_">
					<path id="XMLID_451_" class="st3" d="M48.1,119.1c0.1,0,0.1,0,0.1,0.1c0,0,0.1,0.1,0.1,0.1c0,0.1-0.1,0.2-0.2,0.2c0,0,0,0,0,0
						c-0.1,0-0.1,0-0.1-0.1c0,0-0.1-0.1-0.1-0.1C47.8,119.2,47.9,119.1,48.1,119.1C48,119.1,48,119.1,48.1,119.1z"/>
				</g>
				<g id="XMLID_448_">
					<path id="XMLID_449_" class="st3" d="M48.7,119.7c0.1,0,0.1,0,0.1,0.1c0,0,0.1,0.1,0.1,0.1c0,0.1-0.1,0.2-0.2,0.2c0,0,0,0,0,0
						c-0.1,0-0.1,0-0.1-0.1c0,0-0.1-0.1-0.1-0.1C48.5,119.9,48.5,119.8,48.7,119.7C48.7,119.7,48.7,119.7,48.7,119.7z"/>
				</g>
			</g>
			<g id="XMLID_434_">
				<g id="XMLID_445_">
					<path id="XMLID_446_" class="st3" d="M37.3,114c0.6-0.4,1.2-0.5,1.9-0.5c0.7,0,1.3,0.2,1.9,0.4c0.6,0.2,1.2,0.6,1.7,0.9
						c0.5,0.3,1.1,0.7,1.6,1.1c0.1,0.1,0.1,0.2,0,0.2c-0.1,0.1-0.2,0.1-0.2,0c-0.5-0.4-1-0.7-1.6-1c-0.5-0.3-1.1-0.6-1.7-0.8
						c-0.6-0.2-1.2-0.4-1.8-0.4c-0.6,0-1.2,0.1-1.7,0.4c-0.1,0-0.2,0-0.2-0.1C37.2,114.1,37.2,114,37.3,114z"/>
				</g>
				<g id="XMLID_443_">
					<path id="XMLID_444_" class="st3" d="M37.1,114.5c0,0.1-0.1,0.1-0.1,0.2c0,0-0.1,0.1-0.2,0.1c-0.1,0-0.2,0-0.2-0.1
						c0,0,0-0.1,0-0.1c0-0.1,0.1-0.1,0.1-0.2c0,0,0.1-0.1,0.2-0.1C37,114.2,37.1,114.3,37.1,114.5C37.1,114.4,37.1,114.4,37.1,114.5
						z"/>
				</g>
				<g id="XMLID_441_">
					<path id="XMLID_442_" class="st3" d="M36.7,115c0,0.1,0,0.1-0.1,0.2c0,0-0.1,0.1-0.1,0.1c-0.1,0-0.2,0-0.3-0.1c0,0,0-0.1,0-0.1
						c0-0.1,0-0.1,0.1-0.2c0-0.1,0.1-0.1,0.2-0.1C36.5,114.7,36.6,114.8,36.7,115C36.7,114.9,36.7,114.9,36.7,115z"/>
				</g>
				<g id="XMLID_439_">
					<path id="XMLID_440_" class="st3" d="M36.3,115.6c0,0.1-0.1,0.2-0.1,0.4l-0.1,0.4c-0.1,0.2-0.1,0.5-0.2,0.7
						c0,0.1-0.1,0.1-0.2,0.1c-0.1,0-0.1-0.1-0.1-0.2c0-0.3,0-0.5,0.1-0.8l0.1-0.4c0.1-0.1,0.1-0.2,0.2-0.4c0-0.1,0.2-0.1,0.2,0
						C36.3,115.4,36.3,115.5,36.3,115.6z"/>
				</g>
				<g id="XMLID_437_">
					<path id="XMLID_438_" class="st3" d="M35.9,117.7c0,0,0,0.1,0,0.1c0,0,0,0.1-0.1,0.1c-0.1,0.1-0.2,0.1-0.3,0l0,0
						c0,0,0-0.1,0-0.1c0,0,0-0.1,0.1-0.1C35.7,117.6,35.8,117.6,35.9,117.7L35.9,117.7z"/>
				</g>
				<g id="XMLID_435_">
					<path id="XMLID_436_" class="st3" d="M35.9,118.4c0,0,0,0.1,0.1,0.1c0,0,0,0.1,0,0.1c-0.1,0.1-0.2,0.1-0.3,0l0,0
						c0,0,0-0.1-0.1-0.1c0,0,0-0.1,0-0.1C35.7,118.3,35.8,118.3,35.9,118.4L35.9,118.4z"/>
				</g>
			</g>
		</g>
		<g id="XMLID_406_">
			<g id="XMLID_420_">
				<g id="XMLID_431_">
					<path id="XMLID_432_" class="st3" d="M214.7,126.6c0,0.1,0,0.2,0,0.2c0,0.1,0,0.2-0.1,0.2c-0.1,0.1-0.2,0.1-0.3,0
						c0,0-0.1-0.1-0.1-0.1c0-0.1,0-0.2,0-0.2c0-0.1,0-0.2,0.1-0.2c0.1-0.1,0.2-0.1,0.3,0C214.7,126.5,214.7,126.6,214.7,126.6z"/>
				</g>
				<g id="XMLID_429_">
					<path id="XMLID_430_" class="st3" d="M214.5,127.5c0,0.1,0,0.2,0,0.2c0,0.1-0.1,0.2-0.1,0.2c-0.1,0.1-0.2,0.1-0.3,0
						c0,0,0-0.1-0.1-0.1c0-0.1,0-0.2,0-0.2c0-0.1,0-0.2,0.1-0.2c0.1-0.1,0.2-0.1,0.3,0C214.4,127.4,214.5,127.5,214.5,127.5z"/>
				</g>
				<g id="XMLID_427_">
					<path id="XMLID_428_" class="st3" d="M214.2,128.4c0,0.1,0,0.2,0,0.2c0,0.1-0.1,0.2-0.1,0.2c-0.1,0.1-0.2,0.1-0.3,0
						c0,0,0-0.1-0.1-0.1c0-0.1,0-0.2,0-0.2c0-0.1,0.1-0.2,0.1-0.2c0.1-0.1,0.2-0.1,0.3,0C214.2,128.3,214.2,128.4,214.2,128.4z"/>
				</g>
				<g id="XMLID_425_">
					<path id="XMLID_426_" class="st3" d="M213.7,130c0,0.1,0,0.2,0,0.2c0,0.1-0.1,0.1-0.1,0.2c-0.1,0.1-0.2,0.1-0.3,0
						c0,0,0-0.1,0-0.1c0-0.1,0-0.2,0-0.2c0-0.1,0.1-0.1,0.1-0.2c0.1-0.1,0.2-0.1,0.3,0C213.7,129.9,213.7,129.9,213.7,130z"/>
				</g>
				<g id="XMLID_423_">
					<path id="XMLID_424_" class="st3" d="M213.3,131c0,0.1,0,0.1,0,0.2c0,0,0,0.1-0.1,0.1c-0.1,0.1-0.2,0-0.3-0.1c0,0,0,0,0,0
						c0-0.1,0-0.1,0-0.2c0,0,0-0.1,0.1-0.1C213.1,130.9,213.2,130.9,213.3,131C213.3,131,213.3,131,213.3,131z"/>
				</g>
				<g id="XMLID_421_">
					<path id="XMLID_422_" class="st3" d="M212.9,132c0,0.1,0,0.1,0,0.2c0,0,0,0.1-0.1,0.1c-0.1,0.1-0.2,0-0.3-0.1c0,0,0,0,0,0
						c0-0.1,0-0.1,0-0.2c0,0,0-0.1,0.1-0.1C212.7,131.8,212.8,131.8,212.9,132C212.9,131.9,212.9,131.9,212.9,132z"/>
				</g>
			</g>
			<g id="XMLID_407_">
				<g id="XMLID_418_">
					<path id="XMLID_419_" class="st3" d="M210,122.8c0.6-0.4,1.2-0.7,1.9-0.9c0.7-0.2,1.5-0.2,2.1,0.2c0.3,0.2,0.6,0.5,0.7,0.9
						c0.1,0.3,0.2,0.7,0.2,1c0,0.7-0.1,1.4-0.2,2.1c0,0.1-0.1,0.2-0.2,0.1c-0.1,0-0.1-0.1-0.1-0.2c0.1-0.7,0.2-1.3,0.1-2
						c-0.1-0.6-0.2-1.3-0.7-1.6c-0.5-0.3-1.2-0.3-1.8-0.1c-0.6,0.2-1.2,0.4-1.8,0.8c-0.1,0-0.2,0-0.2-0.1
						C209.9,122.9,210,122.8,210,122.8z"/>
				</g>
				<g id="XMLID_416_">
					<path id="XMLID_417_" class="st3" d="M209.8,123.3c0,0.1-0.1,0.1-0.1,0.1c-0.1,0-0.1,0.1-0.2,0.1c-0.1,0-0.2-0.1-0.2-0.2
						c0,0,0-0.1,0-0.1c0-0.1,0.1-0.1,0.1-0.2c0.1,0,0.1-0.1,0.2-0.1C209.7,123,209.8,123.1,209.8,123.3
						C209.8,123.2,209.8,123.2,209.8,123.3z"/>
				</g>
				<g id="XMLID_414_">
					<path id="XMLID_415_" class="st3" d="M209.1,123.7c0,0.1-0.1,0.1-0.1,0.2c-0.1,0-0.1,0.1-0.2,0.1c-0.1,0-0.2-0.1-0.2-0.2
						c0,0,0-0.1,0-0.1c0-0.1,0.1-0.1,0.1-0.2c0.1,0,0.1-0.1,0.2-0.1C209.1,123.4,209.1,123.5,209.1,123.7
						C209.2,123.6,209.1,123.7,209.1,123.7z"/>
				</g>
				<g id="XMLID_412_">
					<path id="XMLID_413_" class="st3" d="M208.5,124.1c-0.2,0.2-0.4,0.4-0.6,0.5c-0.2,0.2-0.4,0.3-0.7,0.5c-0.1,0.1-0.2,0-0.2,0
						c0-0.1,0-0.1,0-0.2c0.2-0.2,0.4-0.4,0.6-0.6c0.2-0.2,0.4-0.3,0.7-0.5c0.1,0,0.2,0,0.2,0.1C208.6,124,208.6,124.1,208.5,124.1z"
						/>
				</g>
				<g id="XMLID_410_">
					<path id="XMLID_411_" class="st3" d="M206.7,125.6c0,0.1,0,0.1-0.1,0.1c0,0-0.1,0-0.1,0c-0.1,0-0.2-0.1-0.2-0.2l0,0
						c0-0.1,0-0.1,0.1-0.1c0,0,0.1,0,0.1,0C206.6,125.4,206.7,125.5,206.7,125.6L206.7,125.6z"/>
				</g>
				<g id="XMLID_408_">
					<path id="XMLID_409_" class="st3" d="M206.1,126.2c0,0.1,0,0.1-0.1,0.1c0,0-0.1,0.1-0.1,0.1c-0.1,0-0.2-0.1-0.2-0.2l0,0
						c0-0.1,0-0.1,0.1-0.1c0,0,0.1-0.1,0.1-0.1C206,126,206.1,126.1,206.1,126.2L206.1,126.2z"/>
				</g>
			</g>
		</g>
	</g>
	<g id="XMLID_374_">
		<path id="XMLID_404_" class="st4" d="M126.6,101c-25.1-0.4-92.3,20.4-100.4,0c-6.8-16.8,18.5-15.5,20-29.4
			c1.5-13.9-5.1-19.8,5.4-26.3c10.5-6.4,27.6,2.5,38.8-6.4c11.3-8.9,17.2-15.5,42.5-18.6c25.4-3.1,44.2,25.5,55,28.3
			c10.9,2.8,26.4-4.4,34,4.4c7.6,8.8-17,28.1-11.7,36.2c5.3,8.1,18.2,12.5,13.2,23.8C218.4,124.4,151,101.4,126.6,101z"/>
		<g id="XMLID_377_">
			<g id="XMLID_391_">
				<g id="XMLID_402_">
					<path id="XMLID_403_" class="st3" d="M26.4,93.2c0-0.1,0-0.2,0.1-0.3c0-0.1,0.1-0.2,0.2-0.3c0.1-0.1,0.2-0.1,0.3,0
						c0,0,0,0.1,0,0.1c0,0.1,0,0.2-0.1,0.3c0,0.1-0.1,0.2-0.1,0.3c-0.1,0.1-0.2,0.1-0.3,0C26.4,93.3,26.4,93.3,26.4,93.2z"/>
				</g>
				<g id="XMLID_400_">
					<path id="XMLID_401_" class="st3" d="M26.8,92.1c0-0.1,0.1-0.2,0.1-0.3c0.1-0.1,0.1-0.2,0.2-0.3c0.1-0.1,0.2-0.1,0.3,0
						c0,0,0,0.1,0,0.1c0,0.1-0.1,0.2-0.1,0.3c-0.1,0.1-0.1,0.2-0.2,0.3c-0.1,0.1-0.2,0.1-0.3,0C26.8,92.2,26.8,92.2,26.8,92.1z"/>
				</g>
				<g id="XMLID_398_">
					<path id="XMLID_399_" class="st3" d="M27.4,91c0-0.1,0.1-0.2,0.1-0.3c0.1-0.1,0.1-0.2,0.2-0.2c0.1-0.1,0.2,0,0.3,0.1
						c0,0,0,0.1,0,0.1c0,0.1-0.1,0.2-0.1,0.3c-0.1,0.1-0.1,0.2-0.2,0.2c-0.1,0.1-0.2,0.1-0.3,0C27.4,91.1,27.4,91.1,27.4,91z"/>
				</g>
				<g id="XMLID_396_">
					<path id="XMLID_397_" class="st3" d="M28.7,89.4c0-0.1,0.1-0.2,0.2-0.3c0.1-0.1,0.2-0.1,0.3-0.2c0.1-0.1,0.2,0,0.2,0.1
						c0,0,0,0.1,0,0.1c0,0.1-0.1,0.2-0.2,0.3c-0.1,0.1-0.2,0.1-0.2,0.2c-0.1,0.1-0.2,0-0.3-0.1C28.7,89.5,28.7,89.4,28.7,89.4z"/>
				</g>
				<g id="XMLID_394_">
					<path id="XMLID_395_" class="st3" d="M29.9,88.3c0-0.1,0.1-0.1,0.1-0.2c0.1,0,0.1-0.1,0.2-0.1c0.1,0,0.2,0.1,0.2,0.2
						c0,0,0,0,0,0c0,0.1-0.1,0.1-0.1,0.2c-0.1,0-0.1,0.1-0.2,0.1C29.9,88.6,29.8,88.5,29.9,88.3C29.8,88.3,29.9,88.3,29.9,88.3z"/>
				</g>
				<g id="XMLID_392_">
					<path id="XMLID_393_" class="st3" d="M30.9,87.5c0-0.1,0.1-0.1,0.1-0.1c0.1,0,0.1-0.1,0.2-0.1c0.1,0,0.2,0.1,0.2,0.2
						c0,0,0,0,0,0c0,0.1-0.1,0.1-0.1,0.1c-0.1,0-0.1,0.1-0.2,0.1C30.9,87.8,30.8,87.7,30.9,87.5C30.9,87.6,30.9,87.5,30.9,87.5z"/>
				</g>
			</g>
			<g id="XMLID_378_">
				<g id="XMLID_389_">
					<path id="XMLID_390_" class="st3" d="M29.1,103.9c-0.3-0.3-0.6-0.7-0.8-1c-0.2-0.4-0.5-0.7-0.7-1.1c-0.2-0.4-0.4-0.8-0.6-1.2
						l-0.5-1.2c-0.3-0.8-0.5-1.7-0.5-2.6c-0.1-0.9,0-1.8,0.3-2.7c0-0.1,0.1-0.2,0.2-0.2c0.1,0,0.1,0.1,0.1,0.2
						c-0.2,0.8-0.3,1.7-0.2,2.6c0.1,0.9,0.2,1.7,0.5,2.5l0.5,1.2c0.2,0.4,0.4,0.8,0.6,1.2c0.2,0.4,0.4,0.7,0.7,1.1
						c0.3,0.3,0.5,0.7,0.8,1c0.1,0.1,0.1,0.2,0,0.3C29.3,104,29.2,103.9,29.1,103.9z"/>
				</g>
				<g id="XMLID_387_">
					<path id="XMLID_388_" class="st3" d="M29.7,104.1c0.1,0,0.1,0.1,0.2,0.2c0.1,0.1,0.1,0.1,0.2,0.2c0.1,0.1,0,0.2-0.1,0.3
						c0,0-0.1,0-0.1,0c-0.1,0-0.2-0.1-0.2-0.1c-0.1-0.1-0.1-0.1-0.2-0.2c0-0.1,0-0.2,0.1-0.2C29.6,104.1,29.7,104.1,29.7,104.1z"/>
				</g>
				<g id="XMLID_385_">
					<path id="XMLID_386_" class="st3" d="M30.4,104.8c0.1,0,0.2,0.1,0.2,0.1c0.1,0.1,0.1,0.1,0.2,0.2c0.1,0.1,0,0.2-0.1,0.3
						c0,0-0.1,0-0.1,0c-0.1,0-0.2-0.1-0.2-0.1c-0.1-0.1-0.1-0.1-0.2-0.2c-0.1-0.1,0-0.2,0.1-0.3C30.4,104.8,30.4,104.8,30.4,104.8z"
						/>
				</g>
				<g id="XMLID_383_">
					<path id="XMLID_384_" class="st3" d="M31.2,105.4c0.3,0.2,0.6,0.4,0.9,0.5c0.3,0.2,0.6,0.3,0.9,0.5c0.1,0.1,0.1,0.2,0.1,0.2
						c0,0.1-0.1,0.1-0.2,0c-0.4-0.1-0.7-0.3-1-0.5c-0.3-0.2-0.6-0.4-0.9-0.6c-0.1-0.1-0.1-0.2,0-0.3C31,105.4,31.1,105.4,31.2,105.4
						z"/>
				</g>
				<g id="XMLID_381_">
					<path id="XMLID_382_" class="st3" d="M33.9,106.8c0.1,0,0.1,0,0.2,0c0,0,0.1,0,0.1,0.1c0.1,0.1,0.1,0.3-0.1,0.3l0,0
						c-0.1,0-0.1,0-0.2,0c-0.1,0-0.1,0-0.1-0.1C33.7,107,33.7,106.8,33.9,106.8L33.9,106.8z"/>
				</g>
				<g id="XMLID_379_">
					<path id="XMLID_380_" class="st3" d="M34.9,107.1c0.1,0,0.1,0,0.2,0c0,0,0.1,0,0.1,0.1c0.1,0.1,0.1,0.2,0,0.3l0,0
						c-0.1,0-0.1,0-0.2,0c-0.1,0-0.1,0-0.2-0.1C34.7,107.3,34.8,107.1,34.9,107.1L34.9,107.1z"/>
				</g>
			</g>
		</g>
		<path id="XMLID_376_" class="st5" d="M127.4,33.3c-11.8,1.9-20.9,7.3-27.4,16.1c-6.1,8-4.8,18.4,0.4,26.4
			c4.8,7.6,13.9,10.3,22.7,12.2c24.4,5.7,46.6,13,69.7,20.3c10,3.1,21.8,7.6,30.5,0.8c0,0,0,0,0,0c0.9-0.7,1.2-1.7,1-2.7
			c-1.4-6.8-10.1-10.8-14.2-17.1c-5.3-8.1,19.4-27.5,11.7-36.2c-7.6-8.8-23.2-1.5-34-4.4c-1.3-0.3-2.7-1-4.2-2
			C164.2,42.3,148.9,30,127.4,33.3z"/>
		<path id="XMLID_375_" class="st6" d="M213.9,114.3c-10.3,0-27.9-3.9-44.9-7.7c-16.8-3.7-32.6-7.3-42.4-7.4c-0.2,0-0.5,0-0.8,0
			c-8,0-19.9,1.9-32.4,4c-14.5,2.4-30.8,5-43.6,5c-12.5,0-19.6-2.5-21.7-7.7c-3.2-8,1.5-10.9,8.1-14.8c5.3-3.2,11.2-6.8,12-13.8
			c0.5-5,0.1-9-0.3-12.2c-0.7-6-1.1-9.1,4.8-12.7c2.5-1.5,5.6-2.2,10.4-2.2c1.8,0,3.7,0.1,5.7,0.2c2,0.1,4.1,0.2,6.1,0.2
			c5,0,11.5-0.5,16.8-4.8c1-0.8,2-1.6,3-2.4c9.3-7.5,16-12.9,38.4-15.7c1.2-0.1,2.4-0.2,3.5-0.2c14.2,0,26.3,10.3,36,18.6
			c5.8,4.9,10.4,8.8,14.6,9.9c2,0.5,4.3,0.8,7.1,0.8c2.5,0,5.2-0.2,7.7-0.4c2.5-0.2,4.9-0.4,7.2-0.4c5.3,0,8.6,1.1,10.9,3.8
			c3.2,3.6-1.7,11-5.9,17.5c-4.7,7.1-9.1,13.8-6,18.6c1.8,2.8,4.3,5,6.8,7.2c5.1,4.6,9.2,8.3,6.3,14.9
			C220.8,113.6,218.2,114.3,213.9,114.3z"/>
	</g>
	<g id="XMLID_287_">
		<path id="XMLID_19_" class="st7" d="M195.6,135H68.9c-2.1,0-3.9-1.7-3.9-3.9V64.7c0-2.1,1.7-3.9,3.9-3.9h126.6
			c2.1,0,3.9,1.7,3.9,3.9v66.5C199.4,133.3,197.7,135,195.6,135z"/>
		<path id="XMLID_372_" class="st8" d="M193.2,132.2H66.6c-2.1,0-3.9-1.7-3.9-3.9V61.9c0-2.1,1.7-3.9,3.9-3.9h126.6
			c2.1,0,3.9,1.7,3.9,3.9v66.5C197.1,130.5,195.4,132.2,193.2,132.2z"/>
		<g id="XMLID_349_">
			<path id="XMLID_371_" class="st9" d="M192.6,129.4H62.5c-1.2,0-2.1-1-2.1-2.1V57.4c0-1.2,1-2.1,2.1-2.1h130.1
				c1.2,0,2.1,1,2.1,2.1v69.9C194.8,128.5,193.8,129.4,192.6,129.4z"/>
			<path id="XMLID_364_" class="st10" d="M67.9,61.6h8.6v-0.5h-8.6V61.6z M65.9,61.8h1v-1h-1V61.8z M67.9,64.4h8.6v-0.5h-8.6V64.4z
				 M65.9,64.6h1v-1h-1V64.6z M67.9,67.2h8.6v-0.5h-8.6V67.2z M65.9,67.4h1v-1h-1V67.4z"/>
			<path id="XMLID_18_" class="st11" d="M88.9,108.9H81c-8.3,0-15.1-6.8-15.1-15.1V87c0-8.3,6.8-15.1,15.1-15.1h7.9
				c8.3,0,15.1,6.8,15.1,15.1v6.8C104,102.1,97.3,108.9,88.9,108.9z"/>
			<path id="XMLID_362_" class="st11" d="M131.8,108.9h-7.9c-8.3,0-15.1-6.8-15.1-15.1V87c0-8.3,6.8-15.1,15.1-15.1h7.9
				c8.3,0,15.1,6.8,15.1,15.1v6.8C146.9,102.1,140.1,108.9,131.8,108.9z"/>
			<path id="XMLID_17_" class="st11" d="M174.6,108.9h-7.9c-8.3,0-15.1-6.8-15.1-15.1V87c0-8.3,6.8-15.1,15.1-15.1h7.9
				c8.3,0,15.1,6.8,15.1,15.1v6.8C189.7,102.1,183,108.9,174.6,108.9z"/>
			<g id="XMLID_351_">
				<g id="XMLID_352_">
					<g id="XMLID_357_">
						<path id="XMLID_358_" class="st7" d="M180.4,64.6l-0.6-4.3c0-0.1-0.1-0.2-0.2-0.2l-1.1,0l0-0.5l1.1,0c0.4,0,0.7,0.3,0.8,0.7
							l0.1,0.5l7.2,0l-0.7,3.4L180.4,64.6z M180.4,61.3l0.4,2.8l5.6-0.4l0.5-2.3L180.4,61.3z"/>
					</g>
					<g id="XMLID_355_">
						<path id="XMLID_356_" class="st7" d="M187,65.6l-6.3,0c-0.1,0-0.3-0.1-0.3-0.2c-0.1-0.1-0.1-0.2-0.1-0.4l0.1-0.8l0.5,0.1
							l-0.1,0.7l6.2,0L187,65.6z"/>
					</g>
					<circle id="XMLID_354_" class="st12" cx="181.6" cy="66.7" r="0.7"/>
					<circle id="XMLID_353_" class="st12" cx="185.3" cy="66.7" r="0.7"/>
				</g>
			</g>
			<line id="XMLID_350_" class="st13" x1="108.5" y1="111.4" x2="146.9" y2="111.4"/>
		</g>
		<g id="XMLID_334_">
			<ellipse id="XMLID_348_" class="st14" cx="128.6" cy="95.3" rx="14" ry="0.9"/>
			<g id="XMLID_335_">
				<g id="XMLID_336_">
					<path id="XMLID_347_" class="st15" d="M117.5,85.5c0,0,0.3-0.7,2.7,0.2c1.3,0.5,3.1,1.7,6.4,0.3c0,0,1,3.4-3.3,3.1
						C119.1,88.7,117.5,85.5,117.5,85.5z"/>
					<path id="XMLID_346_" class="st16" d="M141.4,90.9l1,0.3c0.6,0.3,0.5,1.8,0.1,2.3c0,0-4,2.3-15.8,2.5
						c-6.8-0.1-11.3-1.3-11.5-1.7c-0.2-0.5-0.2-1.5-0.2-2.2l1.3-1.5L141.4,90.9z"/>
					<path id="XMLID_345_" class="st17" d="M117.5,85.5c0,0-1.3,1.3-1.5,2.3c-0.2,1.5-0.5,2.3-0.3,3.8c0,0,3.8,1.5,10.2,1.6
						c3.1,0,7.6-0.2,10.9-0.7c2.8-0.5,5.6-1.2,5.6-1.2c-0.8-2.8-3.3-1.8-6.7-2.9c-2.4-0.8-8-5.4-8-5.4s-1.3,1-1.4,1.5
						c0,0.3,0.6,1.1,0.6,1.1s-0.2,2.7-2.8,2.9C121.4,88.5,117.5,85.5,117.5,85.5z"/>
					<path id="XMLID_344_" class="st18" d="M142.4,91.2c0,0-2.1,1.4-5.2,2c-3.1,0.6-8.3,0.8-11.5,0.7c-3.5-0.1-10.7-1.9-10.7-1.9"/>
					<path id="XMLID_343_" class="st19" d="M126.8,85.5c0,0,1.4,0,1.8,0.2c1.1,0.4,4.4,3,6.8,3.3"/>
					<path id="XMLID_342_" class="st16" d="M130.9,85.4l-1.1,1.8c-0.1,0.2-0.8-0.3-0.7-0.5l1-1.9C130.3,84.6,131.1,85.1,130.9,85.4z
						"/>
					<path id="XMLID_341_" class="st16" d="M132.4,86.4l-1.1,1.9c-0.1,0.3-0.9,0-0.7-0.3l1.1-2.1C131.9,85.5,132.7,86.1,132.4,86.4z
						"/>
					<path id="XMLID_340_" class="st16" d="M134,87.3l-1.2,1.9c-0.1,0.3-0.8-0.1-0.7-0.3l1.1-2.1C133.5,86.4,134.3,87,134,87.3z"/>
					<path id="XMLID_339_" class="st16" d="M127.5,86.4c0-0.5,0.9-0.5,0.8,0l-0.3,3.1c0,0.5-0.5,0.5-0.5,0L127.5,86.4z"/>
					<path id="XMLID_338_" class="st19" d="M124.7,93.1c0,0,0.4-1.4,1.7-2c1.5-0.7,5.1,0.6,7-0.5c0.6-0.3,2.1-1.7,2.1-1.7"/>
					<path id="XMLID_337_" class="st19" d="M116.4,87c0,0,2.1,0.9,3.1,2.2c0.4,0.6,1.1,3.6,1.1,3.6"/>
				</g>
			</g>
		</g>
		<g id="XMLID_319_">
			<ellipse id="XMLID_333_" class="st14" cx="84.7" cy="95.3" rx="14" ry="0.9"/>
			<g id="XMLID_320_">
				<g id="XMLID_321_">
					<path id="XMLID_332_" class="st15" d="M73.6,85.5c0,0,0.3-0.7,2.7,0.2c1.3,0.5,3.1,1.7,6.4,0.3c0,0,1,3.4-3.3,3.1
						C75.2,88.7,73.6,85.5,73.6,85.5z"/>
					<path id="XMLID_331_" class="st16" d="M97.4,90.9l1,0.3c0.6,0.3,0.5,1.8,0.1,2.3c0,0-4,2.3-15.8,2.5
						c-6.8-0.1-11.3-1.3-11.5-1.7c-0.2-0.5-0.2-1.5-0.2-2.2l1.3-1.5L97.4,90.9z"/>
					<path id="XMLID_330_" class="st4" d="M73.6,85.5c0,0-1.3,1.3-1.5,2.3c-0.2,1.5-0.5,2.3-0.3,3.8c0,0,3.8,1.5,10.2,1.6
						c3.1,0,7.6-0.2,10.9-0.7c2.8-0.5,5.6-1.2,5.6-1.2c-0.8-2.8-3.3-1.8-6.7-2.9c-2.4-0.8-8-5.4-8-5.4s-1.3,1-1.4,1.5
						c0,0.3,0.6,1.1,0.6,1.1s-0.2,2.7-2.8,2.9C77.4,88.5,73.6,85.5,73.6,85.5z"/>
					<path id="XMLID_329_" class="st18" d="M98.4,91.2c0,0-2.1,1.4-5.2,2c-3.1,0.6-8.3,0.8-11.5,0.7c-3.5-0.1-10.7-1.9-10.7-1.9"/>
					<path id="XMLID_328_" class="st20" d="M82.9,85.5c0,0,1.4,0,1.8,0.2c1.1,0.4,4.4,3,6.8,3.3"/>
					<path id="XMLID_327_" class="st16" d="M86.9,85.4l-1.1,1.8c-0.1,0.2-0.8-0.3-0.7-0.5l1-1.9C86.4,84.6,87.1,85.1,86.9,85.4z"/>
					<path id="XMLID_326_" class="st16" d="M88.5,86.4l-1.1,1.9c-0.1,0.3-0.9,0-0.7-0.3l1.1-2.1C88,85.5,88.7,86.1,88.5,86.4z"/>
					<path id="XMLID_325_" class="st16" d="M90.1,87.3l-1.2,1.9c-0.1,0.3-0.8-0.1-0.7-0.3l1.1-2.1C89.6,86.4,90.3,87,90.1,87.3z"/>
					<path id="XMLID_324_" class="st16" d="M83.6,86.4c0-0.5,0.9-0.5,0.8,0l-0.3,3.1c0,0.5-0.5,0.5-0.5,0L83.6,86.4z"/>
					<path id="XMLID_323_" class="st20" d="M80.7,93.1c0,0,0.4-1.4,1.7-2c1.5-0.7,5.1,0.6,7-0.5c0.6-0.3,2.1-1.7,2.1-1.7"/>
					<path id="XMLID_322_" class="st20" d="M72.4,87c0,0,2.1,0.9,3.1,2.2c0.4,0.6,1.1,3.6,1.1,3.6"/>
				</g>
			</g>
		</g>
		<g id="XMLID_304_">
			<ellipse id="XMLID_318_" class="st14" cx="170.6" cy="95.3" rx="14" ry="0.9"/>
			<g id="XMLID_305_">
				<g id="XMLID_306_">
					<path id="XMLID_317_" class="st21" d="M159.4,85.5c0,0,0.3-0.7,2.7,0.2c1.3,0.5,3.1,1.7,6.4,0.3c0,0,1,3.4-3.3,3.1
						C161,88.7,159.4,85.5,159.4,85.5z"/>
					<path id="XMLID_316_" class="st16" d="M183.3,90.9l1,0.3c0.6,0.3,0.5,1.8,0.1,2.3c0,0-4,2.3-15.8,2.5
						c-6.8-0.1-11.3-1.3-11.5-1.7c-0.2-0.5-0.2-1.5-0.2-2.2l1.3-1.5L183.3,90.9z"/>
					<path id="XMLID_315_" class="st0" d="M159.4,85.5c0,0-1.3,1.3-1.5,2.3c-0.2,1.5-0.5,2.3-0.3,3.8c0,0,3.8,1.5,10.2,1.6
						c3.1,0,7.6-0.2,10.9-0.7c2.8-0.5,5.6-1.2,5.6-1.2c-0.8-2.8-3.3-1.8-6.7-2.9c-2.4-0.8-8-5.4-8-5.4s-1.3,1-1.4,1.5
						c0,0.3,0.6,1.1,0.6,1.1s-0.2,2.7-2.8,2.9C163.3,88.5,159.4,85.5,159.4,85.5z"/>
					<path id="XMLID_314_" class="st18" d="M184.3,91.2c0,0-2.1,1.4-5.2,2c-3.1,0.6-8.3,0.8-11.5,0.7c-3.5-0.1-10.7-1.9-10.7-1.9"/>
					<path id="XMLID_313_" class="st20" d="M168.8,85.5c0,0,1.4,0,1.8,0.2c1.1,0.4,4.4,3,6.8,3.3"/>
					<path id="XMLID_312_" class="st16" d="M172.8,85.4l-1.1,1.8c-0.1,0.2-0.8-0.3-0.7-0.5l1-1.9C172.3,84.6,173,85.1,172.8,85.4z"
						/>
					<path id="XMLID_311_" class="st16" d="M174.4,86.4l-1.1,1.9c-0.1,0.3-0.9,0-0.7-0.3l1.1-2.1C173.9,85.5,174.6,86.1,174.4,86.4z
						"/>
					<path id="XMLID_310_" class="st16" d="M176,87.3l-1.2,1.9c-0.1,0.3-0.8-0.1-0.7-0.3l1.1-2.1C175.5,86.4,176.2,87,176,87.3z"/>
					<path id="XMLID_309_" class="st16" d="M169.5,86.4c0-0.5,0.9-0.5,0.8,0l-0.3,3.1c0,0.5-0.5,0.5-0.5,0L169.5,86.4z"/>
					<path id="XMLID_308_" class="st20" d="M166.6,93.1c0,0,0.4-1.4,1.7-2c1.5-0.7,5.1,0.6,7-0.5c0.6-0.3,2.1-1.7,2.1-1.7"/>
					<path id="XMLID_307_" class="st20" d="M158.3,87c0,0,2.1,0.9,3.1,2.2c0.4,0.6,1.1,3.6,1.1,3.6"/>
				</g>
			</g>
		</g>
		<g id="XMLID_295_">
			<path id="XMLID_302_" class="st7" d="M112.9,78.7L112.9,78.7c0,0.3-0.1,0.4-0.2,0.4h-1.2c-0.1,0-0.2-0.1-0.2-0.3v0
				c0-0.2,0.1-0.3,0.2-0.3h1.2C112.8,78.4,112.9,78.5,112.9,78.7z"/>
			<path id="XMLID_296_" class="st7" d="M115.7,77c0,0.9-0.5,1-0.9,1c-0.4,0-0.9-0.2-0.9-1c0-0.9,0.5-1,0.9-1
				C115.2,76,115.7,76.1,115.7,77z M114.5,77c0,0.2,0.1,0.5,0.3,0.5c0.2,0,0.3-0.3,0.3-0.5c0-0.2,0-0.5-0.3-0.5
				C114.5,76.5,114.5,76.8,114.5,77z M117.3,76.1C117.3,76.1,117.3,76.1,117.3,76.1l-2.2,4.1c-0.1,0.1-0.1,0.2-0.3,0.2h-0.3
				c-0.1,0-0.1,0-0.1-0.1c0,0,0-0.1,0-0.1l2.1-4c0.1-0.1,0.1-0.2,0.3-0.2h0.3C117.3,76,117.3,76,117.3,76.1z M118,79.4
				c0,0.9-0.5,1-0.9,1s-0.9-0.2-0.9-1c0-0.9,0.5-1,0.9-1S118,78.5,118,79.4z M116.8,79.4c0,0.2,0.1,0.5,0.3,0.5
				c0.2,0,0.3-0.3,0.3-0.5c0-0.2,0-0.5-0.3-0.5C116.8,78.9,116.8,79.1,116.8,79.4z"/>
		</g>
		<g id="XMLID_288_">
			<g id="XMLID_290_">
				<path id="XMLID_291_" class="st17" d="M138.3,99v0.4c0.6,0,1.6,0.2,1.6,0.6c0,0.2-0.2,0.5-0.3,0.5c-0.2,0-0.5-0.4-1.3-0.4v2.4
					c0.9,0.3,2,0.7,2,2.1c0,1.2-0.8,1.9-2,2v0.5c0,0.1-0.1,0.2-0.2,0.2c-0.1,0-0.2-0.1-0.2-0.2v-0.5c-1.2,0-2-0.5-2-0.7
					c0-0.2,0.2-0.6,0.4-0.6c0.1,0,0.7,0.5,1.7,0.6v-2.6c-0.9-0.3-1.9-0.7-1.9-2c0-1,0.7-1.7,1.9-1.8V99c0-0.1,0.1-0.2,0.2-0.2
					C138.2,98.8,138.3,98.9,138.3,99z M136.9,101.3c0,0.6,0.4,0.9,1,1.1v-2.2C137.3,100.2,136.9,100.6,136.9,101.3z M138.3,105.8
					c0.6-0.1,1-0.6,1-1.2c0-0.6-0.5-1-1-1.2V105.8z"/>
			</g>
			<path id="XMLID_16_" class="st17" d="M133.6,106.9h-16.1c-1,0-1.8-0.8-1.8-1.8v0c0-1,0.8-1.8,1.8-1.8h16.1c1,0,1.8,0.8,1.8,1.8v0
				C135.3,106.2,134.5,106.9,133.6,106.9z"/>
		</g>
	</g>
	<g id="XMLID_271_">
		<path id="XMLID_286_" class="st22" d="M253.2,183.9H5c-0.9,0-1.3-1.2-0.6-1.7l37.2-29.7c0.8-0.6,1.8-1,2.9-1h169.3
			c1.1,0,2.1,0.4,2.9,1l37.2,29.7C254.5,182.7,254.1,183.9,253.2,183.9z"/>
		<g id="XMLID_272_">
			<path id="XMLID_285_" class="st23" d="M252.2,171.7H6l38.2-30.5c0.8-0.6,1.8-1,2.8-1h164.3c1,0,2,0.3,2.8,1L252.2,171.7z"/>
			<polygon id="XMLID_284_" class="st8" points="227.8,169 30.4,169 58.2,143 200,143 			"/>
			<polygon id="XMLID_283_" class="st3" points="225.4,169 32.8,169 59.9,144.1 198.3,144.1 			"/>
			<path id="XMLID_10_" class="st8" d="M244,179.9H14.1c-4.5,0-8.2-3.7-8.2-8.2l0,0h246.3l0,0C252.2,176.2,248.6,179.9,244,179.9z"
				/>
			<line id="XMLID_281_" class="st24" x1="6" y1="174.9" x2="252.2" y2="174.9"/>
			<path id="XMLID_280_" class="st7" d="M88.6,177.3H55.2c-1.2,0-2.2-1-2.2-2.2l0,0c0-1.2,1-2.2,2.2-2.2h33.4c1.2,0,2.2,1,2.2,2.2
				l0,0C90.7,176.3,89.7,177.3,88.6,177.3z"/>
			<path id="XMLID_279_" class="st23" d="M88.8,177.3H54.9c-1.1,0-1.9-0.9-1.9-1.9v0c0-1.1,0.9-1.9,1.9-1.9h33.9
				c1.1,0,1.9,0.9,1.9,1.9v0C90.7,176.4,89.9,177.3,88.8,177.3z"/>
			<g id="XMLID_276_">
				<polygon id="XMLID_278_" class="st8" points="209.6,147.8 223.6,160.1 231.1,160.1 231.1,159.1 209.6,146.8 				"/>
				<polygon id="XMLID_277_" class="st25" points="209.6,146.8 223.6,159.1 231.1,159.1 215.5,146.8 				"/>
			</g>
			<ellipse id="XMLID_275_" class="st3" cx="38.7" cy="152.7" rx="5.9" ry="2.6"/>
			<ellipse id="XMLID_274_" class="st7" cx="38.7" cy="152.5" rx="4.1" ry="1.6"/>
			<ellipse id="XMLID_273_" class="st3" cx="37.7" cy="152.1" rx="1.4" ry="0.6"/>
		</g>
	</g>
	<g id="XMLID_235_">
		<g id="XMLID_244_">
			<g id="XMLID_266_">
				<g id="XMLID_267_">
					<path id="XMLID_9_" class="st23" d="M203,48.8H68.2c-3.3,0-6-2.7-6-6v0c0-3.3,2.7-6,6-6H203c3.3,0,6,2.7,6,6v0
						C209.1,46.1,206.4,48.8,203,48.8z"/>
					<circle id="XMLID_269_" class="st23" cx="40.1" cy="42.7" r="6"/>
					<circle id="XMLID_268_" class="st23" cx="54.2" cy="42.7" r="6"/>
				</g>
			</g>
			<polygon id="XMLID_265_" class="st23" points="217.4,36.4 219.4,40.7 224.1,41.2 220.6,44.4 221.5,49.1 217.4,46.8 213.3,49.1 
				214.2,44.4 210.8,41.2 215.4,40.7 			"/>
			<g id="XMLID_246_">
				<g id="XMLID_247_">
					<path id="XMLID_264_" class="st9" d="M203,46.7H68.2c-3.3,0-6-2.7-6-6v0c0-3.3,2.7-6,6-6H203c3.3,0,6,2.7,6,6v0
						C209.1,44,206.4,46.7,203,46.7z"/>
					<g id="XMLID_251_">
						<path id="XMLID_260_" class="st26" d="M97.6,38.4v0.2c0.5,0,1,0.2,1,0.4c0,0.2-0.2,0.5-0.3,0.5c-0.1,0-0.3-0.2-0.7-0.2v1.2
							c0.6,0.2,1.3,0.5,1.3,1.4c0,0.9-0.6,1.3-1.3,1.4v0.3c0,0.1-0.1,0.2-0.2,0.2c-0.1,0-0.2,0-0.2-0.2v-0.3c-0.8,0-1.4-0.3-1.4-0.5
							c0-0.2,0.2-0.5,0.3-0.5c0.1,0,0.5,0.3,1,0.3v-1.3c-0.6-0.2-1.3-0.5-1.3-1.4c0-0.8,0.6-1.2,1.3-1.3v-0.2c0-0.1,0.1-0.2,0.2-0.2
							C97.6,38.3,97.6,38.3,97.6,38.4z M96.9,39.9c0,0.3,0.2,0.4,0.4,0.5v-1C97,39.5,96.9,39.7,96.9,39.9z M97.6,42.6
							c0.2-0.1,0.4-0.3,0.4-0.6c0-0.3-0.2-0.4-0.4-0.6V42.6z"/>
						<path id="XMLID_258_" class="st26" d="M100.9,41.5L100.9,41.5c0,0.3-0.1,0.3-0.2,0.3h-1.3c-0.1,0-0.2-0.1-0.2-0.3v-0.1
							c0-0.2,0.1-0.3,0.2-0.3h1.3C100.9,41.2,100.9,41.3,100.9,41.5z"/>
						<path id="XMLID_252_" class="st26" d="M103.4,39.7c0,0.9-0.5,1.1-1,1.1c-0.4,0-1-0.2-1-1.1c0-0.9,0.5-1.1,1-1.1
							C102.9,38.6,103.4,38.8,103.4,39.7z M102.1,39.7c0,0.3,0.1,0.6,0.4,0.6c0.3,0,0.4-0.3,0.4-0.6c0-0.3,0-0.6-0.4-0.6
							C102.1,39.1,102.1,39.4,102.1,39.7z M105.2,38.7C105.2,38.8,105.2,38.8,105.2,38.7l-2.4,4.4c-0.1,0.1-0.1,0.2-0.3,0.2h-0.2
							c-0.1,0-0.1,0-0.1-0.1c0,0,0-0.1,0-0.1l2.4-4.3c0.1-0.1,0.2-0.2,0.3-0.2h0.2C105.2,38.7,105.2,38.7,105.2,38.7z M105.9,42.2
							c0,0.9-0.5,1.1-1,1.1c-0.4,0-1-0.2-1-1.1c0-0.9,0.5-1.1,1-1.1C105.4,41.1,105.9,41.3,105.9,42.2z M104.6,42.2
							c0,0.3,0.1,0.6,0.4,0.6c0.3,0,0.4-0.3,0.4-0.6c0-0.3,0-0.6-0.4-0.6C104.6,41.6,104.6,42,104.6,42.2z"/>
					</g>
					<path id="XMLID_250_" class="st26" d="M91.7,43.8H79.9c-1.5,0-2.8-1.2-2.8-2.8l0,0c0-1.5,1.2-2.8,2.8-2.8h11.8
						c1.5,0,2.8,1.2,2.8,2.8l0,0C94.5,42.6,93.2,43.8,91.7,43.8z"/>
					<circle id="XMLID_249_" class="st9" cx="40.1" cy="40.6" r="6"/>
					<circle id="XMLID_248_" class="st9" cx="54.2" cy="40.6" r="6"/>
				</g>
			</g>
			<polygon id="XMLID_245_" class="st27" points="217.4,34.3 219.4,38.6 224.1,39.1 220.6,42.4 221.5,47 217.4,44.7 213.3,47 
				214.2,42.4 210.8,39.1 215.4,38.6 			"/>
		</g>
		<polygon id="XMLID_243_" class="st7" points="40.9,37 37.1,40.7 40.9,44.6 41.6,43.9 38.5,40.7 41.6,37.7 		"/>
		<polygon id="XMLID_242_" class="st7" points="53.6,44.6 57.4,40.8 53.6,37 52.9,37.7 56,40.8 52.9,43.9 		"/>
		<path id="XMLID_239_" class="st7" d="M74.6,44.1l-2.4-2.4c0.3-0.5,0.5-1.1,0.5-1.7c0-1.7-1.4-3.1-3.2-3.1c-0.8,0-1.6,0.3-2.2,0.9
			c-0.6,0.6-0.9,1.4-0.9,2.2c0,1.7,1.4,3.1,3.2,3.1c0,0,0,0,0,0c0.6,0,1.2-0.2,1.7-0.5l2.4,2.4L74.6,44.1z M71.7,40
			c0,0.6-0.2,1.1-0.6,1.5c-0.4,0.4-1,0.6-1.6,0.6c0,0,0,0,0,0c-1.2,0-2.2-1-2.2-2.2c0-0.6,0.2-1.1,0.6-1.5c0.4-0.4,1-0.6,1.6-0.6
			C70.7,37.8,71.7,38.8,71.7,40z"/>
		<path id="XMLID_236_" class="st28" d="M200.9,40.8l-1.4,1.4c-0.2,0.2-0.2,0.4,0,0.6c0.2,0.2,0.4,0.2,0.6,0l1.4-1.4l1.4,1.4
			c0.2,0.2,0.4,0.2,0.6,0c0.2-0.2,0.2-0.4,0-0.6l-1.4-1.4l1.4-1.4c0.2-0.2,0.2-0.4,0-0.6c-0.2-0.2-0.4-0.2-0.6,0l-1.4,1.4l-1.4-1.4
			c-0.2-0.2-0.4-0.2-0.6,0c-0.2,0.2-0.2,0.4,0,0.6L200.9,40.8z M201.5,45.2c-2.4,0-4.4-2-4.4-4.4c0-2.5,2-4.4,4.4-4.4
			c2.4,0,4.4,2,4.4,4.4C205.9,43.2,203.9,45.2,201.5,45.2z"/>
	</g>
	<g id="XMLID_232_">
		<path id="XMLID_234_" class="st17" d="M49,68.7c0-4.5-3.6-8.2-8.2-8.2c-4.5,0-8.2,3.7-8.2,8.2c0,0,0,0,0,0c0,1.9-0.6,3.1,8.2,18.7
			C49.6,71.7,49,69.6,49,68.7z"/>
		<circle id="XMLID_233_" class="st3" cx="40.8" cy="68.9" r="3.6"/>
	</g>
	<path id="XMLID_231_" class="st29" d="M153.4,104.7"/>
	<g id="XMLID_102_">
		<g id="XMLID_167_">
			<g id="XMLID_173_">
				<path id="XMLID_230_" class="st22" d="M106.3,152.3l-3.3,5.7c-0.7,1.2,0.2,2.6,1.7,2.6h32.5c1.3,0,2.2-1.2,1.8-2.3l-2.1-5.7
					c-0.3-0.7-1-1.2-1.8-1.2h-27.2C107.2,151.4,106.6,151.8,106.3,152.3z"/>
				<g id="XMLID_179_">
					<g id="XMLID_225_">
						<circle id="XMLID_229_" class="st7" cx="110" cy="150.7" r="2.9"/>
						<circle id="XMLID_228_" class="st30" cx="110" cy="150.7" r="1.7"/>
						<path id="XMLID_227_" class="st31" d="M108.9,150.4l1-2.6c0.1-0.1,0.2-0.2,0.3-0.2h3.4c0.3,0,0.5,0.4,0.3,0.6l-3.1,3.3
							c-0.3,0.3-0.7,0.4-1,0.3l-0.3-0.1C109,151.5,108.7,150.9,108.9,150.4z"/>
						<circle id="XMLID_226_" class="st7" cx="110" cy="150.7" r="0.7"/>
					</g>
					<g id="XMLID_220_">
						<circle id="XMLID_224_" class="st7" cx="132.6" cy="150.7" r="2.9"/>
						<circle id="XMLID_223_" class="st30" cx="132.6" cy="150.7" r="1.7"/>
						<path id="XMLID_222_" class="st31" d="M133.7,150.4l-1-2.6c-0.1-0.1-0.2-0.2-0.3-0.2h-3.4c-0.3,0-0.5,0.4-0.3,0.6l3.1,3.3
							c0.3,0.3,0.7,0.4,1,0.3l0.3-0.1C133.6,151.5,133.9,150.9,133.7,150.4z"/>
						<circle id="XMLID_221_" class="st7" cx="132.6" cy="150.7" r="0.7"/>
					</g>
					<g id="XMLID_218_">
						<path id="XMLID_219_" class="st17" d="M102.5,123.9c-0.2,0-0.3-0.1-0.4-0.3c-1-2.3-2.6-6-2.9-6.4c-0.4-0.3-3.7-1.5-6.7-2.5
							c-0.2-0.1-0.3-0.2-0.3-0.4c0-0.2,0.1-0.3,0.3-0.4l5.3-1.7c0.1,0,0.2,0,0.2,0c0.5,0.1,5,1.4,6,2.3c0.8,0.7,3,5.4,3.5,6.4
							c0.1,0.2,0,0.5-0.2,0.6c-0.2,0.1-0.5,0-0.6-0.2c-1-2.1-2.8-5.6-3.3-6.1c-0.6-0.6-3.6-1.5-5.5-2l-3.9,1.3
							c2.7,0.9,5.6,1.9,5.9,2.3c0.4,0.5,2.6,5.6,3,6.6c0.1,0.2,0,0.5-0.2,0.6C102.6,123.9,102.5,123.9,102.5,123.9z"/>
					</g>
					<polygon id="XMLID_217_" class="st32" points="101.3,121.7 106.2,118.7 143.4,120.5 144.3,122.9 					"/>
					<path id="XMLID_216_" class="st17" d="M101,121.8l5.6,18.6c0.2,0.6,0.7,0.9,1.3,0.9l31.2-1c0.6,0,1.1-0.4,1.2-1l4-16.5
						L101,121.8z"/>
					<path id="XMLID_215_" class="st33" d="M109.4,129.6c2,4.2,6.5,5,10.7,4.8c9.1-0.5,17.1-4,22.4-11.6c0,0-33.2-0.8-33.2-0.8
						c-0.5,0-0.7,3.2-0.8,3.6C108.5,127,108.8,128.3,109.4,129.6z"/>
					<path id="XMLID_214_" class="st17" d="M139,150.7c-0.4-1.5-1.2-3-1.7-3.8c-0.3-0.4-0.8-0.9-1.9-0.9h-25.8
						c-0.4,0-1.1-0.1-1.4-0.5c-0.3-0.4-0.1-1.1,0.1-1.6c0.8-2,1.4-3.2,1.4-3.2l-1,0.1c0,0.1-0.5,0.8-1.2,2.8c-0.4,1-0.4,1.8,0,2.4
						c0.4,0.6,1.1,0.9,2.2,0.9h1.4v0.6c0,0.4,0.3,0.7,0.7,0.7h0.5c0.4,0,0.7-0.3,0.7-0.7v-0.6h17.1v0.6c0,0.4,0.3,0.7,0.7,0.7h0.5
						c0.4,0,0.7-0.3,0.7-0.7v-0.6h3.8c0.8,0,1,0.3,1.2,0.5c0.5,0.7,1.3,2.2,1.6,3.5c0.1,0.3,0.1,0.5-0.1,0.7c-0.2,0.3-0.8,0.3-1,0.3
						c-6,0.1-18.9,0.1-25.8,0c-2.1,0-3.6,0-4.4,0c-1.1,0-1.8-0.3-2.2-0.8c-0.4-0.5-0.3-1.3,0-2.2c0.8-2.1,3.3-8.2,3.3-8.2l-0.8-0.3
						c0,0-2.4,6.1-3.3,8.2c-0.6,1.5-0.3,2.5,0.1,3c0.5,0.8,1.6,1.2,2.9,1.2c0.5,0,1.3,0,2.4,0v0.6c0,0.4,0.3,0.7,0.7,0.7h0.5
						c0.4,0,0.7-0.3,0.7-0.7v-0.4c0.1-0.1,0.1-0.1,0.1-0.1c4,0,9.8,0.1,15.3,0.1c1.5,0,2.9,0,4.3,0v0.5c0,0.4,0.3,0.7,0.7,0.7h0.5
						c0.4,0,0.7-0.3,0.7-0.7v-0.5c1.7,0,3.2,0,4.5-0.1c0.4,0,1.2-0.1,1.7-0.7C139.1,151.7,139.1,151.2,139,150.7z"/>
					<g id="XMLID_191_">
						<path id="XMLID_213_" class="st3" d="M143,122.5l-3.9,15.9c-0.1,0.4-0.5,0.8-0.9,0.8l-14.6,0.5c1.1-1.2,2.3-2.4,3.4-3.7
							c0.1-0.1,0.1-0.2,0.1-0.3c-0.1-0.1-0.2,0-0.3,0.1c-1.2,1.2-2.4,2.5-3.6,3.7l0,0c0,0-0.1,0.1-0.1,0.1l-12.9,0.4
							c1.2-1.3,2.4-2.6,3.6-3.9c0.1-0.1,0.1-0.2,0.1-0.3c-0.1-0.1-0.2,0-0.3,0.1c-1.3,1.3-2.5,2.6-3.7,3.9l0,0
							c-0.1,0.1-0.1,0.1-0.1,0.2l-1.2,0c-0.4,0-0.9-0.3-1-0.7l-2.6-8.5c0.7-0.7,1.3-1.4,2-2.2c0-0.1,0-0.1,0-0.2
							c-0.1-0.1-0.1-0.1-0.2,0c-0.6,0.6-1.3,1.3-1.9,1.9l-2.8-9.1l-0.4,0.1l5.5,18c0.2,0.6,0.7,1,1.4,1c0,0,0,0,0,0l29.6-0.9
							c0.6,0,1.2-0.5,1.4-1.1l3.9-15.9L143,122.5z"/>
						<path id="XMLID_212_" class="st3" d="M107.4,128.4c0.1-0.1,0.2-0.2,0.3-0.3c0.1-0.1,0.2-0.2,0.2-0.3c0,0,0-0.1,0-0.2
							c0-0.1-0.1-0.1-0.2-0.1c-0.1,0.1-0.2,0.2-0.3,0.3c-0.1,0.1-0.2,0.2-0.2,0.3c0,0,0,0.1,0,0.2
							C107.2,128.5,107.3,128.5,107.4,128.4z"/>
						<path id="XMLID_211_" class="st3" d="M108.2,127.6c0.1,0,0.1,0,0.1,0c0,0,0-0.1,0-0.1c0,0,0,0,0,0c0-0.1-0.1-0.2-0.2-0.2
							c-0.1,0-0.1,0-0.1,0c0,0,0,0.1,0,0.1c0,0,0,0,0,0C108,127.5,108.1,127.6,108.2,127.6z"/>
						<path id="XMLID_210_" class="st3" d="M111.7,123.8c0.9-0.9,1.7-1.8,2.6-2.7l0,0c0.1-0.1,0.1-0.2,0-0.3c-0.1-0.1-0.2-0.1-0.3,0
							c-0.8,0.9-1.7,1.8-2.5,2.8c0,0.1,0,0.1,0,0.2C111.6,123.8,111.7,123.8,111.7,123.8z"/>
						<path id="XMLID_209_" class="st3" d="M111.3,124.3c0.1,0,0.1,0,0.1,0c0,0,0-0.1,0-0.1c0,0,0,0,0,0c0-0.1-0.1-0.2-0.2-0.2
							c-0.1,0-0.1,0-0.1,0c0,0,0,0.1,0,0.1c0,0,0,0,0,0C111.1,124.2,111.2,124.3,111.3,124.3z"/>
						<path id="XMLID_208_" class="st3" d="M110.8,124.8c0.1,0,0.1,0,0.1,0c0,0,0-0.1,0-0.1c0,0,0,0,0,0c0-0.1-0.1-0.2-0.2-0.2
							c-0.1,0-0.1,0-0.1,0c0,0,0,0.1,0,0.1c0,0,0,0,0,0C110.6,124.7,110.7,124.8,110.8,124.8z"/>
						<path id="XMLID_207_" class="st3" d="M110.3,125.3c0.1,0,0.1,0,0.1,0c0,0,0-0.1,0-0.1c0,0,0,0,0,0c0-0.1-0.1-0.2-0.2-0.2
							c-0.1,0-0.1,0-0.1,0c0,0,0,0.1,0,0.1c0,0,0,0,0,0C110.1,125.2,110.2,125.3,110.3,125.3z"/>
						<path id="XMLID_206_" class="st3" d="M108.7,127c0.2-0.2,0.4-0.4,0.6-0.6c0.2-0.2,0.4-0.4,0.6-0.7c0-0.1,0-0.1,0-0.2
							c-0.1-0.1-0.2-0.1-0.2,0c-0.2,0.2-0.4,0.4-0.6,0.6c-0.2,0.2-0.4,0.4-0.6,0.7c0,0.1,0,0.1,0,0.2
							C108.6,127.1,108.7,127.1,108.7,127z"/>
						<path id="XMLID_205_" class="st3" d="M114.2,135.6c0,0.1,0.2,0.1,0.3,0c0.2-0.1,0.4-0.3,0.5-0.5c0.2-0.2,0.3-0.4,0.5-0.6
							c0.1-0.1,0.1-0.2,0.1-0.2c0-0.1-0.2-0.1-0.3,0c-0.2,0.1-0.4,0.3-0.5,0.5c-0.2,0.2-0.3,0.4-0.5,0.6
							C114.2,135.4,114.2,135.5,114.2,135.6z"/>
						<path id="XMLID_204_" class="st3" d="M115.9,134c0.1,0,0.1-0.1,0.2-0.1c0-0.1,0.1-0.1,0.1-0.2c0,0,0,0,0,0
							c0-0.2-0.1-0.3-0.2-0.2c-0.1,0-0.1,0.1-0.2,0.1c0,0.1-0.1,0.1-0.1,0.2c0,0,0,0,0,0C115.6,134,115.7,134.1,115.9,134z"/>
						<path id="XMLID_203_" class="st3" d="M122.4,127.1c1.6-1.6,3.1-3.2,4.6-4.9l0,0c0.1-0.1,0.2-0.3,0.1-0.4
							c-0.1-0.1-0.2,0-0.4,0.1c-1.5,1.6-3,3.3-4.6,5c-0.1,0.1-0.1,0.2-0.1,0.3C122.1,127.2,122.3,127.2,122.4,127.1z"/>
						<path id="XMLID_202_" class="st3" d="M121.5,128c0.1,0,0.1-0.1,0.2-0.1c0-0.1,0.1-0.1,0.1-0.2c0,0,0,0,0,0
							c0-0.2-0.1-0.3-0.2-0.2c-0.1,0-0.1,0.1-0.2,0.1c0,0.1-0.1,0.1-0.1,0.2c0,0,0,0,0,0C121.3,127.9,121.4,128,121.5,128z"/>
						<path id="XMLID_201_" class="st3" d="M120.7,128.9c0.1,0,0.1-0.1,0.2-0.1c0-0.1,0.1-0.1,0.1-0.2c0,0,0,0,0,0
							c0-0.2-0.1-0.3-0.2-0.2c-0.1,0-0.1,0.1-0.2,0.1c0,0.1-0.1,0.1-0.1,0.2c0,0,0,0,0,0C120.4,128.9,120.5,129,120.7,128.9z"/>
						<path id="XMLID_200_" class="st3" d="M119.8,129.8c0.1,0,0.1-0.1,0.2-0.1c0-0.1,0.1-0.1,0.1-0.2c0,0,0,0,0,0
							c0-0.2-0.1-0.3-0.2-0.2c-0.1,0-0.1,0.1-0.2,0.1c0,0.1-0.1,0.1-0.1,0.2c0,0,0,0,0,0C119.6,129.8,119.7,129.9,119.8,129.8z"/>
						<path id="XMLID_199_" class="st3" d="M116.9,133c0.4-0.4,0.7-0.7,1.1-1.1c0.4-0.4,0.7-0.8,1-1.2c0.1-0.1,0.1-0.2,0.1-0.3
							c0-0.1-0.2,0-0.3,0.1c-0.4,0.4-0.7,0.7-1.1,1.1c-0.4,0.4-0.7,0.8-1,1.2c-0.1,0.1-0.1,0.2-0.1,0.3
							C116.6,133.1,116.8,133.1,116.9,133z"/>
						<path id="XMLID_198_" class="st3" d="M127.6,135.4c0.2-0.1,0.3-0.3,0.5-0.5c0.2-0.2,0.3-0.3,0.4-0.5c0.1-0.1,0.1-0.2,0-0.2
							c0-0.1-0.2-0.1-0.3,0c-0.2,0.1-0.3,0.3-0.5,0.5c-0.2,0.2-0.3,0.3-0.4,0.5c-0.1,0.1-0.1,0.2,0,0.2
							C127.4,135.5,127.5,135.5,127.6,135.4z"/>
						<path id="XMLID_197_" class="st3" d="M129,133.9c0.1,0,0.1-0.1,0.2-0.1c0,0,0.1-0.1,0.1-0.2c0,0,0,0,0,0
							c0-0.2-0.1-0.2-0.2-0.2c-0.1,0-0.1,0.1-0.2,0.1c0,0-0.1,0.1-0.1,0.2c0,0,0,0,0,0C128.7,133.9,128.8,134,129,133.9z"/>
						<path id="XMLID_196_" class="st3" d="M135.1,127.3c1.5-1.5,3-3.1,4.4-4.7l0,0c0.1-0.1,0.2-0.3,0.1-0.4c-0.1-0.1-0.2,0-0.4,0.1
							c-1.5,1.6-2.9,3.2-4.3,4.7c-0.1,0.1-0.1,0.2-0.1,0.3C134.9,127.4,135,127.4,135.1,127.3z"/>
						<path id="XMLID_195_" class="st3" d="M134.3,128.2c0.1,0,0.1-0.1,0.2-0.1c0,0,0.1-0.1,0.1-0.2c0,0,0,0,0,0
							c0-0.2-0.1-0.2-0.2-0.2c-0.1,0-0.1,0.1-0.2,0.1c0,0-0.1,0.1-0.1,0.2c0,0,0,0,0,0C134.1,128.1,134.2,128.2,134.3,128.2z"/>
						<path id="XMLID_194_" class="st3" d="M133.5,129c0.1,0,0.1-0.1,0.2-0.1c0,0,0.1-0.1,0.1-0.2c0,0,0,0,0,0
							c0-0.2-0.1-0.2-0.2-0.2c-0.1,0-0.1,0.1-0.2,0.1c0,0-0.1,0.1-0.1,0.2c0,0,0,0,0,0C133.3,129,133.4,129.1,133.5,129z"/>
						<path id="XMLID_193_" class="st3" d="M132.7,129.9c0.1,0,0.1-0.1,0.2-0.1c0,0,0.1-0.1,0.1-0.2c0,0,0,0,0,0
							c0-0.2-0.1-0.2-0.2-0.2c-0.1,0-0.1,0.1-0.2,0.1c0,0-0.1,0.1-0.1,0.2c0,0,0,0,0,0C132.4,129.9,132.5,130,132.7,129.9z"/>
						<path id="XMLID_192_" class="st3" d="M129.9,132.9c0.4-0.3,0.7-0.7,1.1-1.1c0.3-0.4,0.7-0.7,1-1.1c0.1-0.1,0.1-0.2,0.1-0.3
							c0-0.1-0.2,0-0.3,0.1c-0.4,0.3-0.7,0.7-1.1,1.1c-0.3,0.4-0.7,0.7-1,1.1c-0.1,0.1-0.1,0.2-0.1,0.3
							C129.7,133,129.8,133,129.9,132.9z"/>
					</g>
					<polygon id="XMLID_190_" class="st33" points="112.3,151.9 113.8,146.5 129.9,146.5 130.8,151.9 					"/>
					<g id="XMLID_185_">
						<circle id="XMLID_189_" class="st7" cx="108.1" cy="157.2" r="3.4"/>
						<circle id="XMLID_188_" class="st30" cx="108.1" cy="157.2" r="2"/>
						<path id="XMLID_187_" class="st31" d="M106.8,156.9l1.2-3.1c0.1-0.2,0.2-0.3,0.4-0.3h4c0.4,0,0.6,0.4,0.3,0.7l-3.6,3.9
							c-0.3,0.3-0.8,0.4-1.2,0.3l-0.4-0.1C106.9,158.1,106.5,157.5,106.8,156.9z"/>
						<circle id="XMLID_186_" class="st7" cx="108.1" cy="157.2" r="0.8"/>
					</g>
					<g id="XMLID_180_">
						<circle id="XMLID_184_" class="st7" cx="134" cy="157.2" r="3.4"/>
						<circle id="XMLID_183_" class="st30" cx="134" cy="157.2" r="2"/>
						<path id="XMLID_182_" class="st31" d="M135.4,156.9l-1.2-3.1c-0.1-0.2-0.2-0.3-0.4-0.3h-4c-0.4,0-0.6,0.4-0.3,0.7l3.6,3.9
							c0.3,0.3,0.8,0.4,1.2,0.3l0.4-0.1C135.3,158.1,135.6,157.5,135.4,156.9z"/>
						<circle id="XMLID_181_" class="st7" cx="134" cy="157.2" r="0.8"/>
					</g>
				</g>
				<g id="XMLID_174_">
					<circle id="XMLID_178_" class="st4" cx="143" cy="121.4" r="7.7"/>
					<g id="XMLID_175_">
						<path id="XMLID_176_" class="st7" d="M144.4,117.3v6.8h1.3c0.3,0,0.4,0.2,0.4,0.6v0.2c0,0.4-0.1,0.6-0.4,0.6H141
							c-0.3,0-0.4-0.2-0.4-0.6v-0.2c0-0.4,0.1-0.6,0.4-0.6h1.6v-5.4l-1.6,0.2c-0.3,0-0.4-0.7-0.4-1c0-0.2,0.1-0.3,0.3-0.3l3-0.6
							C144.1,117,144.4,117.1,144.4,117.3z"/>
					</g>
				</g>
			</g>
			<g id="XMLID_168_">
				<polygon id="XMLID_172_" class="st5" points="112.2,115.6 112.2,121.6 126.5,122 126.5,115 				"/>
				<polygon id="XMLID_171_" class="st34" points="126.5,115 126.5,122 133.3,122.2 133.3,116.2 				"/>
				<polygon id="XMLID_170_" class="st4" points="111.8,114.4 126.8,113.8 126.8,115.8 111.8,116.4 				"/>
				<polygon id="XMLID_169_" class="st5" points="126.8,115.8 133.8,117 133.8,115.1 126.8,113.8 				"/>
			</g>
		</g>
		<g id="XMLID_165_">
			<ellipse id="XMLID_166_" class="st22" cx="79.2" cy="157.2" rx="20.7" ry="1.2"/>
		</g>
		<g id="XMLID_103_">
			<g id="XMLID_155_">
				<g id="XMLID_159_">
					<path id="XMLID_164_" class="st29" d="M89.1,143.5c0.3,3.3,3.1,8.2,4.2,10.9c0.3,0.8,1.8,0.4,1.7-0.5c-0.6-2.9-1-8.7-1.2-11.6
						C93.5,138.8,88.8,140.4,89.1,143.5z"/>
					<g id="XMLID_160_">
						<defs>
							<path id="XMLID_161_" d="M93.4,154.4c0,0-0.3,0.9,0.2,2.1c-0.1,0,0,0.5,0.2,0.5c0.2,0.1,1.7,0.1,2.1-0.2c0.1-0.1,0-0.3,0-0.3
								s0.4,0.1,1.5-0.1c1.1-0.2,1.7-0.5,2.1-0.8c0.1-0.1,0-0.4-0.1-0.3c0,0-0.1-0.8-0.7-0.7c-1.3,0.1-2.2-0.4-2.9-0.8
								c-0.3-0.2-0.7-0.4-0.9-0.4C94.3,153.5,93.6,153.8,93.4,154.4z"/>
						</defs>
						<use xlink:href="#XMLID_161_"  style="overflow:visible;fill:#EC1B38;"/>
						<clipPath id="XMLID_7_">
							<use xlink:href="#XMLID_161_"  style="overflow:visible;"/>
						</clipPath>
						<path id="XMLID_163_" class="st35" d="M93.6,156.6c0.9,0.1,2.2,0,2.2,0s2.5,0,3.5-1c1-1,1.8,0.1,1.8,0.1l-4.1,3.2l-2.7-0.2
							l-1.2-1C93.2,157.6,93.1,156.5,93.6,156.6z"/>
						<path id="XMLID_162_" class="st36" d="M93.2,154.5c0,0,0.4,0.6,1.1,0.5s0.8-0.6,0.6-1.4C94.8,152.8,92.4,153.3,93.2,154.5z"/>
					</g>
				</g>
				<g id="XMLID_156_">
					<path id="XMLID_158_" class="st37" d="M78.3,119.8c0,0,4.8,8.6,6.4,12.1c1.6,3.5,3.6,12.2,3.6,12.2s3.9,0.8,6-1
						c0,0-0.7-9.1-1.8-13.3c-1.1-4.1-5.4-14.2-5.4-14.2C85.3,112,76.6,116.1,78.3,119.8z"/>
					<path id="XMLID_157_" class="st30" d="M82.2,126.5c0.1-0.1,0.4-1.6,1.3-3.3c0.8-1.5,2.9-2.6,3.1-2.4c0.4,0.3-2.6,2.6-3.2,4.2
						c0,0,3.4-2.5,3.6-2.1C87.2,123.1,83.5,125.2,82.2,126.5z"/>
				</g>
			</g>
			<g id="XMLID_152_">
				<path id="XMLID_154_" class="st15" d="M81.7,98.6c0.8,3.6,2,8.5,4.7,10.8c2.7,2.4,8.5,3.7,8.8,3.7c0.7,0.2,1.3-3.3,0.8-3.7
					c-0.5-0.4-5.1-2.3-5.9-3c-1.5-1.4-0.8-10-2.5-11.9C86,92.6,80.8,94.4,81.7,98.6z"/>
				<path id="XMLID_153_" class="st38" d="M96.4,110c0,0,2.1,1.7,2.2,2.2c0.1,0.5,0.1,1.2-0.1,1.4c-0.2,0.2-1.4,0.8-1.9,0.5
					s-1.1-1.1-1.1-1.1l0.2-0.8c0,0-0.2,0.6-1.4-0.2C93,111.2,95.2,108.8,96.4,110z"/>
			</g>
			<g id="XMLID_142_">
				<g id="XMLID_146_">
					<path id="XMLID_151_" class="st29" d="M67.8,141.1c-2.5,2.2-4.7,7.4-6.3,9.9c-0.5,0.7,0.8,1.7,1.4,1c2-2.2,6.4-5.9,8.6-7.9
						C74.2,141.7,70.2,138.9,67.8,141.1z"/>
					<g id="XMLID_147_">
						<defs>
							<path id="XMLID_148_" d="M61.8,150.7c0,0-0.9,0.2-1.7,1.4c-0.1-0.1-0.4,0.2-0.4,0.4c0,0.2,0.9,1.5,1.3,1.6
								c0.1,0,0.2-0.2,0.2-0.2s0.1,0.4,0.9,1.2c0.8,0.8,1.3,1.1,1.8,1.3c0.1,0.1,0.3-0.2,0.2-0.3c0,0,0.6-0.5,0.2-1
								c-0.8-1-0.8-2.1-0.9-2.9c0-0.4-0.1-0.8-0.2-0.9C63.1,150.9,62.4,150.5,61.8,150.7z"/>
						</defs>
						<use xlink:href="#XMLID_148_"  style="overflow:visible;fill:#EC1B38;"/>
						<clipPath id="XMLID_8_">
							<use xlink:href="#XMLID_148_"  style="overflow:visible;"/>
						</clipPath>
						<path id="XMLID_150_" class="st39" d="M60.2,152c0.4,0.8,1.2,1.8,1.2,1.8s1.4,2.1,2.8,2.3c1.4,0.3,0.9,1.6,0.9,1.6l-4.9-1.6
							l-1.3-2.3l0.2-1.5C59.1,152.2,59.9,151.6,60.2,152z"/>
						<path id="XMLID_149_" class="st40" d="M61.7,150.5c0,0-0.3,0.6,0.2,1.2s0.9,0.3,1.5-0.2C63.9,150.9,62.2,149.3,61.7,150.5z"/>
					</g>
				</g>
				<g id="XMLID_143_">
					<path id="XMLID_145_" class="st7" d="M73.2,116.5c0,0,0.7,12.6-0.8,15.9c-1.4,3.3-5.1,8.7-5.1,8.7s1,3.1,4.7,3.6
						c0,0,5.6-4,7.8-9.9c2.2-6,4.1-12.6,3.2-17.5C82.6,114.5,73.9,112.5,73.2,116.5z"/>
					<path id="XMLID_144_" class="st41" d="M74.9,116.4c0,0,0.1,10.5-0.4,14.5c-0.5,3.9-6.5,11.2-6.5,11.2"/>
				</g>
			</g>
			<g id="XMLID_107_">
				<g id="XMLID_113_">
					<path id="XMLID_140_" class="st3" d="M87.3,94.8c1,1.9-0.8,9.3-0.8,12.5c0,2.6,0.4,7,0.8,8.6c0.1,0.4-0.1,0.9-0.5,1.1
						c-1.5,0.9-3.5,1.3-4.7,1.5c-4.7,0.5-7-0.4-8.1-0.8c-0.6-0.2-0.9-0.8-0.8-1.4c0.2-1.6,0.9-5.5,0.3-9.1c-0.8-4.7-2-11.1,0.2-13.1
						c2.2-2,6.4-3.2,6.4-3.2S86.1,92.4,87.3,94.8z"/>
					<g id="XMLID_115_">
						<path id="XMLID_139_" class="st30" d="M81.1,88.8c0,0-1.1-0.2-2.5-2c-1-1.2-2.3-6.6,1.9-7.4c4.2-0.8,5.5,2,5.6,3.9
							c0.2,1.9-1.9,3.4-2.8,4.1C82.4,88.1,81.1,88.8,81.1,88.8z"/>
						<path id="XMLID_138_" class="st29" d="M80.1,86.6c0,0-0.1,1.6-0.6,2.9c-0.5,1.3-1,1.7-1.6,2.2c-0.6,0.5,2.4,3.8,5.1,4.6
							c0,0,2-2.4,1.1-3.7c-0.9-1.3-1.6-1.4-1.3-3.2c0.3-1.5,0.4-2.4,0.4-2.4L80.1,86.6z"/>
						<g id="XMLID_116_">
							<g id="XMLID_134_">
								<g id="XMLID_136_">
									<path id="XMLID_137_" class="st42" d="M80.1,86.6c0,0-0.1,1.2,0.3,1.7c0.5,0.5,1.4,1.8,3.3,1.6c2.6-0.2,1.6-4.4,1.6-4.4
										s0.3-1.6,0-2.9c-0.3-1.3-2.9-2-5-1.4c0,0-0.6,0.6-0.4,3.2c0,0-0.4-0.5-1-0.1c-0.5,0.3-0.5,0.9-0.4,1.4
										C78.8,86.4,79.5,87,80.1,86.6z"/>
								</g>
								<path id="XMLID_135_" class="st43" d="M79.9,86.4l-0.2-0.6l0.4-0.2c0,0-0.3-1.2-0.9-0.7C78.6,85.2,79.2,86.6,79.9,86.4z"/>
							</g>
							<path id="XMLID_133_" class="st30" d="M80.2,85.4c0,0-0.3,1.6-0.2,2.4c0,0.7,0.8,3,4.1,2.8c3.3-0.2,2.1-3.8,1.6-4
								c0,0.2-0.1,0.6-0.3,0.8c-0.1-0.3-0.5-0.6-1.1-0.5c-0.5-0.3-1-0.1-1.6,0.2l-0.4,0.3c-1-0.3-1.6-0.9-1.7-1.9L80.2,85.4z"/>
							<g id="XMLID_127_">
								<path id="XMLID_56_" class="st3" d="M83,87.5c0,0,1.7,0,1.8,0.1c0,0.1-0.2,0.4-0.9,0.4C83.2,88,83,87.5,83,87.5z"/>
								<path id="XMLID_32_" class="st43" d="M83,87.3c0,0,0.2,0,0.6,0c0.2,0,0.4,0,0.6,0c0.1,0,0.2,0,0.4,0c0.1,0,0.1,0,0.2,0.1
									c0.1,0.1,0,0.2,0,0.3C84.6,88,84.3,88,84.1,88c-0.2,0-0.5,0-0.7-0.1l-0.6-0.6L83,87.3z M83.2,87.6l0-0.2
									c0,0,0.1,0.2,0.4,0.4c0.1,0.1,0.3,0.1,0.6,0.1c0.2,0,0.5,0,0.6-0.2c0,0,0-0.1,0,0c0,0-0.1,0-0.2,0c-0.1,0-0.2,0-0.3,0
									c-0.2,0-0.4,0-0.6,0C83.4,87.6,83.3,87.6,83.2,87.6z"/>
							</g>
							<g id="XMLID_124_">
								<path id="XMLID_126_" class="st30" d="M83.2,85.3c0,0.1-0.2,0.2-0.4,0.1c-0.2,0-0.4-0.1-0.4-0.2c0-0.1,0.2-0.2,0.4-0.2
									C83.1,85.1,83.3,85.2,83.2,85.3z"/>
								<path id="XMLID_125_" class="st30" d="M81.7,84.6c0,0,0.7-0.2,0.9-0.2c0.2,0,1,0.1,1.1,0.1c0.1-0.1,0.1-0.4,0.1-0.4
									s-1.1-0.1-1.3,0C82.2,84.1,81.8,84.4,81.7,84.6z"/>
							</g>
							<g id="XMLID_121_">
								<path id="XMLID_123_" class="st30" d="M85.4,85.5c0,0.1-0.2,0.2-0.4,0.1c-0.2,0-0.4-0.1-0.4-0.2c0-0.1,0.2-0.2,0.4-0.2
									S85.4,85.4,85.4,85.5z"/>
								<path id="XMLID_122_" class="st30" d="M85.7,85c0,0-0.3-0.3-0.4-0.4c-0.1,0-0.8,0-0.9-0.1c0-0.1,0-0.4,0-0.4
									s0.9,0.1,1.1,0.2C85.6,84.4,85.7,84.8,85.7,85z"/>
							</g>
							<g id="XMLID_118_">
								<path id="XMLID_120_" class="st44" d="M84.2,86.8c0,0-0.5,0-0.5-0.2c0-0.1,1.1-0.3,1.2-0.2C84.9,86.5,84.4,86.7,84.2,86.8z"
									/>
								<path id="XMLID_119_" class="st43" d="M84.3,84.5c0,0-0.2,0.7-0.1,0.9c0.1,0.2,0.6,0.8,0.6,0.9c0,0.1-0.6,0.4-0.6,0.4
									c0,0,0.8-0.1,0.8-0.4c0-0.3-0.7-0.9-0.7-1.1C84.3,85.2,84.3,84.5,84.3,84.5z"/>
							</g>
							<path id="XMLID_117_" class="st30" d="M80.4,85.6c0.2-0.1,0.4-1.1,0.2-2c-0.3-0.8,0.4-1.5,0.9-1.5c0.5-0.1,2.3,0.4,3,0.4
								c1.5-0.2,2.7-0.6,2.7-0.9c0-0.3-1.1,0-1.1,0s1.7-0.4,1.5-1.8c0,0-1.3,0.1-2.4-0.3c-1.1-0.4-3.9-0.8-5.3,0.2
								c-0.9,0.7-1.6,3-0.4,4.2C80,84.3,80.1,85.9,80.4,85.6z"/>
						</g>
					</g>
					<path id="XMLID_114_" class="st45" d="M84.3,94.8c0,0-0.7,14.3-0.6,15.7c0.2,1.3-0.1,6.5,3.2,7.5c0,0-1.5-7.5-1.3-12
						C85.9,101.6,84.3,94.8,84.3,94.8z"/>
				</g>
				<path id="XMLID_112_" class="st17" d="M83.3,91.6c0,0,1.4,4.5,1.3,10.3c-0.1,5.9-0.3,17.9,4,17.6c0,0-1.8-7.4-1.7-10.1
					c0.1-2.7,1.6-12.5,1-14.2C87.2,92.8,83.3,91.6,83.3,91.6z"/>
				<g id="XMLID_108_">
					<path id="XMLID_111_" class="st17" d="M78.3,91.4c0,0,2.9,4.6,3.9,12.3c0.4,3.7-0.1,9.5-0.6,13.3c-0.6,4.3-9.1,4.3-9.6,3.2
						c-0.5-1.1,1.9-8.3,1.1-12.3c-0.8-4.1-1.2-10.7-0.3-12.9C73.7,92.7,78.3,91.4,78.3,91.4z"/>
					<path id="XMLID_110_" class="st46" d="M74.1,99.1c0,0,1.4,6.9,1.3,10.6c-0.2,3.7-1.3,11.1-1.3,11.1"/>
					<path id="XMLID_109_" class="st15" d="M73.1,95.5c-0.2,0.4-0.3,1.1-0.4,1.8c0.8,6,4.2,12.8,9.4,15.2c0.2-2,0.3-4,0.2-5.9
						c-3.5-3.5-6.2-8-8.2-12.4C73.7,94.6,73.3,95,73.1,95.5z"/>
				</g>
			</g>
			<g id="XMLID_104_">
				<path id="XMLID_106_" class="st29" d="M93.5,111.2c0,0,2.6,0.6,2.9,1c0.3,0.4,0.8,1.6,0.8,1.8c-0.1,0.2-1.4,0.8-2,0.7
					c-0.6-0.1-1.2-0.4-1.2-0.4c0.1-0.3,0.1-0.6-0.3-0.7c-0.3-0.1-0.7,0.1-1.3,0.3C91.1,114.6,91.9,110.7,93.5,111.2z"/>
				<path id="XMLID_105_" class="st33" d="M72.7,98.7c0.7,3.9,5.6,9.6,7.8,11.5c1.9,1.6,11,4.3,11.4,4.3c0.9,0.2,2.1-3.2,1.4-3.6
					c-0.7-0.4-8.9-4.2-9.8-5.2c-0.9-1-4.1-9.7-6.4-11.7C74.7,91.9,71.9,94.3,72.7,98.7z"/>
			</g>
		</g>
	</g>
	<g id="XMLID_97_">
		<g id="XMLID_100_">
			<path id="XMLID_101_" class="st47" d="M221.8,92.4c3.8-5.4,7.6-4.2,9.1-2c1.4,2.3,0.4,5.7-2.6,8.5c-2.1,2.1-6.4,3.6-9.8,4.4
				c-2.4-2.6-5.1-6.2-5.7-9.1c-0.9-4,0.1-7.4,2.6-8.5C217.8,84.7,221.7,85.9,221.8,92.4z"/>
		</g>
		<g id="XMLID_98_" class="st48">
			<path id="XMLID_99_" class="st49" d="M230.8,90.5c-1.2-1.9-4.2-3.1-7.4,0c2.7-2.1,6.6-2.2,7,1.7c0.4,4.1-2.9,6.9-6.7,6.2
				c-5-0.9-3.8-5.1-6.1-7.2c-1.9-1.6-4,0.8-4.1,2.7c0,0.9,0,1.8,0.2,2.6c1.1,2.4,3.1,4.9,4.9,6.8c3.4-0.8,7.7-2.3,9.8-4.4
				C231.2,96.2,232.3,92.8,230.8,90.5z"/>
		</g>
	</g>
	<g id="XMLID_37_">
		<ellipse id="XMLID_96_" class="st22" cx="175.8" cy="156.8" rx="20.7" ry="1.2"/>
		<g id="XMLID_38_">
			<g id="XMLID_39_">
				<g id="XMLID_75_">
					<g id="XMLID_88_">
						<g id="XMLID_91_">
							<g id="XMLID_93_">
								<defs>
									<path id="XMLID_94_" d="M179.6,152.1c0,0,0.9,0.8,1,1c0.1,0.2,0.7,1.8,0.7,1.8c-0.1,0.2-0.5,0.6-0.9,0.6l-0.7-0.9
										c0,0-0.4,1.6-0.7,2.1c-0.4,0.6-2.9,1.3-3.3,1.1c0,0-0.5-0.9,0.3-1.4c1.4-0.9,1.5-2.9,1.5-2.9
										C177.3,152.3,178.6,151.5,179.6,152.1z"/>
								</defs>
								<use xlink:href="#XMLID_94_"  style="overflow:visible;fill:#F26244;"/>
								<clipPath id="XMLID_11_">
									<use xlink:href="#XMLID_94_"  style="overflow:visible;"/>
								</clipPath>
								<path id="XMLID_95_" class="st50" d="M175.5,157.6c0,0,3.2-0.4,3.6-1.4c0.3-0.7,0.5-1.9,0.7-2.1c0.2-0.1,1-1.1,1-1.1
									l1.3,2.2l-4.7,4L175.5,157.6z"/>
							</g>
							<path id="XMLID_92_" class="st51" d="M177,155.5l0.4,0.1c0,0,0.3-0.4,0.3-0.8l-0.4-0.1c-0.1,0-0.2,0-0.2,0.1l-0.2,0.6
								C176.8,155.4,176.9,155.5,177,155.5z"/>
						</g>
						<path id="XMLID_90_" class="st29" d="M174.1,108.8c0-0.2-4,17.6-3.8,22.3c0.1,3,5.6,16.6,7.3,22.4c0.3,1.1,2-0.2,1.9-1.3
							c-0.6-5.5-0.6-8.4-3-20.4c-0.4-1.9,6.3-18.6,5.8-22.5C181.7,105.3,176.2,103.1,174.1,108.8z"/>
						<path id="XMLID_89_" class="st52" d="M182.2,109.2c-0.5-3.9-6-6.1-8.1-0.4c0-0.1-3.6,15.9-3.8,21.5c1.8-1.4,4.2-0.6,6.2,0.4
							C177.3,126.7,182.7,112.7,182.2,109.2z"/>
					</g>
					<g id="XMLID_80_">
						<g id="XMLID_83_">
							<g id="XMLID_85_">
								<defs>
									<path id="XMLID_86_" d="M185.3,153.3c0,0,0.5,1,0.6,1.3c0.1,0.2,0,1.9,0,1.9c-0.2,0.2-0.7,0.3-1,0.3l-0.3-1.1
										c0,0-0.5,1.1-1,1.4c-0.6,0.4-2.8,0.9-3.2,0.8c0,0-0.5-1,0.3-1.4c2.1-1.1,2.2-2.5,2.2-2.5
										C183.1,152.7,184.6,152.3,185.3,153.3z"/>
								</defs>
								<use xlink:href="#XMLID_86_"  style="overflow:visible;fill:#F26244;"/>
								<clipPath id="XMLID_12_">
									<use xlink:href="#XMLID_86_"  style="overflow:visible;"/>
								</clipPath>
								<path id="XMLID_87_" class="st53" d="M180.1,157.6c0,0,2.6-0.2,3.2-0.7c0.6-0.5,1.1-1.6,1.4-1.7c0.2-0.1,1.3-0.7,1.3-0.7
									l0.4,2.5l-5.8,2L180.1,157.6z"/>
							</g>
							<path id="XMLID_84_" class="st51" d="M181.7,155.7l0.4,0.2c0,0,0.4-0.3,0.5-0.6l-0.3-0.3c-0.1-0.1-0.2,0-0.2,0l-0.4,0.5
								C181.7,155.5,181.7,155.6,181.7,155.7z"/>
						</g>
						<path id="XMLID_82_" class="st29" d="M178,109.9c0,1.5,0.2,18,1.6,22.5c0.9,2.8,2.7,16.3,3.4,20.9c0.2,1.7,2.1,1.7,2.2,0.1
							c0.5-6,2.4-14.2,0.2-21.5c-0.5-1.8,2-20.6,0.4-24.2C184.3,104.1,178.2,104.2,178,109.9z"/>
						<path id="XMLID_81_" class="st52" d="M185.4,130.6c0.1-4.6,1.9-19.8,0.5-22.9c-1.6-3.6-7.7-3.4-7.8,2.3
							c0,1.4,0.2,15.5,1.3,21.2C181.1,130.1,183.4,130,185.4,130.6z"/>
					</g>
					<g id="XMLID_76_">
						<path id="XMLID_79_" class="st17" d="M174.3,106.9l-0.2,1.6c0,0-2.9,7.3-4.1,19.2c3.1-0.9,8.9,2,17.5,0.8c0,0,3.4-15.2-2.5-22
							C179,99.7,174.6,103.3,174.3,106.9z"/>
						<path id="XMLID_78_" class="st15" d="M174.3,108.4c0,0-0.2,2.3,3.7,2.7c3.9,0.4,7.9-2.4,7.8-3.3
							C185.7,107,174.3,108.4,174.3,108.4z"/>
						<path id="XMLID_77_" class="st54" d="M184,107.3c0,0,4.5,7.5,1.7,20.9"/>
					</g>
				</g>
				<g id="XMLID_40_">
					<g id="XMLID_72_">
						<path id="XMLID_74_" class="st29" d="M158.2,102.6c0,0-1.7-0.1-2,0c-0.3,0.1-0.9,0.4-1.1,0.5c-0.5,0.2,0,0.6,0.3,0.5
							c0.5,0,0.7-0.1,0.9-0.1c0.1,0,0.2,0,0.3,0.1c-0.2,0.2-0.9,0.7-1.5,0.9c-0.3,0.1-0.6,0.2-1.1,0.4c-0.2,0.1-0.2,0.3,0.1,0.4
							c0.2,0,0.7,0,1.2-0.2c0.2-0.1,0.4-0.2,0.6-0.2c0,0-0.4,0.3-0.6,0.4c-0.3,0.1-0.6,0.2-1.1,0.4c-0.2,0.1-0.1,0.3,0.1,0.3
							c0.1,0,0.2,0,0.3,0c-0.1,0.1,0,0.3,0.2,0.3c0.1,0,0.3,0,0.5,0c0,0.1,0.1,0.1,0.2,0.1c1.7,0,2.7-0.9,3.6-1.1
							C160.6,103.6,159.3,102.8,158.2,102.6z"/>
						<path id="XMLID_73_" class="st37" d="M177.6,90.7c-1.1-0.6-3.1-0.9-4.6,1.3s-2.2,7.3-3.8,9c-1,1-9.7,1.3-10.3,1.6
							c-0.4,0.2-0.2,2.1,0,2.5c0.3,0.8,9.7,1.2,12.3,0.1C173.7,104.3,180,92.1,177.6,90.7z"/>
					</g>
					<path id="XMLID_71_" class="st30" d="M173.9,81c0.1-0.8,0.1-2.1,1-3.3c0.9-1.1,4.6-2.3,6.6-1c2.4,1.6,1.6,3.2,4.6,4.4
						c3,1.2,2.1,2.5,1.2,3.9c-0.8,1.4-0.5,1.6,0.8,3c1.4,1.4,3.2,4.9,0,7c-3.2,2-10.1,0.7-12.8-2c-2.8-2.7,0.5-4.4-0.3-6
						c-0.8-1.6-1.7-1.2-1.7-2.9C173.3,82.8,173.8,82.2,173.9,81z"/>
					<path id="XMLID_70_" class="st7" d="M179.9,88.8c0,0-6.3,1-6.5,3c-0.1,0.8,1,2.4,0.7,3.2c-0.4,1.2-1.1,1.9,0.1,4.7
						c1,2.3-0.7,7.1-0.7,7.6c0.2,2.1,3.6,2.5,4.9,2.5c2,0,7.6-1.3,7.6-2.6c0-1.1-2.6-3.4-2.9-5.2c-0.3-1.8,4.5-9.2,3.6-10.8
						C185.1,88.1,179.9,88.8,179.9,88.8z"/>
					<g id="XMLID_67_">
						<path id="XMLID_69_" class="st29" d="M185.9,108.6c0,0-1.6,0.4-1.9,0.6c-0.2,0.1-0.8,0.7-0.9,0.8c-0.4,0.4,0.2,0.5,0.5,0.4
							c0.4-0.2,0.6-0.3,0.8-0.4c0.1,0,0.2,0,0.3,0c-0.1,0.2-0.7,0.9-1.1,1.3c-0.3,0.2-0.5,0.4-0.9,0.7c-0.2,0.1-0.1,0.4,0.2,0.3
							c0.2,0,0.7-0.2,1.1-0.5c0.2-0.1,0.3-0.3,0.5-0.4c0,0-0.3,0.4-0.5,0.5c-0.2,0.2-0.5,0.4-0.9,0.7c-0.2,0.1,0,0.3,0.2,0.3
							c0.1,0,0.2,0,0.3-0.1c0,0.1,0.1,0.3,0.2,0.2c0.1,0,0.3-0.1,0.5-0.2c0,0,0.1,0.1,0.2,0.1c1-0.2,2.7-1.6,3.1-2.2
							C188.5,108.9,187,108.4,185.9,108.6z"/>
						<path id="XMLID_68_" class="st7" d="M184.5,89.7c-1,0.8-1.9,2.5-0.5,4.8c1.5,2.2,5.6,4.5,6.6,6.6c0.6,1.3-5,6.7-5,7.4
							c0,0.7,1.1,2.4,1.5,2.6c0.7,0.4,8.6-7.3,8.6-10.1C195.8,98.3,186.7,88,184.5,89.7z"/>
					</g>
					<path id="XMLID_66_" class="st29" d="M180.9,84c0,0,0.1,1.6,0.6,2.9c0.5,1.3,1,1.7,1.6,2.2c0.6,0.5-2.4,3.8-5.1,4.6
						c0,0-2-2.4-1.1-3.7c0.9-1.3,1.6-1.4,1.3-3.2c-0.3-1.5-0.4-2.4-0.4-2.4L180.9,84z"/>
					<g id="XMLID_42_">
						<g id="XMLID_64_">
							<path id="XMLID_65_" class="st3" d="M176.7,84.8c0,0.8-0.3,1.4-0.7,1.4s-0.7-0.6-0.7-1.4c0-0.5,0.1-1,0.4-1.2
								c0.1-0.1,0-0.1-0.1-0.1c-0.2,0.3-0.4,0.7-0.4,1.3c0,0.8,0.4,1.5,0.8,1.5s0.8-0.7,0.8-1.5c0-0.4-0.1-0.8-0.2-1
								c0,0-0.1,0.1-0.1,0.1C176.6,84.1,176.7,84.4,176.7,84.8z"/>
						</g>
						<g id="XMLID_59_">
							<path id="XMLID_63_" class="st42" d="M180.9,84c0,0-0.4,3.3-3.5,3.1c-1.6-0.1-2.4-3.3-1.8-4.1c0,0-0.3-1.6,0-2.9
								c0.3-1.3,2.9-2,5-1.4c0,0,0.6,0.6,0.4,3.2c0,0,0.4-0.5,1-0.1c0.5,0.3,0.5,0.9,0.4,1.4C182.1,83.8,181.4,84.4,180.9,84z"/>
							<path id="XMLID_62_" class="st43" d="M181.1,83.7l0.2-0.6l-0.4-0.2c0,0,0.3-1.2,0.9-0.7C182.3,82.5,181.7,83.9,181.1,83.7z"
								/>
							<g id="XMLID_60_">
								<path id="XMLID_61_" class="st3" d="M182.1,84.8c0,0.8-0.3,1.4-0.7,1.4s-0.7-0.6-0.7-1.4c0-0.5,0.1-1,0.4-1.2
									c0.1-0.1,0-0.1-0.1-0.1c-0.2,0.3-0.4,0.7-0.4,1.3c0,0.8,0.4,1.5,0.8,1.5s0.8-0.7,0.8-1.5c0-0.4-0.1-0.8-0.2-1
									c0,0-0.1,0.1-0.1,0.1C182,84.1,182.1,84.4,182.1,84.8z"/>
							</g>
						</g>
						<g id="XMLID_43_">
							<g id="XMLID_53_">
								<path id="XMLID_58_" class="st17" d="M176.5,85c0,0,0.2-0.5,1.8-0.3C178.2,85.5,176.6,85.9,176.5,85z"/>
								<g id="XMLID_54_">
									<path id="XMLID_31_" class="st43" d="M176.5,85c0,0,1,0,1.8-0.3"/>
									<path id="XMLID_15_" class="st43" d="M176.5,85c0,0,0.1,0,0.3-0.1c0.2,0,0.4-0.1,0.6-0.1c0.2,0,0.5-0.1,0.6-0.1
										c0.2,0,0.3,0,0.3,0s-0.1,0.1-0.3,0.2c-0.2,0.1-0.4,0.2-0.6,0.2c-0.2,0-0.5,0-0.7,0C176.6,85,176.5,85,176.5,85z"/>
								</g>
							</g>
							<g id="XMLID_50_">
								<path id="XMLID_52_" class="st30" d="M175.6,82.9c0,0.1,0.2,0.2,0.4,0.1s0.4-0.1,0.4-0.2c0-0.1-0.2-0.2-0.4-0.2
									C175.7,82.6,175.6,82.7,175.6,82.9z"/>
								<path id="XMLID_51_" class="st30" d="M175.1,82.3c0,0,0.5-0.5,0.7-0.5c0.1,0,0.7,0.2,0.8,0.1c0.1-0.1,0.1-0.2,0.1-0.2
									s-0.8-0.1-0.9-0.1C175.5,81.6,175.1,82.1,175.1,82.3z"/>
							</g>
							<g id="XMLID_47_">
								<path id="XMLID_49_" class="st30" d="M177.7,82.7c0,0.1,0.2,0.2,0.4,0.1s0.4-0.1,0.4-0.2c0-0.1-0.2-0.2-0.4-0.2
									C177.9,82.4,177.7,82.5,177.7,82.7z"/>
								<path id="XMLID_48_" class="st30" d="M179.1,81.8c0,0-0.7-0.3-0.9-0.2c-0.2,0-0.8,0.3-0.9,0.3c-0.1-0.1-0.2-0.2-0.2-0.2
									s0.9-0.3,1.1-0.3C178.5,81.3,179,81.6,179.1,81.8z"/>
							</g>
							<g id="XMLID_44_">
								<path id="XMLID_46_" class="st44" d="M176.8,84.1c0,0,0.5,0,0.5-0.2c0-0.1-1.1-0.3-1.2-0.2C176,83.9,176.5,84.1,176.8,84.1z
									"/>
								<path id="XMLID_45_" class="st43" d="M176.7,81.9c0,0,0.2,0.7,0.1,0.9c-0.1,0.2-0.6,0.8-0.6,0.9c0,0.1,0.6,0.4,0.6,0.4
									c0,0-0.8-0.1-0.8-0.4c0-0.3,0.7-0.9,0.7-1.1C176.7,82.5,176.7,81.9,176.7,81.9z"/>
							</g>
						</g>
					</g>
					<path id="XMLID_41_" class="st30" d="M179.9,78.8c-2.6,0.3-3.7,2.7-5.6,2.7c-1.2-2,2.4-7.2,6.7-3.2c1.9,1.8,0.2,3.3,0.2,3.3
						l-0.4,1.5c0,0,0-1.1-0.4-1.5C179.1,80.3,179.9,78.8,179.9,78.8z"/>
				</g>
			</g>
		</g>
	</g>
	<g id="XMLID_22_">
		<path id="XMLID_36_" class="st55" d="M162.9,65.1l-26.6-6.6l0,0l-3.4-0.8c-1.3-0.3-2.6,0.5-3,1.8l-2.6,10.8l0,0l-0.2,0.6l-1.2,4.9
			c-0.3,1.3,0.5,2.6,1.8,3l29.5,7.3c1.3,0.3,2.6-0.5,3-1.8l0.4-1.4l0,0l1-4.1l0,0l1.5-6l0,0l1.3-5.3C164.6,66.4,164,65.4,162.9,65.1
			z"/>
		<g id="XMLID_23_">
			<path id="XMLID_5_" class="st5" d="M153.5,84.2l-23-5.6c-3.1-0.8-5-3.9-4.3-7.1l2.4-9.7c0.8-3.1,3.9-5,7.1-4.3l23,5.6
				c3.1,0.8,5,3.9,4.3,7.1l-2.4,9.7C159.8,83.1,156.7,85,153.5,84.2z"/>
			<path id="XMLID_34_" class="st4" d="M131.5,62.6c-1,2.7-0.7,6.4,2,7.7c9.6,5.7,19.8,5.2,29.1,1.4l1.3-5.3c0.3-1-0.4-2.1-1.4-2.4
				l-26.6-6.6C133.8,58.7,132.4,60.6,131.5,62.6z"/>
			
				<rect id="XMLID_33_" x="125.8" y="73.4" transform="matrix(0.971 0.239 -0.239 0.971 22.2117 -32.1024)" class="st7" width="35.3" height="4.2"/>
			<path id="XMLID_4_" class="st7" d="M141.6,63.6l-10.2-2.5c-0.6-0.1-0.9-0.7-0.8-1.3l0,0c0.1-0.6,0.7-0.9,1.3-0.8l10.2,2.5
				c0.6,0.1,0.9,0.7,0.8,1.3l0,0C142.8,63.4,142.2,63.7,141.6,63.6z"/>
			<path id="XMLID_3_" class="st7" d="M150.8,68l-20.4-5c-0.3-0.1-0.5-0.4-0.4-0.6l0,0c0.1-0.3,0.4-0.5,0.6-0.4l20.4,5
				c0.3,0.1,0.5,0.4,0.4,0.6l0,0C151.3,67.9,151,68.1,150.8,68z"/>
			<g id="XMLID_27_">
				<path id="XMLID_2_" class="st3" d="M146.6,71.9l-0.6-0.1c-0.4-0.1-0.6-0.5-0.5-0.9v0c0.1-0.4,0.5-0.6,0.9-0.5l0.6,0.1
					c0.4,0.1,0.6,0.5,0.5,0.9v0C147.4,71.8,147,72,146.6,71.9z"/>
				<path id="XMLID_29_" class="st3" d="M149.1,72.5l-0.6-0.1c-0.4-0.1-0.6-0.5-0.5-0.9v0c0.1-0.4,0.5-0.6,0.9-0.5l0.6,0.1
					c0.4,0.1,0.6,0.5,0.5,0.9l0,0C149.9,72.4,149.5,72.6,149.1,72.5z"/>
				<path id="XMLID_1_" class="st3" d="M151.7,73.2l-0.6-0.1c-0.4-0.1-0.6-0.5-0.5-0.9l0,0c0.1-0.4,0.5-0.6,0.9-0.5l0.6,0.1
					c0.4,0.1,0.6,0.5,0.5,0.9v0C152.5,73,152.1,73.3,151.7,73.2z"/>
			</g>
			<g id="XMLID_24_">
				<path id="XMLID_26_" class="st17" d="M157.8,65.6c-0.3-0.5-0.8-0.9-1.4-1.1c-1.2-0.3-2.5,0.4-2.8,1.7c-0.3,1.2,0.4,2.5,1.7,2.8
					c0.6,0.2,1.3,0,1.8-0.3c-0.3-0.5-0.4-1.1-0.2-1.7C156.9,66.4,157.3,65.9,157.8,65.6z"/>
				<path id="XMLID_25_" class="st17" d="M159.5,65.3c-0.6-0.2-1.3,0-1.8,0.3c0.3,0.5,0.4,1.1,0.2,1.7c-0.1,0.6-0.5,1.1-1,1.4
					c0.3,0.5,0.8,0.9,1.4,1.1c1.2,0.3,2.5-0.4,2.8-1.7C161.5,66.9,160.8,65.6,159.5,65.3z"/>
			</g>
		</g>
	</g>
</g>
</svg>
