<?xml version="1.0" encoding="utf-8"?>
<!-- Generator: Adobe Illustrator 19.0.0, SVG Export Plug-In . SVG Version: 6.00 Build 0)  -->
<svg version="1.1" id="Layer_1" xmlns="http://www.w3.org/2000/svg" xmlns:xlink="http://www.w3.org/1999/xlink" x="0px" y="0px"
	 viewBox="0 0 258 208.7" style="enable-background:new 0 0 258 208.7;" xml:space="preserve">
<style type="text/css">
	.st0{fill:#CCCCD8;}
	.st1{fill:#CB4D27;}
	.st2{fill:#F16022;}
	.st3{fill:#B0D1EE;}
	.st4{fill:#F78C25;}
	.st5{fill:#4160AC;}
	.st6{fill:#6485C3;}
	.st7{fill:#5171B7;}
	.st8{fill:#F37121;}
	.st9{fill:#FFFFFF;}
	.st10{fill:#3B56A6;}
	.st11{fill:#FED618;}
	.st12{fill:#F15F22;}
	.st13{fill:#F37321;}
	.st14{fill:#7B788E;}
	.st15{fill:#706E84;}
	.st16{fill:#918FA3;}
	.st17{fill:#A8A9B9;}
	.st18{fill:#EFC4AF;}
	.st19{fill:#3A56A6;}
	.st20{fill:#272333;}
	.st21{fill:#1B1828;}
	.st22{fill:#F0BB85;}
	.st23{fill:#E3A975;}
	.st24{fill:#FCC290;}
	.st25{fill:#C2C0CD;}
	.st26{fill:#E4E4ED;}
	.st27{fill:#D8D8E2;}
	.st28{fill:#3C394B;}
	.st29{fill:#666478;}
	.st30{fill:#504E62;}
	.st31{fill:#353243;}
	.st32{fill:#2E2B3B;}
	.st33{fill:#5B7BBD;}
	.st34{fill:#3E5BA9;}
	.st35{fill:#4770B6;}
	.st36{fill:#E1E1EA;}
	.st37{fill:#4F76BB;}
	.st38{fill:#4165AF;}
	.st39{fill:#638DC9;}
	.st40{fill:#6C97CF;}
	.st41{fill:#DCDCEC;}
	.st42{fill:#C6C5D8;}
	.st43{fill:#2F2B40;}
	.st44{fill:#646077;}
	.st45{opacity:0.62;fill:#FFFFFF;}
	.st46{fill:#348ECD;}
	.st47{fill:#DF9A5C;}
</style>
<g id="XMLID_10_">
	<polygon id="XMLID_472_" class="st0" points="175.5,195.1 144.7,177.3 187.7,153.4 218.5,171.1 	"/>
	<g id="XMLID_30_">
		<g id="XMLID_49_">
			<g id="XMLID_452_">
				<g id="XMLID_467_">
					<path id="XMLID_471_" class="st1" d="M25.7,109.1c0,0.1,0,0.2,0,0.3c0.2,1.3,1.1,2.7,2.1,3.5c0.2,0.2,0.4,0.3,0.6,0.4
						c0.5,0.2,0.9,0.3,1.3,0.3c0,0,0.1,0,0.1,0l0.5-0.3l13-9l-0.6-1.1l-0.5-0.8l-0.5-0.9l-15.1,5.9
						C26.1,107.5,25.7,108.1,25.7,109.1z"/>
					<path id="XMLID_470_" class="st1" d="M29.8,113.5c0,0,0.1,0,0.1,0C29.9,113.5,29.8,113.5,29.8,113.5z"/>
					<path id="XMLID_469_" class="st1" d="M29.9,113.5c0.2-0.1,0.4-0.1,0.5-0.3L29.9,113.5z"/>
					<path id="XMLID_468_" class="st2" d="M25.7,109.4c0.2,1.3,1.1,2.7,2.1,3.5l14.9-9.8l-0.5-0.8L25.7,109.4z"/>
				</g>
				<g id="XMLID_454_">
					<g id="XMLID_455_">
						<path id="XMLID_466_" class="st3" d="M49.1,112.3c-0.6,0.3-1.2,0.5-1.9,0.5l0.2,0.4L49.1,112.3z"/>
						<path id="XMLID_465_" class="st3" d="M35.2,91.4l0.2,0.3c0.3-0.3,0.6-0.6,0.9-0.9L35.2,91.4z"/>
						<path id="XMLID_464_" class="st4" d="M34.1,96.3c0,5.7,4,12.5,8.9,15.4c1.5,0.9,2.9,1.3,4.2,1.2L35.4,91.7
							C34.6,92.7,34.1,94.3,34.1,96.3z"/>
						<g id="XMLID_456_">
							<path id="XMLID_463_" class="st5" d="M33.6,97.1c0,5.3,3.7,11.8,8.4,14.5c1.2,0.7,2.4,1.1,3.4,1.1c0.4,0,0.9-0.1,1.2-0.2
								c0.8-0.3,1.5-0.9,1.9-1.8c0.4-0.9,0.7-2,0.7-3.3c0-5.3-3.8-11.8-8.4-14.5c-1.2-0.7-2.4-1.1-3.4-1.1c-0.6,0-1.1,0.1-1.6,0.3
								c-0.8,0.4-1.4,1-1.8,2C33.8,95,33.6,96,33.6,97.1z"/>
							<path id="XMLID_462_" class="st6" d="M33.6,97.1c0,5.3,3.7,11.8,8.4,14.5c1.2,0.7,2.4,1.1,3.4,1.1c0.4,0,0.9-0.1,1.2-0.2
								c0.2-0.5,0.4-1.1,0.4-1.7c0-0.4,0.1-0.8,0.1-1.3c0-5.3-3.8-11.8-8.4-14.5c-0.9-0.5-1.9-0.9-2.7-1c-0.3,0-0.5-0.1-0.7-0.1
								c-0.4,0-0.9,0.1-1.2,0.2C33.8,95,33.6,96,33.6,97.1z"/>
							<path id="XMLID_461_" class="st7" d="M36,95.3c0,5.3,3.7,11.8,8.4,14.5c0.9,0.5,1.9,0.9,2.7,1c0-0.4,0.1-0.8,0.1-1.3
								c0-5.3-3.8-11.8-8.4-14.5c-0.9-0.5-1.9-0.9-2.7-1C36,94.4,36,94.8,36,95.3z"/>
							<g id="XMLID_457_">
								<g id="XMLID_458_">
									<path id="XMLID_460_" class="st4" d="M35.4,91.3c0.6-0.3,1.3-0.5,2.1-0.5c1.2,0,2.5,0.4,4,1.2c0.9,0.5,1.8,1.2,2.7,2
										c0.9,0.9,1.8,1.9,2.6,3c2.2,3.1,3.6,6.9,3.6,10.3c0,2.7-0.9,4.6-2.3,5.6c0.5-0.3,3.2-1.9,3.2-1.9c1.6-0.9,2.6-2.9,2.6-5.8
										c0-3.4-1.4-7.2-3.6-10.3c-0.8-1.1-1.7-2.2-2.6-3c-0.8-0.8-1.7-1.5-2.7-2C42.3,88.4,39.3,89,35.4,91.3z"/>
									<path id="XMLID_459_" class="st8" d="M35.4,91.3c0.6-0.3,1.3-0.5,2.1-0.5v2.1c-0.5,0-0.9,0.1-1.2,0.3
										c-1.4,0.8-1.6,2.9-1.6,4c0,4.9,3.6,11.1,7.8,13.6c1.1,0.6,2.1,0.9,2.9,0.9c0.4,0,0.7-0.1,1-0.2c1.6-0.7,1.8-3,1.8-4.1
										c0-4.9-3.6-11.1-7.8-13.6c-1.1-0.6-2.1-0.9-2.9-0.9l0-2.1c1.2,0,2.5,0.4,4,1.2c4.9,2.8,8.9,9.7,8.9,15.4
										c0,2.7-0.9,4.6-2.3,5.6c-0.7,0.5-1.6,0.8-2.6,0.8c-1.2,0-2.5-0.4-4-1.2c-4.9-2.8-8.9-9.7-8.9-15.4
										C32.5,94.2,33.6,92.2,35.4,91.3z"/>
								</g>
							</g>
						</g>
					</g>
				</g>
				<path id="XMLID_453_" class="st9" d="M46.8,106.6c0,0-0.3-3.5-3-7.5c-1.5-2.2-4.2-3.5-4.2-3.5s2.9,2.9,3.8,4.1
					C45.7,102.6,46.8,106.6,46.8,106.6z"/>
			</g>
			<g id="XMLID_428_">
				<g id="XMLID_429_">
					<path id="XMLID_451_" class="st10" d="M172.8,50.4V69c0,0.8-0.6,1.2-1.4,0.7l-28.2-16.3c-0.8-0.4-1.4-1.5-1.4-2.3V32.5
						c0-0.8,0.6-1.2,1.4-0.7l28.2,16.3C172.2,48.5,172.8,49.6,172.8,50.4z"/>
					<path id="XMLID_450_" class="st6" d="M172.3,50.8v18.6c0,0.8-0.6,1.2-1.4,0.7l-28.2-16.3c-0.8-0.4-1.4-1.5-1.4-2.3V32.9
						c0-0.8,0.6-1.2,1.4-0.7l28.2,16.3C171.7,48.9,172.3,49.9,172.3,50.8z"/>
					<g id="XMLID_430_">
						<g id="XMLID_439_">
							<path id="XMLID_449_" class="st11" d="M145.4,43.2l-1.4-0.8c0,0.6,0.4,1.3,0.8,1.6l3.6,2.1c0.4,0.2,0.8,0,0.8-0.6l-1.7-1
								L145.4,43.2z"/>
							<polygon id="XMLID_448_" class="st11" points="146,42.2 146,43.3 147.3,44 147.3,42.9 147.3,41.7 147.3,40.4 146,39.7 
								146,41 							"/>
							<g id="XMLID_444_">
								<polygon id="XMLID_447_" class="st11" points="149.3,43.9 149.3,43.1 147.7,42.2 147.7,43 								"/>
								<polygon id="XMLID_446_" class="st11" points="147.7,44.3 149.3,45.2 149.3,44.1 147.7,43.2 								"/>
								<path id="XMLID_445_" class="st11" d="M149.3,42.8l0-0.5c0-0.4-0.3-0.9-0.8-1.1l-0.8-0.5l0,1.2L149.3,42.8z"/>
							</g>
							<g id="XMLID_440_">
								<polygon id="XMLID_443_" class="st11" points="144,40.8 144,40 145.6,40.9 145.6,41.7 								"/>
								<polygon id="XMLID_442_" class="st11" points="145.6,43 144,42.2 144,41.1 145.6,42 								"/>
								<path id="XMLID_441_" class="st11" d="M144,39.7v-0.5c0-0.4,0.3-0.5,0.8-0.2l0.8,0.5v1.2L144,39.7z"/>
							</g>
						</g>
						<polygon id="XMLID_438_" class="st10" points="149.4,50.6 143.9,47.4 143.9,45.4 149.4,48.6 						"/>
						<polygon id="XMLID_437_" class="st10" points="156,54.4 150.6,51.3 150.6,49.3 156,52.4 						"/>
						<polygon id="XMLID_436_" class="st10" points="162.6,58.2 157.2,55.1 157.2,53.1 162.6,56.2 						"/>
						<polygon id="XMLID_435_" class="st10" points="169.2,62 163.8,58.9 163.8,56.9 169.2,60 						"/>
						<polygon id="XMLID_434_" class="st10" points="146.9,52.9 143.8,51.1 143.8,49.4 146.9,51.2 						"/>
						<polygon id="XMLID_433_" class="st10" points="159.8,60.6 158.2,59.7 158.2,57.6 159.8,58.6 						"/>
						<polygon id="XMLID_432_" class="st10" points="162.2,62 160.5,61.1 160.5,59 162.2,60 						"/>
						<polygon id="XMLID_431_" class="st10" points="153.9,57 147.4,53.2 147.4,51.5 153.9,55.2 						"/>
					</g>
				</g>
			</g>
			<g id="XMLID_424_">
				<path id="XMLID_425_" class="st12" d="M46.9,62.3l-0.3-0.1c-0.1,0-3.2-0.8-4.6-2.3c-0.2-0.2-0.4-0.4-0.5-0.5
					c-1.2-1.2-2.4-2.5-2.4-5c0-2.8,2-6.3,4.5-7.7c1.3-0.7,2.5-0.8,3.4-0.3c0.8-1.5,2-2.8,3.3-3.5c1.3-0.7,2.5-0.8,3.5-0.3
					c0.9,0.5,1.5,1.6,1.5,3.1c0,2.5-0.7,4.9-2.5,8.2c-2.1,3.8-5.5,8.1-5.5,8.2L46.9,62.3z M45.7,46.9c-0.5,0-1.1,0.2-1.7,0.5
					c-2.2,1.3-4,4.4-4,7c0,2.2,1,3.2,2.2,4.4c0.2,0.2,0.4,0.4,0.5,0.6c1,1.1,3.1,1.7,3.9,1.9c0.7-0.9,3.5-4.6,5.3-7.8
					c1.7-3.2,2.4-5.4,2.4-7.8c0-1.1-0.4-2-1-2.3c-0.7-0.4-1.6-0.3-2.6,0.3c-1.2,0.7-2.4,2-3.2,3.6l-0.3,0.5l-0.4-0.4
					C46.5,47.1,46.2,46.9,45.7,46.9z"/>
			</g>
			<g id="XMLID_420_">
				<path id="XMLID_421_" class="st12" d="M196.2,64.6l-0.3-0.1c-0.1,0-3.2-0.8-4.6-2.3c-0.2-0.2-0.4-0.4-0.5-0.5
					c-1.2-1.2-2.4-2.5-2.4-5c0-2.8,2-6.3,4.5-7.7c1.3-0.7,2.5-0.8,3.4-0.3c0.8-1.5,2-2.8,3.3-3.5c1.3-0.7,2.5-0.8,3.5-0.3
					c0.9,0.5,1.5,1.6,1.5,3.1c0,2.5-0.7,4.9-2.5,8.2c-2.1,3.8-5.5,8.1-5.5,8.2L196.2,64.6z M194.9,49.2c-0.5,0-1.1,0.2-1.7,0.5
					c-2.2,1.3-4,4.4-4,7c0,2.2,1,3.2,2.2,4.4c0.2,0.2,0.4,0.4,0.5,0.6c1,1.1,3.1,1.7,3.9,1.9c0.7-0.9,3.5-4.6,5.3-7.8
					c1.7-3.2,2.4-5.4,2.4-7.8c0-1.1-0.4-2-1-2.3c-0.7-0.4-1.6-0.3-2.6,0.3c-1.2,0.7-2.4,2-3.2,3.6l-0.3,0.5l-0.4-0.4
					C195.8,49.3,195.4,49.2,194.9,49.2z"/>
			</g>
			<g id="XMLID_416_">
				<path id="XMLID_417_" class="st12" d="M124.8,35.2c-0.5,0-1.1-0.3-1.5-1l-5.6-7.9c-0.3-0.5-0.7-0.6-0.8-0.6l-5.6,1.4
					c-0.5,0.1-1-0.1-1.5-0.6c-0.5-0.6-1-1.5-0.7-2.3l2.1-6.3c0.1-0.3,0-0.8-0.3-1.2l-5.6-7.9c-0.6-0.9-0.7-1.9-0.2-2.4
					c0.3-0.4,0.9-0.4,1.4-0.1l6.9,4c0.2,0.1,0.3,0.1,0.3,0.1c0,0,0.1,0,0.1-0.1l2.1-6.3c0.2-0.5,0.5-0.7,1-0.7c0.8,0,1.7,0.9,1.9,2
					l2.1,8.8c0.1,0.5,0.5,1,0.8,1.2l6.9,4c0.9,0.5,1.4,1.7,1.3,2.5c-0.1,0.5-0.3,0.8-0.8,0.9l-5.6,1.4c-0.1,0-0.2,0.3-0.1,0.6
					l2.1,8.8c0.2,0.9-0.1,1.5-0.6,1.7C125.1,35.2,125,35.2,124.8,35.2z M116.9,24.9c0.5,0,1.1,0.3,1.5,0.9l5.6,7.9
					c0.4,0.5,0.7,0.6,0.8,0.6c0.1,0,0.2-0.2,0.1-0.6l-2.1-8.8c-0.2-0.8,0.1-1.5,0.7-1.7l5.6-1.4c0,0,0.1,0,0.1-0.2
					c0.1-0.5-0.3-1.3-0.9-1.6l-6.9-4c-0.6-0.3-1.1-1-1.3-1.7l-2.1-8.8c-0.2-0.8-0.8-1.3-1.1-1.3c-0.1,0-0.1,0-0.1,0.1l-2.1,6.3
					c-0.1,0.3-0.3,0.5-0.6,0.7c-0.3,0.1-0.7,0.1-1.1-0.1l-6.9-4C106,7,105.8,6.9,105.7,7c-0.1,0.1-0.1,0.7,0.3,1.3l5.6,7.9
					c0.5,0.7,0.6,1.5,0.5,2l-2.1,6.3c-0.1,0.4,0.1,1,0.5,1.5c0.3,0.3,0.5,0.4,0.6,0.4l5.6-1.4C116.8,24.9,116.9,24.9,116.9,24.9z"/>
			</g>
			<g id="XMLID_263_">
				<path id="XMLID_415_" class="st13" d="M66.4,74.8c-0.4-3.7,46.9-28.2,49.9-26.7c3.9,2,8.7,4.8,10.8,7.8c3.9,5.3,22,49.9,22,49.9
					l13.1,6.5c8.4,4.8,15.7,15.5,17.9,26l1.2,5.6c1.8,8.5-2.8,12.3-10.4,16.6L133.4,181l-41.1-38.3L66.4,74.8z"/>
				<polygon id="XMLID_414_" class="st14" points="176,192.8 154.1,180.2 154.1,151.9 176,164.5 				"/>
				<polygon id="XMLID_413_" class="st15" points="179.7,190.8 176,192.8 176,164.5 179.7,162.5 				"/>
				<polygon id="XMLID_412_" class="st14" points="211.5,172.8 189.6,160.1 189.6,131.8 211.5,144.5 				"/>
				<polygon id="XMLID_411_" class="st15" points="215.2,170.7 211.5,172.8 211.5,144.5 215.2,142.4 				"/>
				<g id="XMLID_407_">
					<polygon id="XMLID_410_" class="st16" points="175.4,167 144.6,149.3 144.6,143.9 175.4,161.6 					"/>
					<polygon id="XMLID_409_" class="st15" points="218.6,143 175.4,167 175.4,161.6 218.6,137.6 					"/>
					<polygon id="XMLID_408_" class="st17" points="175.5,161.6 144.7,143.8 187.7,119.9 218.5,137.6 					"/>
				</g>
				<path id="XMLID_406_" class="st12" d="M64.9,79c-0.4-3.7,1.8-5.5,4.8-4c3.9,2,8.7,4.8,10.8,7.8c3.9,5.3,22,49.9,22,49.9
					l13.1,6.5c8.4,4.8,15.7,15.5,17.9,26l2.1,9.8c0.8,3.9-3.4,7-6.9,5.1l-48.8-27.4c-4.4-2.5-7.4-7-8-12L64.9,79z"/>
				<g id="XMLID_264_">
					<g id="XMLID_402_">
						<path id="XMLID_405_" class="st18" d="M110.9,78.5c-0.1-0.3-2.2-7.3,0.9-7.5c3.1-0.2,7.3,3.3,8.9,6.6c1.6,3.3,6.7,8.4,7.2,8.6
							c0.5,0.2,3.1-0.2,5.3,1.4c2.3,1.6,10.6,2.5,11.2,2.4c0.6-0.1,1.1,0.7,2.4,0.8c1.3,0,4.3,0,5.4,0.2c1.1,0.2,3,1.1,3,1.1
							s1,1.3,1.9,1.6c0.9,0.2,0.8,1.3,0.4,1.3c-0.4,0-0.8,0.3-0.8,0.3s0.5,0.5-0.2,0.7c-0.7,0.2-2.2,0.1-2.2,0.1l-2.3-0.6l-2,0.5
							l-1.5,0.8c0,0,0.7,0.7,0.8,0.9c0.1,0.2,1,0.3,1.3,0.8c0.3,0.5,1,1.4,0,1.3c-1.1-0.1-2.2-0.6-2.2-0.6s-1.5-1.2-2-1.4
							c-0.4-0.2-2.2-1-2.7-2.1c-0.5-1.2-0.9-2-0.9-2s-3.6,0.4-6.9,0.6c-3.3,0.2-5.5,1.9-8.7,0.1c-3.2-1.9-7-4.9-7-4.9L110.9,78.5z"
							/>
						<path id="XMLID_404_" class="st7" d="M115.3,85.5c0,0,1.2,0.5,4.4-0.3c0.5-0.1,1-0.2,1.6-0.4c4.4-1.4,2.1-4.2,1.7-4.7
							c-0.4-0.5-2.8-4.7-5.6-8.3c-2.8-3.6-7.2-1.6-7.2-1.4c0,0-1.2,1.1-1.7,3.2c-0.1,0.4-0.1,0.8-0.2,1.3
							C108.1,77.9,115.3,85.5,115.3,85.5z"/>
						<path id="XMLID_403_" class="st19" d="M115.3,85.5c0,0,4.3,0.2,7.5-1.4c-0.2-0.6-2.2-4.2-5.4-5c-0.4-0.5-1.3,0.2-4.1-3.3
							c-1.5-1.8-3.4-2.2-4.8-2.1c-0.1,0.4-0.1,0.8-0.2,1.3C108.1,77.9,115.3,85.5,115.3,85.5z"/>
					</g>
					<path id="XMLID_401_" class="st0" d="M95.9,68.1c-0.8-0.2,3.7,3-4,11.4c-3.8,4.1-2.1,14.1,2.7,21.7
						c4.8,7.6,15.4,15.7,17.2,17.8c1.8,2.2,5.1,4,14.2,6.2c11.1,2.8,18.2,1,21.7,1.9c3.4,0.9,6.5,11.4,6.5,11.4l8.8-4.9
						c0,0,13.2,4.2,14.5,3.9c2.5-0.6-2.7-5.3-5.1-7.2c-2.4-1.9-10.7-10.9-14.7-14.3c-3.9-3.4-9.7-8.1-12.5-8.6
						c-2.8-0.4-18.9-3.6-19.9-4.4C124.3,102.4,95.9,68.1,95.9,68.1z"/>
					<path id="XMLID_400_" class="st20" d="M130.4,98.7c0,0,8.1,2,13.5,3.5c5.4,1.6,11.1,3.4,11.1,3.4s2,8.7-2.6,8.9
						c-4.6,0.2-14.6-0.4-23-3.6c-8.4-3.2-12.3-7.5-10.8-9C120.2,100.5,130.4,98.7,130.4,98.7z"/>
					<path id="XMLID_399_" class="st6" d="M171.9,128.4c0.5-0.2,6-0.3,7.8-1.4c1.8-1.1,3.7-4.4,4.5-4.7c0.7-0.3,2-0.1,2.2,1.1
						c0.2,1.1-0.2,3.2-1.5,4.7c-1.3,1.5-4.4,3.2-4.8,4.7c-0.3,1.5-1.4,4.7-2.6,4.8c-1.3,0.1-2.7-0.9-3.7-2.1c-1-1.2-2.6-1.6-2.6-1.6
						S170.7,129.1,171.9,128.4z"/>
					<path id="XMLID_398_" class="st19" d="M171.3,128c0.5-0.2,6-0.3,7.8-1.4c1.8-1.1,3.7-4.4,4.5-4.7c0.7-0.3,2-0.1,2.2,1.1
						c0.2,1.1-0.2,3.2-1.5,4.7c-1.3,1.5-4.4,3.2-4.8,4.7c-0.3,1.5-1.4,4.7-2.6,4.8c-1.3,0.1-2.7-0.9-3.7-2.1s-2.6-1.6-2.6-1.6
						S170.1,128.7,171.3,128z"/>
					<path id="XMLID_397_" class="st21" d="M121.4,103.3c4-1.3,25.2,10.6,25.7,10.9c0.5,0.4,10.2,7,16.6,8c6.4,1,10,4.9,10,4.9
						s-2.8,2.5-2.5,4.4c0.3,2,0.3,2.8,0.3,2.8s-9.2-1.9-14.9-3.6c-5.7-1.7-8.9-6-12.2-5.6c-3.3,0.4-18-0.4-23.3-2.6
						C106.6,116.8,110.4,106.9,121.4,103.3z"/>
					<g id="XMLID_394_">
						<path id="XMLID_396_" class="st19" d="M173.3,120.8c0,0-0.2-2.8-0.5-2.6c-0.3,0.1-1.5,0.5-2.1,2c-0.6,1.5-0.6,4.5-1.5,4.5
							c-0.9,0.1-1.9,3.1-2,4.6c0,1.5,3.8,5.9,4.9,5.3C173.3,134,173.3,120.8,173.3,120.8z"/>
						<path id="XMLID_395_" class="st6" d="M177.8,122.5c0.1,3.1-1.1,4.4-2.2,5.5c-1.1,1.1-0.6,7.9-3.6,6.8c-3-1.1-2.1-4-2-5.4
							c0.1-1.4,1-3.2,0.6-4.5c0,0-0.1-5.6,2.2-6.7C175.2,117.1,177.6,119.4,177.8,122.5z"/>
					</g>
					<path id="XMLID_393_" class="st6" d="M107.9,72.4c0,0,9.6-0.4,12,5.8c2.4,6.2,10.4,20.5,10.4,20.5s-8.5,2.3-12,6.3
						c-4.2,4.8-5.7,13.5-8.3,7.8c-2.6-5.8-0.7-5.2-2.8-7.7c-2.1-2.6-11-13.6-12.1-16.6c-1-3.1,1-10.1,2-11
						C98.2,76.5,107.9,72.4,107.9,72.4z"/>
					<path id="XMLID_392_" class="st20" d="M155.1,105.6c5.2,3.4,14.1,19.1,14.1,19.1s-1.5,0.6-1.2,4.3c0.3,3,1.3,3.9,1.3,3.9
						s-7.5-6.2-10.9-10.1c-3.4-3.8-7-7.8-7-7.8S149.9,102.2,155.1,105.6z"/>
					<path id="XMLID_391_" class="st21" d="M102.9,59.3c0.2-0.1,1.8-1,1-3.4c-0.3-0.8-1.1-2.2-2.8-3c-1.7-0.8-7.7,1.7-9.5,3.1
						c-1.4,1-2.1,4.6-1.3,6.7c1.7,4.4,7.7,6.4,8.1,6.5C98.8,69.3,96.7,61.9,102.9,59.3z"/>
					<path id="XMLID_390_" class="st22" d="M104.9,70.8c0,0,0.6,1.5,1.3,2.7c0.7,1.1,1.5,0.6,0.4,2.1c-1.1,1.5-7.1,2.3-8.4,2.3
						c-1.3,0-1.1-1.5-1.1-1.5s0.2-5-0.5-6.6c-0.7-1.6-0.7-1.6-0.7-1.6L104.9,70.8z"/>
					<path id="XMLID_389_" class="st23" d="M96.9,69.2c0,0,0.3,0.6,1.4,1.4c1.1,0.8,5.6,1.7,6.4,1.7c0.9,0,0.9-0.1,0.9-0.1l-0.3-0.6
						l-0.4-0.8L96.9,69.2z"/>
					<path id="XMLID_388_" class="st24" d="M102.4,56.4c0,0,3,2.7,3.3,3.6c0.3,0.9,0.2,2,0.2,2.4c0,0.4,0.9,1.7,1,3.2
						c0.2,1.5,0.4,4.3,0.8,4.4c0.5,0.2-1.3,1.8-2.9,1.7c-1.6-0.1-4.4-0.2-5.3-0.6c-0.9-0.5-2.4-1.4-2.4-1.4s-0.9,0-1.6,0
						c-0.7,0-2.2-1.6-2.1-2.4c0.2-0.7,1.8-1.2,1.8-1.2s2.7,1.2,2.4,0c-0.4-1.2-2.1-6.1-1.1-7c0.9-0.9,3.8-1.1,4.4-2.1
						C101.4,56.2,102.4,56.4,102.4,56.4z"/>
					<g id="XMLID_265_">
						<g id="XMLID_266_">
							<g id="XMLID_267_">
								<g id="XMLID_270_">
									<path id="XMLID_387_" class="st25" d="M110,108.2h1.4L136,93.9c0.4-0.2,1-0.2,1.4,0.1l14.9,8.6h1.3v0.9
										c0,0.2,0,0.3-0.2,0.4l-25.8,14.9c-0.4,0.2-1.5,0.5-1.9,0.2l-15.3-9.4c-0.3-0.2-0.4-0.4-0.3-0.5
										C110,109.1,110,108.2,110,108.2z"/>
									<g id="XMLID_384_">
										<path id="XMLID_386_" class="st26" d="M127.5,117.8l25.8-14.9c0.4-0.2,0.3-0.6-0.1-0.8L137.4,93c-0.4-0.2-1-0.3-1.4-0.1
											l-25.8,14.9c-0.4,0.2-0.3,0.6,0.1,0.8l15.3,9.4C126,118.3,127.2,118,127.5,117.8z"/>
										<path id="XMLID_385_" class="st16" d="M127,116.6l23.8-13.8c0.3-0.2,0.3-0.5-0.1-0.7l-10.4-5.9c-0.3-0.2-0.9-0.2-1.2,0
											L115.4,110c-0.3,0.2-0.3,0.5,0.1,0.7l10.4,5.9C126.2,116.8,126.7,116.8,127,116.6z"/>
									</g>
									<g id="XMLID_380_">
										<polygon id="XMLID_383_" class="st9" points="126,103 130,100.6 126.8,98.8 122.8,101.1 										"/>
										<path id="XMLID_382_" class="st9" d="M130.5,100.3l1.1-0.7c0.3-0.2,0.3-0.5-0.1-0.7l-1.8-1c-0.4-0.2-1-0.2-1.3-0.1
											l-1.1,0.7L130.5,100.3z"/>
										<path id="XMLID_381_" class="st9" d="M125.5,103.2l-1.1,0.7c-0.3,0.2-0.9,0.2-1.3-0.1l-1.8-1c-0.4-0.2-0.4-0.6-0.1-0.7
											l1.1-0.7L125.5,103.2z"/>
									</g>
									<g id="XMLID_274_">
										<g id="XMLID_328_">
											<path id="XMLID_379_" class="st26" d="M125.1,115.7l1,0.6c0.3,0.2,0.7,0.2,0.9,0l1.1-0.6c0.2-0.1,0.2-0.4-0.1-0.5l-1-0.6
												c-0.3-0.2-0.7-0.2-0.9,0l-1.1,0.6C124.8,115.3,124.9,115.6,125.1,115.7z"/>
											<path id="XMLID_378_" class="st26" d="M127.3,114.5l1,0.6c0.3,0.2,0.7,0.2,0.9,0l1.1-0.6c0.2-0.1,0.2-0.4-0.1-0.5l-1-0.6
												c-0.3-0.2-0.7-0.2-0.9,0l-1.1,0.6C127,114.1,127.1,114.3,127.3,114.5z"/>
											<path id="XMLID_377_" class="st26" d="M129.6,113.2l1,0.6c0.3,0.2,0.7,0.2,0.9,0l1.1-0.6c0.2-0.1,0.2-0.4-0.1-0.5l-1-0.6
												c-0.3-0.2-0.7-0.2-0.9,0l-1.1,0.6C129.3,112.8,129.3,113,129.6,113.2z"/>
											<path id="XMLID_376_" class="st26" d="M131.8,111.9l1,0.6c0.3,0.2,0.7,0.2,0.9,0l1.1-0.6c0.2-0.1,0.2-0.4-0.1-0.5l-1-0.6
												c-0.3-0.2-0.7-0.2-0.9,0l-1.1,0.6C131.5,111.5,131.5,111.7,131.8,111.9z"/>
											<path id="XMLID_375_" class="st26" d="M134,110.6l1,0.6c0.3,0.2,0.7,0.2,0.9,0l1.1-0.6c0.2-0.1,0.2-0.4-0.1-0.5l-1-0.6
												c-0.3-0.2-0.7-0.2-0.9,0l-1.1,0.6C133.7,110.2,133.7,110.5,134,110.6z"/>
											<path id="XMLID_374_" class="st26" d="M136.2,109.3l1,0.6c0.3,0.2,0.7,0.2,0.9,0l1.1-0.6c0.2-0.1,0.2-0.4-0.1-0.5l-1-0.6
												c-0.3-0.2-0.7-0.2-0.9,0l-1.1,0.6C135.9,108.9,135.9,109.2,136.2,109.3z"/>
											<path id="XMLID_373_" class="st26" d="M138.4,108.1l1,0.6c0.3,0.2,0.7,0.2,0.9,0l1.1-0.6c0.2-0.1,0.2-0.4-0.1-0.5l-1-0.6
												c-0.3-0.2-0.7-0.2-0.9,0l-1.1,0.6C138.1,107.7,138.1,107.9,138.4,108.1z"/>
											<path id="XMLID_372_" class="st26" d="M140.6,106.8l1,0.6c0.3,0.2,0.7,0.2,0.9,0l1.1-0.6c0.2-0.1,0.2-0.4-0.1-0.5l-1-0.6
												c-0.3-0.2-0.7-0.2-0.9,0l-1.1,0.6C140.3,106.4,140.4,106.6,140.6,106.8z"/>
											<path id="XMLID_371_" class="st26" d="M142.9,105.5l1,0.6c0.3,0.2,0.7,0.2,0.9,0l1.1-0.6c0.2-0.1,0.2-0.4-0.1-0.5l-1-0.6
												c-0.3-0.2-0.7-0.2-0.9,0l-1.1,0.6C142.5,105.1,142.6,105.3,142.9,105.5z"/>
											<path id="XMLID_370_" class="st26" d="M145.1,104.2l1,0.6c0.3,0.2,0.7,0.2,0.9,0l1.1-0.6c0.2-0.1,0.2-0.4-0.1-0.5l-1-0.6
												c-0.3-0.2-0.7-0.2-0.9,0l-1.1,0.6C144.8,103.8,144.8,104.1,145.1,104.2z"/>
											<path id="XMLID_369_" class="st26" d="M147.3,102.9l1,0.6c0.3,0.2,0.7,0.2,0.9,0l1.1-0.6c0.2-0.1,0.2-0.4-0.1-0.5l-1-0.6
												c-0.3-0.2-0.7-0.2-0.9,0l-1.1,0.6C147,102.6,147,102.8,147.3,102.9z"/>
											<path id="XMLID_368_" class="st26" d="M122.9,114.4l1,0.6c0.3,0.2,0.7,0.2,0.9,0l1.8-1c0.2-0.1,0.2-0.4-0.1-0.5l-1-0.6
												c-0.3-0.2-0.7-0.2-0.9,0l-1.8,1C122.6,114,122.6,114.3,122.9,114.4z"/>
											<path id="XMLID_367_" class="st26" d="M125.6,112.9l1,0.6c0.3,0.2,0.7,0.2,0.9,0l1.1-0.6c0.2-0.1,0.2-0.4-0.1-0.5l-1-0.6
												c-0.3-0.2-0.7-0.2-0.9,0l-1.1,0.6C125.3,112.5,125.3,112.7,125.6,112.9z"/>
											<path id="XMLID_366_" class="st26" d="M127.5,111.8l1,0.6c0.3,0.2,0.7,0.2,0.9,0l1.1-0.6c0.2-0.1,0.2-0.4-0.1-0.5l-1-0.6
												c-0.3-0.2-0.7-0.2-0.9,0l-1.1,0.6C127.2,111.4,127.2,111.6,127.5,111.8z"/>
											<path id="XMLID_365_" class="st26" d="M129.5,110.6l1,0.6c0.3,0.2,0.7,0.2,0.9,0l1.1-0.6c0.2-0.1,0.2-0.4-0.1-0.5l-1-0.6
												c-0.3-0.2-0.7-0.2-0.9,0l-1.1,0.6C129.2,110.2,129.2,110.5,129.5,110.6z"/>
											<path id="XMLID_364_" class="st26" d="M131.4,109.5l1,0.6c0.3,0.2,0.7,0.2,0.9,0l1.1-0.6c0.2-0.1,0.2-0.4-0.1-0.5l-1-0.6
												c-0.3-0.2-0.7-0.2-0.9,0l-1.1,0.6C131.1,109.1,131.2,109.3,131.4,109.5z"/>
											<path id="XMLID_363_" class="st26" d="M133.4,108.4l1,0.6c0.3,0.2,0.7,0.2,0.9,0l1.1-0.6c0.2-0.1,0.2-0.4-0.1-0.5l-1-0.6
												c-0.3-0.2-0.7-0.2-0.9,0l-1.1,0.6C133.1,108,133.1,108.2,133.4,108.4z"/>
											<path id="XMLID_362_" class="st26" d="M135.4,107.2l1,0.6c0.3,0.2,0.7,0.2,0.9,0l1.1-0.6c0.2-0.1,0.2-0.4-0.1-0.5l-1-0.6
												c-0.3-0.2-0.7-0.2-0.9,0l-1.1,0.6C135,106.8,135.1,107.1,135.4,107.2z"/>
											<path id="XMLID_361_" class="st26" d="M137.3,106.1l1,0.6c0.3,0.2,0.7,0.2,0.9,0l1.1-0.6c0.2-0.1,0.2-0.4-0.1-0.5l-1-0.6
												c-0.3-0.2-0.7-0.2-0.9,0l-1.1,0.6C137,105.7,137,105.9,137.3,106.1z"/>
											<path id="XMLID_360_" class="st26" d="M139.3,105l1,0.6c0.3,0.2,0.7,0.2,0.9,0l1.1-0.6c0.2-0.1,0.2-0.4-0.1-0.5l-1-0.6
												c-0.3-0.2-0.7-0.2-0.9,0l-1.1,0.6C139,104.6,139,104.8,139.3,105z"/>
											<path id="XMLID_359_" class="st26" d="M141.2,103.8l1,0.6c0.3,0.2,0.7,0.2,0.9,0l1.1-0.6c0.2-0.1,0.2-0.4-0.1-0.5l-1-0.6
												c-0.3-0.2-0.7-0.2-0.9,0l-1.1,0.6C140.9,103.4,141,103.7,141.2,103.8z"/>
											<path id="XMLID_358_" class="st26" d="M143.2,102.7l1,0.6c0.3,0.2,0.7,0.2,0.9,0l1.1-0.6c0.2-0.1,0.2-0.4-0.1-0.5l-1-0.6
												c-0.3-0.2-0.7-0.2-0.9,0l-1.1,0.6C142.9,102.3,142.9,102.6,143.2,102.7z"/>
											<path id="XMLID_357_" class="st26" d="M123.7,111.3l1,0.6c0.3,0.2,0.7,0.2,0.9,0l1.1-0.6c0.2-0.1,0.2-0.4-0.1-0.5l-1-0.6
												c-0.3-0.2-0.7-0.2-0.9,0l-1.1,0.6C123.4,110.9,123.5,111.2,123.7,111.3z"/>
											<path id="XMLID_356_" class="st26" d="M125.7,110.2l1,0.6c0.3,0.2,0.7,0.2,0.9,0l1.1-0.6c0.2-0.1,0.2-0.4-0.1-0.5l-1-0.6
												c-0.3-0.2-0.7-0.2-0.9,0l-1.1,0.6C125.4,109.8,125.4,110.1,125.7,110.2z"/>
											<path id="XMLID_355_" class="st26" d="M127.6,109.1l1,0.6c0.3,0.2,0.7,0.2,0.9,0l1.1-0.6c0.2-0.1,0.2-0.4-0.1-0.5l-1-0.6
												c-0.3-0.2-0.7-0.2-0.9,0l-1.1,0.6C127.3,108.7,127.4,108.9,127.6,109.1z"/>
											<path id="XMLID_354_" class="st26" d="M129.6,108l1,0.6c0.3,0.2,0.7,0.2,0.9,0l1.1-0.6c0.2-0.1,0.2-0.4-0.1-0.5l-1-0.6
												c-0.3-0.2-0.7-0.2-0.9,0l-1.1,0.6C129.3,107.6,129.3,107.8,129.6,108z"/>
											<path id="XMLID_353_" class="st26" d="M131.5,106.8l1,0.6c0.3,0.2,0.7,0.2,0.9,0l1.1-0.6c0.2-0.1,0.2-0.4-0.1-0.5l-1-0.6
												c-0.3-0.2-0.7-0.2-0.9,0l-1.1,0.6C131.2,106.4,131.2,106.7,131.5,106.8z"/>
											<path id="XMLID_352_" class="st26" d="M133.5,105.7l1,0.6c0.3,0.2,0.7,0.2,0.9,0l1.1-0.6c0.2-0.1,0.2-0.4-0.1-0.5l-1-0.6
												c-0.3-0.2-0.7-0.2-0.9,0l-1.1,0.6C133.2,105.3,133.2,105.6,133.5,105.7z"/>
											<path id="XMLID_351_" class="st26" d="M135.4,104.6l1,0.6c0.3,0.2,0.7,0.2,0.9,0l1.1-0.6c0.2-0.1,0.2-0.4-0.1-0.5l-1-0.6
												c-0.3-0.2-0.7-0.2-0.9,0l-1.1,0.6C135.1,104.2,135.1,104.4,135.4,104.6z"/>
											<path id="XMLID_350_" class="st26" d="M137.4,103.5l1,0.6c0.3,0.2,0.7,0.2,0.9,0l1.1-0.6c0.2-0.1,0.2-0.4-0.1-0.5l-1-0.6
												c-0.3-0.2-0.7-0.2-0.9,0l-1.1,0.6C137,103.1,137.1,103.3,137.4,103.5z"/>
											<path id="XMLID_349_" class="st26" d="M122.5,109.5l1,0.6c0.3,0.2,0.7,0.2,0.9,0l1.1-0.6c0.2-0.1,0.2-0.4-0.1-0.5l-1-0.6
												c-0.3-0.2-0.7-0.2-0.9,0l-1.1,0.6C122.2,109.1,122.2,109.3,122.5,109.5z"/>
											<path id="XMLID_348_" class="st26" d="M124.4,108.3l1,0.6c0.3,0.2,0.7,0.2,0.9,0l1.1-0.6c0.2-0.1,0.2-0.4-0.1-0.5l-1-0.6
												c-0.3-0.2-0.7-0.2-0.9,0l-1.1,0.6C124.1,107.9,124.1,108.2,124.4,108.3z"/>
											<path id="XMLID_347_" class="st26" d="M126.3,107.2l1,0.6c0.3,0.2,0.7,0.2,0.9,0l1.1-0.6c0.2-0.1,0.2-0.4-0.1-0.5l-1-0.6
												c-0.3-0.2-0.7-0.2-0.9,0l-1.1,0.6C126,106.8,126.1,107.1,126.3,107.2z"/>
											<path id="XMLID_346_" class="st26" d="M116.1,110.6l1,0.6c0.3,0.2,0.7,0.2,0.9,0l1.1-0.6c0.2-0.1,0.2-0.4-0.1-0.5l-1-0.6
												c-0.3-0.2-0.7-0.2-0.9,0L116,110C115.8,110.2,115.8,110.4,116.1,110.6z"/>
											<path id="XMLID_345_" class="st26" d="M118,109.4l1,0.6c0.3,0.2,0.7,0.2,0.9,0l1.1-0.6c0.2-0.1,0.2-0.4-0.1-0.5l-1-0.6
												c-0.3-0.2-0.7-0.2-0.9,0l-1.1,0.6C117.7,109,117.7,109.3,118,109.4z"/>
											<path id="XMLID_344_" class="st26" d="M120,108.3l1,0.6c0.3,0.2,0.7,0.2,0.9,0l1.1-0.6c0.2-0.1,0.2-0.4-0.1-0.5l-1-0.6
												c-0.3-0.2-0.7-0.2-0.9,0l-1.1,0.6C119.7,107.9,119.7,108.2,120,108.3z"/>
											<path id="XMLID_343_" class="st26" d="M134.4,100l1,0.6c0.3,0.2,0.7,0.2,0.9,0l1.1-0.6c0.2-0.1,0.2-0.4-0.1-0.5l-1-0.6
												c-0.3-0.2-0.7-0.2-0.9,0l-1.1,0.6C134.1,99.6,134.1,99.8,134.4,100z"/>
											<path id="XMLID_342_" class="st26" d="M136.3,98.9l1,0.6c0.3,0.2,0.7,0.2,0.9,0l1.1-0.6c0.2-0.1,0.2-0.4-0.1-0.5l-1-0.6
												c-0.3-0.2-0.7-0.2-0.9,0l-1.1,0.6C136,98.5,136,98.7,136.3,98.9z"/>
											<path id="XMLID_341_" class="st26" d="M138.3,97.7l1,0.6c0.3,0.2,0.7,0.2,0.9,0l1.1-0.6c0.2-0.1,0.2-0.4-0.1-0.5l-1-0.6
												c-0.3-0.2-0.7-0.2-0.9,0l-1.1,0.6C138,97.3,138,97.6,138.3,97.7z"/>
											<path id="XMLID_340_" class="st26" d="M128.3,106.1l1,0.6c0.3,0.2,0.7,0.2,0.9,0l1.1-0.6c0.2-0.1,0.2-0.4-0.1-0.5l-1-0.6
												c-0.3-0.2-0.7-0.2-0.9,0l-1.1,0.6C128,105.7,128,105.9,128.3,106.1z"/>
											<path id="XMLID_339_" class="st26" d="M130.2,105l1,0.6c0.3,0.2,0.7,0.2,0.9,0l1.1-0.6c0.2-0.1,0.2-0.4-0.1-0.5l-1-0.6
												c-0.3-0.2-0.7-0.2-0.9,0l-1.1,0.6C129.9,104.6,130,104.8,130.2,105z"/>
											<path id="XMLID_338_" class="st26" d="M132.2,103.9l1,0.6c0.3,0.2,0.7,0.2,0.9,0l1.1-0.6c0.2-0.1,0.2-0.4-0.1-0.5l-1-0.6
												c-0.3-0.2-0.7-0.2-0.9,0l-1.1,0.6C131.9,103.5,131.9,103.7,132.2,103.9z"/>
											<path id="XMLID_337_" class="st26" d="M134.1,102.7l1,0.6c0.3,0.2,0.7,0.2,0.9,0l1.1-0.6c0.2-0.1,0.2-0.4-0.1-0.5l-1-0.6
												c-0.3-0.2-0.7-0.2-0.9,0l-1.1,0.6C133.8,102.3,133.9,102.6,134.1,102.7z"/>
											<path id="XMLID_336_" class="st26" d="M136.1,101.6l1,0.6c0.3,0.2,0.7,0.2,0.9,0l1.1-0.6c0.2-0.1,0.2-0.4-0.1-0.5l-1-0.6
												c-0.3-0.2-0.7-0.2-0.9,0l-1.1,0.6C135.8,101.2,135.8,101.5,136.1,101.6z"/>
											<path id="XMLID_335_" class="st26" d="M139.3,102.4l1,0.6c0.3,0.2,0.7,0.2,0.9,0l1.1-0.6c0.2-0.1,0.2-0.4-0.1-0.5l-1-0.6
												c-0.3-0.2-0.7-0.2-0.9,0l-1.1,0.6C139,102,139,102.2,139.3,102.4z"/>
											<path id="XMLID_334_" class="st26" d="M145,101.6l1,0.6c0.3,0.2,0.7,0.2,0.9,0l1.1-0.6c0.2-0.1,0.2-0.4-0.1-0.5l-1-0.6
												c-0.3-0.2-0.7-0.2-0.9,0l-1.1,0.6C144.7,101.2,144.8,101.5,145,101.6z"/>
											<path id="XMLID_333_" class="st26" d="M120.6,113.1l1,0.6c0.3,0.2,0.7,0.2,0.9,0l2.3-1.3c0.2-0.1,0.2-0.4-0.1-0.5l-1-0.6
												c-0.3-0.2-0.7-0.2-0.9,0l-2.3,1.3C120.3,112.7,120.3,113,120.6,113.1z"/>
											<path id="XMLID_332_" class="st26" d="M138.1,100.4l1,0.6c0.3,0.2,0.7,0.2,0.9,0l3.5-2c0.2-0.1,0.2-0.4-0.1-0.5l-1-0.6
												c-0.3-0.2-0.7-0.2-0.9,0l-3.5,2C137.8,100,137.9,100.3,138.1,100.4z"/>
											<path id="XMLID_331_" class="st26" d="M122,107.1l1,0.6c0.3,0.2,0.7,0.2,0.9,0l11.3-6.5c0.2-0.1,0.2-0.4-0.1-0.5l-1-0.6
												c-0.3-0.2-0.7-0.2-0.9,0l-11.3,6.5C121.7,106.7,121.8,107,122,107.1z"/>
											<path id="XMLID_330_" class="st26" d="M118.4,111.8l1,0.6c0.3,0.2,0.7,0.2,0.9,0l3-1.7c0.2-0.1,0.2-0.4-0.1-0.5l-1-0.6
												c-0.3-0.2-0.7-0.2-0.9,0l-3,1.7C118.1,111.4,118.1,111.7,118.4,111.8z"/>
											<path id="XMLID_329_" class="st26" d="M141.3,101.2l1,0.6c0.3,0.2,0.7,0.2,0.9,0l2.6-1.5c0.2-0.1,0.2-0.4-0.1-0.5l-1-0.6
												c-0.3-0.2-0.7-0.2-0.9,0l-2.6,1.5C140.9,100.8,141,101.1,141.3,101.2z"/>
										</g>
										<g id="XMLID_275_">
											<path id="XMLID_327_" class="st9" d="M126.2,114.5l-1.1,0.6c-0.2,0.1-0.2,0.3,0,0.4l1,0.6c0.2,0.1,0.5,0.1,0.7,0l1.1-0.6
												c0.2-0.1,0.2-0.3,0-0.4l-1-0.6C126.7,114.4,126.4,114.4,126.2,114.5z"/>
											<path id="XMLID_326_" class="st9" d="M128.4,113.2l-1.1,0.6c-0.2,0.1-0.2,0.3,0,0.4l1,0.6c0.2,0.1,0.5,0.1,0.7,0l1.1-0.6
												c0.2-0.1,0.2-0.3,0-0.4l-1-0.6C128.9,113.1,128.6,113.1,128.4,113.2z"/>
											<path id="XMLID_325_" class="st9" d="M130.6,111.9l-1.1,0.6c-0.2,0.1-0.2,0.3,0,0.4l1,0.6c0.2,0.1,0.5,0.1,0.7,0l1.1-0.6
												c0.2-0.1,0.2-0.3,0-0.4l-1-0.6C131.1,111.8,130.8,111.8,130.6,111.9z"/>
											<path id="XMLID_324_" class="st9" d="M132.8,110.7l-1.1,0.6c-0.2,0.1-0.2,0.3,0,0.4l1,0.6c0.2,0.1,0.5,0.1,0.7,0l1.1-0.6
												c0.2-0.1,0.2-0.3,0-0.4l-1-0.6C133.3,110.6,133,110.6,132.8,110.7z"/>
											<path id="XMLID_323_" class="st9" d="M135,109.4L134,110c-0.2,0.1-0.2,0.3,0,0.4l1,0.6c0.2,0.1,0.5,0.1,0.7,0l1.1-0.6
												c0.2-0.1,0.2-0.3,0-0.4l-1-0.6C135.5,109.3,135.2,109.3,135,109.4z"/>
											<path id="XMLID_322_" class="st9" d="M137.3,108.1l-1.1,0.6c-0.2,0.1-0.2,0.3,0,0.4l1,0.6c0.2,0.1,0.5,0.1,0.7,0l1.1-0.6
												c0.2-0.1,0.2-0.3,0-0.4l-1-0.6C137.7,108,137.4,108,137.3,108.1z"/>
											<path id="XMLID_321_" class="st9" d="M139.5,106.8l-1.1,0.6c-0.2,0.1-0.2,0.3,0,0.4l1,0.6c0.2,0.1,0.5,0.1,0.7,0l1.1-0.6
												c0.2-0.1,0.2-0.3,0-0.4l-1-0.6C140,106.7,139.7,106.7,139.5,106.8z"/>
											<path id="XMLID_320_" class="st9" d="M141.7,105.5l-1.1,0.6c-0.2,0.1-0.2,0.3,0,0.4l1,0.6c0.2,0.1,0.5,0.1,0.7,0l1.1-0.6
												c0.2-0.1,0.2-0.3,0-0.4l-1-0.6C142.2,105.5,141.9,105.4,141.7,105.5z"/>
											<path id="XMLID_319_" class="st9" d="M143.9,104.3l-1.1,0.6c-0.2,0.1-0.2,0.3,0,0.4l1,0.6c0.2,0.1,0.5,0.1,0.7,0l1.1-0.6
												c0.2-0.1,0.2-0.3,0-0.4l-1-0.6C144.4,104.2,144.1,104.2,143.9,104.3z"/>
											<path id="XMLID_318_" class="st9" d="M146.1,103l-1.1,0.6c-0.2,0.1-0.2,0.3,0,0.4l1,0.6c0.2,0.1,0.5,0.1,0.7,0l1.1-0.6
												c0.2-0.1,0.2-0.3,0-0.4l-1-0.6C146.6,102.9,146.3,102.9,146.1,103z"/>
											<path id="XMLID_317_" class="st9" d="M148.3,101.7l-1.1,0.6c-0.2,0.1-0.2,0.3,0,0.4l1,0.6c0.2,0.1,0.5,0.1,0.7,0l1.1-0.6
												c0.2-0.1,0.2-0.3,0-0.4l-1-0.6C148.8,101.6,148.5,101.6,148.3,101.7z"/>
											<path id="XMLID_316_" class="st9" d="M124.6,112.8l-1.8,1c-0.2,0.1-0.2,0.3,0,0.4l1,0.6c0.2,0.1,0.5,0.1,0.7,0l1.8-1
												c0.2-0.1,0.2-0.3,0-0.4l-1-0.6C125.1,112.7,124.8,112.7,124.6,112.8z"/>
											<path id="XMLID_315_" class="st9" d="M126.6,111.6l-1.1,0.6c-0.2,0.1-0.2,0.3,0,0.4l1,0.6c0.2,0.1,0.5,0.1,0.7,0l1.1-0.6
												c0.2-0.1,0.2-0.3,0-0.4l-1-0.6C127.1,111.6,126.8,111.5,126.6,111.6z"/>
											<path id="XMLID_314_" class="st9" d="M128.6,110.5l-1.1,0.6c-0.2,0.1-0.2,0.3,0,0.4l1,0.6c0.2,0.1,0.5,0.1,0.7,0l1.1-0.6
												c0.2-0.1,0.2-0.3,0-0.4l-1-0.6C129.1,110.4,128.8,110.4,128.6,110.5z"/>
											<path id="XMLID_313_" class="st9" d="M130.5,109.4l-1.1,0.6c-0.2,0.1-0.2,0.3,0,0.4l1,0.6c0.2,0.1,0.5,0.1,0.7,0l1.1-0.6
												c0.2-0.1,0.2-0.3,0-0.4l-1-0.6C131,109.3,130.7,109.3,130.5,109.4z"/>
											<path id="XMLID_312_" class="st9" d="M132.5,108.2l-1.1,0.6c-0.2,0.1-0.2,0.3,0,0.4l1,0.6c0.2,0.1,0.5,0.1,0.7,0l1.1-0.6
												c0.2-0.1,0.2-0.3,0-0.4l-1-0.6C133,108.2,132.7,108.1,132.5,108.2z"/>
											<path id="XMLID_311_" class="st9" d="M134.5,107.1l-1.1,0.6c-0.2,0.1-0.2,0.3,0,0.4l1,0.6c0.2,0.1,0.5,0.1,0.7,0l1.1-0.6
												c0.2-0.1,0.2-0.3,0-0.4l-1-0.6C134.9,107,134.6,107,134.5,107.1z"/>
											<path id="XMLID_310_" class="st9" d="M136.4,106l-1.1,0.6c-0.2,0.1-0.2,0.3,0,0.4l1,0.6c0.2,0.1,0.5,0.1,0.7,0l1.1-0.6
												c0.2-0.1,0.2-0.3,0-0.4l-1-0.6C136.9,105.9,136.6,105.9,136.4,106z"/>
											<path id="XMLID_309_" class="st9" d="M138.4,104.9l-1.1,0.6c-0.2,0.1-0.2,0.3,0,0.4l1,0.6c0.2,0.1,0.5,0.1,0.7,0l1.1-0.6
												c0.2-0.1,0.2-0.3,0-0.4l-1-0.6C138.9,104.8,138.5,104.8,138.4,104.9z"/>
											<path id="XMLID_308_" class="st9" d="M140.3,103.7l-1.1,0.6c-0.2,0.1-0.2,0.3,0,0.4l1,0.6c0.2,0.1,0.5,0.1,0.7,0l1.1-0.6
												c0.2-0.1,0.2-0.3,0-0.4l-1-0.6C140.8,103.6,140.5,103.6,140.3,103.7z"/>
											<path id="XMLID_307_" class="st9" d="M142.3,102.6l-1.1,0.6c-0.2,0.1-0.2,0.3,0,0.4l1,0.6c0.2,0.1,0.5,0.1,0.7,0l1.1-0.6
												c0.2-0.1,0.2-0.3,0-0.4l-1-0.6C142.8,102.5,142.5,102.5,142.3,102.6z"/>
											<path id="XMLID_306_" class="st9" d="M144.2,101.5l-1.1,0.6c-0.2,0.1-0.2,0.3,0,0.4l1,0.6c0.2,0.1,0.5,0.1,0.7,0l1.1-0.6
												c0.2-0.1,0.2-0.3,0-0.4l-1-0.6C144.7,101.4,144.4,101.4,144.2,101.5z"/>
											<path id="XMLID_305_" class="st9" d="M124.8,110.1l-1.1,0.6c-0.2,0.1-0.2,0.3,0,0.4l1,0.6c0.2,0.1,0.5,0.1,0.7,0l1.1-0.6
												c0.2-0.1,0.2-0.3,0-0.4l-1-0.6C125.3,110,125,110,124.8,110.1z"/>
											<path id="XMLID_304_" class="st9" d="M126.7,109l-1.1,0.6c-0.2,0.1-0.2,0.3,0,0.4l1,0.6c0.2,0.1,0.5,0.1,0.7,0l1.1-0.6
												c0.2-0.1,0.2-0.3,0-0.4l-1-0.6C127.2,108.9,126.9,108.9,126.7,109z"/>
											<path id="XMLID_303_" class="st9" d="M128.7,107.8l-1.1,0.6c-0.2,0.1-0.2,0.3,0,0.4l1,0.6c0.2,0.1,0.5,0.1,0.7,0l1.1-0.6
												c0.2-0.1,0.2-0.3,0-0.4l-1-0.6C129.2,107.8,128.9,107.7,128.7,107.8z"/>
											<path id="XMLID_302_" class="st9" d="M130.6,106.7l-1.1,0.6c-0.2,0.1-0.2,0.3,0,0.4l1,0.6c0.2,0.1,0.5,0.1,0.7,0l1.1-0.6
												c0.2-0.1,0.2-0.3,0-0.4l-1-0.6C131.1,106.6,130.8,106.6,130.6,106.7z"/>
											<path id="XMLID_301_" class="st9" d="M132.6,105.6l-1.1,0.6c-0.2,0.1-0.2,0.3,0,0.4l1,0.6c0.2,0.1,0.5,0.1,0.7,0l1.1-0.6
												c0.2-0.1,0.2-0.3,0-0.4l-1-0.6C133.1,105.5,132.8,105.5,132.6,105.6z"/>
											<path id="XMLID_300_" class="st9" d="M134.5,104.5l-1.1,0.6c-0.2,0.1-0.2,0.3,0,0.4l1,0.6c0.2,0.1,0.5,0.1,0.7,0l1.1-0.6
												c0.2-0.1,0.2-0.3,0-0.4l-1-0.6C135,104.4,134.7,104.4,134.5,104.5z"/>
											<path id="XMLID_299_" class="st9" d="M136.5,103.4l-1.1,0.6c-0.2,0.1-0.2,0.3,0,0.4l1,0.6c0.2,0.1,0.5,0.1,0.7,0l1.1-0.6
												c0.2-0.1,0.2-0.3,0-0.4l-1-0.6C136.9,103.3,136.6,103.2,136.5,103.4z"/>
											<path id="XMLID_298_" class="st9" d="M138.4,102.2l-1.1,0.6c-0.2,0.1-0.2,0.3,0,0.4l1,0.6c0.2,0.1,0.5,0.1,0.7,0l1.1-0.6
												c0.2-0.1,0.2-0.3,0-0.4l-1-0.6C138.9,102.1,138.6,102.1,138.4,102.2z"/>
											<path id="XMLID_297_" class="st9" d="M123.5,108.2l-1.1,0.6c-0.2,0.1-0.2,0.3,0,0.4l1,0.6c0.2,0.1,0.5,0.1,0.7,0l1.1-0.6
												c0.2-0.1,0.2-0.3,0-0.4l-1-0.6C124,108.1,123.7,108.1,123.5,108.2z"/>
											<path id="XMLID_296_" class="st9" d="M125.5,107.1l-1.1,0.6c-0.2,0.1-0.2,0.3,0,0.4l1,0.6c0.2,0.1,0.5,0.1,0.7,0l1.1-0.6
												c0.2-0.1,0.2-0.3,0-0.4l-1-0.6C125.9,107,125.6,107,125.5,107.1z"/>
											<path id="XMLID_295_" class="st9" d="M127.4,106l-1.1,0.6c-0.2,0.1-0.2,0.3,0,0.4l1,0.6c0.2,0.1,0.5,0.1,0.7,0l1.1-0.6
												c0.2-0.1,0.2-0.3,0-0.4l-1-0.6C127.9,105.9,127.6,105.9,127.4,106z"/>
											<path id="XMLID_294_" class="st9" d="M117.1,109.3l-1.1,0.6c-0.2,0.1-0.2,0.3,0,0.4l1,0.6c0.2,0.1,0.5,0.1,0.7,0l1.1-0.6
												c0.2-0.1,0.2-0.3,0-0.4l-1-0.6C117.6,109.2,117.3,109.2,117.1,109.3z"/>
											<path id="XMLID_293_" class="st9" d="M119.1,108.2l-1.1,0.6c-0.2,0.1-0.2,0.3,0,0.4l1,0.6c0.2,0.1,0.5,0.1,0.7,0l1.1-0.6
												c0.2-0.1,0.2-0.3,0-0.4l-1-0.6C119.6,108.1,119.3,108.1,119.1,108.2z"/>
											<path id="XMLID_292_" class="st9" d="M121,107.1l-1.1,0.6c-0.2,0.1-0.2,0.3,0,0.4l1,0.6c0.2,0.1,0.5,0.1,0.7,0l1.1-0.6
												c0.2-0.1,0.2-0.3,0-0.4l-1-0.6C121.5,107,121.2,107,121,107.1z"/>
											<g id="XMLID_288_">
												<path id="XMLID_291_" class="st9" d="M135.4,98.7l-1.1,0.6c-0.2,0.1-0.2,0.3,0,0.4l1,0.6c0.2,0.1,0.5,0.1,0.7,0l1.1-0.6
													c0.2-0.1,0.2-0.3,0-0.4l-1-0.6C135.9,98.7,135.6,98.6,135.4,98.7z"/>
												<path id="XMLID_290_" class="st9" d="M137.4,97.6l-1.1,0.6c-0.2,0.1-0.2,0.3,0,0.4l1,0.6c0.2,0.1,0.5,0.1,0.7,0l1.1-0.6
													c0.2-0.1,0.2-0.3,0-0.4l-1-0.6C137.9,97.5,137.6,97.5,137.4,97.6z"/>
												<path id="XMLID_289_" class="st9" d="M139.3,96.5l-1.1,0.6c-0.2,0.1-0.2,0.3,0,0.4l1,0.6c0.2,0.1,0.5,0.1,0.7,0l1.1-0.6
													c0.2-0.1,0.2-0.3,0-0.4l-1-0.6C139.8,96.4,139.5,96.4,139.3,96.5z"/>
											</g>
											<path id="XMLID_287_" class="st9" d="M129.4,104.9l-1.1,0.6c-0.2,0.1-0.2,0.3,0,0.4l1,0.6c0.2,0.1,0.5,0.1,0.7,0l1.1-0.6
												c0.2-0.1,0.2-0.3,0-0.4l-1-0.6C129.8,104.8,129.5,104.8,129.4,104.9z"/>
											<path id="XMLID_286_" class="st9" d="M131.3,103.7l-1.1,0.6c-0.2,0.1-0.2,0.3,0,0.4l1,0.6c0.2,0.1,0.5,0.1,0.7,0l1.1-0.6
												c0.2-0.1,0.2-0.3,0-0.4l-1-0.6C131.8,103.6,131.5,103.6,131.3,103.7z"/>
											<path id="XMLID_285_" class="st9" d="M133.2,102.6l-1.1,0.6c-0.2,0.1-0.2,0.3,0,0.4l1,0.6c0.2,0.1,0.5,0.1,0.7,0l1.1-0.6
												c0.2-0.1,0.2-0.3,0-0.4l-1-0.6C133.7,102.5,133.4,102.5,133.2,102.6z"/>
											<path id="XMLID_284_" class="st9" d="M135.2,101.5l-1.1,0.6c-0.2,0.1-0.2,0.3,0,0.4l1,0.6c0.2,0.1,0.5,0.1,0.7,0l1.1-0.6
												c0.2-0.1,0.2-0.3,0-0.4l-1-0.6C135.7,101.4,135.4,101.4,135.2,101.5z"/>
											<path id="XMLID_283_" class="st9" d="M137.1,100.4L136,101c-0.2,0.1-0.2,0.3,0,0.4l1,0.6c0.2,0.1,0.5,0.1,0.7,0l1.1-0.6
												c0.2-0.1,0.2-0.3,0-0.4l-1-0.6C137.6,100.3,137.3,100.3,137.1,100.4z"/>
											<path id="XMLID_282_" class="st9" d="M140.4,101.1l-1.1,0.6c-0.2,0.1-0.2,0.3,0,0.4l1,0.6c0.2,0.1,0.5,0.1,0.7,0l1.1-0.6
												c0.2-0.1,0.2-0.3,0-0.4l-1-0.6C140.8,101,140.5,101,140.4,101.1z"/>
											<path id="XMLID_281_" class="st9" d="M146.1,100.4L145,101c-0.2,0.1-0.2,0.3,0,0.4l1,0.6c0.2,0.1,0.5,0.1,0.7,0l1.1-0.6
												c0.2-0.1,0.2-0.3,0-0.4l-1-0.6C146.6,100.3,146.3,100.3,146.1,100.4z"/>
											<path id="XMLID_280_" class="st9" d="M122.8,111.2l-2.2,1.3c-0.2,0.1-0.2,0.3,0,0.4l1,0.6c0.2,0.1,0.5,0.1,0.7,0l2.2-1.3
												c0.2-0.1,0.2-0.3,0-0.4l-1-0.6C123.3,111.1,123,111.1,122.8,111.2z"/>
											<path id="XMLID_279_" class="st9" d="M141.6,97.8l-3.5,2c-0.2,0.1-0.2,0.3,0,0.4l1,0.6c0.2,0.1,0.5,0.1,0.7,0l3.5-2
												c0.2-0.1,0.2-0.3,0-0.4l-1-0.6C142.1,97.7,141.8,97.7,141.6,97.8z"/>
											<path id="XMLID_278_" class="st9" d="M133.3,100l-11.3,6.5c-0.2,0.1-0.2,0.3,0,0.4l1,0.6c0.2,0.1,0.5,0.1,0.7,0L135,101
												c0.2-0.1,0.2-0.3,0-0.4l-1-0.6C133.8,99.9,133.5,99.9,133.3,100z"/>
											<path id="XMLID_277_" class="st9" d="M121.3,109.5l-3,1.7c-0.2,0.1-0.2,0.3,0,0.4l1,0.6c0.2,0.1,0.5,0.1,0.7,0l3-1.7
												c0.2-0.1,0.2-0.3,0-0.4l-1-0.6C121.8,109.4,121.5,109.4,121.3,109.5z"/>
											<path id="XMLID_276_" class="st9" d="M143.8,99.1l-2.6,1.5c-0.2,0.1-0.2,0.3,0,0.4l1,0.6c0.2,0.1,0.5,0.1,0.7,0l2.6-1.5
												c0.2-0.1,0.2-0.3,0-0.4l-1-0.6C144.3,99,144,99,143.8,99.1z"/>
										</g>
									</g>
									<g id="XMLID_271_">
										<path id="XMLID_273_" class="st27" d="M128.4,118.3l25.7-15.5c0.2-0.1,0.4-0.5,0.4-0.8l0.5-15.8c0-0.3-0.7-0.7-1-0.5
											L128,100.7c-0.2,0.1-0.4,0.5-0.4,0.8v16.1C127.5,117.9,128.1,118.4,128.4,118.3z"/>
										<path id="XMLID_272_" class="st16" d="M128.5,118.2l26.1-15.1c0.2-0.1,0.4-0.5,0.4-0.8V86.2c0-0.3-0.2-0.4-0.4-0.3
											l-26.1,15.1c-0.2,0.1-0.4,0.5-0.4,0.8v16.1C128.1,118.2,128.3,118.3,128.5,118.2z"/>
									</g>
								</g>
								<path id="XMLID_269_" class="st18" d="M102.7,94.5c1.4,5.7,1.6,10.5,1.6,10.5s10.6-0.9,11.5-1.1c1.1-0.3,3.6-2.5,3.6-2.5
									s1.7-1.4,3.3-0.4c1.6,1.1,2.9,0.4,2.9,0.4s1.2,1.5-0.6,1.5c-1.8,0-3.6,0.3-3.6,0.3l2.8-0.1c1.1-0.2,2.2,0.3,3,1.1l0.4,0.4
									l-0.1,3.3c0,0-0.8-1.7-2.7-0.8c-1.6,0.7-2.5,1.1-6.6,0.7c-0.3,0-2.6,0.7-2.6,0.7s-7.8,4.1-12.1,4.2
									c-4.3,0.1-3.1-1.9-6.4-6.5c-3.3-4.6-3.1-10.2-3.8-11.5c-0.7-1.3-3.5-6.4-2.4-10.5c1-4.1,4.8-5.7,7.1-4.5
									C100.2,81.2,101.6,89.9,102.7,94.5z"/>
								<path id="XMLID_268_" class="st7" d="M97.9,78.2c0,0,2.8,0.5,4.1,6.4c1.3,5.9,1.2,9,1.2,9s1.2,4.1-2.7,4.6
									c-3.9,0.6-7-1.1-7.8-1.9c-0.8-0.9-0.3-0.4-1.1-2.8c-0.8-2.4-2.4-11.1-0.2-12.8C93.8,79.1,95,77.1,97.9,78.2z"/>
							</g>
						</g>
					</g>
				</g>
			</g>
			<g id="XMLID_255_">
				<g id="XMLID_261_">
					<path id="XMLID_262_" class="st12" d="M188.4,85.2c-0.2,0.1-0.5,0.2-0.7,0.1c-2.4-1.4-5.6-1-9,0.9c-3.4,2-6.6,5.3-9,9.5
						c-0.4,0.6-1,1-1.4,0.8s-0.4-0.9,0-1.6c2.8-4.8,6.5-8.7,10.4-10.9c3.9-2.3,7.6-2.6,10.4-1.1c0.4,0.2,0.4,0.9,0,1.6
						C188.9,84.8,188.7,85.1,188.4,85.2z"/>
				</g>
				<g id="XMLID_259_">
					<path id="XMLID_260_" class="st12" d="M182.6,95.1c-0.2,0.1-0.5,0.2-0.7,0.1c-1.8-1-4.7,0.7-6.5,3.8c-0.4,0.6-1,1-1.4,0.8
						c-0.4-0.2-0.4-0.9,0-1.6c2.5-4.4,6.7-6.8,9.2-5.3c0.4,0.2,0.4,0.9,0,1.6C183.1,94.7,182.9,95,182.6,95.1z"/>
				</g>
				<g id="XMLID_257_">
					<path id="XMLID_258_" class="st12" d="M185.6,90.1c-0.2,0.1-0.5,0.2-0.7,0.1c-1.7-0.9-3.8-0.7-6.2,0.6
						c-2.3,1.3-4.5,3.7-6.2,6.5c-0.4,0.6-1,1-1.4,0.8c-0.4-0.2-0.4-0.9,0-1.6c2-3.5,4.7-6.3,7.5-7.9c2.8-1.6,5.5-1.9,7.5-0.8
						c0.4,0.2,0.4,0.9,0,1.6C186.1,89.7,185.8,89.9,185.6,90.1z"/>
				</g>
				<path id="XMLID_256_" class="st12" d="M178.7,103.8c-1.1,0.7-2,0.1-2-1.2c0-1.3,0.9-2.9,2-3.5c1.1-0.7,2-0.1,2,1.2
					C180.7,101.6,179.8,103.2,178.7,103.8z"/>
			</g>
			<g id="XMLID_120_">
				<path id="XMLID_254_" class="st0" d="M50,192l30,13.3c2.4,1.4,6.1,1.6,8.2,0.3l8.8-5c2.1-1.2,1.8-3.3-0.6-4.7l-21-18.6
					c-2.4-1.4-6.1-1.6-8.2-0.3l-17.8,10.2C47.3,188.4,47.6,190.6,50,192z"/>
				<g id="XMLID_121_">
					<rect id="XMLID_253_" x="57" y="164.7" class="st28" width="1.4" height="17.6"/>
					<rect id="XMLID_252_" x="63" y="160.6" class="st28" width="1.4" height="17.6"/>
					<polygon id="XMLID_251_" class="st28" points="63.3,179.5 64.5,178.8 93.6,195.6 92.4,196.3 					"/>
					<polygon id="XMLID_250_" class="st28" points="58.2,182.5 59.3,181.8 88.4,198.6 87.3,199.3 					"/>
					<g id="XMLID_243_">
						<path id="XMLID_249_" class="st29" d="M90,197l2.4,1.3l0,1.4c0,0.6-0.4,0.9-0.9,0.6c-0.4-0.2-0.9-0.8-1-1.3L90,197z"/>
						<path id="XMLID_248_" class="st20" d="M92.5,202.4l-1.1,0.6l-0.7-1.1c-0.4-0.4-0.7-0.8-1-1.4c-0.1-0.2-0.1-0.4-0.2-0.6
							c0,0-0.6-1-0.6-1l1-0.6c0.1-0.1,0.2-0.1,0.4-0.1c0.8-0.1,1.8,0.8,2.3,2C93.1,201.2,93,202.1,92.5,202.4z"/>
						<path id="XMLID_247_" class="st21" d="M91.7,200.9c0.5,1.2,0.2,2.2-0.6,2.3c-0.8,0.1-1.8-0.8-2.3-2c-0.5-1.2-0.2-2.2,0.6-2.3
							C90.1,198.8,91.2,199.7,91.7,200.9z"/>
						<path id="XMLID_246_" class="st29" d="M90.9,201c0.2,0.6,0.1,1-0.3,1.1c-0.4,0-0.9-0.4-1.1-0.9c-0.2-0.6-0.1-1,0.3-1.1
							C90.2,200,90.7,200.4,90.9,201z"/>
						<path id="XMLID_245_" class="st30" d="M88.4,198l2.4,1.3l0,1.4c0,0.6-0.4,0.9-0.9,0.6c-0.4-0.2-0.9-0.8-1-1.3L88.4,198z"/>
						<polygon id="XMLID_244_" class="st14" points="90.9,199.3 88.4,198 90,197 92.5,198.3 						"/>
					</g>
					<g id="XMLID_236_">
						<path id="XMLID_242_" class="st29" d="M53.1,186.9l2.4,1.3l0,1.4c0,0.6-0.4,0.9-0.9,0.6c-0.4-0.2-0.9-0.8-1-1.3L53.1,186.9z"
							/>
						<path id="XMLID_241_" class="st20" d="M55.6,192.4l-1.1,0.6l-0.7-1.1c-0.4-0.4-0.7-0.8-1-1.4c-0.1-0.2-0.1-0.4-0.2-0.6
							c0,0-0.6-1-0.6-1l1-0.6c0.1-0.1,0.2-0.1,0.4-0.1c0.8-0.1,1.8,0.8,2.3,2C56.2,191.2,56.1,192.1,55.6,192.4z"/>
						<path id="XMLID_240_" class="st21" d="M54.7,190.8c0.5,1.2,0.2,2.2-0.6,2.3c-0.8,0.1-1.8-0.8-2.3-2c-0.5-1.2-0.2-2.2,0.6-2.3
							C53.2,188.7,54.3,189.6,54.7,190.8z"/>
						<path id="XMLID_239_" class="st29" d="M54,190.9c0.2,0.6,0.1,1-0.3,1.1c-0.4,0-0.9-0.4-1.1-0.9c-0.2-0.6-0.1-1,0.3-1.1
							C53.3,189.9,53.8,190.3,54,190.9z"/>
						<path id="XMLID_238_" class="st30" d="M51.5,187.9l2.4,1.3l0,1.4c0,0.6-0.4,0.9-0.9,0.6c-0.4-0.2-0.9-0.8-1-1.3L51.5,187.9z"
							/>
						<polygon id="XMLID_237_" class="st14" points="53.9,189.2 51.5,187.9 53.1,186.9 55.5,188.2 						"/>
					</g>
					<g id="XMLID_229_">
						<path id="XMLID_235_" class="st29" d="M70.5,175.4l2.4,1.3l0,1.4c0,0.6-0.4,0.9-0.9,0.6c-0.4-0.2-0.9-0.8-1-1.3L70.5,175.4z"
							/>
						<path id="XMLID_234_" class="st20" d="M73,180.8l-1.1,0.6l-0.7-1.1c-0.4-0.4-0.7-0.8-1-1.4c-0.1-0.2-0.1-0.4-0.2-0.6
							c0,0-0.6-1-0.6-1l1-0.6c0.1-0.1,0.2-0.1,0.4-0.1c0.8-0.1,1.8,0.8,2.3,2C73.7,179.6,73.5,180.5,73,180.8z"/>
						<path id="XMLID_233_" class="st21" d="M72.2,179.2c0.5,1.2,0.2,2.2-0.6,2.3c-0.8,0.1-1.8-0.8-2.3-2c-0.5-1.2-0.2-2.2,0.6-2.3
							C70.7,177.2,71.7,178.1,72.2,179.2z"/>
						<path id="XMLID_232_" class="st29" d="M71.4,179.3c0.2,0.6,0.1,1-0.3,1.1c-0.4,0-0.9-0.4-1.1-0.9c-0.2-0.6-0.1-1,0.3-1.1
							C70.7,178.3,71.2,178.8,71.4,179.3z"/>
						<path id="XMLID_231_" class="st30" d="M69,176.3l2.4,1.3l0,1.4c0,0.6-0.4,0.9-0.9,0.6c-0.4-0.2-0.9-0.8-1-1.3L69,176.3z"/>
						<polygon id="XMLID_230_" class="st14" points="71.4,177.7 69,176.3 70.5,175.4 73,176.7 						"/>
					</g>
					<polygon id="XMLID_228_" class="st15" points="67.3,127.4 66.8,128.7 72.1,133 73.5,138.9 77.4,141.3 74.7,132.4 68.2,126.5 
						67.8,127 					"/>
					<g id="XMLID_224_">
						<polygon id="XMLID_227_" class="st28" points="82,182.2 55.4,166.8 57,165.8 83.7,181.2 						"/>
						<polygon id="XMLID_226_" class="st28" points="87,179.3 60.4,163.9 62.1,162.9 88.7,178.3 						"/>
						<polygon id="XMLID_225_" class="st28" points="92.1,176.3 65.5,161 67.2,160 93.8,175.4 						"/>
					</g>
					<g id="XMLID_215_">
						<g id="XMLID_220_">
							<path id="XMLID_221_" class="st30" d="M70.1,176.8c-0.9,0-1.8,0.2-2.5,0.6l-13.6,7.8c-0.6,0.3-0.9,0.7-0.9,1.1
								c0,0.4,0.4,0.9,1,1.2l28.9,11.5c1.4,0.7,3.6,0.7,4.9-0.1l4.9-2.8c0.5-0.3,0.9-0.7,0.9-1.1c0-0.4-0.3-0.8-0.7-1.1l-20.2-16.6
								C72.1,177,71.1,176.8,70.1,176.8z M85.5,200.7c-1,0-2.1-0.2-2.9-0.6l-28.9-11.5c-1-0.5-1.6-1.3-1.6-2.2
								c0-0.8,0.5-1.6,1.4-2.1l13.6-7.8c1.8-1,4.6-1,6.3,0.1l20.2,16.6c0.8,0.5,1.3,1.3,1.2,2c0,0.8-0.5,1.5-1.4,2l-4.9,2.8
								C87.7,200.5,86.6,200.7,85.5,200.7z"/>
						</g>
						<g id="XMLID_216_">
							<path id="XMLID_217_" class="st14" d="M70.1,176.1c-0.9,0-1.8,0.2-2.5,0.6l-13.6,7.8c-0.6,0.3-0.9,0.7-0.9,1.1
								c0,0.4,0.4,0.9,1,1.2l28.9,11.5c1.4,0.7,3.6,0.7,4.9-0.1l4.9-2.8c0.5-0.3,0.9-0.7,0.9-1.1c0-0.4-0.3-0.8-0.7-1.1l-20.2-16.6
								C72.1,176.3,71.1,176.1,70.1,176.1z M85.5,200.1c-1,0-2.1-0.2-2.9-0.6l-28.9-11.5c-1-0.5-1.6-1.3-1.6-2.2
								c0-0.8,0.5-1.6,1.4-2.1l13.6-7.8c1.8-1,4.6-1,6.3,0.1l20.2,16.6c0.8,0.5,1.3,1.3,1.2,2c0,0.8-0.5,1.5-1.4,2l-4.9,2.8
								C87.7,199.8,86.6,200.1,85.5,200.1z"/>
						</g>
					</g>
					<g id="XMLID_205_">
						<path id="XMLID_6_" class="st28" d="M69.1,158.3c-0.4,0-0.8-0.3-0.8-0.8v-21.4h1.5v21.4C69.9,157.9,69.5,158.3,69.1,158.3z"/>
						<path id="XMLID_8_" class="st31" d="M63.5,161.4c-0.4,0-0.7-0.3-0.8-0.7l-1.4-20.9h1.5l1.4,20.8
							C64.3,161,63.9,161.4,63.5,161.4z"/>
						<path id="XMLID_7_" class="st32" d="M57.9,164.6c-0.4,0-0.7-0.3-0.7-0.6l-2.9-20.4h1.5l2.8,20.2
							C58.7,164.1,58.3,164.6,57.9,164.6z"/>
						<path id="XMLID_5_" class="st20" d="M52.3,167.7c-0.4,0-0.7-0.2-0.7-0.6l-4.3-19.9h1.5l4.3,19.6
							C53.1,167.3,52.7,167.7,52.3,167.7z"/>
					</g>
					<g id="XMLID_199_">
						<path id="XMLID_204_" class="st28" d="M73.2,159.7c-0.2-0.2-0.3-0.5-0.3-0.7l2.2-18.4l1.6,1.1l-2.2,17.6
							C74.5,159.8,73.7,160.1,73.2,159.7z"/>
						<path id="XMLID_203_" class="st28" d="M77.7,162.6c-0.3-0.2-0.4-0.5-0.3-0.9l3.4-17.4l1.5,1l-3.2,16.8
							C79,162.8,78.2,163,77.7,162.6z"/>
						<path id="XMLID_202_" class="st28" d="M82.5,166.1c-0.3-0.2-0.4-0.5-0.3-0.9l4-17.4l1.7,1.1l-4,16.7
							C83.7,166.3,83,166.5,82.5,166.1z"/>
						<path id="XMLID_201_" class="st28" d="M87.2,168.9c-0.3-0.2-0.4-0.5-0.3-0.9l4.4-16.9l1.7,1.1l-4.4,16.2
							C88.5,169.1,87.7,169.3,87.2,168.9z"/>
						<path id="XMLID_200_" class="st28" d="M91.3,171.2c-0.3-0.2-0.4-0.6-0.3-1l5.3-15.8l1.6,1l-5.1,15.4
							C92.5,171.4,91.7,171.7,91.3,171.2z"/>
					</g>
					<g id="XMLID_190_">
						<g id="XMLID_195_">
							<path id="XMLID_196_" class="st28" d="M70,159.5c-0.9,0-1.8,0.2-2.5,0.6l-13.7,7.9c-0.5,0.3-0.8,0.7-0.8,1
								c0,0.4,0.4,0.8,1,1.1l24,12.1c1.4,0.7,3.5,0.7,4.8-0.1l10.6-6.1c0.5-0.3,0.8-0.7,0.8-1c0-0.3-0.2-0.7-0.7-1l-20.9-13.9
								C71.9,159.7,71,159.5,70,159.5z M80.3,184.1c-1.1,0-2.1-0.2-3-0.7l-24-12.1c-1.1-0.5-1.7-1.4-1.7-2.3c0-0.9,0.5-1.7,1.5-2.3
								l13.7-7.9c1.9-1.1,4.8-1,6.5,0.1l20.9,13.9c0.9,0.6,1.3,1.3,1.3,2.1c0,0.8-0.6,1.6-1.5,2.1l-10.6,6.1
								C82.6,183.8,81.4,184.1,80.3,184.1z"/>
						</g>
						<g id="XMLID_191_">
							<path id="XMLID_192_" class="st14" d="M70,158.8c-0.9,0-1.8,0.2-2.5,0.6l-13.7,7.9c-0.5,0.3-0.8,0.7-0.8,1
								c0,0.4,0.4,0.8,1,1.1l24,12.1c1.4,0.7,3.5,0.7,4.8-0.1l10.6-6.1c0.5-0.3,0.8-0.7,0.8-1c0-0.3-0.2-0.7-0.7-1l-20.9-13.9
								C71.9,159,71,158.8,70,158.8z M80.3,183.4c-1.1,0-2.1-0.2-3-0.7l-24-12.1c-1.1-0.5-1.7-1.4-1.7-2.3c0-0.9,0.5-1.7,1.5-2.3
								l13.7-7.9c1.9-1.1,4.8-1,6.5,0.1l20.9,13.9c0.9,0.6,1.3,1.3,1.3,2.1c0,0.8-0.6,1.6-1.5,2.1l-10.6,6.1
								C82.6,183.1,81.4,183.4,80.3,183.4z"/>
						</g>
					</g>
					<g id="XMLID_185_">
						<g id="XMLID_186_">
							<path id="XMLID_187_" class="st28" d="M69.6,151.3c-1,0-2.2,0.4-2.9,0.9l-14.8,8.7c-0.6,0.3-0.9,1.1-0.9,1.5
								c0,0.4,0.3,1.2,1,1.6l27,13.7c1.5,0.8,4.3,0.4,5.7-0.4l11.2-6.4c0.6-0.3,1-1.5,1-1.8c0-0.4-0.6-1-1.1-1.4l-22.9-15.2
								C72.2,152,70.7,151.3,69.6,151.3z M81.6,178.9c-1.1,0-2.2-0.2-3.2-0.7l-26.6-13.5c-1.1-0.6-1.8-1.5-1.8-2.4
								c0-0.9,0.6-1.8,1.6-2.4l14.7-8.5c2-1.1,5.1-1.1,7,0.2L96.5,167c0.9,0.6,1.4,1.4,1.4,2.3c0,0.9-0.6,1.7-1.6,2.3l-11.4,6.6
								C84,178.6,82.8,178.9,81.6,178.9z"/>
						</g>
					</g>
					<g id="XMLID_180_">
						<g id="XMLID_181_">
							<path id="XMLID_182_" class="st14" d="M69.6,150.8c-1,0-2.2,0.4-2.9,0.9l-14.8,8.7c-0.6,0.3-0.9,1.1-0.9,1.5
								c0,0.4,0.3,1.2,1,1.6l27,13.7c1.5,0.8,4.3,0.4,5.7-0.4l11.2-6.4c0.6-0.3,1-1.5,1-1.8c0-0.4-0.6-1-1.1-1.4L72.9,152
								C72.2,151.5,70.7,150.8,69.6,150.8z M81.6,178.5c-1.1,0-2.2-0.2-3.2-0.7l-26.6-13.5c-1.1-0.6-1.8-1.5-1.8-2.4
								c0-0.9,0.6-1.8,1.6-2.4l14.7-8.5c2-1.1,5.1-1.1,7,0.2l23.3,15.4c0.9,0.6,1.4,1.4,1.4,2.3c0,0.9-0.6,1.7-1.6,2.3l-11.4,6.6
								C84,178.2,82.8,178.5,81.6,178.5z"/>
						</g>
					</g>
					<g id="XMLID_169_">
						<g id="XMLID_175_">
							<g id="XMLID_176_">
								<path id="XMLID_177_" class="st28" d="M70,144.4c-1,0-2.4,0.5-3.1,0.9l-15.7,9.2c-0.6,0.4-0.9,1.2-0.9,1.6
									c0,0.5,0.3,1.3,1,1.7L80,172.4c1.6,0.8,4.5,0.4,6-0.5l11.9-6.8c0.6-0.3,1-1.5,1-2c0-0.4-0.6-1.1-1.1-1.4l-24.3-16.1
									C72.7,145.1,71.1,144.4,70,144.4z M82.7,173.7c-1.2,0-2.4-0.2-3.4-0.7l-28.2-14.3c-1.2-0.6-1.9-1.5-1.9-2.6
									c0-1,0.6-1.9,1.7-2.5l15.6-9c2.1-1.2,5.4-1.1,7.4,0.2l24.7,16.4c1,0.6,1.5,1.5,1.5,2.4c0,0.9-0.6,1.8-1.7,2.4l-12.1,7
									C85.2,173.4,84,173.7,82.7,173.7z"/>
							</g>
						</g>
						<g id="XMLID_170_">
							<g id="XMLID_171_">
								<path id="XMLID_172_" class="st14" d="M70,143.9c-1,0-2.4,0.5-3.1,0.9l-15.7,9.2c-0.6,0.4-0.9,1.2-0.9,1.6
									c0,0.5,0.3,1.3,1,1.7L80,171.9c1.6,0.8,4.5,0.4,6-0.5l11.9-6.8c0.6-0.3,1-1.5,1-2c0-0.4-0.6-1.1-1.1-1.4l-24.3-16.1
									C72.7,144.6,71.1,143.9,70,143.9z M82.7,173.2c-1.2,0-2.4-0.2-3.4-0.7l-28.2-14.3c-1.2-0.6-1.9-1.5-1.9-2.6
									c0-1,0.6-1.9,1.7-2.5l15.6-9c2.1-1.2,5.4-1.1,7.4,0.2l24.7,16.4c1,0.6,1.5,1.5,1.5,2.4c0,0.9-0.6,1.8-1.7,2.4l-12.1,7
									C85.2,172.9,84,173.2,82.7,173.2z"/>
							</g>
						</g>
					</g>
					<g id="XMLID_159_">
						<path id="XMLID_2_" class="st15" d="M94.7,174.9c-0.3-0.1-0.5-0.5-0.3-0.8l6.5-15.3h1.1l-6.5,15.7
							C95.3,174.9,95,175,94.7,174.9z"/>
						<path id="XMLID_4_" class="st15" d="M90.2,177.7c-0.4-0.1-0.6-0.5-0.5-0.8l5-14.7h1.2l-5,15.1
							C90.8,177.6,90.5,177.8,90.2,177.7z"/>
						<path id="XMLID_3_" class="st15" d="M85.7,180.6c-0.4,0-0.7-0.4-0.6-0.8l3.5-14.1h1.4L86.4,180
							C86.3,180.4,86,180.6,85.7,180.6z"/>
						<path id="XMLID_1_" class="st15" d="M81.1,183.4c-0.5,0-0.8-0.4-0.7-0.9l2-13.6h1.5l-2,13.8C81.8,183.1,81.5,183.4,81.1,183.4
							z"/>
					</g>
					<g id="XMLID_153_">
						<path id="XMLID_158_" class="st14" d="M55.1,171.4c-0.3-0.1-0.4-0.4-0.4-0.7L53,152.9l1.9,1l1.4,16.6
							C56.4,171.2,55.7,171.7,55.1,171.4z"/>
						<path id="XMLID_157_" class="st14" d="M59.7,174.1c-0.3-0.1-0.5-0.4-0.5-0.8L58.7,156l1.9,1l0.3,16.4
							C60.9,174,60.2,174.4,59.7,174.1z"/>
						<path id="XMLID_156_" class="st14" d="M65.6,177c-0.3-0.2-0.5-0.5-0.5-0.8l0-17.1l1.9,1l-0.1,16.1
							C66.8,176.8,66.2,177.3,65.6,177z"/>
						<path id="XMLID_155_" class="st14" d="M71.2,179.4c-0.3-0.2-0.5-0.5-0.5-0.8l0.9-15.7l1.9,1l-1,14.7
							C72.5,179.3,71.8,179.7,71.2,179.4z"/>
						<path id="XMLID_154_" class="st14" d="M76.3,182.4c-0.3-0.2-0.5-0.5-0.5-0.9l1.6-15.6l1.7,0.9l-1.5,15
							C77.5,182.4,76.8,182.7,76.3,182.4z"/>
					</g>
					<g id="XMLID_144_">
						<g id="XMLID_149_">
							<path id="XMLID_150_" class="st30" d="M68.8,137.7c-1.1,0-2.2,0.2-3.1,0.7L49,148.1c-0.7,0.4-1.1,0.9-1.1,1.4
								c0,0.5,0.5,1.1,1.3,1.5l31.9,16.4c1.7,0.9,4.4,0.8,6-0.1l13-7.5c0.7-0.4,1.1-0.9,1.1-1.4c0-0.5-0.3-0.9-0.9-1.3l-28.1-18.6
								C71.3,138,70.1,137.7,68.8,137.7z M84.1,169.4c-1.3,0-2.5-0.3-3.6-0.8l-31.9-16.4c-1.3-0.6-2-1.6-2-2.7c0-1,0.6-2,1.8-2.6
								l16.7-9.7c2.2-1.3,5.7-1.2,7.8,0.2L101,156c1,0.7,1.5,1.5,1.5,2.5c0,1-0.7,1.9-1.8,2.5l-13,7.5
								C86.8,169.1,85.4,169.4,84.1,169.4z"/>
						</g>
						<g id="XMLID_145_">
							<path id="XMLID_146_" class="st14" d="M68.8,136.9c-1.1,0-2.2,0.2-3.1,0.7L49,147.3c-0.7,0.4-1.1,0.9-1.1,1.4
								c0,0.5,0.5,1.1,1.3,1.5l31.9,16.4c1.7,0.9,4.4,0.8,6-0.1l13-7.5c0.7-0.4,1.1-0.9,1.1-1.4c0-0.5-0.3-0.9-0.9-1.3l-28.1-18.6
								C71.3,137.2,70.1,136.9,68.8,136.9z M84.1,168.6c-1.3,0-2.5-0.3-3.6-0.8l-31.9-16.4c-1.3-0.6-2-1.6-2-2.7c0-1,0.6-2,1.8-2.6
								l16.7-9.7c2.2-1.3,5.7-1.2,7.8,0.2l28.1,18.6c1,0.7,1.5,1.5,1.5,2.5c0,1-0.7,1.9-1.8,2.5l-13,7.5
								C86.8,168.3,85.4,168.6,84.1,168.6z"/>
						</g>
					</g>
					<g id="XMLID_141_">
						<g id="XMLID_142_">
							<path id="XMLID_143_" class="st15" d="M43.3,140.5l-0.2,1.5l4.8,4l1.9,4.3c0.4,1,1.2,1.9,2.2,2.4l0.8,0.4
								c0.4,0.2,0.9-0.2,0.8-0.7l-2.8-7l-6.4-5.8l-0.4,0.5L43.3,140.5z"/>
						</g>
					</g>
					<g id="XMLID_122_">
						<g id="XMLID_134_">
							<g id="XMLID_138_">
								<g id="XMLID_139_">
									<path id="XMLID_140_" class="st33" d="M61.5,122.4l0.5-0.3c0.4-0.2,0.8-0.4,1.7,0.1l4.9,4.7l-1.7,1.2l-4.8-4.5
										c-0.2-0.3-0.3-0.6-0.3-0.8L61.5,122.4z"/>
								</g>
							</g>
							<g id="XMLID_135_">
								<g id="XMLID_136_">
									<path id="XMLID_137_" class="st34" d="M66.8,128.7l1.2-1.5l-4.9-4.4c-0.9-0.6-1.3-0.6-1.7-0.4c-0.3,0.3-0.3,0.9,0.1,1.5
										L66.8,128.7z"/>
								</g>
							</g>
						</g>
						<g id="XMLID_130_">
							<g id="XMLID_131_">
								<path id="XMLID_133_" class="st35" d="M62.6,124c0,0.2-0.1,0.4-0.2,0.5l-22.7,12.9l-1.1-1.8l22.7-12.9
									c0.2-0.1,0.4-0.1,0.5,0C62.3,122.9,62.6,123.5,62.6,124z"/>
								<path id="XMLID_132_" class="st33" d="M62.6,123.6c0-0.2-0.2-0.4-0.3-0.5l-21.9,12.4l0.3,0.5L62.6,123.6z"/>
							</g>
						</g>
						<g id="XMLID_123_">
							<g id="XMLID_127_">
								<g id="XMLID_128_">
									<path id="XMLID_129_" class="st33" d="M37.8,135.7l0.5-0.3c0.4-0.2,0.8-0.4,1.7,0.1l4.9,4.7l-1.7,1.2l-4.8-4.5
										c-0.2-0.3-0.3-0.6-0.3-0.8L37.8,135.7z"/>
								</g>
							</g>
							<g id="XMLID_124_">
								<g id="XMLID_125_">
									<path id="XMLID_126_" class="st34" d="M43.1,142l1.2-1.5l-4.9-4.4c-0.9-0.6-1.3-0.6-1.7-0.4c-0.3,0.3-0.3,0.9,0.1,1.5
										L43.1,142z"/>
								</g>
							</g>
						</g>
					</g>
				</g>
			</g>
			<g id="XMLID_98_">
				<g id="XMLID_101_">
					<polygon id="XMLID_119_" class="st0" points="221.1,122.6 229.7,128.3 219.8,134.1 					"/>
					<g id="XMLID_102_">
						<polygon id="XMLID_118_" class="st0" points="218.8,100.1 201,89.6 206.5,89.1 207.5,85.7 226.2,96.9 220,97 						"/>
						<polygon id="XMLID_117_" class="st36" points="199.1,122.2 204.2,116.2 206.9,89.3 201,89.6 						"/>
						<polygon id="XMLID_116_" class="st37" points="220.4,125.5 219.9,133.6 219.1,100.7 220,97 						"/>
						<polygon id="XMLID_115_" class="st38" points="226.2,96.9 227.4,129.7 220.4,125.5 220,97 						"/>
						<polygon id="XMLID_114_" class="st35" points="219.8,134.1 220.4,125.5 227.4,129.7 						"/>
						<polygon id="XMLID_113_" class="st39" points="201,89.6 199.1,122 219.8,134.1 219.1,100.7 						"/>
						<g id="XMLID_109_">
							<path id="XMLID_110_" class="st40" d="M207.8,86.3L225,96.6l-5,0l-0.3,0l0,0.3l-0.8,3.2l-16.6-10.3l4.4-0.4l0.3,0l0-0.3
								L207.8,86.3L207.8,86.3z M207.5,85.7l-1,3.4l-5.5,0.5l18.1,11.1L220,97l6.2-0.1L207.5,85.7L207.5,85.7z"/>
						</g>
						<g id="XMLID_106_">
							<path id="XMLID_108_" class="st20" d="M204.9,95.3c0,0.2-0.2,0.3-0.4,0.2c-0.2-0.1-0.4-0.4-0.4-0.7c0-0.2,0.2-0.3,0.4-0.2
								C204.7,94.7,204.9,95,204.9,95.3z"/>
							<path id="XMLID_107_" class="st20" d="M214.5,100.8c0,0.2-0.2,0.3-0.4,0.2c-0.2-0.1-0.4-0.4-0.4-0.7c0-0.2,0.2-0.3,0.4-0.2
								C214.3,100.3,214.5,100.6,214.5,100.8z"/>
						</g>
						<g id="XMLID_103_">
							<path id="XMLID_105_" class="st20" d="M204.9,95.3c0,0.2-0.2,0.3-0.4,0.2c-0.2-0.1-0.4-0.4-0.4-0.7c0-0.2,0.2-0.3,0.4-0.2
								C204.7,94.7,204.9,95,204.9,95.3z"/>
							<path id="XMLID_104_" class="st20" d="M214.5,100.8c0,0.2-0.2,0.3-0.4,0.2c-0.2-0.1-0.4-0.4-0.4-0.7c0-0.2,0.2-0.3,0.4-0.2
								C214.3,100.3,214.5,100.6,214.5,100.8z"/>
						</g>
					</g>
				</g>
				<path id="XMLID_100_" class="st11" d="M221.1,93.9c0,0,0.2-10.4-3.3-12.5c-3.6-2.1-4.6,7.8-4.6,7.8l0.4,0.2c0,0,1-9.6,4-7.8
					c3,1.8,3,12,3,12L221.1,93.9z"/>
				<path id="XMLID_99_" class="st11" d="M214.4,100.7c0,0-0.4-14.8-4-16.9c-3.6-2.1-6.1,11.1-6.1,11.1l0.4,0.2
					c0,0,2.5-12.9,5.5-11.1c3,1.8,3.7,16.4,3.7,16.4L214.4,100.7z"/>
			</g>
			<g id="XMLID_91_">
				<path id="XMLID_92_" class="st8" d="M69.3,11.7c0-3.1,1.6-4.2,3.7-3c2.1,1.2,3.6,4,3.6,7c0,3.1-1.5,4.3-3.7,3
					C70.7,17.5,69.3,14.7,69.3,11.7z M71.2,12.8c0,2.1,0.7,3.3,1.7,3.9c1,0.6,1.8,0.2,1.8-2.1c0-2.1-0.8-3.4-1.7-3.9
					C72,10.2,71.2,10.6,71.2,12.8z M74.4,29.1l-2.5-1.4L82,14l2.5,1.4L74.4,29.1z M80.4,27.5c0-3.1,1.6-4.2,3.7-3
					c2.1,1.2,3.6,4,3.6,7c0,3.1-1.5,4.3-3.7,3C81.9,33.3,80.4,30.5,80.4,27.5z M82.3,28.6c0,2.1,0.7,3.3,1.7,3.9
					c1,0.6,1.8,0.2,1.8-2.1c0-2.1-0.8-3.4-1.7-3.9C83.2,26,82.3,26.4,82.3,28.6z"/>
			</g>
			<g id="XMLID_50_">
				<g id="XMLID_60_">
					<polygon id="XMLID_90_" class="st41" points="150.9,185.6 167.2,176.2 146.6,164.3 130.3,173.8 					"/>
					<polygon id="XMLID_89_" class="st41" points="150.9,204.5 167.2,195.1 167.2,176.2 150.9,185.6 					"/>
					<polygon id="XMLID_88_" class="st35" points="150.9,204.5 167.2,195.1 167.2,176.5 150.9,185.9 					"/>
					<polygon id="XMLID_87_" class="st33" points="159.2,180.8 167.2,176.2 146.6,164.3 138.6,169 					"/>
					<polygon id="XMLID_86_" class="st33" points="150.9,185.6 158.9,180.9 138.3,169.1 130.3,173.8 					"/>
					<polygon id="XMLID_85_" class="st34" points="130.3,192.7 150.9,204.5 150.9,185.6 130.3,173.8 					"/>
					<polygon id="XMLID_84_" class="st42" points="166.6,176.8 167.2,176.6 167.2,176.2 					"/>
					<polygon id="XMLID_83_" class="st42" points="150.9,187 150.9,185.6 151.7,185.4 					"/>
					<path id="XMLID_82_" class="st11" d="M137.2,169.7l20.3,11.7c0.2,0.1,0.3,0.3,0.3,0.6v18.5l2.8-1.6v-18.5
						c0-0.2-0.1-0.5-0.3-0.6l-20.3-11.6L137.2,169.7z"/>
					<g id="XMLID_61_">
						<polygon id="XMLID_81_" class="st43" points="140.5,184.6 143.4,186.3 143.4,185.9 140.5,184.3 						"/>
						<polygon id="XMLID_80_" class="st43" points="144.3,186.8 146.2,187.9 146.2,187.5 144.3,186.5 						"/>
						<g id="XMLID_62_">
							<g id="XMLID_78_">
								<path id="XMLID_79_" class="st43" d="M145,186l0.4,0.2c0.4,0.2,0.7,0,0.7-0.5v-0.8l-1.8-1.1v0.8
									C144.3,185.2,144.6,185.8,145,186z"/>
							</g>
							<g id="XMLID_76_">
								<polygon id="XMLID_77_" class="st43" points="145.1,186.9 145.3,187 145.3,185.9 145.1,185.7 								"/>
							</g>
							<g id="XMLID_74_">
								<polygon id="XMLID_75_" class="st43" points="142.4,185.1 143.1,185.5 143.1,183.6 142.4,183.2 								"/>
							</g>
							<g id="XMLID_72_">
								<polygon id="XMLID_73_" class="st43" points="142.2,183.1 143.4,183.8 142.8,182.9 								"/>
							</g>
							<g id="XMLID_70_">
								<polygon id="XMLID_71_" class="st43" points="140.7,184.1 141.4,184.5 141.4,182.6 140.7,182.2 								"/>
							</g>
							<g id="XMLID_68_">
								<polygon id="XMLID_69_" class="st43" points="140.5,182.1 141.6,182.8 141.1,181.9 								"/>
							</g>
							<g id="XMLID_63_">
								<g id="XMLID_66_">
									<path id="XMLID_67_" class="st43" d="M146.5,186.1c0,0,0.2,0,0.5,0.2c0.3,0.2,0.5,0.4,0.5,0.4s0.3,0,0.6,0.2
										c0.3,0.2,0.6,0.5,0.6,0.5s0.3,0,0.5,0.2c0.3,0.2,0.5,0.4,0.5,0.4c-0.3-0.5-0.7-1-1.2-1.4l-0.2-0.1l-0.4-0.3l-0.2-0.1
										C147.2,185.9,146.7,185.9,146.5,186.1z"/>
								</g>
								<g id="XMLID_64_">
									<path id="XMLID_65_" class="st43" d="M148.5,189.2c0.3,0.2,0.6,0.1,0.6-0.2v-0.2c0-0.1-0.1-0.2-0.1-0.2c-0.1,0-0.1,0-0.1,0
										v0.2c0,0.2-0.1,0.2-0.3,0.1c-0.2-0.1-0.3-0.3-0.3-0.5v-2.3c0-0.1-0.1-0.2-0.1-0.2c-0.1,0-0.1,0-0.1,0v2.3
										C147.9,188.7,148.2,189.1,148.5,189.2z"/>
								</g>
							</g>
						</g>
					</g>
				</g>
				<g id="XMLID_51_">
					<g id="XMLID_55_">
						<path id="XMLID_57_" class="st2" d="M131.5,192.1v-5l6.1,3.5v5L131.5,192.1z M132.1,188.1v3.7l5,2.9V191L132.1,188.1z"/>
						<polygon id="XMLID_56_" class="st9" points="131.8,191.9 137.3,195.1 137.3,190.8 131.8,187.6 						"/>
					</g>
					<polygon id="XMLID_54_" class="st44" points="132.3,189 136.8,191.6 136.8,191.1 132.3,188.5 					"/>
					<polygon id="XMLID_53_" class="st44" points="132.3,190.2 136.8,192.8 136.8,192.3 132.3,189.7 					"/>
					<polygon id="XMLID_52_" class="st44" points="132.3,191.3 136.8,194 136.8,193.5 132.3,190.9 					"/>
				</g>
			</g>
		</g>
		<g id="XMLID_31_">
			<path id="XMLID_48_" class="st13" d="M209.6,135.3c0,0,5.1-1.8,4.3,1.1c-0.9,2.9-8.9,5-7.6,6.3c1.3,1.3,5.8-1.1,8.4-3.2
				c1.8-1.5,2.8-4.9,0.4-6c-2.4-1.2-6.1,0.2-6.1,0.2L209.6,135.3z"/>
			<g id="XMLID_32_">
				<path id="XMLID_47_" class="st27" d="M207.5,129.2c0,0,1.2-5.1,0.2-8.5c-2.3-0.4-4.6,3.7-5.4,5.3c-1.2,2.3-2.6,4.8-3.5,7.3
					c0,0.1,0,0.1,0.1,0.2c0.7,1.4,1.4,2,1.4,2s-2.3,1.4-3.2,2.1c-0.1,0.3-0.3,0.7-0.5,1c0.1,0.6,0.6,1.3,1.3,1.3
					c0.9-0.1,8.9-3.9,9.6-5.1c0.4-0.7,0.6-1.9,0.6-2.9C208.2,131.2,207.5,129.2,207.5,129.2z"/>
				<path id="XMLID_43_" class="st9" d="M211.3,131.1c0,0,4.4-12.5-6.7-12c-2,0.1-3.3,1.5-3.3,1.5s-1.1-2.6-1.2-3.5
					c-0.1-0.5-0.1-0.9-0.1-0.9s-1.4,1.1-3,2.5c-0.7,0.6-1.5,1.3-2.2,1.9c-1.3,1.1-2.2,2-2.3,2.3c0,0,0,0,0,0.1
					c-0.1,0.7-0.8,4.6-0.3,5.6c0.5,1.1,1.9,4.7,1.8,6.5c-0.1,1.8-0.5,5.1-0.7,5.1c-0.2,0-0.6,0.2-1,0.4c-0.4,0.2-0.1,1.5,1,1.3
					c1-0.1,1.4-0.6,1.7-1c0.3-0.4,1.7-7.1,1.6-7.5c0-0.4,1.1,0.2,1.1,0.2s0.3,1.9,0.2,2.2c-0.1,0.3-1.2,6.5-1.2,6.5
					s-0.8,0.1-0.8,0.5c-0.1,0.4,0.3,1.2,1.4,1.4c1,0.2,1.6-0.8,1.7-1.1c0.1-0.1,0.5-1.5,1-3.1c0,0.7,0.6,1.5,1.3,1.5
					c0.9-0.1,8.9-3.9,9.6-5.1c0.4-0.7,0.6-1.9,0.6-2.9c0-0.3,0-0.8,0-1.2C211.3,131.7,211.3,131.1,211.3,131.1z M200,139.5
					c0.7-2.3,1.4-4.8,1.4-4.8l0.7-2.7c-0.2,1.1-0.4,2.4,0,3.1c0.7,1.4,1.4,2,1.4,2S200.5,138.9,200,139.5z"/>
				<path id="XMLID_42_" class="st13" d="M211.3,131.1c0,0,0,0.6,0.1,1.2c-0.2,0.2-0.4,0.4-0.6,0.4c-2.7,0.1,0-3-1.1-3.3
					c-1.1-0.3,0-2.9-2.2-3.3c-2.2-0.4-2.6,3.4-4.4,4.4c-1.8,1,0-1-0.9-3.1c-0.9-2.2-4-3.5-3.8-5.7c0.1-1.4-0.7-2.4-1.3-2.9
					c1.6-1.3,3-2.5,3-2.5s0,0.3,0.1,0.8c0.1,1,1.2,3.5,1.2,3.5s1.3-1.4,3.3-1.5C215.6,118.6,211.3,131.1,211.3,131.1z"/>
				<path id="XMLID_41_" class="st13" d="M191.6,116.4c-0.1-0.3-1-1.9-0.7-3.6c0.3-1.7,0.9-2.2,0.9-2.2s2.5,2.5,2.6,2.6
					c0.1,0.1-2.3,2.1-2.5,2.7C191.6,116.4,191.6,116.4,191.6,116.4z"/>
				<path id="XMLID_40_" class="st9" d="M191.6,116.4c-0.1-0.3-1-1.9-0.7-3.6c0.3-1.7,0.9-2.2,0.9-2.2s0.3,4.3,0.4,4.4
					c0.1,0.1-0.1,0.3-0.3,0.8C191.6,116.4,191.6,116.4,191.6,116.4z"/>
				<path id="XMLID_39_" class="st9" d="M200.1,117.1c0.1,0.8-0.8,1.7-1.7,2.5c-0.4,0.3-0.7,0.6-1,0.8c-0.2,0.2-0.4,0.3-0.5,0.3
					c-0.5,0.3-2.6,1.7-4,2.2c-0.2,0.1-0.3,0.1-0.5,0.1c-1.2,0.2-1.8-0.3-2.3-0.5c-1.5-0.6-1.2-2.2-1.2-2.4c0-0.2,0.5-0.7,0.5-1
					c0-0.3,0-1.5,0.4-2.6c0.4-1.1,2-2.3,2-2.3c3.2-2.5,4.7-1.6,6.2-1C200.1,114.2,200,115.8,200.1,117.1
					C200.1,117.1,200.1,117.1,200.1,117.1z"/>
				<path id="XMLID_38_" class="st13" d="M200.1,117.1c0.1,0.8-0.8,1.7-1.7,2.5c-0.4,0.3-0.7,0.6-1,0.8c-1.6,0.4-2,0.2-2.3-0.7
					c-0.3-0.9-3,0.3-3.8-0.1c-0.3-0.2-0.4-1.2-0.4-1.6c-0.1-0.3-0.4-1.1-0.4-1.1s-0.6,0.4-0.7,0.8c0,0.4-0.3,1.4-0.3,1.4
					c0-0.3,0-1.5,0.4-2.6c0.4-1.1,2-2.3,2-2.3c3.2-2.5,4.7-1.6,6.2-1C200.1,114.2,200,115.8,200.1,117.1
					C200.1,117.1,200.1,117.1,200.1,117.1z"/>
				<path id="XMLID_37_" class="st9" d="M196.3,116.7c-0.3-2-1.9-4.8-1.9-4.8s-1,4.1,0.4,4.1C196.3,116,196.5,118.7,196.3,116.7z"/>
				<path id="XMLID_36_" class="st13" d="M196.3,116.7c-0.3-2-1.9-4.8-1.9-4.8s1.6,1.1,2.5,2.3C197.8,115.4,196.5,118.7,196.3,116.7
					z"/>
				<path id="XMLID_35_" class="st21" d="M188.9,120.7c0,0-0.1-0.5,0.1-0.4c0.2,0,1,0.5,1.1,0.6c0.1,0,0,0.4-0.2,0.4
					c-0.1,0,0-0.2-0.2-0.2c-0.2,0-0.1,0.3-0.1,0.3s-0.1,0.3-0.3,0.1C189.2,121.3,188.9,120.7,188.9,120.7z"/>
				<path id="XMLID_34_" class="st21" d="M189.5,121.2c0.1,0.4,0.1,0.7,0.4,1c0.2,0.3,0.5,0.5,0.8,0.7c-0.2,0-0.4,0-0.6-0.1
					c-0.2-0.1-0.3-0.2-0.5-0.4c-0.1-0.2-0.2-0.4-0.2-0.6C189.4,121.6,189.4,121.4,189.5,121.2z"/>
				<path id="XMLID_33_" class="st21" d="M190.8,119.8c0,0,0.1-0.4,0.4-0.4c0.2,0,1.1-0.1,1.1-0.1s-0.2,0.2-0.4,0.1
					c-0.3,0-0.7,0-0.8,0.1C190.9,119.6,190.8,119.8,190.8,119.8z"/>
			</g>
		</g>
	</g>
	<g id="XMLID_24_">
		<path id="XMLID_29_" class="st45" d="M98.9,64.2c0.8-1.7,3-2.1,3.8-1.6c0.4,0.3,0.8,1.3,0.5,1.9s-1.9,1.5-2.6,1.3
			C100,65.7,98.7,64.7,98.9,64.2z"/>
		<g id="XMLID_25_">
			<path id="XMLID_26_" class="st46" d="M100.8,66c-0.1,0-0.2,0-0.2,0c-0.6-0.1-1.5-0.8-1.8-1.3c-0.1-0.2-0.1-0.3,0-0.4
				c0.4-0.8,1.2-1.5,2.1-1.7c0.7-0.2,1.5-0.2,1.9,0.1c0.5,0.3,0.9,1.4,0.6,2C103.1,65.2,101.7,66,100.8,66z M101.8,62.5
				c-0.3,0-0.6,0-0.8,0.1c-0.9,0.3-1.6,0.8-2,1.6c0,0.1,0,0.2,0,0.2c0.2,0.5,1.1,1.1,1.6,1.2c0.6,0.2,2.2-0.7,2.5-1.2
				c0.3-0.5-0.1-1.5-0.5-1.8C102.5,62.6,102.2,62.5,101.8,62.5z"/>
		</g>
	</g>
	<g id="XMLID_18_">
		<path id="XMLID_23_" class="st45" d="M104,61.7c0.4-0.7,2.3-1.7,3-0.9c0.3,0.4,0.6,1.4,0.2,2c-0.4,0.5-1.6,0.9-2.3,0.6
			C104.3,63.1,103.7,62.1,104,61.7z"/>
		<g id="XMLID_19_">
			<path id="XMLID_20_" class="st46" d="M105.4,63.6c-0.2,0-0.4,0-0.6-0.1c-0.5-0.2-0.9-0.7-1-1.2c-0.1-0.3-0.1-0.5,0-0.7
				c0.3-0.5,1.3-1.2,2.1-1.3c0.5-0.1,0.8,0.1,1.1,0.3c0.4,0.4,0.6,1.5,0.2,2.1C106.9,63.3,106.1,63.6,105.4,63.6z M106.2,60.6
				c-0.1,0-0.1,0-0.2,0c-0.8,0.1-1.7,0.7-2,1.2c-0.1,0.1-0.1,0.3,0,0.5c0.1,0.4,0.5,0.9,0.9,1c0.6,0.2,1.7-0.1,2.1-0.6
				c0.4-0.5,0.1-1.5-0.2-1.8C106.8,60.7,106.5,60.6,106.2,60.6z"/>
		</g>
	</g>
	<polygon id="XMLID_17_" class="st46" points="94.4,66.6 98.5,64.5 98.7,65.1 95.8,66.4 	"/>
	<path id="XMLID_16_" class="st46" d="M103.1,63.3c0,0,0.2-0.7,0.4-0.7c0.2,0,0.6,0,0.6,0l-0.4-0.5c0,0-0.5-0.1-0.6,0.1
		c-0.1,0.2-0.3,0.4-0.3,0.4L103.1,63.3z"/>
	<path id="XMLID_15_" class="st47" d="M104.2,68.1c0,0,0.9,0.1,1.7-0.3c0.8-0.4,0.8-1.2,0.8-1.2s0.1,0.7-0.3,1.2
		C106,68.3,105.1,68.3,104.2,68.1z"/>
	<path id="XMLID_14_" class="st46" d="M99,64.1l-0.6,0.4c0,0,0.2,0.5,0.3,0.6c0.1,0.1,0.7,0,0.7,0S99,64.3,99,64.1z"/>
	<path id="XMLID_13_" class="st46" d="M106.3,60.4l0.9-0.3l0.3,0.5l-0.2,0.5c0,0-0.3-0.5-0.6-0.6S106.3,60.4,106.3,60.4z"/>
	<path id="XMLID_12_" class="st21" d="M98.8,64.1c0,0,0.4-0.9,0.9-1.3c0.5-0.3,1.6-0.6,1.5-0.9c-0.1-0.3-0.8,0.1-1.2,0.3
		C99.6,62.4,99.1,62.6,98.8,64.1z"/>
	<path id="XMLID_11_" class="st21" d="M104.3,60.4c0,0,0.9-0.4,1.2-0.4c0.3,0,0.3,0,0.3,0s-0.1-0.4-0.6-0.3c-0.5,0.1-1,0.3-1,0.4
		C103.7,60.6,104.3,60.4,104.3,60.4z"/>
</g>
</svg>
