<?xml version="1.0" encoding="utf-8"?>
<!-- Generator: Adobe Illustrator 19.0.0, SVG Export Plug-In . SVG Version: 6.00 Build 0)  -->
<svg version="1.1" id="Layer_1" xmlns="http://www.w3.org/2000/svg" xmlns:xlink="http://www.w3.org/1999/xlink" x="0px" y="0px"
	 viewBox="0 0 797.6 800.5" style="enable-background:new 0 0 797.6 800.5;" xml:space="preserve">
<style type="text/css">
	.st0{fill-rule:evenodd;clip-rule:evenodd;fill:#F0546E;}
	.st1{fill-rule:evenodd;clip-rule:evenodd;fill:#63C1AE;}
	.st2{fill-rule:evenodd;clip-rule:evenodd;fill:#042F45;}
	.st3{fill-rule:evenodd;clip-rule:evenodd;fill:#F2F2F2;}
	.st4{fill-rule:evenodd;clip-rule:evenodd;fill:#FDBA12;}
	.st5{fill-rule:evenodd;clip-rule:evenodd;fill:#FFFFFF;}
	.st6{fill-rule:evenodd;clip-rule:evenodd;fill:#EDEDED;}
	.st7{fill-rule:evenodd;clip-rule:evenodd;fill:#03454E;}
	.st8{fill-rule:evenodd;clip-rule:evenodd;fill:#1A1A1A;}
	.st9{opacity:0.23;fill-rule:evenodd;clip-rule:evenodd;fill:#FFFFFF;}
</style>
<g id="XMLID_2_">
	<g id="XMLID_139_">
		<path id="XMLID_158_" class="st0" d="M139.6,744.4c0.3,0.9,0.5,1.6,0.5,2.2c0,0.5-0.1,0.9-0.5,1.2c-0.3,0.3-0.9,0.5-1.6,0.5
			c-0.7,0.1-1.7,0.1-3,0.1c-1.2,0-2.2,0-3-0.1c-0.7-0.1-1.3-0.2-1.7-0.3c-0.4-0.1-0.7-0.3-0.8-0.6c-0.2-0.3-0.3-0.5-0.5-0.9l-6.7-19
			H89.9l-6.4,18.8c-0.1,0.4-0.3,0.7-0.5,1c-0.2,0.3-0.5,0.5-0.9,0.7c-0.4,0.2-0.9,0.3-1.6,0.4c-0.7,0.1-1.6,0.1-2.7,0.1
			c-1.2,0-2.1-0.1-2.9-0.1c-0.7-0.1-1.3-0.3-1.6-0.6c-0.3-0.3-0.4-0.7-0.4-1.2c0-0.5,0.2-1.2,0.5-2.1l26.2-72.6
			c0.2-0.4,0.4-0.8,0.6-1.1c0.3-0.3,0.6-0.5,1.2-0.7c0.5-0.2,1.1-0.3,1.9-0.4c0.8-0.1,1.8-0.1,3-0.1c1.3,0,2.3,0,3.2,0.1
			c0.8,0.1,1.5,0.2,2,0.4c0.5,0.1,0.9,0.4,1.2,0.7c0.3,0.3,0.5,0.7,0.7,1.1L139.6,744.4L139.6,744.4z M106,680.4L106,680.4
			l-13.5,38.9h27.1L106,680.4z"/>
		<path id="XMLID_155_" class="st0" d="M212.7,707.9c0,6.8-0.9,12.7-2.6,17.7c-1.7,5.1-4.3,9.3-7.6,12.6c-3.3,3.3-7.4,5.8-12.2,7.5
			c-4.8,1.6-10.6,2.5-17.3,2.5h-16.5c-0.9,0-1.8-0.3-2.6-0.9c-0.8-0.6-1.2-1.7-1.2-3.3v-69.6c0-1.6,0.4-2.7,1.2-3.3
			c0.8-0.6,1.7-0.9,2.6-0.9h17.7c6.8,0,12.5,0.9,17.1,2.6c4.7,1.7,8.6,4.3,11.7,7.5c3.1,3.3,5.5,7.2,7.2,11.9
			C211.9,696.8,212.7,702,212.7,707.9L212.7,707.9z M201.8,708.4c0-4.2-0.5-8.2-1.6-11.8c-1.1-3.7-2.7-6.8-4.9-9.5
			c-2.3-2.7-5.1-4.7-8.5-6.2c-3.4-1.5-7.8-2.2-13.2-2.2H163v60.8h10.7c5,0,9.2-0.6,12.6-1.9c3.4-1.2,6.3-3.1,8.6-5.7
			c2.3-2.6,4-5.8,5.2-9.7C201.3,718.3,201.8,713.7,201.8,708.4z"/>
		<path id="XMLID_152_" class="st0" d="M288.7,707.9c0,6.8-0.9,12.7-2.6,17.7c-1.7,5.1-4.3,9.3-7.6,12.6c-3.3,3.3-7.4,5.8-12.2,7.5
			c-4.8,1.6-10.6,2.5-17.2,2.5h-16.5c-0.9,0-1.8-0.3-2.6-0.9c-0.8-0.6-1.2-1.7-1.2-3.3v-69.6c0-1.6,0.4-2.7,1.2-3.3
			c0.8-0.6,1.7-0.9,2.6-0.9h17.7c6.8,0,12.5,0.9,17.2,2.6c4.7,1.7,8.6,4.3,11.7,7.5c3.2,3.3,5.5,7.2,7.2,11.9
			C287.9,696.8,288.7,702,288.7,707.9L288.7,707.9z M277.8,708.4c0-4.2-0.5-8.2-1.6-11.8c-1-3.7-2.7-6.8-4.9-9.5
			c-2.2-2.7-5.1-4.7-8.5-6.2c-3.4-1.5-7.8-2.2-13.2-2.2H239v60.8h10.7c5,0,9.2-0.6,12.7-1.9c3.4-1.2,6.3-3.1,8.6-5.7
			c2.3-2.6,4-5.8,5.2-9.7C277.3,718.3,277.8,713.7,277.8,708.4z"/>
		<path id="XMLID_151_" class="st0" d="M381.5,674.5c0,0.8,0,1.4-0.1,2c-0.1,0.6-0.2,1-0.4,1.4c-0.2,0.3-0.4,0.6-0.7,0.7
			c-0.3,0.2-0.6,0.3-0.9,0.3h-21.9v67.8c0,0.3-0.1,0.6-0.2,0.8c-0.2,0.2-0.4,0.4-0.8,0.6c-0.4,0.1-0.9,0.3-1.6,0.4
			c-0.7,0.1-1.5,0.1-2.5,0.1c-1,0-1.8-0.1-2.5-0.1c-0.7-0.1-1.2-0.2-1.6-0.4c-0.4-0.2-0.7-0.3-0.8-0.6c-0.2-0.2-0.3-0.5-0.3-0.8
			v-67.8h-21.9c-0.3,0-0.6-0.1-0.9-0.3c-0.3-0.1-0.5-0.4-0.6-0.7c-0.1-0.4-0.3-0.8-0.4-1.4c-0.1-0.6-0.1-1.2-0.1-2
			c0-0.8,0-1.5,0.1-2c0.1-0.6,0.3-1.1,0.4-1.4c0.2-0.4,0.4-0.6,0.6-0.8c0.3-0.2,0.5-0.2,0.9-0.2h54.2c0.3,0,0.6,0.1,0.9,0.2
			c0.3,0.1,0.5,0.4,0.7,0.8c0.2,0.4,0.3,0.8,0.4,1.4C381.5,673,381.5,673.7,381.5,674.5z"/>
		<path id="XMLID_148_" class="st0" d="M454.7,708.1c0,6.3-0.7,12-2.2,17.1c-1.5,5.1-3.7,9.4-6.7,12.9c-3,3.5-6.7,6.3-11.1,8.2
			c-4.5,1.9-9.7,2.9-15.6,2.9c-5.9,0-10.9-0.9-15.2-2.6c-4.3-1.8-7.8-4.3-10.6-7.6c-2.8-3.3-4.9-7.5-6.2-12.4
			c-1.4-4.9-2.1-10.6-2.1-17c0-6.2,0.7-11.8,2.2-16.8c1.5-5,3.7-9.3,6.7-12.8c3-3.5,6.7-6.2,11.2-8.1c4.4-1.9,9.7-2.9,15.6-2.9
			c5.8,0,10.8,0.9,15,2.6c4.3,1.7,7.8,4.2,10.6,7.5c2.8,3.3,5,7.4,6.3,12.3C454,696.2,454.7,701.8,454.7,708.1L454.7,708.1z
			 M443.7,708.9c0-4.4-0.4-8.5-1.2-12.3c-0.8-3.8-2.1-7.1-3.9-9.9c-1.8-2.8-4.3-5-7.3-6.5c-3.1-1.6-6.8-2.3-11.3-2.3
			c-4.5,0-8.3,0.8-11.3,2.5c-3.1,1.7-5.5,3.9-7.4,6.7c-1.9,2.8-3.3,6.1-4.1,9.9c-0.8,3.7-1.2,7.7-1.2,11.8c0,4.6,0.4,8.8,1.2,12.6
			c0.8,3.9,2,7.2,3.8,10c1.8,2.8,4.2,4.9,7.3,6.5c3,1.6,6.8,2.3,11.4,2.3c4.6,0,8.4-0.8,11.5-2.5c3.1-1.7,5.6-4,7.5-6.8
			c1.9-2.9,3.2-6.2,4-10C443.3,717.1,443.7,713.1,443.7,708.9z"/>
		<path id="XMLID_144_" class="st0" d="M550.6,725.7c0,2.5-0.3,4.7-0.9,6.8c-0.6,2.1-1.5,3.9-2.6,5.6c-1.1,1.6-2.5,3.1-4.1,4.3
			c-1.6,1.2-3.4,2.3-5.4,3.1c-2,0.9-4.1,1.5-6.4,1.9c-2.3,0.4-4.9,0.6-7.8,0.6h-20.4c-0.9,0-1.8-0.3-2.6-0.9
			c-0.8-0.6-1.2-1.7-1.2-3.3v-69.6c0-1.6,0.4-2.7,1.2-3.3c0.8-0.6,1.7-0.9,2.6-0.9h17.8c4.7,0,8.5,0.4,11.5,1.3
			c3,0.9,5.5,2.2,7.5,3.9c2,1.7,3.5,3.8,4.5,6.2c1,2.5,1.5,5.2,1.5,8.3c0,1.8-0.2,3.6-0.7,5.3c-0.4,1.7-1.1,3.3-2,4.7
			c-0.9,1.5-1.9,2.7-3.3,3.8c-1.3,1.1-2.8,2.1-4.5,2.8c2.1,0.4,4.1,1.1,6,2.2c1.8,1.1,3.4,2.4,4.9,4.1c1.4,1.7,2.5,3.6,3.3,5.8
			C550.2,720.6,550.6,723.1,550.6,725.7L550.6,725.7z M535,690.8c0-1.9-0.3-3.6-0.8-5.1c-0.5-1.5-1.3-2.8-2.5-3.9
			c-1.1-1.1-2.6-1.9-4.4-2.4c-1.8-0.6-4.2-0.9-7.2-0.9h-10.7v25.3h11.8c2.7,0,4.9-0.3,6.5-1c1.6-0.7,3-1.7,4.1-2.8
			c1.1-1.2,1.9-2.6,2.4-4.2C534.8,694.1,535,692.4,535,690.8L535,690.8z M539.7,726.3c0-2.3-0.4-4.4-1.1-6.1
			c-0.7-1.8-1.8-3.3-3.3-4.5c-1.4-1.2-3.2-2.1-5.4-2.8c-2.1-0.6-4.9-0.9-8.1-0.9h-12.4v27.6h15.1c2.4,0,4.4-0.3,6.2-0.8
			c1.8-0.5,3.3-1.4,4.7-2.5c1.3-1.1,2.4-2.5,3.2-4.1C539.3,730.4,539.7,728.5,539.7,726.3z"/>
		<path id="XMLID_141_" class="st0" d="M623.5,744.4c0.3,0.9,0.5,1.6,0.5,2.2c0,0.5-0.2,0.9-0.5,1.2c-0.3,0.3-0.9,0.5-1.6,0.5
			c-0.7,0.1-1.7,0.1-3,0.1c-1.2,0-2.3,0-3-0.1c-0.7-0.1-1.3-0.2-1.7-0.3c-0.4-0.1-0.7-0.3-0.8-0.6c-0.2-0.3-0.4-0.5-0.5-0.9l-6.7-19
			h-32.4l-6.4,18.8c-0.1,0.4-0.3,0.7-0.5,1c-0.2,0.3-0.5,0.5-0.9,0.7c-0.4,0.2-0.9,0.3-1.6,0.4c-0.7,0.1-1.6,0.1-2.7,0.1
			c-1.2,0-2.1-0.1-2.9-0.1c-0.7-0.1-1.3-0.3-1.6-0.6c-0.3-0.3-0.5-0.7-0.4-1.2c0-0.5,0.2-1.2,0.5-2.1l26.2-72.6
			c0.2-0.4,0.4-0.8,0.6-1.1c0.3-0.3,0.6-0.5,1.1-0.7c0.5-0.2,1.1-0.3,2-0.4c0.8-0.1,1.8-0.1,3-0.1c1.3,0,2.3,0,3.2,0.1
			c0.8,0.1,1.5,0.2,2,0.4c0.5,0.1,0.9,0.4,1.2,0.7c0.3,0.3,0.5,0.7,0.7,1.1L623.5,744.4L623.5,744.4z M589.9,680.4L589.9,680.4
			l-13.5,38.9h27.1L589.9,680.4z"/>
		<path id="XMLID_140_" class="st0" d="M694.2,680.7c0,0.8,0,1.4-0.1,2c-0.1,0.6-0.2,1.1-0.3,1.5c-0.2,0.4-0.4,0.6-0.6,0.8
			c-0.2,0.2-0.5,0.3-0.8,0.3c-0.5,0-1.3-0.4-2.4-1.2c-1.1-0.8-2.6-1.6-4.5-2.6c-1.9-0.9-4.2-1.8-6.8-2.6c-2.6-0.7-5.8-1.1-9.4-1.1
			c-4.3,0-8.2,0.8-11.6,2.3c-3.4,1.6-6.3,3.7-8.7,6.5c-2.4,2.8-4.2,6.1-5.5,9.9c-1.3,3.8-1.9,8-1.9,12.4c0,5,0.7,9.4,2.1,13.3
			c1.4,3.9,3.3,7.1,5.8,9.8c2.5,2.6,5.4,4.7,8.8,6c3.4,1.4,7.1,2.1,11.2,2.1c2.4,0,4.9-0.3,7.4-0.9c2.5-0.6,4.8-1.5,6.9-2.6v-22.8
			h-18.1c-0.7,0-1.2-0.3-1.5-1c-0.4-0.7-0.5-1.8-0.5-3.2c0-0.8,0-1.4,0.1-2c0.1-0.5,0.2-1,0.4-1.3c0.2-0.3,0.4-0.6,0.6-0.7
			c0.2-0.2,0.5-0.2,0.9-0.2h24.8c0.5,0,0.9,0.1,1.3,0.2c0.4,0.2,0.9,0.4,1.2,0.7c0.4,0.3,0.7,0.8,0.8,1.3c0.2,0.6,0.3,1.2,0.3,1.9
			v29.8c0,1.1-0.2,2-0.5,2.7c-0.4,0.8-1.1,1.4-2.3,2c-1.1,0.6-2.7,1.2-4.5,1.9c-1.9,0.7-3.7,1.3-5.7,1.8c-2,0.5-4,0.9-6,1.1
			c-2,0.2-4,0.4-6,0.4c-6.1,0-11.5-0.9-16.2-2.8c-4.7-1.9-8.8-4.6-12-8c-3.3-3.5-5.8-7.6-7.5-12.5c-1.7-4.8-2.6-10.2-2.6-16.2
			c0-6.2,0.9-11.8,2.8-16.8c1.9-5,4.5-9.3,7.9-12.9c3.4-3.5,7.5-6.3,12.2-8.2c4.8-2,10.1-2.9,15.8-2.9c3,0,5.8,0.3,8.4,0.8
			c2.6,0.5,4.9,1.2,7,1.8c2,0.7,3.7,1.5,5.1,2.3c1.4,0.8,2.3,1.5,2.9,2c0.5,0.5,0.9,1.1,1.1,1.8
			C694.1,678.4,694.2,679.4,694.2,680.7z"/>
	</g>
	<g id="XMLID_125_">
		<g id="XMLID_132_">
			<rect id="XMLID_138_" x="189.8" y="249.3" class="st1" width="332.7" height="349.9"/>
			<path id="XMLID_137_" class="st2" d="M370.8,200.7c2.3,3.5,3.6,6.9,3.4,9.9c-5.8-1.5-11.8-2.2-18.1-2.2c-9.8,0-19.1,1.9-27.6,5.4
				c-3.3,1.3-6.5,2.9-9.6,4.7c-5.3,3.1-10.2,7-14.6,11.3c-5.6,5.7-10.4,12.2-13.9,19.5c-4.4,8.9-7.1,18.9-7.5,29.5
				c0,1-0.1,1.9-0.1,2.9h-9c0-0.6,0-1.3,0.1-1.9c0.2-10.8,2.5-21.1,6.5-30.4c4.2-9.7,10.1-18.5,17.5-25.8c3.5-3.5,7.4-6.7,11.5-9.6
				c2.6-1.8,5.3-3.5,8.1-5c11.5-6.1,24.6-9.6,38.5-9.6C361.2,199.3,366,199.8,370.8,200.7z"/>
			<path id="XMLID_136_" class="st2" d="M438.4,281.6h-9c0-1,0-1.9-0.1-2.9c-0.4-10.5-3.1-20.5-7.5-29.5
				c-3.6-7.2-8.3-13.8-13.9-19.5c-7.3-7.3-16-13-25.8-16.7c0.1-0.6,0.2-1.3,0.2-1.9c0.2-2.6-0.2-5.3-1.1-7.9
				c12.6,4,23.9,11,33.1,20.2c7.4,7.3,13.3,16.1,17.5,25.8c4,9.4,6.3,19.6,6.5,30.4C438.4,280.3,438.4,281,438.4,281.6z"/>
			<g id="XMLID_133_">
				<path id="XMLID_135_" class="st2" d="M279.4,298.2c5.5,0,10.1-4.5,10.1-10.1c0-5.5-4.5-10.1-10.1-10.1
					c-5.5,0-10.1,4.5-10.1,10.1C269.3,293.7,273.8,298.2,279.4,298.2z"/>
				<path id="XMLID_134_" class="st2" d="M432.9,298.2c5.5,0,10.1-4.5,10.1-10.1c0-5.5-4.5-10.1-10.1-10.1
					c-5.5,0-10.1,4.5-10.1,10.1C422.9,293.7,427.4,298.2,432.9,298.2z"/>
			</g>
		</g>
		<g id="XMLID_126_">
			<rect id="XMLID_131_" x="92.2" y="336.6" class="st0" width="249.6" height="262.5"/>
			<path id="XMLID_130_" class="st2" d="M217,299.2c17,0,32.5,6.9,43.6,18.1c11.2,11.2,18.1,26.6,18.1,43.6H272
				c0-15.2-6.2-28.9-16.1-38.9c-9.9-9.9-23.7-16.1-38.9-16.1c-15.2,0-28.9,6.2-38.9,16.1c-9.9,9.9-16.1,23.7-16.1,38.9h-6.7
				c0-17,6.9-32.5,18.1-43.6C184.6,306.1,200,299.2,217,299.2z"/>
			<g id="XMLID_127_">
				<path id="XMLID_129_" class="st2" d="M159.4,373.3c4.2,0,7.6-3.4,7.6-7.5c0-4.2-3.4-7.5-7.6-7.5c-4.2,0-7.5,3.4-7.5,7.5
					C151.9,369.9,155.3,373.3,159.4,373.3z"/>
				<path id="XMLID_128_" class="st2" d="M274.7,373.3c4.2,0,7.5-3.4,7.5-7.5c0-4.2-3.4-7.5-7.5-7.5c-4.2,0-7.6,3.4-7.6,7.5
					C267.1,369.9,270.5,373.3,274.7,373.3z"/>
			</g>
		</g>
	</g>
	<g id="XMLID_107_">
		<g id="XMLID_118_">
			<g id="XMLID_123_">
				<path id="XMLID_124_" class="st0" d="M242,208.8c2.5,0.5,5.9-0.7,7.5-2.8l28.3-36.9c1.6-2.1,2.4-5.8,1.7-8.3l-11.3-45.1
					c-0.6-2.5-3.2-5-5.8-5.5L117.1,80.1c-2.5-0.5-5,1.1-5.6,3.7l-8.3,40.1c-0.5,2.5-1.4,6.7-1.9,9.2l-8.3,40.1
					c-0.5,2.5,1.1,5.1,3.7,5.6L242,208.8z"/>
			</g>
			<g id="XMLID_119_">
				<g id="XMLID_121_">
					<path id="XMLID_122_" class="st2" d="M260.2,150.2c6.3,1.3,10.5,7.3,9.2,13.4c-1.3,6.1-7.4,10-13.8,8.7
						c-6.3-1.3-10.5-7.3-9.2-13.4C247.6,152.7,253.8,148.8,260.2,150.2z"/>
				</g>
				<path id="XMLID_120_" class="st3" d="M259.3,154.5c3.8,0.8,6.3,4.4,5.6,8.1c-0.8,3.7-4.5,6-8.3,5.2c-3.8-0.8-6.3-4.4-5.6-8.1
					C251.7,156.1,255.4,153.7,259.3,154.5z"/>
			</g>
		</g>
		<path id="XMLID_117_" class="st2" d="M382.3,211.2c-0.1,0.7-0.1,1.3-0.2,1.9c-2.6-1-5.2-1.8-7.9-2.5c0.2-3-1-6.4-3.4-9.9
			c3.5,0.6,7,1.5,10.4,2.6C382.1,205.9,382.5,208.5,382.3,211.2z"/>
		<path id="XMLID_116_" class="st4" d="M271.9,149.2c-0.2-2.6,1.7-3.7,3.7-4h0c0.4-0.1,0.9-0.1,1.3,0c19.3,1.4,49.4,12.6,72.2,26.6
			c9.5,5.8,17.8,12.1,23.7,18.5c3.9,4.3,6.8,8.6,8.3,13c-3.4-1.1-6.8-1.9-10.4-2.6c-1.1-1.6-2.4-3.2-3.9-4.9
			c-5.4-5.8-13.1-11.7-21.9-17.1c-21.3-13-49-23.5-67.2-25.2h0c-0.4-0.1-0.9-0.1-1.3-0.1C274.1,153.2,271.9,152.1,271.9,149.2z"/>
		<path id="XMLID_115_" class="st4" d="M382.1,213.1c-0.4,2-1.1,3.9-2.3,5.8c-1.9,3.1-4.6,5.4-7.8,7c-7.9,3.8-19.4,3.5-32.3,0.1
			c-6.6-1.7-13.6-4.3-20.8-7.6c-3.1-1.4-6.3-3-9.4-4.6c-3-1.6-6-3.3-9-5.1c-12.2-7.5-23.8-16.6-32.8-26.5c-3-3.2-5.6-6.5-8-9.9
			c-1-1.5-2-3-2.9-4.4c-1-1.6-1.9-3.3-2.7-4.9c-1-2-0.1-4.5,1.9-5.4c2-1,4.5-0.2,5.5,1.9c0.8,1.6,1.7,3.2,2.7,4.8
			c0.8,1.4,1.7,2.8,2.8,4.2c1.7,2.5,3.6,4.9,5.8,7.3c8.6,9.7,19.9,18.7,32,26.1c4.3,2.6,8.6,5,12.9,7.1c3.6,1.8,7.3,3.5,10.8,4.9
			c4.5,1.8,9,3.3,13.2,4.4c11.1,2.9,20.6,3.4,26.6,0.4c1.9-0.9,3.5-2.2,4.5-3.9c0.8-1.3,1.2-2.7,1.3-4.1
			C376.9,211.3,379.5,212.1,382.1,213.1z"/>
		<polygon id="XMLID_114_" class="st0" points="274.7,141.4 278.4,156.4 272.2,157.2 265.7,143.2 		"/>
		<path id="XMLID_108_" class="st5" d="M144.9,143.8c-0.4,1.9-1.1,3.5-2.1,4.8c-1,1.3-2.2,2.3-3.7,3c-1.4,0.7-3,1.1-4.8,1.3
			c-1.7,0.1-3.5,0-5.4-0.4c-1.3-0.3-2.4-0.6-3.4-1.1c-1-0.4-1.9-0.9-2.7-1.4c-0.8-0.5-1.4-0.9-1.9-1.4c-0.5-0.4-0.8-0.8-1-1.1
			c-0.2-0.3-0.3-0.7-0.3-1.2c0-0.5,0.1-1.1,0.3-2c0.1-0.6,0.2-1.1,0.4-1.5c0.1-0.4,0.2-0.7,0.4-0.9c0.1-0.2,0.3-0.4,0.4-0.5
			c0.2-0.1,0.3-0.1,0.5,0c0.3,0.1,0.6,0.3,1,0.7c0.4,0.4,1,0.9,1.6,1.4c0.7,0.5,1.5,1.1,2.5,1.6c1,0.5,2.2,0.9,3.5,1.2
			c0.9,0.2,1.7,0.3,2.5,0.2c0.8-0.1,1.4-0.2,2-0.5c0.6-0.3,1.1-0.7,1.5-1.2c0.4-0.5,0.6-1.1,0.8-1.9c0.2-0.8,0.1-1.6-0.2-2.3
			c-0.3-0.7-0.8-1.3-1.4-2c-0.6-0.6-1.4-1.2-2.2-1.8c-0.8-0.6-1.7-1.2-2.6-1.9c-0.9-0.7-1.7-1.4-2.5-2.1c-0.8-0.8-1.5-1.6-2-2.6
			c-0.6-1-1-2-1.2-3.2c-0.2-1.2-0.2-2.5,0.2-4.1c0.4-1.7,1-3.2,1.9-4.4c0.9-1.2,2-2.1,3.3-2.7c1.3-0.6,2.7-1,4.3-1.1
			c1.6-0.1,3.2,0,4.9,0.4c0.9,0.2,1.7,0.4,2.5,0.7c0.8,0.3,1.6,0.7,2.3,1c0.7,0.4,1.3,0.8,1.8,1.2c0.5,0.4,0.9,0.7,1,1
			c0.1,0.2,0.2,0.4,0.3,0.6c0,0.2,0.1,0.3,0.1,0.6c0,0.2,0,0.5-0.1,0.8c0,0.3-0.1,0.7-0.2,1.2c-0.1,0.5-0.2,1-0.3,1.4
			c-0.1,0.4-0.2,0.7-0.3,0.9c-0.1,0.2-0.3,0.4-0.4,0.5c-0.2,0.1-0.3,0.1-0.5,0.1c-0.2,0-0.5-0.2-0.9-0.6c-0.4-0.4-0.9-0.8-1.5-1.2
			c-0.6-0.4-1.3-0.9-2.1-1.3c-0.8-0.4-1.7-0.8-2.8-1c-0.8-0.2-1.5-0.2-2.2-0.1c-0.6,0.1-1.2,0.2-1.7,0.5c-0.5,0.3-0.9,0.6-1.2,1.1
			c-0.3,0.4-0.5,0.9-0.6,1.5c-0.2,0.8-0.1,1.6,0.2,2.2c0.3,0.7,0.8,1.3,1.4,2c0.6,0.6,1.4,1.2,2.3,1.8c0.8,0.6,1.7,1.2,2.6,1.9
			c0.9,0.7,1.7,1.4,2.6,2.1c0.8,0.8,1.5,1.6,2.1,2.6c0.6,1,1,2,1.2,3.2C145.2,141.1,145.2,142.4,144.9,143.8L144.9,143.8z
			 M178,159.4l-4.5-34.8c0-0.4-0.1-0.7-0.2-0.9c-0.1-0.2-0.3-0.4-0.7-0.6c-0.3-0.2-0.8-0.4-1.5-0.5c-0.6-0.2-1.5-0.4-2.6-0.6
			c-1-0.2-1.7-0.4-2.3-0.5c-0.6-0.1-1.1-0.1-1.4-0.1c-0.4,0-0.6,0.1-0.8,0.3c-0.2,0.2-0.4,0.4-0.6,0.7l-18.1,30
			c-0.4,0.6-0.6,1.1-0.8,1.5c-0.1,0.4-0.1,0.7,0,1c0.1,0.3,0.4,0.5,0.9,0.6c0.5,0.2,1.1,0.3,2,0.5c0.8,0.2,1.5,0.3,2,0.4
			c0.5,0.1,0.9,0.1,1.2,0c0.3-0.1,0.5-0.1,0.7-0.3c0.2-0.1,0.3-0.3,0.4-0.6l3.8-6.7l13.8,2.9l0.8,7.9c0,0.3,0.1,0.5,0.2,0.6
			c0.1,0.2,0.3,0.3,0.5,0.5c0.3,0.1,0.7,0.3,1.2,0.4c0.5,0.1,1.3,0.3,2.2,0.5c0.9,0.2,1.7,0.3,2.2,0.4c0.5,0.1,0.9,0,1.2-0.1
			c0.2-0.2,0.4-0.4,0.4-0.9C178.1,160.7,178.1,160.1,178,159.4L178,159.4z M166.9,129l1.9,16.6l-10.3-2.2L166.9,129L166.9,129
			L166.9,129z M203.3,164.4c-0.1,0.6-0.2,1-0.4,1.4c-0.1,0.4-0.3,0.7-0.4,0.9c-0.2,0.2-0.3,0.4-0.5,0.5c-0.2,0.1-0.3,0.1-0.5,0.1
			l-16.7-3.5c-0.6-0.1-1.1-0.4-1.4-0.9c-0.3-0.5-0.4-1.1-0.3-1.9l7-33.2c0-0.2,0.1-0.3,0.3-0.5c0.2-0.1,0.4-0.2,0.7-0.2
			c0.3,0,0.7,0,1.2,0c0.5,0,1.1,0.1,1.8,0.3c0.7,0.2,1.3,0.3,1.8,0.5c0.5,0.2,0.8,0.3,1.1,0.5c0.3,0.2,0.4,0.3,0.5,0.5
			c0.1,0.2,0.1,0.4,0.1,0.6l-6.2,29.4l11.5,2.4c0.2,0,0.3,0.1,0.5,0.3c0.1,0.1,0.2,0.3,0.2,0.6c0,0.3,0,0.6,0,1
			C203.5,163.3,203.4,163.8,203.3,164.4L203.3,164.4z M229.2,170c-0.1,0.5-0.2,1-0.4,1.4c-0.1,0.4-0.3,0.6-0.4,0.8
			c-0.1,0.2-0.3,0.3-0.5,0.4c-0.2,0.1-0.3,0.1-0.5,0.1l-18.3-3.9c-0.6-0.1-1.1-0.4-1.4-0.9c-0.3-0.5-0.4-1.1-0.3-1.9l6.7-31.9
			c0.2-0.8,0.5-1.4,1-1.7c0.5-0.3,1.1-0.3,1.7-0.2l18.2,3.9c0.2,0,0.3,0.1,0.4,0.2c0.1,0.1,0.2,0.3,0.2,0.6c0,0.3,0,0.6,0,1
			c0,0.4-0.1,0.9-0.2,1.4c-0.1,0.5-0.2,1-0.4,1.3c-0.1,0.4-0.3,0.6-0.4,0.8c-0.1,0.2-0.3,0.4-0.4,0.4c-0.2,0.1-0.3,0.1-0.5,0.1
			l-13-2.8l-1.9,8.9l11,2.3c0.2,0,0.3,0.1,0.4,0.2c0.1,0.1,0.2,0.3,0.3,0.6c0,0.2,0.1,0.5,0,0.9c0,0.4-0.1,0.8-0.2,1.3
			c-0.1,0.5-0.2,1-0.4,1.3c-0.1,0.3-0.3,0.6-0.4,0.8c-0.1,0.2-0.3,0.3-0.5,0.4c-0.2,0.1-0.3,0.1-0.5,0l-11-2.3l-2.2,10.3l13.1,2.8
			c0.2,0,0.3,0.1,0.4,0.3c0.1,0.1,0.2,0.3,0.3,0.6c0,0.2,0.1,0.6,0,0.9C229.4,169,229.4,169.5,229.2,170z"/>
	</g>
	<g id="XMLID_104_">
		<path id="XMLID_106_" class="st2" d="M599.5,296.6l-14.1-8.4l39.7-66.6c2.3-3.9,7.4-5.2,11.2-2.9l0,0c3.9,2.3,5.2,7.4,2.8,11.2
			L599.5,296.6z"/>
		<path id="XMLID_105_" class="st2" d="M574.9,311.6l0.9-40.7c0.1-2.7,1.5-5,3.8-6.4c2.4-1.3,5.1-1.3,7.4,0.1l34.4,20.5
			c2.3,1.4,3.7,3.8,3.6,6.5c0,2.7-1.4,5.1-3.8,6.4L586,318.3c-2.4,1.4-5.1,1.3-7.5-0.1C576.1,316.8,574.8,314.4,574.9,311.6z"/>
	</g>
	<path id="XMLID_103_" class="st2" d="M458.2,159.6L458.2,159.6c3.9,0,7,3.2,7,7v55.9c0,3.9-3.2,7-7,7l0,0c-3.9,0-7-3.2-7-7v-55.9
		C451.2,162.7,454.3,159.6,458.2,159.6z"/>
	<path id="XMLID_102_" class="st2" d="M423.2,194.5L423.2,194.5c0-3.9,3.2-7,7-7h55.9c3.9,0,7,3.2,7,7l0,0c0,3.9-3.2,7-7,7h-55.9
		C426.4,201.5,423.2,198.4,423.2,194.5z"/>
	<path id="XMLID_80_" class="st2" d="M515.5,497.5h154c4.1,2,16,9.4,14.6,27.9H505.3c-4.7,0-8.5,3.8-8.5,8.5c0,4.7,3.8,8.5,8.5,8.5
		h186.2c4,0,7.5-2.8,8.3-6.7c6.1-27.6-7.2-44.1-18.9-51.5l25.6-121.9l56.2-23c4.4-1.8,6.5-6.8,4.7-11.1c-1.8-4.4-6.8-6.5-11.1-4.7
		L696,348.4c-1.9,0.8-3.4,2.2-4.3,3.9H479.4h-0.3h-16.7c-5,0-9.1,3.8-9.1,8.5c0,4.7,4.1,8.5,9.1,8.5h10.5l34.5,121.9
		C508.4,495,511.7,497.5,515.5,497.5L515.5,497.5z M664.4,480.4H649l2.2-15.7h16.5L664.4,480.4L664.4,480.4z M670.5,451h-17.5
		l2.5-17.6h18.7L670.5,451L670.5,451z M677.1,419.8h-19.7l2.5-17.6h20.9L677.1,419.8L677.1,419.8z M683.7,388.5h-21.9l2.7-19.1h23.2
		L683.7,388.5L683.7,388.5z M650.7,369.4l-2.7,19.1h-28.5l0.7-19.1H650.7L650.7,369.4z M606.6,369.4l-0.7,19.1H579l-1.6-19.1H606.6
		L606.6,369.4z M563.7,369.4l1.6,19.1h-27.1l-2.9-19.1H563.7L563.7,369.4z M521.5,369.4l2.9,19.1H496l-5.4-19.1H521.5L521.5,369.4z
		 M552,480.4l-2.4-15.7h22.2l1.3,15.7H552L552,480.4z M547.6,451l-2.6-17.6h24.2l1.5,17.6H547.6L547.6,451z M542.9,419.8l-2.6-17.6
		h26.2l1.5,17.6H542.9L542.9,419.8z M526.4,402.1l2.6,17.6h-24.2l-5-17.6H526.4L526.4,402.1z M531.1,433.4l2.6,17.6h-20.1l-5-17.6
		H531.1L531.1,433.4z M535.8,464.7l2.4,15.7H522l-4.4-15.7H535.8L535.8,464.7z M586.9,480.4l-1.3-15.7h17.4l-0.6,15.7H586.9
		L586.9,480.4z M584.4,451l-1.5-17.6h21.2l-0.7,17.6H584.4L584.4,451z M581.7,419.8l-1.5-17.6h25.1l-0.7,17.6H581.7L581.7,419.8z
		 M615.9,480.4l0.6-15.7h20.8l-2.2,15.7H615.9L615.9,480.4z M617.1,451l0.7-17.6h24l-2.5,17.6H617.1L617.1,451z M618.3,419.8
		l0.7-17.6h27.1l-2.5,17.6H618.3z"/>
	<path id="XMLID_79_" class="st6" d="M657,573.8c0,7.1,5.7,12.8,12.8,12.8c7.1,0,12.8-5.7,12.8-12.8c0-7.1-5.7-12.8-12.8-12.8
		C662.8,561,657,566.7,657,573.8z"/>
	<g id="XMLID_76_">
		<path id="XMLID_78_" class="st0" d="M644.5,573.8c0,14,11.3,25.3,25.3,25.3c14,0,25.3-11.4,25.3-25.3c0-14-11.3-25.3-25.3-25.3
			C655.9,548.4,644.5,559.8,644.5,573.8z"/>
		<path id="XMLID_77_" class="st5" d="M657,573.8c0,7.1,5.7,12.8,12.8,12.8c7.1,0,12.8-5.7,12.8-12.8c0-7.1-5.7-12.8-12.8-12.8
			C662.8,561,657,566.7,657,573.8z"/>
	</g>
	<g id="XMLID_73_">
		<path id="XMLID_75_" class="st0" d="M509.3,573.8c0,14,11.4,25.3,25.3,25.3c14,0,25.3-11.4,25.3-25.3c0-14-11.3-25.3-25.3-25.3
			C520.7,548.4,509.3,559.8,509.3,573.8z"/>
		<path id="XMLID_74_" class="st5" d="M521.8,573.8c0,7.1,5.7,12.8,12.8,12.8c7.1,0,12.8-5.7,12.8-12.8c0-7.1-5.7-12.8-12.8-12.8
			C527.6,561,521.8,566.7,521.8,573.8z"/>
	</g>
	<g id="XMLID_59_">
		<g id="XMLID_66_">
			<path id="XMLID_70_" class="st1" d="M159.3,543.7c3.2-3,7.5-10.2,12.2-18.1c4.9-8.2,10.2-17.1,15.5-23.6
				c5.9-7.1,12.2-10.4,17.3-10.7c2.7-0.2,5.2,0.5,7.2,1.8c2.1,1.4,3.7,3.4,4.6,5.9c1.6,4.4,1,10.6-2.9,17.7
				c-4.3,7.9-11.2,14.7-19.1,20.2c-9.5,6.7-20.5,11.6-30.2,14.7l-19.9,6.4L159.3,543.7L159.3,543.7z M179.6,530.4L179.6,530.4
				c-1.3,2.2-2.6,4.3-3.8,6.4c4.5-2.2,8.9-4.7,13-7.6c6.8-4.8,12.7-10.5,16.2-17c2.5-4.5,3-7.9,2.3-10c-0.2-0.5-0.4-0.9-0.8-1.1
				c-0.4-0.2-0.9-0.3-1.6-0.3c-2.8,0.2-6.5,2.4-10.6,7.3C189.2,514.2,184.2,522.7,179.6,530.4z"/>
			<path id="XMLID_67_" class="st1" d="M159.3,543.7c-3.2-3-7.5-10.2-12.2-18.1c-4.9-8.2-10.2-17.1-15.5-23.6
				c-5.9-7.1-12.2-10.4-17.3-10.7c-2.7-0.2-5.2,0.5-7.2,1.8c-2.1,1.4-3.7,3.4-4.6,5.9c-1.6,4.4-1,10.6,2.9,17.7
				c4.3,7.9,11.2,14.7,19.1,20.2c9.5,6.7,20.5,11.6,30.2,14.7l19.9,6.4L159.3,543.7L159.3,543.7z M139.1,530.4L139.1,530.4
				c1.3,2.2,2.6,4.3,3.8,6.4c-4.5-2.2-8.9-4.7-13-7.6c-6.8-4.8-12.7-10.5-16.2-17c-2.5-4.5-3-7.9-2.3-10c0.2-0.5,0.4-0.9,0.8-1.1
				c0.4-0.2,0.9-0.3,1.6-0.3c2.8,0.2,6.5,2.4,10.6,7.3C129.4,514.2,134.5,522.7,139.1,530.4z"/>
		</g>
		<rect id="XMLID_65_" x="80.1" y="565.9" class="st4" width="158.6" height="58.1"/>
		<rect id="XMLID_64_" x="72.2" y="543.7" class="st4" width="174.3" height="22.2"/>
		<rect id="XMLID_63_" x="159.3" y="565.9" class="st4" width="79.3" height="58"/>
		<polygon id="XMLID_62_" class="st4" points="80.1,565.9 159.3,565.9 159.3,543.7 72.2,543.7 72.2,565.9 		"/>
		<rect id="XMLID_61_" x="149" y="543.7" class="st1" width="20.6" height="80.2"/>
		<path id="XMLID_60_" class="st1" d="M153.9,525.2h10.9c2.7,0,4.8,2.2,4.8,4.8v8.9c0,2.7-2.2,4.8-4.8,4.8h-10.9
			c-2.7,0-4.8-2.2-4.8-4.8V530C149,527.4,151.2,525.2,153.9,525.2z"/>
	</g>
	<path id="XMLID_56_" class="st5" d="M569.1,123c2,0.2,4,0.5,5.9,1l7.9-8l12.3,7.8l-3.8,10.5c1.3,1.5,2.5,3.2,3.5,4.9l11.2-0.1
		l3.2,14.3l-10.2,4.7c-0.2,2-0.5,4-1,5.9l8,7.9l-7.8,12.3l-10.5-3.8c-1.5,1.3-3.2,2.5-4.9,3.5l0.1,11.2l-14.3,3.2l-4.7-10.2
		c-2-0.2-4-0.5-5.9-1l-7.9,8l-12.3-7.8l3.8-10.5c-1.3-1.5-2.5-3.2-3.5-4.9l-11.2,0.1l-3.2-14.3l10.2-4.7c0.2-2,0.5-4,1-5.9l-8-7.9
		l7.8-12.3l10.5,3.8c1.5-1.3,3.2-2.5,4.9-3.5l-0.1-11.2l14.3-3.2L569.1,123L569.1,123z M561,131.2L561,131.2
		c-13.5,3-22,16.4-18.9,29.9c3,13.5,16.4,22,29.9,18.9c13.5-3,22-16.4,18.9-29.9C587.9,136.7,574.5,128.2,561,131.2z"/>
	<path id="XMLID_55_" class="st1" d="M654.6,125.4h-8.4c0.9-2.1,1.4-4.3,1.4-6.7c0-9.3-7.5-16.8-16.8-16.8c-1.9,0-3.7,0.3-5.5,0.9
		c-2.7-9.3-11.3-16.1-21.4-16.1c-9,0-16.8,5.4-20.3,13.1c-3.7-2.2-7.9-3.4-12.5-3.4c-13.6,0-24.6,11-24.6,24.6c0,1.5,0.1,3,0.4,4.4
		h-1.6c-8.5,0-15.5,7-15.5,15.5l0,0c0,8.5,7,15.5,15.5,15.5h109.3c8.5,0,15.5-7,15.5-15.5l0,0C670.2,132.4,663.2,125.4,654.6,125.4z
		"/>
	<path id="XMLID_54_" class="st1" d="M134.7,260.9h-8.4c0.9-2.1,1.4-4.3,1.4-6.7c0-9.3-7.5-16.8-16.8-16.8c-1.9,0-3.7,0.3-5.5,0.9
		c-2.7-9.3-11.3-16.1-21.4-16.1c-9,0-16.8,5.4-20.3,13.1c-3.7-2.2-7.9-3.4-12.5-3.4c-13.6,0-24.6,11-24.6,24.6c0,1.5,0.1,3,0.4,4.4
		h-1.6c-8.5,0-15.5,7-15.5,15.5l0,0c0,8.5,7,15.5,15.5,15.5h109.3c8.5,0,15.5-7,15.5-15.5l0,0C150.2,267.9,143.3,260.9,134.7,260.9z
		"/>
	<g id="XMLID_25_">
		<g id="XMLID_46_">
			<g id="XMLID_52_">
				<path id="XMLID_53_" class="st4" d="M342.3,115.2c0,4.1,3.3,7.5,7.3,7.5h76.7c4,0,7.3-3.4,7.3-7.5v-57c0-4.1-3.3-7.5-7.3-7.5
					h-76.7c-4,0-7.3,3.4-7.3,7.5V115.2z"/>
			</g>
			<g id="XMLID_47_">
				<g id="XMLID_50_">
					<path id="XMLID_51_" class="st6" d="M335.6,90.3c0,3.3,2.6,6,5.8,6h27.7c3.2,0,5.8-2.7,5.8-6v-7.7c0-3.3-2.6-6-5.8-6h-27.7
						c-3.2,0-5.8,2.7-5.8,6V90.3z"/>
				</g>
				<g id="XMLID_48_">
					<ellipse id="XMLID_49_" class="st7" cx="363.1" cy="86.2" rx="5" ry="5.1"/>
				</g>
			</g>
		</g>
		<path id="XMLID_36_" class="st5" d="M349.2,61.8v0.6c0,0.4-0.3,0.7-0.7,0.7H343c-0.4,0-0.7-0.3-0.7-0.7v-0.6
			c0-0.4,0.3-0.7,0.7-0.7h5.5C348.9,61.1,349.2,61.4,349.2,61.8L349.2,61.8z M432.9,61.1h-1c-0.4,0-0.7,0.3-0.7,0.7v0.6
			c0,0.4,0.3,0.7,0.7,0.7h1c0.4,0,0.7-0.3,0.7-0.7v-0.6C433.6,61.4,433.3,61.1,432.9,61.1L432.9,61.1z M427.1,61.8v0.6
			c0,0.4-0.3,0.7-0.7,0.7h-5.5c-0.4,0-0.7-0.3-0.7-0.7v-0.6c0-0.4,0.3-0.7,0.7-0.7h5.5C426.7,61.1,427.1,61.4,427.1,61.8L427.1,61.8
			z M415.9,61.8v0.6c0,0.4-0.3,0.7-0.7,0.7h-5.5c-0.4,0-0.7-0.3-0.7-0.7v-0.6c0-0.4,0.3-0.7,0.7-0.7h5.5
			C415.6,61.1,415.9,61.4,415.9,61.8L415.9,61.8z M404.8,61.8v0.6c0,0.4-0.3,0.7-0.7,0.7h-5.5c-0.4,0-0.7-0.3-0.7-0.7v-0.6
			c0-0.4,0.3-0.7,0.7-0.7h5.5C404.5,61.1,404.8,61.4,404.8,61.8L404.8,61.8z M393.7,61.8v0.6c0,0.4-0.3,0.7-0.7,0.7h-5.5
			c-0.4,0-0.7-0.3-0.7-0.7v-0.6c0-0.4,0.3-0.7,0.7-0.7h5.5C393.4,61.1,393.7,61.4,393.7,61.8L393.7,61.8z M382.6,61.8v0.6
			c0,0.4-0.3,0.7-0.7,0.7h-5.5c-0.4,0-0.7-0.3-0.7-0.7v-0.6c0-0.4,0.3-0.7,0.7-0.7h5.5C382.3,61.1,382.6,61.4,382.6,61.8L382.6,61.8
			z M371.5,61.8v0.6c0,0.4-0.3,0.7-0.7,0.7h-5.5c-0.4,0-0.7-0.3-0.7-0.7v-0.6c0-0.4,0.3-0.7,0.7-0.7h5.5
			C371.1,61.1,371.5,61.4,371.5,61.8L371.5,61.8z M360.3,61.8v0.6c0,0.4-0.3,0.7-0.7,0.7h-5.5c-0.4,0-0.7-0.3-0.7-0.7v-0.6
			c0-0.4,0.3-0.7,0.7-0.7h5.5C360,61.1,360.3,61.4,360.3,61.8z"/>
		<path id="XMLID_26_" class="st5" d="M349.2,110.5v0.6c0,0.4-0.3,0.7-0.7,0.7H343c-0.4,0-0.7-0.3-0.7-0.7v-0.6
			c0-0.4,0.3-0.7,0.7-0.7h5.5C348.9,109.8,349.2,110.1,349.2,110.5L349.2,110.5z M432.9,109.8h-1c-0.4,0-0.7,0.3-0.7,0.7v0.6
			c0,0.4,0.3,0.7,0.7,0.7h1c0.4,0,0.7-0.3,0.7-0.7v-0.6C433.6,110.1,433.3,109.8,432.9,109.8L432.9,109.8z M427.1,110.5v0.6
			c0,0.4-0.3,0.7-0.7,0.7h-5.5c-0.4,0-0.7-0.3-0.7-0.7v-0.6c0-0.4,0.3-0.7,0.7-0.7h5.5C426.7,109.8,427.1,110.1,427.1,110.5
			L427.1,110.5z M415.9,110.5v0.6c0,0.4-0.3,0.7-0.7,0.7h-5.5c-0.4,0-0.7-0.3-0.7-0.7v-0.6c0-0.4,0.3-0.7,0.7-0.7h5.5
			C415.6,109.8,415.9,110.1,415.9,110.5L415.9,110.5z M404.8,110.5v0.6c0,0.4-0.3,0.7-0.7,0.7h-5.5c-0.4,0-0.7-0.3-0.7-0.7v-0.6
			c0-0.4,0.3-0.7,0.7-0.7h5.5C404.5,109.8,404.8,110.1,404.8,110.5L404.8,110.5z M393.7,110.5v0.6c0,0.4-0.3,0.7-0.7,0.7h-5.5
			c-0.4,0-0.7-0.3-0.7-0.7v-0.6c0-0.4,0.3-0.7,0.7-0.7h5.5C393.4,109.8,393.7,110.1,393.7,110.5L393.7,110.5z M382.6,110.5v0.6
			c0,0.4-0.3,0.7-0.7,0.7h-5.5c-0.4,0-0.7-0.3-0.7-0.7v-0.6c0-0.4,0.3-0.7,0.7-0.7h5.5C382.3,109.8,382.6,110.1,382.6,110.5
			L382.6,110.5z M371.5,110.5v0.6c0,0.4-0.3,0.7-0.7,0.7h-5.5c-0.4,0-0.7-0.3-0.7-0.7v-0.6c0-0.4,0.3-0.7,0.7-0.7h5.5
			C371.1,109.8,371.5,110.1,371.5,110.5L371.5,110.5z M360.3,110.5v0.6c0,0.4-0.3,0.7-0.7,0.7h-5.5c-0.4,0-0.7-0.3-0.7-0.7v-0.6
			c0-0.4,0.3-0.7,0.7-0.7h5.5C360,109.8,360.3,110.1,360.3,110.5z"/>
	</g>
	<g id="XMLID_19_">
		<path id="XMLID_24_" class="st1" d="M777.7,189.8H676c-5.5,0-9.9,4.5-9.9,9.9v59.5c0,5.5,4.5,9.9,9.9,9.9h101.7
			c5.5,0,9.9-4.5,9.9-9.9v-59.5C787.6,194.3,783.2,189.8,777.7,189.8z"/>
		<rect id="XMLID_23_" x="666.1" y="206.1" class="st8" width="121.5" height="16"/>
		<rect id="XMLID_22_" x="710.3" y="229.5" class="st5" width="77.4" height="10.1"/>
		<rect id="XMLID_21_" x="675.7" y="229.5" class="st5" width="30.2" height="10.1"/>
		<path id="XMLID_20_" class="st9" d="M751,269.2h-75c-5.5,0-9.9-4.5-9.9-9.9v-59.5c0-5.5,4.5-9.9,9.9-9.9h30.4L751,269.2z"/>
	</g>
	<path id="XMLID_15_" class="st4" d="M69.9,159c0,4.8-1.2,8.4-3.6,10.6c-2.4,2.2-4.9,3.4-7.6,3.4v7h-3.9v-7c-3.2,0-5.9-1.3-8.2-3.9
		c-2.3-2.6-3.5-6.6-3.5-12h6.4c0,4.7,0.6,7.6,2,8.8c1.3,1.2,2.4,1.8,3.4,1.8v-18.2c-4.5-2.4-7.4-4.6-8.7-6.6c-1.3-2-2-4.2-2-6.8
		c0-3.4,1-6.1,2.9-8.2c2-2.2,4.5-3.4,7.7-3.8v-5.3h3.9v5.3c3.2,0,5.7,1.3,7.7,3.8c2,2.5,2.9,5.6,2.9,9.4h-6.2c0-2.8-0.5-4.8-1.5-6
		c-1-1.2-2-1.8-2.9-1.8V145c3,1.5,5.6,3.4,7.8,5.6C68.7,152.8,69.9,155.6,69.9,159L69.9,159z M54.8,142.7v-13.4
		c-1.1,0-2.2,0.5-3.2,1.5c-1,1-1.5,2.6-1.5,4.6c0,1.3,0.3,2.6,0.8,3.8C51.4,140.5,52.7,141.6,54.8,142.7L54.8,142.7z M63.7,160.4
		c0-2.1-0.5-3.7-1.4-5c-0.9-1.3-2.1-2.5-3.6-3.6v15.9c1.1-0.2,2.2-0.7,3.4-1.7C63.1,165,63.7,163.1,63.7,160.4z"/>
	<path id="XMLID_11_" class="st2" d="M753.7,458c0,4.8-1.2,8.4-3.6,10.6c-2.4,2.2-4.9,3.4-7.5,3.4v7h-3.9v-7c-3.2,0-5.9-1.3-8.2-3.9
		c-2.3-2.6-3.5-6.6-3.5-12h6.4c0,4.7,0.6,7.6,2,8.8c1.3,1.2,2.4,1.8,3.4,1.8v-18.2c-4.5-2.4-7.4-4.6-8.7-6.6c-1.3-2-2-4.2-2-6.8
		c0-3.4,1-6.1,2.9-8.2c2-2.2,4.5-3.4,7.7-3.8v-5.3h3.9v5.3c3.2,0,5.7,1.3,7.7,3.8c2,2.5,2.9,5.6,2.9,9.4H747c0-2.8-0.5-4.8-1.5-6
		c-1-1.2-2-1.8-2.9-1.8V444c3,1.5,5.6,3.4,7.8,5.6C752.6,451.8,753.7,454.6,753.7,458L753.7,458z M738.6,441.8v-13.4
		c-1.1,0-2.2,0.5-3.2,1.5c-1,1-1.5,2.6-1.5,4.6c0,1.3,0.3,2.6,0.8,3.8C735.2,439.5,736.5,440.7,738.6,441.8L738.6,441.8z
		 M747.5,459.4c0-2.1-0.5-3.7-1.4-5c-0.9-1.3-2.2-2.5-3.6-3.6v15.9c1.1-0.2,2.2-0.7,3.4-1.7C747,464.1,747.5,462.2,747.5,459.4z"/>
	<path id="XMLID_7_" class="st1" d="M36.7,389.4c0,4.8-1.2,8.4-3.6,10.6c-2.4,2.2-4.9,3.4-7.6,3.4v7h-3.9v-7c-3.2,0-5.9-1.3-8.2-3.9
		c-2.3-2.6-3.5-6.6-3.5-12h6.4c0,4.7,0.6,7.6,2,8.8c1.3,1.2,2.4,1.8,3.4,1.8v-18.2c-4.5-2.4-7.4-4.6-8.7-6.6c-1.3-2-2-4.2-2-6.8
		c0-3.4,1-6.1,2.9-8.2c2-2.2,4.5-3.4,7.7-3.8v-5.3h3.9v5.3c3.2,0,5.7,1.3,7.7,3.8c2,2.5,2.9,5.6,2.9,9.4H30c0-2.8-0.5-4.8-1.5-6
		c-1-1.2-2-1.8-2.9-1.8v15.7c3,1.5,5.6,3.4,7.8,5.6C35.6,383.2,36.7,386.1,36.7,389.4L36.7,389.4z M21.6,373.2v-13.4
		c-1.1,0-2.2,0.5-3.2,1.5c-1,1-1.5,2.6-1.5,4.6c0,1.3,0.3,2.6,0.8,3.8C18.3,370.9,19.6,372.1,21.6,373.2L21.6,373.2z M30.6,390.8
		c0-2.1-0.5-3.7-1.4-5c-0.9-1.3-2.1-2.5-3.6-3.6v15.9c1.1-0.2,2.2-0.7,3.4-1.7C30,395.5,30.6,393.6,30.6,390.8z"/>
	<path id="XMLID_3_" class="st0" d="M511.1,72.8c0,4.8-1.2,8.4-3.6,10.6c-2.4,2.2-4.9,3.4-7.5,3.4v7H496v-7c-3.2,0-5.9-1.3-8.2-3.9
		c-2.3-2.6-3.5-6.6-3.5-12h6.4c0,4.7,0.6,7.6,2,8.8c1.3,1.2,2.4,1.8,3.4,1.8V63.2c-4.5-2.4-7.4-4.6-8.7-6.6c-1.3-2-2-4.2-2-6.8
		c0-3.4,1-6.1,2.9-8.2c2-2.2,4.5-3.4,7.7-3.8v-5.3h3.9v5.3c3.2,0,5.7,1.3,7.7,3.8c2,2.5,2.9,5.6,2.9,9.4h-6.2c0-2.8-0.5-4.8-1.5-6
		c-1-1.2-2-1.8-2.9-1.8v15.7c3,1.5,5.6,3.4,7.8,5.6C510,66.6,511.1,69.4,511.1,72.8L511.1,72.8z M496,56.5V43.1
		c-1.1,0-2.2,0.5-3.2,1.5c-1,1-1.5,2.6-1.5,4.6c0,1.3,0.3,2.6,0.8,3.8C492.7,54.2,494,55.4,496,56.5L496,56.5z M505,74.2
		c0-2.1-0.5-3.7-1.4-5c-0.9-1.3-2.2-2.5-3.6-3.6v15.9c1.1-0.2,2.2-0.7,3.4-1.7C504.4,78.8,505,76.9,505,74.2z"/>
</g>
</svg>
