<?xml version="1.0" encoding="utf-8"?>
<!-- Generator: Adobe Illustrator 19.0.0, SVG Export Plug-In . SVG Version: 6.00 Build 0)  -->
<svg version="1.1" id="Layer_1" xmlns="http://www.w3.org/2000/svg" xmlns:xlink="http://www.w3.org/1999/xlink" x="0px" y="0px"
	 viewBox="0 0 797.6 800.5" style="enable-background:new 0 0 797.6 800.5;" xml:space="preserve">
<style type="text/css">
	.st0{fill:#343943;}
	.st1{font-family:'MyriadPro-Regular';}
	.st2{font-size:147.7967px;}
	.st3{fill:#596476;}
	.st4{fill:#DAE5E8;}
	.st5{opacity:0.5;fill:#010101;}
	.st6{fill:#03AA92;}
	.st7{fill:#027E6C;}
	.st8{fill:#D15F30;}
	.st9{fill:#F58457;}
	.st10{fill:#FFFFFF;}
	.st11{opacity:0.32;fill:#343943;}
	.st12{fill:#596477;}
	.st13{fill:#C0C9CC;}
	.st14{fill:#DAE4E8;}
</style>
<g id="XMLID_1_">
	<g id="XMLID_329_">
		<text id="XMLID_331_" transform="matrix(0.77 0 0 1 195.6426 119.2847)" class="st0 st1 st2">OUTLET</text>
		<text id="XMLID_330_" transform="matrix(0.77 0 0 1 195.6426 110.2124)" class="st3 st1 st2">OUTLET</text>
	</g>
	<g id="XMLID_4_">
		<ellipse id="XMLID_328_" class="st4" cx="401.4" cy="775.3" rx="157" ry="8"/>
		<g id="XMLID_317_">
			
				<rect id="XMLID_327_" x="52.9" y="232.9" transform="matrix(0.9249 -0.3802 0.3802 0.9249 -88.2433 77.0944)" class="st5" width="196.3" height="58"/>
			
				<rect id="XMLID_326_" x="52.9" y="230.7" transform="matrix(0.9249 -0.3802 0.3802 0.9249 -87.411 76.93)" class="st6" width="196.3" height="58"/>
			
				<rect id="XMLID_325_" x="58.4" y="258.6" transform="matrix(0.9249 -0.3802 0.3802 0.9249 -92.0968 80.0338)" class="st7" width="196.3" height="29"/>
			
				<rect id="XMLID_324_" x="65" y="291" transform="matrix(0.9249 -0.3802 0.3802 0.9249 -105.5666 50.6002)" class="st8" width="20.7" height="3.1"/>
			
				<rect id="XMLID_323_" x="63.8" y="288.1" transform="matrix(0.9249 -0.3802 0.3802 0.9249 -104.5722 49.9416)" class="st9" width="20.7" height="3.1"/>
			
				<rect id="XMLID_322_" x="217.6" y="228.2" transform="matrix(0.9249 -0.3802 0.3802 0.9249 -70.2398 103.9334)" class="st8" width="20.7" height="3.1"/>
			
				<rect id="XMLID_321_" x="216.5" y="225.4" transform="matrix(0.9249 -0.3802 0.3802 0.9249 -69.2455 103.2748)" class="st9" width="20.7" height="3.1"/>
			<circle id="XMLID_320_" class="st7" cx="68.5" cy="276.8" r="8.5"/>
			
				<rect id="XMLID_319_" x="78.6" y="257.6" transform="matrix(0.9249 -0.3802 0.3802 0.9249 -94.0422 55.9982)" class="st7" width="32.3" height="16.9"/>
			
				<rect id="XMLID_318_" x="42.3" y="232.8" transform="matrix(0.9249 -0.3802 0.3802 0.9249 -78.393 70.9567)" class="st10" width="196.3" height="2.2"/>
		</g>
		<g id="XMLID_309_">
			
				<rect id="XMLID_314_" x="577.6" y="73.5" transform="matrix(-0.315 -0.9491 0.9491 -0.315 759.7778 821.6753)" class="st11" width="197.7" height="126.3"/>
			
				<rect id="XMLID_313_" x="573.2" y="74.9" transform="matrix(-0.315 -0.9491 0.9491 -0.315 752.7283 819.4583)" class="st9" width="197.7" height="126.3"/>
			<polygon id="XMLID_312_" class="st8" points="700.9,24.4 763.2,212 643.3,251.8 			"/>
			
				<rect id="XMLID_311_" x="514.6" y="156.2" transform="matrix(-0.315 -0.9491 0.9491 -0.315 657.1296 789.3932)" class="st10" width="197.7" height="2.7"/>
			
				<ellipse id="XMLID_310_" transform="matrix(-0.315 -0.9491 0.9491 -0.315 733.8219 710.5753)" class="st8" cx="623.3" cy="90.5" rx="26.7" ry="13.4"/>
		</g>
		<g id="XMLID_284_">
			<path id="XMLID_297_" class="st11" d="M161.9,81.1c1.9-21.5-7.7-39.9-24-43.6c-17.8-4-33.1,7.1-40.6,28.9l-15.9-3.6l-37,119
				L159.6,208l0.2,0L178,84.8L161.9,81.1z M102.3,80.5c-0.1,0.4-0.2,0.7-0.4,1c-0.1,0.2-0.2,0.3-0.3,0.5c-0.1,0.2-0.2,0.3-0.3,0.5
				c-0.1,0.1-0.2,0.3-0.3,0.4c-0.1,0.1-0.2,0.3-0.3,0.4c-0.1,0.1-0.3,0.2-0.4,0.3c-0.1,0.1-0.3,0.2-0.4,0.3
				c-0.1,0.1-0.3,0.2-0.4,0.3c-0.2,0.1-0.3,0.2-0.5,0.3c-0.1,0.1-0.3,0.1-0.4,0.2c-0.2,0.1-0.4,0.1-0.6,0.2c-0.1,0-0.3,0.1-0.4,0.1
				c-0.2,0-0.5,0-0.7,0.1c-0.1,0-0.2,0-0.4,0c-0.4,0-0.7-0.1-1.1-0.1c-0.4-0.1-0.7-0.2-1-0.3c-0.1,0-0.2-0.1-0.3-0.2
				c-0.2-0.1-0.4-0.2-0.6-0.4c-0.1-0.1-0.2-0.2-0.3-0.3c-0.2-0.1-0.3-0.3-0.5-0.4c-0.1-0.1-0.2-0.2-0.3-0.3
				c-0.1-0.1-0.2-0.3-0.3-0.4c-0.1-0.1-0.2-0.3-0.3-0.4c-0.1-0.2-0.2-0.3-0.2-0.5c-0.1-0.2-0.1-0.3-0.2-0.5
				c-0.1-0.2-0.1-0.3-0.1-0.5c0-0.2-0.1-0.3-0.1-0.5c0-0.2,0-0.3,0-0.5c0-0.2,0-0.4,0-0.5l0,0c0-0.4,0.1-0.7,0.1-1.1
				c0.5-2.1,2.1-3.7,4.1-4.2c-0.1,0.4-0.2,0.7-0.3,1.1c0,0.1,0,0.2,0,0.3c0,0,0,0,0,0c-0.2,1.4,0.7,2.7,2.1,3
				c1.5,0.3,2.9-0.6,3.3-2.1c0.1-0.4,0.2-0.7,0.3-1.1C102,76.3,102.8,78.4,102.3,80.5z M136.8,42.9c13.1,3,21.1,18.7,19.8,37
				l-53.8-12.3C109.3,48.9,121.9,39.5,136.8,42.9z M162.1,95.2L162.1,95.2c-0.1,0.2-0.2,0.3-0.3,0.5c-0.1,0.2-0.2,0.3-0.3,0.5
				c-0.1,0.1-0.2,0.3-0.3,0.4c-0.1,0.1-0.2,0.3-0.3,0.4c-0.1,0.1-0.3,0.2-0.4,0.3c-0.1,0.1-0.3,0.2-0.4,0.3
				c-0.1,0.1-0.3,0.2-0.4,0.3c-0.2,0.1-0.3,0.2-0.5,0.3c-0.1,0.1-0.3,0.1-0.4,0.2c-0.2,0.1-0.4,0.1-0.6,0.2c-0.1,0-0.3,0.1-0.4,0.1
				c-0.2,0-0.5,0-0.7,0.1c-0.1,0-0.2,0-0.4,0c-0.4,0-0.7-0.1-1.1-0.1c-0.4-0.1-0.7-0.2-1-0.3c-0.1,0-0.2-0.1-0.3-0.2
				c-0.2-0.1-0.4-0.2-0.6-0.4c-0.1-0.1-0.2-0.2-0.3-0.3c-0.2-0.1-0.3-0.3-0.5-0.4c-0.1-0.1-0.2-0.2-0.3-0.3
				c-0.1-0.1-0.2-0.3-0.3-0.4c-0.1-0.1-0.2-0.3-0.3-0.4c-0.1-0.2-0.2-0.3-0.2-0.5c-0.1-0.2-0.1-0.3-0.2-0.5
				c-0.1-0.2-0.1-0.3-0.1-0.5c0-0.2-0.1-0.3-0.1-0.5c0-0.2,0-0.3,0-0.5c0-0.2,0-0.4,0-0.5c0-0.4,0.1-0.7,0.1-1.1
				c0.5-2.2,2.2-3.8,4.3-4.3c-0.1,0.4-0.2,0.8-0.3,1.2c-0.3,1.5,0.6,2.9,2.1,3.3c1.5,0.3,2.9-0.6,3.3-2.1c0.1-0.3,0.1-0.7,0.2-1
				c1.4,1.3,2.1,3.4,1.6,5.4C162.3,94.6,162.2,94.9,162.1,95.2z"/>
			<path id="XMLID_293_" class="st4" d="M178,82.6l-96.5-22l-37,119l115.4,26.3L178,82.6z M95.5,82.6c-3.1-0.7-5-3.8-4.3-6.9
				c0.7-3.1,3.8-5,6.9-4.3c3.1,0.7,5,3.8,4.3,6.9C101.6,81.4,98.5,83.3,95.5,82.6z M155.5,96.3c-3.1-0.7-5-3.8-4.3-6.9
				c0.7-3.1,3.8-5,6.9-4.3s5,3.8,4.3,6.9C161.7,95.1,158.6,97,155.5,96.3z"/>
			<g id="XMLID_289_">
				<polygon id="XMLID_292_" class="st10" points="81,62.7 177.5,84.7 159.6,205.8 159.8,205.9 178,82.6 81.4,60.6 44.4,179.6 
					44.6,179.6 				"/>
				<path id="XMLID_291_" class="st10" d="M155.1,98.5c3.1,0.7,6.2-1.2,6.9-4.3c0.1-0.4,0.1-0.7,0.1-1.1c-1.1,2.5-3.8,3.9-6.5,3.3
					s-4.5-3.1-4.4-5.8c-0.1,0.3-0.3,0.7-0.4,1C150,94.7,152,97.8,155.1,98.5z"/>
				<path id="XMLID_290_" class="st10" d="M95,84.8c3.1,0.7,6.2-1.2,6.9-4.3c0.1-0.4,0.1-0.7,0.1-1.1c-1.1,2.5-3.8,3.9-6.5,3.3
					c-2.7-0.6-4.5-3.1-4.4-5.8c-0.1,0.3-0.3,0.7-0.4,1C90,81,91.9,84.1,95,84.8z"/>
			</g>
			<g id="XMLID_287_">
				<path id="XMLID_288_" class="st12" d="M157.3,89.7c-1.5-0.3-2.4-1.8-2.1-3.3c5-21.7-3.3-42.2-18.5-45.7
					c-17-3.9-30.9,8.8-36.5,33.2c-0.3,1.5-1.8,2.4-3.3,2.1c-1.5-0.3-2.4-1.8-2.1-3.3c6.2-27.2,23.1-41.8,43-37.3
					c18.4,4.2,28.3,27.1,22.6,52.3C160.2,89.1,158.8,90,157.3,89.7z"/>
			</g>
			<path id="XMLID_286_" class="st10" d="M137.5,37.5c18,4.1,27.8,26,23,50.4c0-0.1,0.1-0.2,0.1-0.3c5.7-25.1-4.2-48.1-22.6-52.3
				c-19.9-4.5-36.8,10.1-43,37.3c0,0.1,0,0.2,0,0.3C101.4,46.9,118,33.1,137.5,37.5z"/>
			<path id="XMLID_285_" class="st13" d="M108.8,162.8c10.4-1.7,30.7-13.6,35.7-23.7c3.5-7.2,6.5-17.2-3.9-24.4
				c-8.9-6.1-21.8,4.3-21.8,4.3s-5.3-15.4-17.8-13.4c-11.1,1.8-14.1,12.3-14.1,20.3C87,137.2,100.5,157,108.8,162.8z"/>
		</g>
		<g id="XMLID_259_">
			<path id="XMLID_272_" class="st11" d="M595.4,233.6l-15.9-4.3c2.9-21.4-6-40.2-22.1-44.6c-17.6-4.8-33.4,5.7-41.8,27.1l-15.7-4.3
				l-42.2,117.2l0.2,0l0,0L571.9,356L595.4,233.6z M569.1,243.9c-0.1-0.1-0.2-0.3-0.2-0.4c-0.1-0.2-0.2-0.3-0.2-0.5
				c-0.1-0.2-0.1-0.3-0.2-0.5c0-0.2-0.1-0.3-0.1-0.5c0-0.2-0.1-0.3-0.1-0.5c0-0.2,0-0.3,0-0.5c0-0.2,0-0.4,0-0.5v0
				c0-0.4,0.1-0.7,0.2-1.1c0.6-2.2,2.4-3.7,4.4-4.1c-0.1,0.4-0.2,0.8-0.3,1.2c-0.4,1.5,0.5,3,1.9,3.4c1.5,0.4,3-0.5,3.4-1.9
				c0.1-0.3,0.2-0.7,0.3-1c1.3,1.4,1.9,3.4,1.4,5.4c-0.1,0.4-0.2,0.7-0.4,1c-0.1,0.2-0.2,0.3-0.3,0.5c-0.1,0.1-0.2,0.3-0.3,0.4
				c-0.1,0.1-0.2,0.3-0.3,0.4c-0.1,0.1-0.2,0.3-0.4,0.4c-0.1,0.1-0.3,0.2-0.4,0.3c-0.1,0.1-0.3,0.2-0.4,0.3
				c-0.1,0.1-0.3,0.2-0.4,0.2c-0.2,0.1-0.3,0.2-0.5,0.2c-0.1,0.1-0.3,0.1-0.4,0.2c-0.2,0.1-0.4,0.1-0.6,0.1c-0.1,0-0.3,0.1-0.4,0.1
				c-0.2,0-0.5,0-0.7,0c-0.1,0-0.2,0-0.4,0c-0.4,0-0.7-0.1-1.1-0.2c-0.4-0.1-0.7-0.2-1-0.4c-0.1-0.1-0.2-0.1-0.3-0.2
				c-0.2-0.1-0.4-0.2-0.6-0.4c-0.1-0.1-0.2-0.2-0.3-0.3c-0.2-0.1-0.3-0.3-0.4-0.4c-0.1-0.1-0.2-0.2-0.3-0.4
				C569.3,244.2,569.2,244,569.1,243.9z M512.9,220.1c0,0.1,0,0.2,0,0.3l0,0c-0.2,1.4,0.6,2.7,2,3.1c1.5,0.4,3-0.5,3.4-1.9
				c0.1-0.4,0.2-0.7,0.3-1.1c1.4,1.4,2.1,3.5,1.5,5.6c-0.1,0.4-0.2,0.7-0.4,1c0,0,0,0,0,0c-0.1,0.2-0.2,0.3-0.3,0.5
				c-0.1,0.1-0.2,0.3-0.3,0.4c-0.1,0.1-0.2,0.3-0.4,0.4c-0.1,0.1-0.2,0.3-0.4,0.4c-0.1,0.1-0.3,0.2-0.4,0.3
				c-0.1,0.1-0.3,0.2-0.4,0.3c-0.1,0.1-0.3,0.2-0.4,0.2c-0.2,0.1-0.3,0.2-0.5,0.2c-0.1,0.1-0.3,0.1-0.4,0.2
				c-0.2,0.1-0.4,0.1-0.6,0.1c-0.1,0-0.3,0.1-0.4,0.1c-0.2,0-0.5,0-0.7,0c-0.1,0-0.2,0-0.4,0c-0.4,0-0.7-0.1-1.1-0.2
				c-0.4-0.1-0.7-0.2-1-0.4c-0.1-0.1-0.2-0.1-0.3-0.2c-0.2-0.1-0.4-0.2-0.6-0.4c-0.1-0.1-0.2-0.2-0.3-0.3c-0.2-0.1-0.3-0.3-0.4-0.4
				c-0.1-0.1-0.2-0.2-0.3-0.4c-0.1-0.1-0.2-0.3-0.3-0.5c-0.1-0.1-0.2-0.3-0.2-0.4c-0.1-0.2-0.2-0.3-0.2-0.5
				c-0.1-0.2-0.1-0.3-0.2-0.5c0-0.2-0.1-0.3-0.1-0.5c0-0.2-0.1-0.3-0.1-0.5c0-0.2,0-0.3,0-0.5c0-0.2,0-0.4,0-0.5c0,0,0,0,0,0
				c0-0.4,0.1-0.7,0.2-1.1c0.6-2.1,2.3-3.6,4.2-4C513.1,219.3,513,219.7,512.9,220.1z M556.1,190c13,3.6,20.2,19.6,18.2,37.8
				L521,213.2C528.4,194.8,541.3,185.9,556.1,190z"/>
			<path id="XMLID_268_" class="st6" d="M595.4,231.4l-95.5-26.2l-42.2,117.2l114.1,31.3L595.4,231.4z M513,227.9
				c-3.1-0.8-4.8-4-4-7c0.8-3.1,4-4.8,7-4c3.1,0.8,4.8,4,4,7C519.2,226.9,516,228.7,513,227.9z M572.4,244.2c-3.1-0.8-4.8-4-4-7
				c0.8-3.1,4-4.8,7-4c3.1,0.8,4.8,4,4,7C578.6,243.2,575.5,245,572.4,244.2z"/>
			<g id="XMLID_264_">
				<polygon id="XMLID_267_" class="st10" points="499.4,207.4 594.8,233.6 571.7,353.7 571.9,353.8 595.4,231.4 499.9,205.3 
					457.8,322.5 457.9,322.5 				"/>
				<path id="XMLID_266_" class="st10" d="M571.8,246.3c3.1,0.8,6.2-1,7-4c0.1-0.4,0.2-0.7,0.2-1.1c-1.2,2.4-4,3.7-6.6,3
					s-4.4-3.3-4.2-6c-0.2,0.3-0.3,0.7-0.4,1C567,242.3,568.8,245.4,571.8,246.3z"/>
				<path id="XMLID_265_" class="st10" d="M512.4,230c3.1,0.8,6.2-1,7-4c0.1-0.4,0.2-0.7,0.2-1.1c-1.2,2.4-4,3.7-6.6,3
					s-4.4-3.3-4.2-6c-0.2,0.3-0.3,0.7-0.4,1C507.6,226,509.3,229.1,512.4,230z"/>
			</g>
			<g id="XMLID_262_">
				<path id="XMLID_263_" class="st12" d="M574.5,237.6c-1.5-0.4-2.3-1.9-1.9-3.4c5.9-21.5-1.5-42.4-16.5-46.5
					c-16.8-4.6-31.3,7.5-37.9,31.6c-0.4,1.5-1.9,2.3-3.4,1.9c-1.5-0.4-2.3-1.9-1.9-3.4c7.4-26.9,24.9-40.8,44.6-35.4
					c18.2,5,27.1,28.4,20.3,53.2C577.4,237.2,575.9,238,574.5,237.6z"/>
			</g>
			<path id="XMLID_261_" class="st10" d="M556.9,184.6c17.8,4.9,26.7,27.2,20.8,51.4c0-0.1,0.1-0.2,0.1-0.3
				c6.8-24.8-2.1-48.2-20.3-53.2c-19.7-5.4-37.2,8.5-44.6,35.4c0,0.1,0,0.2,0,0.3C520.5,192.5,537.7,179.3,556.9,184.6z"/>
			<circle id="XMLID_260_" class="st8" cx="531.5" cy="279" r="29.9"/>
		</g>
		<g id="XMLID_254_">
			<path id="XMLID_258_" class="st5" d="M466.7,179.4l-3.1-12.8c-0.5-2.2-2.8-3.9-6.4-5c-1-0.3-2.2-0.6-3.5-0.9
				c-1.3-0.3-2.6-0.5-4.1-0.6c-1.5-0.2-3.1-0.3-4.7-0.4s-3.4-0.1-5.3-0.2c-3.7,0-7.7,0.1-12.1,0.4c-4.3,0.3-9,0.8-13.8,1.4
				c-2.4,0.3-4.9,0.7-7.4,1.1c-1.3,0.2-2.5,0.4-3.8,0.6c-7.8,1.3-15.9,3-24.3,5c-14,3.4-27,7.3-38.2,11.4c-1.1,0.4-2.2,0.8-3.3,1.2
				c-2.2,0.8-4.2,1.7-6.2,2.5c-4,1.7-7.7,3.4-11,5.1c-2.1,1.1-4.1,2.2-5.9,3.3c-0.5,0.3-1,0.6-1.5,0.9c-2.3,1.4-4.2,2.8-5.8,4.2
				c-0.5,0.5-1,0.9-1.5,1.4c-2.7,2.7-4,5.2-3.4,7.4l0,0l3.1,12.8c2.4,10,40.7,9.4,85.5-1.3C434.7,206.2,469.1,189.4,466.7,179.4z"/>
			
				<ellipse id="XMLID_257_" transform="matrix(0.9725 -0.2329 0.2329 0.9725 -32.299 94.1391)" class="st14" cx="382.5" cy="183.8" rx="83.5" ry="18.6"/>
			<path id="XMLID_256_" class="st13" d="M304.4,216c2.4,10,40.7,9.4,85.5-1.3c44.8-10.7,79.2-27.5,76.8-37.5l-3.1-12.8
				c2.4,10-32,26.8-76.8,37.5c-44.8,10.7-83.1,11.3-85.5,1.3L304.4,216z"/>
			<path id="XMLID_255_" class="st10" d="M378.7,167.9c43.2-10.4,80.3-11.3,85.1-2.4c0-0.4,0-0.7-0.1-1.1c-2.4-10-40.7-9.4-85.5,1.3
				c-44.8,10.7-79.2,27.5-76.8,37.5c0.1,0.4,0.2,0.7,0.4,1C301.9,194.2,335.4,178.2,378.7,167.9z"/>
		</g>
		<g id="XMLID_237_">
			<path id="XMLID_244_" class="st11" d="M317.2,353.9c-0.1-0.7-0.2-1.3-0.3-1.9c-0.4-1.8-1.1-3.5-2-5.1c-0.6-1.1-1.3-2.1-2.1-3
				c-0.4-0.5-0.8-0.9-1.2-1.3c-1.3-1.3-2.8-2.4-4.5-3.3c-1.1-0.6-2.3-1.1-3.6-1.4l-42.2-11.9c10.3,0,24.6-2.9,26-6.5
				c0.2-0.4,0.5-1.9-1.3-3c-0.4-0.2-0.8-0.4-1.3-0.6c-6.9-1.9-25.5,5.3-29.4,6.8c-3.5-2.9-21.3-17.3-29.1-19.5
				c-0.7-0.2-1.3-0.3-1.9-0.3c-1.9,0-2.2,1-2.3,1.5c-0.2,0.9-0.5,2.7,12.7,10.8c4,2.4,8.2,4.8,12,6.6l-40.1-11.3
				c-1.9-0.5-3.8-0.8-5.7-0.7c0,0-0.1,0-0.1,0c-1.6,0.1-3.3,0.3-4.8,0.8c-3.7,1.1-7,3.3-9.4,6.3c-0.4,0.5-0.7,1-1.1,1.5
				c-1,1.6-1.8,3.3-2.4,5.2l-2.7,9.5c-0.7-0.2-1.4,0.2-1.6,0.9c-0.2,0.7,0.2,1.4,0.9,1.6l-2.7,9.5c-2.9,10.1,3,20.6,13.1,23.4
				l47.3,13.4v0c-0.2,0.7,0.2,1.4,0.9,1.6c0.7,0.2,1.4-0.2,1.6-0.9v0l47.3,13.4c10.1,2.9,20.6-3,23.4-13.1l2.7-9.5
				c0.7,0.2,1.4-0.2,1.6-0.9s-0.2-1.4-0.9-1.6l2.7-9.5c0.4-1.3,0.6-2.5,0.7-3.8C317.4,356.3,317.4,355.1,317.2,353.9z M225.4,305.6
				c0,0,0.1,0,0.1,0c4.7,1.3,13.9,7.9,20.6,13C237.8,314.3,228.4,308.4,225.4,305.6z M260.4,323.5c7.6-2.8,19.2-6.4,23.6-5.2
				c0.3,0.1,0.5,0.2,0.7,0.3c0.1,0,0.1,0.1,0.1,0.1C283.2,320.6,270.2,323.7,260.4,323.5z"/>
			<path id="XMLID_243_" class="st4" d="M181,363l116.8,33c4.6,1.3,9.4-1.4,10.7-6l11.7-41.4c1.3-4.6-1.4-9.4-6-10.7l-116.8-33
				c-4.6-1.3-9.4,1.4-10.7,6l-11.7,41.4C173.8,356.9,176.4,361.7,181,363z"/>
			<path id="XMLID_242_" class="st13" d="M191,365.8l96.9,27.4c10.1,2.9,20.6-3,23.4-13.1l-133.5-37.7
				C175,352.5,180.9,363,191,365.8z"/>
			<path id="XMLID_238_" class="st6" d="M179.7,331.3c-0.2,0.7,0.2,1.4,0.9,1.6l65.5,18.5l-7.9,27.8c-0.2,0.7,0.2,1.4,0.9,1.6
				s1.4-0.2,1.6-0.9l7.9-27.8l65.5,18.5c0.7,0.2,1.4-0.2,1.6-0.9c0.2-0.7-0.2-1.4-0.9-1.6l-65.5-18.5l7.5-26.7
				c9.7,1.4,29.7-1.9,31.3-6.2c0.2-0.4,0.5-1.9-1.3-3c-0.4-0.2-0.8-0.4-1.3-0.6c-6.9-1.9-25.5,5.3-29.4,6.8
				c-3.5-2.9-21.3-17.3-29.1-19.5c-0.7-0.2-1.3-0.3-1.9-0.3c-1.9,0-2.2,1-2.3,1.5c-0.2,0.9-0.5,2.7,12.7,10.8
				c6.8,4.1,14.1,7.9,18.8,9.8l-7.5,26.7l-65.5-18.5C180.6,330.2,179.9,330.6,179.7,331.3z M246.9,316c-8.4-4.4-17.8-10.3-20.7-13.1
				c0,0,0.1,0,0.1,0C231,304.3,240.2,310.9,246.9,316z M261.2,320.8c7.6-2.8,19.2-6.4,23.6-5.2c0.3,0.1,0.5,0.2,0.7,0.3
				c0.1,0,0.1,0.1,0.1,0.1C283.9,317.9,270.9,321,261.2,320.8z"/>
		</g>
		<g id="XMLID_228_">
			
				<rect id="XMLID_234_" x="334.5" y="255.2" transform="matrix(0.948 -0.3182 0.3182 0.948 -79.8837 147.121)" class="st11" width="151.8" height="125.7"/>
			
				<rect id="XMLID_233_" x="333.2" y="251.4" transform="matrix(0.948 -0.3182 0.3182 0.948 -78.7254 146.5095)" class="st9" width="151.8" height="125.7"/>
			
				<rect id="XMLID_232_" x="313.5" y="254.6" transform="matrix(0.948 -0.3182 0.3182 0.948 -61.1142 137.2119)" class="st10" width="151.8" height="2.2"/>
			
				<rect id="XMLID_231_" x="321.7" y="275.3" transform="matrix(0.948 -0.3182 0.3182 0.948 -68.3808 141.0482)" class="st8" width="151.8" height="9.1"/>
			
				<rect id="XMLID_230_" x="325.5" y="286.7" transform="matrix(0.948 -0.3182 0.3182 0.948 -71.8137 142.8605)" class="st8" width="151.8" height="9.1"/>
			<circle id="XMLID_229_" class="st8" cx="377.8" cy="362.6" r="17.2"/>
		</g>
		<g id="XMLID_218_">
			
				<rect id="XMLID_227_" x="305.2" y="431" transform="matrix(0.9919 0.127 -0.127 0.9919 64.4108 -43.3414)" class="st5" width="133.5" height="104.6"/>
			
				<rect id="XMLID_226_" x="305.2" y="428.8" transform="matrix(0.9919 0.127 -0.127 0.9919 64.1327 -43.3592)" class="st6" width="133.5" height="104.6"/>
			
				<rect id="XMLID_225_" x="320.4" y="434.4" transform="matrix(0.9919 0.127 -0.127 0.9919 59.2552 -38.7761)" class="st8" width="26.5" height="21.4"/>
			
				<rect id="XMLID_224_" x="311.2" y="516.8" transform="matrix(0.9919 0.127 -0.127 0.9919 68.6831 -40.0593)" class="st8" width="74.4" height="3.3"/>
			
				<rect id="XMLID_223_" x="312" y="510.6" transform="matrix(0.9919 0.127 -0.127 0.9919 67.9012 -40.2106)" class="st8" width="74.4" height="3.3"/>
			
				<rect id="XMLID_222_" x="312.8" y="504.3" transform="matrix(0.9919 0.127 -0.127 0.9919 67.1192 -40.3618)" class="st8" width="74.4" height="3.3"/>
			
				<rect id="XMLID_221_" x="408.1" y="471.6" transform="matrix(-0.9919 -0.127 0.127 -0.9919 782.8344 1010.6727)" class="st4" width="31.2" height="17.6"/>
			
				<rect id="XMLID_220_" x="407.5" y="480.3" transform="matrix(-0.9919 -0.127 0.127 -0.9919 781.1678 1019.288)" class="st13" width="31.2" height="8.8"/>
			
				<rect id="XMLID_219_" x="311.7" y="429.2" transform="matrix(0.9919 0.127 -0.127 0.9919 57.7331 -44.5971)" class="st10" width="133.5" height="2.2"/>
		</g>
		<g id="XMLID_205_">
			
				<rect id="XMLID_215_" x="440.2" y="439.1" transform="matrix(0.7912 -0.6116 0.6116 0.7912 -173.8893 427.0135)" class="st11" width="196.3" height="58"/>
			
				<rect id="XMLID_214_" x="438.5" y="436.9" transform="matrix(0.7912 -0.6116 0.6116 0.7912 -172.9039 425.5214)" class="st4" width="196.3" height="58"/>
			
				<rect id="XMLID_213_" x="447.4" y="462.9" transform="matrix(0.7912 -0.6116 0.6116 0.7912 -178.0692 433.3421)" class="st13" width="196.3" height="29"/>
			
				<rect id="XMLID_212_" x="462" y="516.1" transform="matrix(0.7912 -0.6116 0.6116 0.7912 -217.9462 396.9642)" class="st7" width="20.7" height="3.1"/>
			
				<rect id="XMLID_211_" x="460.1" y="513.7" transform="matrix(0.7912 -0.6116 0.6116 0.7912 -216.8502 395.3047)" class="st6" width="20.7" height="3.1"/>
			
				<rect id="XMLID_210_" x="592.6" y="415.1" transform="matrix(0.7912 -0.6116 0.6116 0.7912 -128.9326 455.7546)" class="st7" width="20.7" height="3.1"/>
			
				<rect id="XMLID_209_" x="590.7" y="412.7" transform="matrix(0.7912 -0.6116 0.6116 0.7912 -127.8366 454.095)" class="st6" width="20.7" height="3.1"/>
			<circle id="XMLID_208_" class="st9" cx="461.6" cy="504.3" r="8.5"/>
			
				<rect id="XMLID_207_" x="467.9" y="478.5" transform="matrix(0.7912 -0.6116 0.6116 0.7912 -196.7389 397.7275)" class="st9" width="32.3" height="16.9"/>
			
				<rect id="XMLID_206_" x="421.4" y="442.8" transform="matrix(0.7912 -0.6116 0.6116 0.7912 -162.9631 410.4702)" class="st10" width="196.3" height="2.2"/>
		</g>
		<g id="XMLID_33_">
			<g id="XMLID_168_">
				<path id="XMLID_175_" class="st0" d="M526.1,542.5l-261.4-25.2c-1.7-0.2-3.4,0-5,0.3l-30.4-25.3c-1.6-1.3-3.5-2-5.6-2h-20.5
					c-0.9-1.5-2.1-3-3.6-4.2c-7.1-5.9-17.7-5-23.6,2.2c-5.9,7.1-5,17.7,2.2,23.6c7.1,5.9,17.7,5,23.6-2.2c0.5-0.6,1-1.3,1.4-2h14.2
					c2,0,4,0.7,5.6,2l24.1,20c-0.8,2.6-1,5.5-0.5,8.5l22.5,129.7c1.5,8.5,8.4,14.6,16.5,14.6h20.7L286,708.4
					c-4.2,4.9-2.3,14.5,7.8,14.5h205.8c3.6,0,6.4-2.9,6.4-6.4c0-3.6-2.9-6.4-6.4-6.4h-191c-3.7,0-6.2-2.4-2.9-7l14.8-20.4h171.8
					c7.3,0,13.7-4.9,16-12.3l32.4-104.5C543.9,554.9,536.9,543.5,526.1,542.5z M274,570.6l-5.5-31.6l5.5,0.5V570.6z M299.8,661.2
					h-10l-2.8-16.3v-12.2h12.9V661.2z M299.8,619.8h-12.9v-30.2h12.9V619.8z M299.8,576.8h-12.9v-35.9l12.9,1.2V576.8z M325.5,661.2
					h-12.9v-28.5h12.9V661.2z M325.5,619.8h-12.9v-30.2h12.9V619.8z M325.5,576.8h-12.9v-33.4l12.9,1.2V576.8z M351.3,661.2h-12.9
					v-28.5h12.9V661.2z M351.3,619.8h-12.9v-30.2h12.9V619.8z M351.3,576.8h-12.9v-30.9l12.9,1.2V576.8z M377,661.2h-12.9v-28.5H377
					V661.2z M377,619.8h-12.9v-30.2H377V619.8z M377,576.8h-12.9v-28.5l12.9,1.2V576.8z M402.8,661.2h-12.9v-28.5h12.9V661.2z
					 M402.8,619.8h-12.9v-30.2h12.9V619.8z M402.8,576.8h-12.9v-26l12.9,1.2V576.8z M428.6,661.2h-12.9v-28.5h12.9V661.2z
					 M428.6,619.8h-12.9v-30.2h12.9V619.8z M428.6,576.8h-12.9v-23.5l12.9,1.2V576.8z M454.3,661.2h-12.9v-28.5h12.9V661.2z
					 M454.3,619.8h-12.9v-30.2h12.9V619.8z M454.3,576.8h-12.9v-21l12.9,1.2V576.8z M480.1,661.2h-12.9v-28.5h12.9V661.2z
					 M480.1,619.8h-12.9v-30.2h12.9V619.8z M480.1,576.8h-12.9v-18.5l12.9,1.2V576.8z M493,647.2v-14.5h4.5L493,647.2z M501.4,619.8
					H493v-30.2h17.8L501.4,619.8z M514.8,576.8H493v-16l26,2.5L514.8,576.8z"/>
				<path id="XMLID_172_" class="st0" d="M320.7,726.8c-14,0-25.4,11.4-25.4,25.4s11.4,25.4,25.4,25.4c14,0,25.4-11.4,25.4-25.4
					S334.8,726.8,320.7,726.8z M320.7,761.8c-5.3,0-9.5-4.3-9.5-9.5c0-5.3,4.3-9.5,9.5-9.5c5.3,0,9.5,4.3,9.5,9.5
					C330.3,757.5,326,761.8,320.7,761.8z"/>
				<path id="XMLID_169_" class="st0" d="M462.8,726.8c-14,0-25.4,11.4-25.4,25.4s11.4,25.4,25.4,25.4c14,0,25.4-11.4,25.4-25.4
					S476.8,726.8,462.8,726.8z M462.8,761.8c-5.3,0-9.5-4.3-9.5-9.5c0-5.3,4.3-9.5,9.5-9.5c5.3,0,9.5,4.3,9.5,9.5
					C472.3,757.5,468,761.8,462.8,761.8z"/>
			</g>
			<g id="XMLID_39_">
				<g id="XMLID_131_">
					<path id="XMLID_138_" class="st12" d="M526.1,540.1l-261.4-25.2c-1.7-0.2-3.4,0-5,0.3L229.4,490c-1.6-1.3-3.5-2-5.6-2h-20.5
						c-0.9-1.5-2.1-3-3.6-4.2c-7.1-5.9-17.7-5-23.6,2.2c-5.9,7.1-5,17.7,2.2,23.6c7.1,5.9,17.7,5,23.6-2.2c0.5-0.6,1-1.3,1.4-2h14.2
						c2,0,4,0.7,5.6,2l24.1,20c-0.8,2.6-1,5.5-0.5,8.5l22.5,129.7c1.5,8.5,8.4,14.6,16.5,14.6h20.7L286,706.1
						c-4.2,4.9-2.3,14.5,7.8,14.5h205.8c3.6,0,6.4-2.9,6.4-6.4c0-3.6-2.9-6.4-6.4-6.4h-191c-3.7,0-6.2-2.4-2.9-7l14.8-20.4h171.8
						c7.3,0,13.7-4.9,16-12.3l32.4-104.5C543.9,552.6,536.9,541.2,526.1,540.1z M274,568.3l-5.5-31.6l5.5,0.5V568.3z M299.8,658.9
						h-10l-2.8-16.3v-12.2h12.9V658.9z M299.8,617.5h-12.9v-30.2h12.9V617.5z M299.8,574.4h-12.9v-35.9l12.9,1.2V574.4z
						 M325.5,658.9h-12.9v-28.5h12.9V658.9z M325.5,617.5h-12.9v-30.2h12.9V617.5z M325.5,574.4h-12.9V541l12.9,1.2V574.4z
						 M351.3,658.9h-12.9v-28.5h12.9V658.9z M351.3,617.5h-12.9v-30.2h12.9V617.5z M351.3,574.4h-12.9v-30.9l12.9,1.2V574.4z
						 M377,658.9h-12.9v-28.5H377V658.9z M377,617.5h-12.9v-30.2H377V617.5z M377,574.4h-12.9V546l12.9,1.2V574.4z M402.8,658.9
						h-12.9v-28.5h12.9V658.9z M402.8,617.5h-12.9v-30.2h12.9V617.5z M402.8,574.4h-12.9v-26l12.9,1.2V574.4z M428.6,658.9h-12.9
						v-28.5h12.9V658.9z M428.6,617.5h-12.9v-30.2h12.9V617.5z M428.6,574.4h-12.9V551l12.9,1.2V574.4z M454.3,658.9h-12.9v-28.5
						h12.9V658.9z M454.3,617.5h-12.9v-30.2h12.9V617.5z M454.3,574.4h-12.9v-21l12.9,1.2V574.4z M480.1,658.9h-12.9v-28.5h12.9
						V658.9z M480.1,617.5h-12.9v-30.2h12.9V617.5z M480.1,574.4h-12.9v-18.5l12.9,1.2V574.4z M493,644.9v-14.5h4.5L493,644.9z
						 M501.4,617.5H493v-30.2h17.8L501.4,617.5z M514.8,574.4H493v-16l26,2.5L514.8,574.4z"/>
					<path id="XMLID_135_" class="st12" d="M320.7,724.5c-14,0-25.4,11.4-25.4,25.4c0,14,11.4,25.4,25.4,25.4
						c14,0,25.4-11.4,25.4-25.4C346.1,735.9,334.8,724.5,320.7,724.5z M320.7,759.4c-5.3,0-9.5-4.3-9.5-9.5c0-5.3,4.3-9.5,9.5-9.5
						c5.3,0,9.5,4.3,9.5,9.5C330.3,755.2,326,759.4,320.7,759.4z"/>
					<path id="XMLID_132_" class="st12" d="M462.8,724.5c-14,0-25.4,11.4-25.4,25.4c0,14,11.4,25.4,25.4,25.4
						c14,0,25.4-11.4,25.4-25.4C488.2,735.9,476.8,724.5,462.8,724.5z M462.8,759.4c-5.3,0-9.5-4.3-9.5-9.5c0-5.3,4.3-9.5,9.5-9.5
						c5.3,0,9.5,4.3,9.5,9.5C472.3,755.2,468,759.4,462.8,759.4z"/>
				</g>
				<g id="XMLID_99_">
					<rect id="XMLID_130_" x="364.2" y="617.5" class="st10" width="12.9" height="2.3"/>
					<rect id="XMLID_129_" x="338.4" y="658.9" class="st10" width="12.9" height="2.3"/>
					<rect id="XMLID_128_" x="364.2" y="574.4" class="st10" width="12.9" height="2.3"/>
					<rect id="XMLID_127_" x="364.2" y="658.9" class="st10" width="12.9" height="2.3"/>
					<rect id="XMLID_126_" x="389.9" y="574.4" class="st10" width="12.9" height="2.3"/>
					<rect id="XMLID_125_" x="389.9" y="658.9" class="st10" width="12.9" height="2.3"/>
					<rect id="XMLID_124_" x="389.9" y="617.5" class="st10" width="12.9" height="2.3"/>
					<path id="XMLID_123_" class="st10" d="M246.7,529.4c-0.3,1.4-0.4,2.9-0.3,4.5c0.1-1.4,0.3-2.8,0.7-4.1L246.7,529.4z"/>
					<rect id="XMLID_122_" x="415.7" y="574.4" class="st10" width="12.9" height="2.3"/>
					<path id="XMLID_121_" class="st10" d="M306.4,680.2L286,706.1c-1.6,1.9-2.3,4.5-2,7c0.2-1.7,0.9-3.4,2-4.7l22.2-28.2H306.4z"/>
					<path id="XMLID_120_" class="st10" d="M176.1,488.2c5.9-7.1,16.5-8.1,23.6-2.2c1.5,1.2,2.7,2.6,3.6,4.2h20.5c2,0,4,0.7,5.6,2
						l30.4,25.3c1.6-0.4,3.3-0.5,5-0.3l261.4,25.2c8.6,0.8,14.8,8.2,15.2,16.7c0.6-9.4-5.9-18.1-15.2-19l-261.4-25.2
						c-1.7-0.2-3.4,0-5,0.3L229.4,490c-1.6-1.3-3.5-2-5.6-2h-20.5c-0.9-1.5-2.1-3-3.6-4.2c-7.1-5.9-17.7-5-23.6,2.2
						c-2.9,3.5-4.1,7.8-3.8,11.9C172.5,494.4,173.8,491.1,176.1,488.2z"/>
					<rect id="XMLID_119_" x="286.9" y="574.4" class="st10" width="12.9" height="2.3"/>
					<rect id="XMLID_118_" x="338.4" y="617.5" class="st10" width="12.9" height="2.3"/>
					<rect id="XMLID_117_" x="338.4" y="574.4" class="st10" width="12.9" height="2.3"/>
					<rect id="XMLID_116_" x="286.9" y="617.5" class="st10" width="12.9" height="2.3"/>
					<polygon id="XMLID_115_" class="st10" points="289.7,661.2 299.8,661.2 299.8,658.9 289.7,658.9 286.9,642.5 286.9,644.8 					
						"/>
					<rect id="XMLID_114_" x="415.7" y="658.9" class="st10" width="12.9" height="2.3"/>
					<polygon id="XMLID_113_" class="st10" points="501.4,619.8 510.8,589.6 510.1,589.6 501.4,617.5 493,617.5 493,619.8 					"/>
					<polygon id="XMLID_112_" class="st10" points="497.5,632.7 496.7,632.7 493,644.9 493,647.2 					"/>
					<rect id="XMLID_111_" x="312.6" y="617.5" class="st10" width="12.9" height="2.3"/>
					<rect id="XMLID_110_" x="312.6" y="574.4" class="st10" width="12.9" height="2.3"/>
					<path id="XMLID_109_" class="st10" d="M499.6,707.7h-191c-2,0-3.7-0.7-4.3-2.2c-0.1,1.3,1.8,4.5,7.2,4.5h188.1
						c3.2,0,5.8,2.3,6.3,5.3c0.1-0.4,0.1-0.8,0.1-1.2C506.1,710.6,503.2,707.7,499.6,707.7z"/>
					<rect id="XMLID_108_" x="312.6" y="658.9" class="st10" width="12.9" height="2.3"/>
					<rect id="XMLID_107_" x="441.4" y="658.9" class="st10" width="12.9" height="2.3"/>
					<polygon id="XMLID_106_" class="st10" points="514.8,576.8 519,563.2 518.3,563.2 514.8,574.4 493,574.4 493,576.8 					"/>
					<rect id="XMLID_105_" x="441.4" y="574.4" class="st10" width="12.9" height="2.3"/>
					<rect id="XMLID_104_" x="415.7" y="617.5" class="st10" width="12.9" height="2.3"/>
					<rect id="XMLID_103_" x="441.4" y="617.5" class="st10" width="12.9" height="2.3"/>
					<rect id="XMLID_102_" x="467.2" y="658.9" class="st10" width="12.9" height="2.3"/>
					<rect id="XMLID_101_" x="467.2" y="617.5" class="st10" width="12.9" height="2.3"/>
					<rect id="XMLID_100_" x="467.2" y="574.4" class="st10" width="12.9" height="2.3"/>
				</g>
				<g id="XMLID_96_">
					<path id="XMLID_98_" class="st10" d="M320.7,726.8c13.6,0,24.8,10.8,25.4,24.2c0-0.4,0-0.8,0-1.2c0-14-11.4-25.4-25.4-25.4
						c-14,0-25.4,11.4-25.4,25.4c0,0.4,0,0.8,0,1.2C296,737.6,307.1,726.8,320.7,726.8z"/>
					<path id="XMLID_97_" class="st10" d="M320.7,761.8c5.3,0,9.5-4.3,9.5-9.5c0-0.4,0-0.8-0.1-1.2c-0.6,4.7-4.6,8.4-9.5,8.4
						c-4.9,0-8.9-3.7-9.5-8.4c0,0.4-0.1,0.8-0.1,1.2C311.2,757.5,315.5,761.8,320.7,761.8z"/>
				</g>
				<g id="XMLID_93_">
					<path id="XMLID_95_" class="st10" d="M462.8,726.8c13.6,0,24.8,10.8,25.4,24.2c0-0.4,0-0.8,0-1.2c0-14-11.4-25.4-25.4-25.4
						c-14,0-25.4,11.4-25.4,25.4c0,0.4,0,0.8,0,1.2C438,737.6,449.1,726.8,462.8,726.8z"/>
					<path id="XMLID_94_" class="st10" d="M462.8,761.8c5.3,0,9.5-4.3,9.5-9.5c0-0.4,0-0.8-0.1-1.2c-0.6,4.7-4.6,8.4-9.5,8.4
						c-4.9,0-8.9-3.7-9.5-8.4c0,0.4-0.1,0.8-0.1,1.2C453.2,757.5,457.5,761.8,462.8,761.8z"/>
				</g>
				<g id="XMLID_60_">
					<rect id="XMLID_92_" x="415.7" y="585" class="st12" width="12.9" height="2.3"/>
					<rect id="XMLID_91_" x="415.7" y="628.1" class="st12" width="12.9" height="2.3"/>
					<polygon id="XMLID_90_" class="st12" points="415.7,548.7 415.7,551 428.6,552.2 428.6,549.9 					"/>
					<polygon id="XMLID_89_" class="st12" points="389.9,546.2 389.9,548.5 402.8,549.7 402.8,547.4 					"/>
					<rect id="XMLID_88_" x="389.9" y="628.1" class="st12" width="12.9" height="2.3"/>
					<polygon id="XMLID_87_" class="st12" points="441.4,551.1 441.4,553.4 454.3,554.7 454.3,552.4 					"/>
					<rect id="XMLID_86_" x="389.9" y="585" class="st12" width="12.9" height="2.3"/>
					<polygon id="XMLID_85_" class="st12" points="467.2,553.6 467.2,555.9 480.1,557.2 480.1,554.9 					"/>
					<rect id="XMLID_84_" x="467.2" y="628.1" class="st12" width="12.9" height="2.3"/>
					<polygon id="XMLID_83_" class="st12" points="493,556.1 493,558.4 518.3,560.9 519,558.6 					"/>
					<polygon id="XMLID_82_" class="st12" points="493,585 493,587.3 510.1,587.3 510.8,585 					"/>
					<rect id="XMLID_81_" x="441.4" y="628.1" class="st12" width="12.9" height="2.3"/>
					<rect id="XMLID_80_" x="441.4" y="585" class="st12" width="12.9" height="2.3"/>
					<rect id="XMLID_79_" x="364.2" y="628.1" class="st12" width="12.9" height="2.3"/>
					<rect id="XMLID_78_" x="467.2" y="585" class="st12" width="12.9" height="2.3"/>
					<polygon id="XMLID_77_" class="st12" points="493,628.1 493,630.4 496.7,630.4 497.5,628.1 					"/>
					<path id="XMLID_76_" class="st12" d="M247.1,525.1l-24.1-20c-1.6-1.3-3.5-2-5.6-2h-14.2c-0.4,0.7-0.9,1.4-1.4,2
						c-5.9,7.1-16.5,8.1-23.6,2.2c-3.7-3-5.7-7.3-6-11.7c-0.3,5.2,1.7,10.4,6,14c7.1,5.9,17.7,5,23.6-2.2c0.5-0.6,1-1.3,1.4-2h14.2
						c2,0,4,0.7,5.6,2l23.6,19.7C246.8,526.4,247,525.8,247.1,525.1z"/>
					<polygon id="XMLID_75_" class="st12" points="268.5,534.5 268.9,536.8 274,537.3 274,535 					"/>
					<polygon id="XMLID_74_" class="st12" points="286.9,536.2 286.9,538.5 299.8,539.8 299.8,537.5 					"/>
					<rect id="XMLID_73_" x="286.9" y="628.1" class="st12" width="12.9" height="2.3"/>
					<rect id="XMLID_72_" x="286.9" y="585" class="st12" width="12.9" height="2.3"/>
					<path id="XMLID_71_" class="st12" d="M540.5,561.2l-32.4,104.5c-2.3,7.3-8.7,12.3-16,12.3H320.5l-13.4,18.4
						c-2.1,2.8-2.9,5.9-2.8,6.9c0.2-0.8,0.6-1.6,1.3-2.6l14.8-20.4h171.8c7.3,0,13.7-4.9,16-12.3l32.4-104.5
						c0.7-2.2,0.9-4.5,0.8-6.7C541.2,558.3,541,559.7,540.5,561.2z"/>
					<path id="XMLID_70_" class="st12" d="M499.6,718.3H293.8c-6.2,0-9.2-2-9.8-5.2c0.2,2.4,2.4,7.5,9.8,7.5h205.8
						c3.6,0,6.4-2.9,6.4-6.4c0-0.4,0-0.8-0.1-1.2C505.4,716,502.8,718.3,499.6,718.3z"/>
					<path id="XMLID_69_" class="st12" d="M304.6,680.2l1.8-2.3h-20.7c-8.1,0-15.1-6.1-16.5-14.6l-22.5-129.7
						c-0.1-0.7-0.2-1.4-0.2-2.1c-0.1,1.4,0,2.9,0.2,4.4l22.5,129.7c1.5,8.5,8.4,14.6,16.5,14.6H304.6z"/>
					<polygon id="XMLID_68_" class="st12" points="364.2,543.7 364.2,546 377,547.2 377,544.9 					"/>
					<rect id="XMLID_67_" x="338.4" y="585" class="st12" width="12.9" height="2.3"/>
					<rect id="XMLID_66_" x="338.4" y="628.1" class="st12" width="12.9" height="2.3"/>
					<rect id="XMLID_65_" x="364.2" y="585" class="st12" width="12.9" height="2.3"/>
					<polygon id="XMLID_64_" class="st12" points="312.6,538.7 312.6,541 325.5,542.3 325.5,540 					"/>
					<rect id="XMLID_63_" x="312.6" y="585" class="st12" width="12.9" height="2.3"/>
					<polygon id="XMLID_62_" class="st12" points="338.4,541.2 338.4,543.5 351.3,544.7 351.3,542.4 					"/>
					<rect id="XMLID_61_" x="312.6" y="628.1" class="st12" width="12.9" height="2.3"/>
				</g>
				<g id="XMLID_45_">
					<path id="XMLID_53_" class="st12" d="M320.7,738.1c-5.3,0-9.5,4.3-9.5,9.5c0,0.4,0,0.8,0.1,1.2c0.6-4.7,4.6-8.4,9.5-8.4
						c4.9,0,8.9,3.7,9.5,8.4c0-0.4,0.1-0.8,0.1-1.2C330.3,742.3,326,738.1,320.7,738.1z"/>
					<path id="XMLID_46_" class="st12" d="M320.7,773c-13.6,0-24.8-10.8-25.4-24.2c0,0.4,0,0.8,0,1.2c0,14,11.4,25.4,25.4,25.4
						c14,0,25.4-11.4,25.4-25.4c0-0.4,0-0.8,0-1.2C345.5,762.3,334.4,773,320.7,773z"/>
				</g>
				<g id="XMLID_42_">
					<path id="XMLID_44_" class="st12" d="M462.8,738.1c-5.3,0-9.5,4.3-9.5,9.5c0,0.4,0,0.8,0.1,1.2c0.6-4.7,4.6-8.4,9.5-8.4
						c4.9,0,8.9,3.7,9.5,8.4c0-0.4,0.1-0.8,0.1-1.2C472.3,742.3,468,738.1,462.8,738.1z"/>
					<path id="XMLID_43_" class="st12" d="M462.8,773c-13.6,0-24.8-10.8-25.4-24.2c0,0.4,0,0.8,0,1.2c0,14,11.4,25.4,25.4,25.4
						c14,0,25.4-11.4,25.4-25.4c0-0.4,0-0.8,0-1.2C487.5,762.3,476.4,773,462.8,773z"/>
				</g>
			</g>
		</g>
		<circle id="XMLID_32_" class="st5" cx="526.6" cy="400.8" r="10.1"/>
		<circle id="XMLID_31_" class="st4" cx="526.6" cy="398.6" r="10.1"/>
		<path id="XMLID_30_" class="st10" d="M526.6,390.7c5.2,0,9.5,3.9,10,9c0-0.4,0.1-0.7,0.1-1.1c0-5.6-4.5-10.1-10.1-10.1
			c-5.6,0-10.1,4.5-10.1,10.1c0,0.4,0,0.7,0.1,1.1C517.1,394.6,521.4,390.7,526.6,390.7z"/>
		<circle id="XMLID_29_" class="st5" cx="686.5" cy="270.9" r="10.1"/>
		<circle id="XMLID_27_" class="st4" cx="686.5" cy="268.7" r="10.1"/>
		<path id="XMLID_26_" class="st10" d="M686.5,260.8c5.2,0,9.5,3.9,10,9c0-0.4,0.1-0.7,0.1-1.1c0-5.6-4.5-10.1-10.1-10.1
			c-5.6,0-10.1,4.5-10.1,10.1c0,0.4,0,0.7,0.1,1.1C677,264.7,681.3,260.8,686.5,260.8z"/>
		<circle id="XMLID_25_" class="st5" cx="291.9" cy="256.8" r="10.1"/>
		<circle id="XMLID_24_" class="st4" cx="291.9" cy="254.6" r="10.1"/>
		<path id="XMLID_23_" class="st10" d="M291.9,246.7c5.2,0,9.5,3.9,10,9c0-0.4,0.1-0.7,0.1-1.1c0-5.6-4.5-10.1-10.1-10.1
			c-5.6,0-10.1,4.5-10.1,10.1c0,0.4,0,0.7,0.1,1.1C282.5,250.6,286.7,246.7,291.9,246.7z"/>
		<circle id="XMLID_22_" class="st5" cx="623.3" cy="301.3" r="10.1"/>
		<circle id="XMLID_21_" class="st9" cx="623.3" cy="299.1" r="10.1"/>
		<path id="XMLID_20_" class="st10" d="M623.3,291.3c5.2,0,9.5,3.9,10,9c0-0.4,0.1-0.7,0.1-1.1c0-5.6-4.5-10.1-10.1-10.1
			c-5.6,0-10.1,4.5-10.1,10.1c0,0.4,0,0.7,0.1,1.1C613.9,295.2,618.1,291.3,623.3,291.3z"/>
		<circle id="XMLID_19_" class="st5" cx="264.1" cy="457.2" r="10.1"/>
		<circle id="XMLID_18_" class="st9" cx="264.1" cy="455" r="10.1"/>
		<path id="XMLID_17_" class="st10" d="M264.1,447.2c5.2,0,9.5,3.9,10,9c0-0.4,0.1-0.7,0.1-1.1c0-5.6-4.5-10.1-10.1-10.1
			c-5.6,0-10.1,4.5-10.1,10.1c0,0.4,0,0.7,0.1,1.1C254.6,451.1,258.9,447.2,264.1,447.2z"/>
		<circle id="XMLID_16_" class="st5" cx="83.9" cy="219.9" r="10.1"/>
		<circle id="XMLID_15_" class="st9" cx="83.9" cy="217.7" r="10.1"/>
		<path id="XMLID_14_" class="st10" d="M83.9,209.8c5.2,0,9.5,3.9,10,9c0-0.4,0.1-0.7,0.1-1.1c0-5.6-4.5-10.1-10.1-10.1
			c-5.6,0-10.1,4.5-10.1,10.1c0,0.4,0,0.7,0.1,1.1C74.4,213.7,78.7,209.8,83.9,209.8z"/>
		<circle id="XMLID_13_" class="st5" cx="281.9" cy="184.6" r="10.1"/>
		<circle id="XMLID_12_" class="st6" cx="281.9" cy="182.4" r="10.1"/>
		<path id="XMLID_11_" class="st10" d="M281.9,174.5c5.2,0,9.5,3.9,10,9c0-0.4,0.1-0.7,0.1-1.1c0-5.6-4.5-10.1-10.1-10.1
			c-5.6,0-10.1,4.5-10.1,10.1c0,0.4,0,0.7,0.1,1.1C272.4,178.5,276.7,174.5,281.9,174.5z"/>
		<circle id="XMLID_10_" class="st5" cx="156.3" cy="397.7" r="10.1"/>
		<circle id="XMLID_9_" class="st6" cx="156.3" cy="395.5" r="10.1"/>
		<path id="XMLID_8_" class="st10" d="M156.3,387.6c5.2,0,9.5,3.9,10,9c0-0.4,0.1-0.7,0.1-1.1c0-5.6-4.5-10.1-10.1-10.1
			c-5.6,0-10.1,4.5-10.1,10.1c0,0.4,0,0.7,0.1,1.1C146.8,391.6,151.1,387.6,156.3,387.6z"/>
		<circle id="XMLID_7_" class="st5" cx="646.2" cy="366" r="10.1"/>
		<circle id="XMLID_6_" class="st6" cx="646.2" cy="363.9" r="10.1"/>
		<path id="XMLID_5_" class="st10" d="M646.2,356c5.2,0,9.5,3.9,10,9c0-0.4,0.1-0.7,0.1-1.1c0-5.6-4.5-10.1-10.1-10.1
			c-5.6,0-10.1,4.5-10.1,10.1c0,0.4,0,0.7,0.1,1.1C636.7,359.9,641,356,646.2,356z"/>
	</g>
</g>
</svg>
