<?xml version="1.0" encoding="utf-8"?>
<!-- Generator: Adobe Illustrator 19.0.0, SVG Export Plug-In . SVG Version: 6.00 Build 0)  -->
<svg version="1.1" id="Layer_1" xmlns="http://www.w3.org/2000/svg" xmlns:xlink="http://www.w3.org/1999/xlink" x="0px" y="0px"
	 viewBox="0 0 258 208.7" style="enable-background:new 0 0 258 208.7;" xml:space="preserve">
<style type="text/css">
	.st0{fill:#D3E8EE;}
	.st1{fill:#3059A8;}
	.st2{fill:#22449C;}
	.st3{fill:#2F71B8;}
	.st4{fill:#F26133;}
	.st5{fill:#143643;}
	.st6{fill:#0B121A;}
	.st7{fill:#FFFFFF;}
	.st8{opacity:0.3;fill:#FFFFFF;}
	.st9{fill:#D53F2E;}
	.st10{fill:#345565;}
	.st11{fill:#F8A996;}
	.st12{fill:#F58B6D;}
	.st13{fill:#D85C48;}
	.st14{fill:#F7974C;}
	.st15{fill:#2D94D1;}
	.st16{fill:#EC3D24;}
	.st17{fill:#3893D0;}
	.st18{fill:#F2F2F2;}
	.st19{fill:#D8D9D8;}
</style>
<g id="XMLID_2_">
	<ellipse id="XMLID_563_" class="st0" cx="130.8" cy="198.5" rx="104.3" ry="5.8"/>
	<g id="XMLID_557_">
		<path id="XMLID_562_" class="st0" d="M119.2,44.8c-8.3-29.9-45.5-39.6-66.8-17.2c-0.3,0.3-0.6,0.6-0.9,1
			C20.9,61.8,35.3,143.7,99.1,164.4c63.8,20.8,130.1-17.1,133.9-51c3.7-33.9-25.7-44.5-71.4-35.1C135.8,83.7,124.3,63.4,119.2,44.8z
			"/>
		<path id="XMLID_561_" class="st0" d="M174.9,51.9c-8.3,2.6-9.6,10.4-2.3,14.8c2.4,1.5,5.7,2.5,10.2,2.6
			c17.1,0.4,24.9-8.2,16.9-16.8C194.8,47.1,183.1,49.4,174.9,51.9z"/>
		<path id="XMLID_560_" class="st0" d="M45.4,130.6c-6.6-5.6-13.9-2.5-13.7,6c0.1,2.8,0.9,6.1,3.3,10c8.8,14.7,20.3,16.7,23.3,5.3
			C60,144.7,51.9,136.1,45.4,130.6z"/>
		<path id="XMLID_559_" class="st0" d="M219.5,145.6c-2.4,3.4-0.5,7.5,3.6,7.6c1.4,0.1,3-0.3,4.7-1.5c6.8-4.4,7.2-10.6,1.4-12.5
			C225.7,138,221.9,142.2,219.5,145.6z"/>
		<path id="XMLID_558_" class="st0" d="M91.2,5.2c-3.1-0.6-5.3,2-4.1,4.9c0.4,1,1.2,1.9,2.5,2.8c5.1,3.3,9.5,1.6,9-2.9
			C98.4,7.1,94.3,5.8,91.2,5.2z"/>
	</g>
	<g id="XMLID_534_">
		<g id="XMLID_553_">
			<path id="XMLID_556_" class="st1" d="M50.4,34.4c2,6.8,8.9,6.6,8.7,12.2c-0.1,5.6,3.3,9.8,8.1,8.8c4.8-1,8.3-2,10.5,3.5
				c2.2,5.5,9.2,8.3,11.9,3.9c0.7-1.1,1.4-2.3,2.2-3.4c0.2-0.3,0.4-0.6,0.6-0.9c0-0.1,0.1-0.1,0.1-0.2c2.9-4.6,2-10.8-2.4-14.2
				c-1.7-1.4-3.8-2.1-6.2-1.4c-7.4,2.2-4.7-5.3-9.2-8.4c-5.1-3.6-9.4,0.5-12.9-2.6C57.1,27.2,48.4,27.5,50.4,34.4z"/>
			<g id="XMLID_554_">
				<path id="XMLID_555_" class="st2" d="M59.3,37.3l32.6,22c0.2-0.3,0.4-0.6,0.6-0.9l-32.5-22c-0.3-0.2-0.6-0.1-0.8,0.1
					C58.9,36.8,59,37.2,59.3,37.3z"/>
			</g>
		</g>
		<g id="XMLID_549_">
			<path id="XMLID_552_" class="st1" d="M212.6,135.9c-2.8,6.6-9.7,5.7-10.1,11.3c-0.5,5.6-4.5,9.4-9.2,7.9c-4.7-1.6-8.1-3-10.9,2.3
				c-2.8,5.3-10.1,7.3-12.4,2.6c-0.6-1.2-1.2-2.4-1.8-3.7c-0.2-0.3-0.3-0.7-0.5-1c0-0.1-0.1-0.2-0.1-0.2c-2.4-5-0.8-11.1,4-14
				c1.9-1.2,4.1-1.7,6.4-0.8c7.2,3,5.4-4.8,10.1-7.4c5.5-3.1,9.4,1.5,13.3-1.2C206.8,127.9,215.4,129.3,212.6,135.9z"/>
			<g id="XMLID_550_">
				<path id="XMLID_551_" class="st2" d="M203.4,137.9l-35.2,18.4c-0.2-0.3-0.3-0.7-0.5-1l35.2-18.4c0.3-0.1,0.6,0,0.8,0.2
					C203.8,137.4,203.7,137.8,203.4,137.9z"/>
			</g>
		</g>
		<g id="XMLID_545_">
			<path id="XMLID_548_" class="st3" d="M200.5,107.8c0.8,6.7-5.2,9.1-3,13.8c2.2,4.8,0.8,9.7-3.8,10.6c-4.5,0.9-7.9,1.3-7.7,7
				c0.2,5.6-4.8,10.6-8.9,7.9c-1-0.7-2.1-1.4-3.2-2.1c-0.3-0.2-0.6-0.4-0.9-0.6c-0.1,0-0.1-0.1-0.2-0.1c-4.3-2.9-5.8-8.6-3.3-13.2
				c1-1.8,2.5-3.3,4.8-3.6c7.2-0.9,2.1-6.4,4.8-10.7c3-5.1,8.4-3.1,10.2-7.1C192,104.1,199.7,101.1,200.5,107.8z"/>
			<g id="XMLID_546_">
				<path id="XMLID_547_" class="st1" d="M193.9,113.7L174,145c-0.3-0.2-0.6-0.4-0.9-0.6l19.9-31.2c0.2-0.2,0.5-0.3,0.7-0.2
					C194,113.1,194.1,113.5,193.9,113.7z"/>
			</g>
		</g>
		<g id="XMLID_541_">
			<path id="XMLID_544_" class="st3" d="M61.2,8.4c-0.8,7,5.4,9.5,3.1,14.4c-2.3,5-0.8,10.1,3.9,11.1c4.7,1,8.3,1.4,8.1,7.3
				c-0.2,5.8,5,11.1,9.2,8.2c1-0.7,2.2-1.5,3.3-2.2c0.3-0.2,0.6-0.4,0.9-0.6c0.1,0,0.1-0.1,0.2-0.1c4.5-3,6-9,3.4-13.7
				c-1-1.9-2.6-3.4-5-3.7c-7.6-0.9-2.2-6.6-5-11.2c-3.2-5.3-8.7-3.3-10.7-7.4C70,4.5,62,1.4,61.2,8.4z"/>
			<g id="XMLID_542_">
				<path id="XMLID_543_" class="st1" d="M68,14.5l20.8,32.6c0.3-0.2,0.6-0.4,0.9-0.6L68.9,14c-0.2-0.3-0.5-0.3-0.8-0.2
					C67.9,14,67.8,14.3,68,14.5z"/>
			</g>
		</g>
		<path id="XMLID_538_" class="st4" d="M210.2,14.7c7.8-3.3,14.6-7.8,10.8-10.5c-3.8-2.7-15.3,5.3-20.7,14.7l-2.6,2.8
			c4-6.8,5.2-16.6,1.7-18.5c-3.5-1.9-3.6,4.8-2.8,10.8c0.6,4.6,0,7.8-0.5,9.4L184,36.5c6.3-10.8,8.2-26.3,2.7-29.3
			c-5.5-2.9-5.8,7.6-4.5,17.2c1,7.3,0,12.3-0.8,14.8l-2.4,2.6c0.4,0.5,0.8,1,1.2,1.5l14.5-15.6c1.7-0.4,4.3-0.8,7.5-0.6
			c6.1,0.4,12.7-0.2,10.6-3.6c-1.8-2.9-9.3-1.9-15.5,1.3l5-5.4C204.2,18.1,206.8,16.1,210.2,14.7z"/>
		<path id="XMLID_535_" class="st4" d="M52.1,126.3c-8.1-2.4-15.4-6.2-11.9-9.3c3.5-3.1,15.8,3.7,22.1,12.5l2.9,2.5
			c-4.7-6.3-6.9-16-3.6-18.2c3.2-2.2,4.1,4.4,3.9,10.5c-0.1,4.7,0.8,7.8,1.5,9.3l13.5,11.8c-7.4-10.1-10.9-25.3-5.7-28.8
			c5.1-3.5,6.5,6.9,6.2,16.6c-0.2,7.3,1.3,12.2,2.3,14.7L86,150c-0.3,0.5-0.7,1.1-1,1.6l-16.1-14c-1.8-0.3-4.3-0.4-7.5,0.2
			c-6,1-12.7,1.1-10.9-2.4c1.5-3.1,9.1-2.9,15.6-0.3l-5.6-4.8C58.5,129.1,55.6,127.3,52.1,126.3z"/>
	</g>
	<g id="XMLID_448_">
		<g id="XMLID_527_">
			<path id="XMLID_531_" class="st5" d="M180.3,27.7v161.5c0,5.1-4.1,9.2-9.2,9.2H90.7c-2.5,0-4.8-1-6.5-2.7
				c-1.6-1.7-2.7-3.9-2.7-6.5V27.7c0-5.1,4.1-9.2,9.2-9.2h80.4c1.5,0,2.9,0.4,4.2,1C178.3,21,180.3,24.1,180.3,27.7z"/>
			<path id="XMLID_528_" class="st6" d="M180.3,27.7v161.5c0,5.1-4.1,9.2-9.2,9.2H90.7c-2.5,0-4.8-1-6.5-2.7l91.1-176.1
				C178.3,21,180.3,24.1,180.3,27.7z"/>
		</g>
		<g id="XMLID_517_">
			<path id="XMLID_524_" class="st6" d="M81.2,83.5L81.2,83.5c-1.7,0-3-1.4-3-3V65.2c0-1.7,1.4-3,3-3h0c0.2,0,0.3,0.1,0.3,0.3v20.7
				C81.6,83.4,81.4,83.5,81.2,83.5z"/>
			<path id="XMLID_521_" class="st6" d="M180.5,83.5L180.5,83.5c1.7,0,3-1.4,3-3V65.2c0-1.7-1.4-3-3-3l0,0c-0.2,0-0.3,0.1-0.3,0.3
				v20.7C180.2,83.4,180.4,83.5,180.5,83.5z"/>
			<path id="XMLID_518_" class="st6" d="M81.2,107.7L81.2,107.7c-1.7,0-3-1.4-3-3V89.4c0-1.7,1.4-3,3-3h0c0.2,0,0.3,0.1,0.3,0.3
				v20.7C81.6,107.6,81.4,107.7,81.2,107.7z"/>
		</g>
		<g id="XMLID_459_">
			<path id="XMLID_516_" class="st7" d="M175.7,28.1v160.7c0,2.8-2.2,5-5,5H91.1c-2,0-3.7-1.1-4.5-2.8c0,0,0,0,0,0
				c-0.3-0.7-0.5-1.4-0.5-2.2V28.1c0-2.8,2.2-5,5-5h79.6c0.9,0,1.7,0.2,2.4,0.6c0,0,0,0,0,0C174.7,24.6,175.7,26.2,175.7,28.1z"/>
			<g id="XMLID_482_">
				<path id="XMLID_515_" class="st0" d="M166.3,76.3H95.7c-3.2,0-5.8-2.6-5.8-5.8v0c0-3.2,2.6-5.8,5.8-5.8h70.6
					c3.2,0,5.8,2.6,5.8,5.8v0C172.1,73.7,169.5,76.3,166.3,76.3z"/>
				<g id="XMLID_505_">
					<path id="XMLID_512_" class="st0" d="M169.6,133.9H92.4c-1.4,0-2.5-1.1-2.5-2.5l0,0c0-1.4,1.1-2.5,2.5-2.5h77.2
						c1.4,0,2.5,1.1,2.5,2.5l0,0C172.1,132.8,171,133.9,169.6,133.9z"/>
					<path id="XMLID_509_" class="st0" d="M169.6,144.9H92.4c-1.4,0-2.5-1.1-2.5-2.5l0,0c0-1.4,1.1-2.5,2.5-2.5h77.2
						c1.4,0,2.5,1.1,2.5,2.5l0,0C172.1,143.8,171,144.9,169.6,144.9z"/>
					<path id="XMLID_506_" class="st0" d="M169.6,155.9H92.4c-1.4,0-2.5-1.1-2.5-2.5l0,0c0-1.4,1.1-2.5,2.5-2.5h77.2
						c1.4,0,2.5,1.1,2.5,2.5l0,0C172.1,154.8,171,155.9,169.6,155.9z"/>
				</g>
				<path id="XMLID_499_" class="st0" d="M152.4,159.5H149c-0.2,0-0.5,0.2-0.5,0.4l-0.5,1.8h-31c-0.2,0-0.3,0.1-0.4,0.2
					c-0.1,0.1-0.1,0.3-0.1,0.4l0.5,3.6c0,0,0,0.1,0,0.1c0,0.1,0,0.2,0.1,0.3l0.6,4.5l0.1,1.1l0.6,4.2l0.1,1.1l0.5,3.8
					c0,0.3,0.3,0.5,0.5,0.5h23l-0.7,2.7c-0.4,1.3-1.5,2.1-2.8,2.1h-16.3c-0.3,0-0.5,0.2-0.6,0.5c0,0.3,0.2,0.6,0.5,0.6h2
					c-0.6,0.4-1,1-1,1.8c0,1.2,0.9,2.1,2.1,2.1c1.2,0,2.1-0.9,2.1-2.1c0-0.7-0.4-1.4-1-1.8h9.2c-0.6,0.4-1,1-1,1.8
					c0,1.2,0.9,2.1,2.1,2.1s2.1-0.9,2.1-2.1c0-0.7-0.4-1.4-1-1.8h0.6c1.8,0,3.4-1.2,3.8-2.9l0.9-3.3c0,0,0,0,0,0l0,0c0,0,0,0,0-0.1
					l1.1-3.8l0.3-1.1l1.2-4.2l0.3-1.1l1.2-4.4l0.2-0.5v0l1-3.5c0,0,0,0,0,0l0.5-1.8h3c0.3,0,0.5-0.2,0.5-0.5
					C152.9,159.7,152.7,159.5,152.4,159.5z M143.6,177.6L143.6,177.6C143.6,177.6,143.6,177.7,143.6,177.6l-0.8,2.7H120l-0.4-3.2
					h24.1L143.6,177.6z M144,176.1h-24.6l-0.6-4.2h26.3L144,176.1z M145.5,170.8h-26.8l-0.6-4.2h28.6L145.5,170.8z M147,165.5h-29
					l-0.4-2.7h30.1L147,165.5z"/>
				<g id="XMLID_490_">
					<path id="XMLID_498_" class="st0" d="M151.9,120.7L151.9,120.7c-10.4,0-19-8.5-19-19v0c0-10.4,8.5-19,19-19h0
						c10.4,0,19,8.5,19,19v0C170.9,112.1,162.4,120.7,151.9,120.7z"/>
					<g id="XMLID_491_">
						<g id="XMLID_415_">
							<g id="XMLID_416_">
								<path id="XMLID_418_" class="st3" d="M163.3,113.5c-1.1-1.4-4.7-6.2-5.1-10.3c-0.2-1.6-0.2-3.1,0.2-4.4
									c0.8-2.8,1.7-4.8,1.7-4.9c0,0-1.8-2.9-1.7-8.5l-0.4-0.1c-0.6-0.2-1.2,0.1-1.4,0.7c-0.4,1.6-1.6,3.5-3.7,3.5
									c-2.2,0-3.4-1.9-4-3.6c-0.2-0.6-1-0.8-1.5-0.4l-0.7,0.6c0.3,1.6,0.9,5.8-1.1,8.4c0,0,3,5.4,1.9,8.8
									c-1.1,3.3-6.1,10.4-6.1,10.4s4.1,4.5,11.1,4.5c7.7,0,11.1-4.3,11.1-4.3S163.5,113.8,163.3,113.5z"/>
							</g>
						</g>
					</g>
				</g>
				<g id="XMLID_483_">
					<path id="XMLID_489_" class="st0" d="M108.8,120.7L108.8,120.7c-10.4,0-19-8.5-19-19v0c0-10.4,8.5-19,19-19h0
						c10.4,0,19,8.5,19,19v0C127.8,112.1,119.3,120.7,108.8,120.7z"/>
					<g id="XMLID_484_">
						<g id="XMLID_377_">
							<path id="XMLID_378_" class="st4" d="M115.3,99.6c0.2,6.1,0.2,13.5,0.2,15.3c-4.8,1.2-9.5,1.2-14.3,0c0-1.9-0.1-9.4,0.1-15.5
								c0-0.1,0-0.1,0-0.2v0c-1,0-1.9-0.5-2.4-0.9c-0.5-0.4-0.7-0.7-0.7-0.7c1-2.6,3.3-5.6,3.8-6.2c0,0,0,0,0,0c0,0,0,0,0,0
								c0.3-0.4,1.5-1.2,2.7-1.9c0.2-0.1,0.4-0.2,0.7-0.3c0.2-0.1,0.5-0.1,0.7-0.1c0.1,0,0.2,0.1,0.2,0.2v0c0,1.3,1.1,2.3,2.3,2.2
								c1.2,0,2.2-1.1,2.2-2.3c0,0,0,0,0,0c0-0.1,0.1-0.2,0.2-0.2c0.4,0,0.8,0.1,1.1,0.3c1.1,0.7,2.2,1.4,2.6,1.8
								c0.5,0.6,2.7,3.8,3.8,6.4C117.9,98.5,116.2,99.4,115.3,99.6z"/>
						</g>
					</g>
				</g>
			</g>
			<path id="XMLID_481_" class="st8" d="M175.7,28.1v160.7c0,2.8-2.2,5-5,5H91.1c-2,0-3.7-1.1-4.5-2.8c0,0,0,0,0,0l86.5-167.3
				c0,0,0,0,0,0C174.7,24.6,175.7,26.2,175.7,28.1z"/>
			<g id="XMLID_460_">
				<path id="XMLID_478_" class="st7" d="M187.4,48.6v11.7H74.6V48.6h0c13.6-2.5,17.9-25.5,17.9-25.5h76.9
					C169.5,23.1,173.8,46.2,187.4,48.6z"/>
				<rect id="XMLID_477_" x="74.6" y="48.6" class="st0" width="112.8" height="11.7"/>
				<path id="XMLID_474_" class="st4" d="M106.8,23.1c0,0-4.3,23.1-17.9,25.5v11.7H74.6V48.6c13.6-2.5,17.9-25.5,17.9-25.5H106.8z"
					/>
				<path id="XMLID_471_" class="st4" d="M187.4,48.6v11.7h-14.3V48.6c-13.6-2.5-17.9-25.5-17.9-25.5h14.3
					C169.5,23.1,173.8,46.2,187.4,48.6z"/>
				<path id="XMLID_468_" class="st4" d="M120.9,48.7v11.6h-13.4l-0.3-11.7c8.5-6.6,9.2-25.5,9.2-25.5h8.8
					C125.6,36.8,120.9,48.7,120.9,48.7z"/>
				<path id="XMLID_465_" class="st4" d="M153.2,48.6l-0.3,11.7h-13.4V48.7c0,0-4.7-11.9-4.3-25.6h8.8
					C144,23.1,144.7,42.1,153.2,48.6z"/>
				<rect id="XMLID_464_" x="74.6" y="48.6" class="st9" width="14.3" height="11.7"/>
				<polygon id="XMLID_463_" class="st9" points="187.4,48.6 187.4,60.4 173.1,60.4 173.1,48.6 187.4,48.6 				"/>
				<path id="XMLID_462_" class="st9" d="M121,48.6C120.9,48.7,120.9,48.7,121,48.6l0,11.7h-13.4l-0.3-11.7H121z"/>
				<path id="XMLID_461_" class="st9" d="M153.2,48.6l-0.3,11.7h-13.4V48.7c0,0,0,0,0-0.1H153.2z"/>
			</g>
		</g>
		<g id="XMLID_449_">
			<path id="XMLID_456_" class="st5" d="M154,31.2h-46.1c-2.6,0-4.6-2.1-4.6-4.6v0c0-2.6,2.1-4.6,4.6-4.6H154c2.6,0,4.6,2.1,4.6,4.6
				v0C158.7,29.1,156.6,31.2,154,31.2z"/>
			<path id="XMLID_453_" class="st6" d="M144.1,27.1h-30.9c-0.6,0-1.1-0.5-1.1-1.1v0c0-0.6,0.5-1.1,1.1-1.1h30.9
				c0.6,0,1.1,0.5,1.1,1.1v0C145.2,26.6,144.7,27.1,144.1,27.1z"/>
			<circle id="XMLID_450_" class="st10" cx="152" cy="25.8" r="1.4"/>
		</g>
	</g>
	<g id="XMLID_237_">
		<g id="XMLID_423_">
			<path id="XMLID_445_" class="st11" d="M76,136.6c-0.1,2.6-0.3,5.5-0.5,8.5c-1,17.4-2.3,38.8-2.7,47.2l-3.2,0.2
				c0,0-1.9-22.6-1.9-30.4c0-3.2-0.3-8.2-0.7-13.8c-0.3-3.8-0.6-7.8-0.9-11.8L76,136.6z"/>
			<path id="XMLID_442_" class="st12" d="M76,136.6c-0.1,2.6-0.3,6-0.5,9c-2,1.1-5.2,2.2-8.5,2.7c-0.3-3.8-0.6-7.8-0.9-11.8
				L76,136.6z"/>
			<g id="XMLID_424_">
				<g id="XMLID_425_">
					<path id="XMLID_439_" class="st4" d="M70.8,190.5c0,0,1.9-0.4,2.4-0.4c0.5,0,3.8,4.1,5,4.3c2.1,0.5,2,3.8,0.7,3.9
						c-3.7,0.3-10.1-1.5-10.1-1.5s-0.4-4.3-0.1-5.6C69.1,189.9,69.8,190.8,70.8,190.5z"/>
					<g id="XMLID_426_">
						<g id="XMLID_435_">
							<path id="XMLID_436_" class="st7" d="M73.8,194.3c-0.1,0-0.1,0-0.2,0c-0.1-0.1-0.1-0.2-0.1-0.4c0,0,0.7-0.9,1.5-1.2
								c1.1-0.4,1.8,0.3,1.8,0.3c0.1,0.1,0.1,0.3,0,0.4c-0.1,0.1-0.3,0.1-0.4,0c0,0-0.5-0.5-1.3-0.2c-0.7,0.2-1.3,1-1.3,1.1
								C73.9,194.2,73.8,194.2,73.8,194.3z"/>
						</g>
						<g id="XMLID_431_">
							<path id="XMLID_432_" class="st7" d="M73.1,193.4c-0.1,0-0.1,0-0.2,0c-0.1-0.1-0.1-0.2-0.1-0.4c0,0,0.7-0.9,1.5-1.2
								c1.1-0.4,1.8,0.3,1.8,0.3c0.1,0.1,0.1,0.3,0,0.4c-0.1,0.1-0.3,0.1-0.4,0c0,0-0.5-0.5-1.3-0.2c-0.7,0.2-1.3,1-1.3,1.1
								C73.2,193.4,73.2,193.4,73.1,193.4z"/>
						</g>
						<g id="XMLID_427_">
							<path id="XMLID_428_" class="st7" d="M74.7,195c-0.1,0-0.1,0-0.2,0c-0.1-0.1-0.1-0.2-0.1-0.4c0,0,0.7-0.9,1.5-1.2
								c1.1-0.4,1.8,0.3,1.8,0.3c0.1,0.1,0.1,0.3,0,0.4c-0.1,0.1-0.3,0.1-0.4,0c0,0-0.5-0.5-1.3-0.2c-0.7,0.2-1.3,1-1.3,1.1
								C74.9,194.9,74.8,195,74.7,195z"/>
						</g>
					</g>
				</g>
			</g>
		</g>
		<g id="XMLID_398_">
			<path id="XMLID_420_" class="st11" d="M64.3,136.5c-0.3,3.9-0.6,8-0.9,11.8c0,0,0,0.1,0,0.1c0,0.2,0,0.4,0,0.5
				c-0.4,5.3-0.7,10-0.7,13.1c0,7.8-1.9,30.4-1.9,30.4l-3.7-0.2c-0.4-7.7-1.4-26.7-2.2-43.3c0-0.2,0-0.4,0-0.6c0-0.2,0-0.3,0-0.5
				c-0.2-4-0.4-7.8-0.5-11.3L64.3,136.5z"/>
			<path id="XMLID_417_" class="st12" d="M64.3,136.5c-0.3,3.9-0.6,8-0.9,11.8c0,0,0,0.1,0,0.1c-2.4,0.2-6-0.1-8.5-0.6
				c-0.2-4-0.4-7.8-0.5-11.3L64.3,136.5z"/>
			<g id="XMLID_399_">
				<g id="XMLID_400_">
					<path id="XMLID_414_" class="st4" d="M57.6,191.5c0,0-0.9-1.2-1.6-1.2c-0.7,0-6.2,4.2-8,4.5c-1.9,0.3-1.5,1.7-1.2,2.4
						c0.3,0.7,14.7,0.1,14.7,0.1s0.5-4.3,0-5.6C61.1,190.4,59,191.9,57.6,191.5z"/>
					<g id="XMLID_401_">
						<g id="XMLID_410_">
							<path id="XMLID_411_" class="st7" d="M54.5,194.5c0.1,0,0.1,0,0.2,0c0.1-0.1,0.2-0.2,0.1-0.4c0,0-0.6-1-1.3-1.4
								c-1-0.5-1.8,0-1.8,0c-0.1,0.1-0.1,0.2-0.1,0.4c0.1,0.1,0.2,0.1,0.4,0.1c0,0,0.6-0.4,1.3,0c0.6,0.3,1.1,1.2,1.1,1.2
								C54.4,194.4,54.5,194.4,54.5,194.5z"/>
						</g>
						<g id="XMLID_406_">
							<path id="XMLID_407_" class="st7" d="M55.3,193.7c0.1,0,0.1,0,0.2,0c0.1-0.1,0.2-0.2,0.1-0.4c0,0-0.6-1-1.3-1.4
								c-1-0.5-1.8,0-1.8,0c-0.1,0.1-0.1,0.2-0.1,0.4c0.1,0.1,0.2,0.1,0.4,0.1c0,0,0.6-0.4,1.3,0c0.6,0.3,1.1,1.2,1.1,1.2
								C55.2,193.7,55.2,193.7,55.3,193.7z"/>
						</g>
						<g id="XMLID_402_">
							<path id="XMLID_403_" class="st7" d="M53.5,195c0.1,0,0.1,0,0.2,0c0.1-0.1,0.2-0.2,0.1-0.4c0,0-0.6-1-1.3-1.4
								c-1-0.5-1.8,0-1.8,0c-0.1,0.1-0.1,0.2-0.1,0.4c0.1,0.1,0.2,0.1,0.4,0.1c0,0,0.6-0.4,1.3,0c0.6,0.3,1.1,1.2,1.1,1.2
								C53.3,195,53.4,195,53.5,195z"/>
						</g>
					</g>
				</g>
			</g>
		</g>
		<path id="XMLID_397_" class="st5" d="M53.2,89.7C55.9,92,59,91,63,88.9c4-2,1.4,2,5.3,2.6c3.9,0.7,3.4-9,3.7-13.8
			c0.2-3,1.4-6.8,1.4-8.3v0c0-0.3,0-0.5,0-0.8c0-3.7-2.2-10.4-10.2-9.3c0,0-6.6,0.8-7.3,7.2c0,0-0.3,3-0.5,5.1
			c-0.6,6.1-2.8,2.9-2.1,10.3C53.5,84.5,50.1,86.9,53.2,89.7z"/>
		<g id="XMLID_382_">
			<g id="XMLID_392_">
				<path id="XMLID_396_" class="st9" d="M77.4,84.9c0,0,1.4,11.9,3,17.6c0,0,2.3-1.1,5.3-2.5c3.2-1.6,7.9-4.4,7.9-4.4l1.2,2.8
					c0,0-12,11.3-16,12c-4,0.6-6.4-13.6-6.4-13.6L77.4,84.9z"/>
				<path id="XMLID_393_" class="st11" d="M93.3,96c0,0-0.3-1.6,0.4-2.7c0.7-1.1,1.8-3.1,3.1-3.5c1.1-0.4-0.5,1.4-0.5,2.6
					c0,0,1.6-0.2,2.7-0.6c1-0.3,3-0.7,3.9-0.9c0.3,0,0.4,0.3,0.2,0.4c-0.3,0.3-1,0.6-2.3,0.9c0,0,3.3-0.6,3.6-0.1
					c0.3,0.5-3.8,1.2-3.8,1.2s3.2-0.2,3.3,0.3c0.1,0.3-3.3,1-3.3,1s3,0.1,2.3,0.6c-0.2,0.1-6.1,0.8-8.1,3.2
					C94.7,98.5,93.4,97,93.3,96z"/>
			</g>
			<g id="XMLID_383_">
				<g id="XMLID_389_">
					<path id="XMLID_391_" class="st1" d="M91.3,96.9c-0.2,0.1-0.3,0.3-0.5,0.4c-0.4-0.2-0.8-0.2-1.2-0.1c-0.3,0-0.6,0.2-1,0.3
						c-1.3,0.7-2.1,2-2.6,3.6c-0.8,2.5-0.9,5.7-0.7,8.5c0.2,3.3,0.7,5.8,0.7,5.9l-0.6,0.1c0-0.2-0.5-2.4-0.7-5.4
						c-0.2-2.7-0.2-5.8,0.5-8.4c0.5-2.1,1.5-3.8,3.1-4.6c0.8-0.4,1.7-0.5,2.5-0.3C91,96.8,91.1,96.8,91.3,96.9z"/>
					<path id="XMLID_390_" class="st1" d="M97.6,110.2l-0.6,0.1c0-0.1-1.5-6.7-3.8-10.5c0.2-0.2,0.3-0.3,0.5-0.4
						C96.2,103.3,97.5,109.9,97.6,110.2z"/>
				</g>
				<g id="XMLID_386_">
					<path id="XMLID_388_" class="st3" d="M91.3,97c-0.2,0.1-0.4,0.2-0.6,0.3c0,0,0,0,0,0c0,0,0,0,0,0c-0.3,0.1-0.5,0.2-0.8,0.3
						c-0.8,0.4-1.4,1.1-1.9,1.9c-1.3,2.2-1.6,5.6-1.5,8.8c0.1,3.9,0.8,7.4,0.8,7.5l-0.6,0.1c-0.1-0.3-0.7-3.4-0.8-7
						c-0.1-2.9,0.1-6.2,1.1-8.6c0.6-1.4,1.4-2.5,2.5-3.1c0,0,0.1-0.1,0.1-0.1c0.4-0.2,0.8-0.3,1.1-0.4c0.2,0,0.6,0,0.8,0.1
						C91.6,96.8,91.4,96.9,91.3,97z"/>
					<path id="XMLID_387_" class="st3" d="M99,110.3l-0.6,0.1c0-0.1-1.6-7.8-4.3-11.4c0.2-0.2,0.2-0.2,0.4-0.4
						C97.4,102.3,98.9,110,99,110.3z"/>
				</g>
				<polygon id="XMLID_385_" class="st1" points="107,132 106,133 88.9,138.6 84.7,115.7 85.6,114.8 85.9,115.1 97.5,109.2 
					105.1,130.5 				"/>
				<polygon id="XMLID_384_" class="st3" points="85.6,114.7 98.4,108.2 107,132 89.9,137.6 				"/>
			</g>
		</g>
		<g id="XMLID_350_">
			<g id="XMLID_366_">
				<g id="XMLID_379_">
					<path id="XMLID_381_" class="st9" d="M30.8,119.3c-0.1,0.1-0.3,0.1-0.4,0.2c-1.6,0.9-2.4,2.7-2.9,4.8c-0.5,2.6-0.4,5.8-0.1,8.5
						c0.4,3,0.9,5.2,1,5.4l0.6-0.1c0-0.1-0.6-2.5-1-5.8c-0.3-2.8-0.4-6,0.3-8.5c0.4-1.4,1-2.6,2-3.4c0.1-0.1,0.2-0.3,0.3-0.4
						c0.1-0.1,0.2-0.1,0.2-0.2V119.3z"/>
					<path id="XMLID_380_" class="st9" d="M40.4,132.3l-0.6,0.1c0-0.1-1.6-6.4-4.1-10.1c0.1-0.2,0.2-0.3,0.3-0.5
						C38.7,125.6,40.3,131.9,40.4,132.3z"/>
				</g>
				<g id="XMLID_372_">
					<path id="XMLID_376_" class="st4" d="M29.8,121.6c-0.1,0.5-0.1,0.9,0,1.4c-0.8,2.2-0.8,5.2-0.6,7.9c0.3,3.9,1.2,7.3,1.2,7.4
						l-0.6,0.1c-0.1-0.3-0.8-3.3-1.2-6.9c-0.3-2.9-0.3-6.1,0.6-8.6C29.4,122.5,29.6,122,29.8,121.6z"/>
					<path id="XMLID_373_" class="st4" d="M41.8,132.3l-0.6,0.1c0-0.1-1.9-7.6-4.8-11c0.1-0.2,0.2-0.3,0.3-0.5
						C39.8,124.4,41.7,131.9,41.8,132.3z"/>
				</g>
				<g id="XMLID_367_">
					<polygon id="XMLID_371_" class="st9" points="51.4,153.9 50.5,155 32.6,162.1 26.6,137.9 27.6,136.9 27.9,137.1 41.9,131.4 
						49.4,152.4 					"/>
					<polygon id="XMLID_368_" class="st4" points="27.6,136.9 41.9,131.4 51.4,153.9 33.5,160.9 					"/>
				</g>
			</g>
			<g id="XMLID_361_">
				<path id="XMLID_365_" class="st9" d="M52.5,84.1c0,0-2.5,18.7-4.8,22.9c0,0-7.4,9.6-11.4,12.9c0.6,1.6,1.4,2.7,2.7,3.4
					c0,0,11-8.2,13.7-12.8c3-4.9,4.4-13.1,4.5-16.4C57.3,94,55.5,88.7,52.5,84.1z"/>
				<path id="XMLID_362_" class="st11" d="M35.1,123.5c0.1,0-0.3,0.3-0.2,1c0,0.5,2.9,0.4,4.1-1.2l-2.7-3.4c0,0-3.8-1.2-5.4-0.7
					c-1.6,0.5-2.3,4.4-1.6,5.2c0,0,0,0.1,0.4,0c0,0,0.3,0.7,0.9,0.7c0.6,0,0.9-0.6,0.9-0.6s0.1,0.7,0.7,0.8c0.6,0.1,0.8-0.8,0.8-0.8
					s0.4,0.9,0.9,0.8C34.9,125.2,34.8,123.3,35.1,123.5z"/>
			</g>
			<g id="XMLID_351_">
				<g id="XMLID_358_">
					<path id="XMLID_360_" class="st1" d="M33.3,119.2c-0.9-0.1-1.8-0.2-2.4,0c-0.2,0.1-0.3,0.1-0.4,0.2c-1.2,0.4-2.2,1.3-3,2.6
						c-1.5,2.2-2.4,5.2-3.1,8c-0.7,3.2-1,5.8-1,5.8l-0.6-0.1c0-0.3,0.2-2.4,0.9-5.4c0.6-2.6,1.5-5.6,2.8-8c1.1-1.8,2.5-3.2,4.3-3.6
						C31.8,118.6,32.6,118.7,33.3,119.2z"/>
					<path id="XMLID_359_" class="st1" d="M36.1,134.1l-0.6-0.1c0-0.1,0.6-6-0.6-10.4c0.2-0.4,0.5-0.5,0.6-0.4
						C36.9,127.7,36.2,133.7,36.1,134.1z"/>
				</g>
				<g id="XMLID_355_">
					<path id="XMLID_357_" class="st3" d="M29.7,120.5c-0.2,0.4-0.4,0.9-0.5,1.3c-1.5,1.8-2.5,4.6-3.2,7.3c-1,3.8-1.3,7.3-1.3,7.4
						l-0.6,0c0-0.3,0.3-3.4,1.2-6.9c0.7-2.8,1.8-5.9,3.4-7.9C29,121.2,29.3,120.8,29.7,120.5z"/>
					<path id="XMLID_356_" class="st3" d="M37.4,134.5l-0.6-0.1c0-0.1,0.7-7.8-0.9-12c0.1-0.3,0.3-0.4,0.5-0.4
						C38.1,126.5,37.4,134.2,37.4,134.5z"/>
				</g>
				<g id="XMLID_352_">
					<polygon id="XMLID_354_" class="st1" points="39.4,158.1 38.1,158.8 18.4,159.6 20.7,135 22.5,134.2 22.7,134.5 37.8,133.7 
						37.9,156 					"/>
					<polygon id="XMLID_353_" class="st3" points="22.5,134.2 37.8,133.7 39.4,158.1 20.1,158.8 					"/>
				</g>
			</g>
		</g>
		<g id="XMLID_305_">
			<g id="XMLID_325_">
				<path id="XMLID_347_" class="st4" d="M77.1,128l0.1,0.2c-5.2,3.5-24.8,1.1-24.8,1.1c0-0.4,0.1-0.8,0.1-1.3
					c0.1-0.5,0.1-1,0.2-1.5c0.2-1.4,0.6-3,0.9-4.6c0.1-0.5,0.2-1,0.3-1.5c0.4-1.5,0.7-3.1,1.1-4.5c0.1-0.5,0.2-1,0.4-1.5
					c0.2-0.7,0.3-1.4,0.5-2.1c0.2-0.9,0.4-1.7,0.5-2.5c0.1-0.5,0.2-1.1,0.2-1.6c0.1-0.5,0.1-1,0.2-1.5c-0.3-1.2-0.6-2.3-0.9-3.4
					c-0.1-0.6-0.3-1.1-0.4-1.6c-0.4-1.7-0.8-3.4-1.1-4.9c-0.1-0.6-0.2-1.1-0.3-1.6c-0.3-1.8-0.6-3.4-0.8-4.9
					c-0.1-0.6-0.2-1.1-0.2-1.6c-0.1-0.5-0.1-1.1-0.2-1.5c-0.3-2-0.4-3.2-0.4-3.2c0,0,0.1-0.1,0.1-0.1c0.6-0.4,1.5-0.8,2.6-1.2
					c1.1-0.4,2.3-0.7,3.4-1c0.2,0,0.3-0.1,0.5-0.1c1.4-0.3,2.4-0.5,2.4-0.5c4.8,1,6.1,0.4,6.1,0.4l2.4,0.7l0.3,0.1l1.8,0.6l0.1,0
					l3.2,1.1l2.1,0.7l-0.8,3.8l-0.4,1.6l-1.1,5l-0.4,1.6l-1.1,4.9l-0.4,1.6l-0.9,4.1l0.2,0.8l0.3,1.5l0.5,2.4l0.5,2.2l0.3,1.5l1,4.6
					l0.3,1.5l1,4.5L77.1,128z"/>
				<path id="XMLID_344_" class="st11" d="M70.3,82.4c-0.5,3-1.7,6.9-4.7,7.3c-3.6,0.4-5.7-5.1-6.5-7.9c1.4-0.3,2.8-0.6,2.8-0.6
					c4.8,1,5.7,0.4,5.7,0.4l2.5,0.8L70.3,82.4z"/>
				<g id="XMLID_342_">
					<path id="XMLID_343_" class="st7" d="M65,86.2c-3.8,0-4.7-4.7-4.7-4.7c0-0.1,0-0.2,0.1-0.2c0.1,0,0.2,0,0.2,0.1
						c0,0.2,0.9,4.6,4.6,4.4c3.2-0.2,3.4-3.7,3.4-3.9c0-0.1,0.1-0.2,0.2-0.2c0.1,0,0.2,0.1,0.2,0.2c0,0-0.2,4-3.8,4.2
						C65.2,86.2,65.1,86.2,65,86.2z"/>
				</g>
				<circle id="XMLID_341_" class="st9" cx="57.3" cy="84.9" r="0.9"/>
				<circle id="XMLID_340_" class="st9" cx="55.4" cy="89.4" r="0.9"/>
				<circle id="XMLID_339_" class="st9" cx="61.3" cy="91.5" r="0.9"/>
				<circle id="XMLID_338_" class="st9" cx="57.3" cy="94.4" r="0.9"/>
				<circle id="XMLID_337_" class="st9" cx="65.2" cy="95.8" r="0.9"/>
				<circle id="XMLID_336_" class="st9" cx="71.1" cy="97.7" r="0.9"/>
				<circle id="XMLID_335_" class="st9" cx="72.3" cy="85.8" r="0.9"/>
				<circle id="XMLID_334_" class="st9" cx="65.6" cy="101.7" r="0.9"/>
				<circle id="XMLID_333_" class="st9" cx="59.9" cy="104.6" r="0.9"/>
				<circle id="XMLID_332_" class="st9" cx="59.2" cy="99.3" r="0.9"/>
				<circle id="XMLID_331_" class="st9" cx="68.4" cy="91.8" r="0.9"/>
				<circle id="XMLID_330_" class="st9" cx="73.5" cy="90.6" r="0.9"/>
				<circle id="XMLID_329_" class="st9" cx="70.2" cy="103.2" r="0.9"/>
				<circle id="XMLID_328_" class="st9" cx="70.5" cy="110.5" r="0.9"/>
				<circle id="XMLID_327_" class="st9" cx="65.8" cy="107.8" r="0.9"/>
				<circle id="XMLID_326_" class="st9" cx="59.5" cy="110.5" r="0.9"/>
			</g>
			<path id="XMLID_322_" class="st4" d="M79.3,141c-8.4,5.3-21.1,4.7-28.5,1.3l0.2-1.8l0.2-1.5l0.6-4.6l0.2-1.5l0.4-3.3l6.4-0.3
				l17.2-0.8l1.3-0.1l0.7,4.3l0.3,1.5l0.7,4.5l0.3,1.5L79.3,141z"/>
			<g id="XMLID_306_">
				<path id="XMLID_321_" class="st3" d="M79.3,141c-8.4,5.3-21.1,4.8-28.5,1.3l0.2-1.8l0.1-0.5l0.1-1l0-0.2l0.1-0.7l0.5-3.6l0-0.3
					l0.1-0.7l0.1-0.5l0.4-3.3c0,0,0-0.1,0-0.1c0-0.2,0.1-0.5,0.1-0.7c0-0.1,0-0.3,0.1-0.5c0.1-0.5,0.1-1,0.2-1.5
					c0.1-0.6,0.2-1.2,0.3-1.9c0-0.2,0.1-0.5,0.1-0.7c0.1-0.6,0.3-1.3,0.4-2c0.1-0.5,0.2-1,0.3-1.5c0-0.1,0.1-0.2,0.1-0.4
					c0.1-0.2,0.1-0.5,0.2-0.7c0.3-1.2,0.6-2.3,0.8-3.5c0-0.1,0.1-0.2,0.1-0.3c0.1-0.2,0.1-0.5,0.2-0.7c0-0.2,0.1-0.3,0.1-0.5
					c0.2-0.7,0.3-1.4,0.5-2.1c3.3,0.7,10.7,2,17.7-0.1l0.4,2l0.1,0.2l0.1,0.5l0.2,1l0.6,2.8l0.2,0.7l0.2,1l0.3,1.5l0.3,1.3l0.2,0.7
					l0.6,2.5l0.3,1.3l0.1,0.2l0.1,0.2l0,0.3l0.6,3.9l0,0.1l0.1,0.6l0.1,0.9l0.5,3l0.1,0.7l0.1,0.7l0,0.1l0.2,1.4L79.3,141z"/>
				<g id="XMLID_308_">
					<g id="XMLID_319_">
						<path id="XMLID_320_" class="st1" d="M74.2,115c-2.9,1.2-6.3,1.6-9.5,1.6c-3.9,0-7.5-0.6-9.5-1c0.1-0.2,0.1-0.5,0.2-0.7
							c3.6,0.7,12.6,2,18.7-0.7l0.1,0.2L74.2,115z"/>
					</g>
					<g id="XMLID_317_">
						<path id="XMLID_318_" class="st1" d="M75.2,119.5c-3.4,1.4-7.1,1.9-10.6,1.9c-4.4,0-8.4-0.7-10.5-1.2c0.1-0.2,0.1-0.5,0.2-0.7
							c3.8,0.8,13.5,2.4,20.8-0.7L75.2,119.5z"/>
					</g>
					<g id="XMLID_315_">
						<path id="XMLID_316_" class="st1" d="M76.2,124c-3.8,1.5-7.9,2-11.7,2c-4.9,0-9.2-0.8-11.5-1.4c0-0.2,0.1-0.5,0.1-0.7
							c3.9,0.9,14.3,2.8,22.8-0.7L76.2,124z"/>
					</g>
					<g id="XMLID_313_">
						<path id="XMLID_314_" class="st1" d="M77.2,128.6c-4.3,1.7-8.8,2.3-12.8,2.3c-5.2,0-9.6-0.9-12.1-1.5c0-0.2,0.1-0.5,0.1-0.7
							c4.2,1.1,15.1,3.1,24.6-0.7l0.1,0.2l0.1,0.2L77.2,128.6z"/>
					</g>
					<g id="XMLID_311_">
						<path id="XMLID_312_" class="st1" d="M78,133.2c-4.7,1.8-9.4,2.4-13.7,2.4c-5.3,0-9.9-0.9-12.5-1.6l0.1-0.7
							c4.7,1.2,15.6,3.3,26-0.8l0,0.1L78,133.2z"/>
					</g>
					<g id="XMLID_309_">
						<path id="XMLID_310_" class="st1" d="M78.8,137.8c-5,1.9-10.1,2.5-14.6,2.5c-5.5,0-10.1-0.9-13-1.7l0.1-0.7
							c5,1.3,16.2,3.4,27.3-0.8L78.8,137.8z"/>
					</g>
				</g>
				<path id="XMLID_307_" class="st1" d="M79.3,141c-8.4,5.3-21.1,4.7-28.5,1.3l0.2-1.8l0.1-0.5c2,0.9,6.6,2.4,14,2.4
					c7-0.1,11.6-2.2,13.9-3.6l0.2,1.4L79.3,141z"/>
			</g>
		</g>
		<g id="XMLID_238_">
			<g id="XMLID_256_">
				<g id="XMLID_294_">
					<path id="XMLID_302_" class="st12" d="M70.7,69.9c0,0,1.1-1.4,2-0.2c0.8,1.2-0.3,4.7-2.4,3.8L70.7,69.9z"/>
					<circle id="XMLID_301_" class="st7" cx="71.5" cy="73.2" r="0.4"/>
					<g id="XMLID_299_">
						<path id="XMLID_300_" class="st13" d="M70.7,72.4c0.1,0,0.1,0,0.2-0.1c0.3-1.1,1.5-1.5,1.5-1.5c0.1,0,0.1-0.1,0.1-0.2
							c0-0.1-0.1-0.1-0.2-0.1c-0.1,0-1.4,0.5-1.7,1.7C70.5,72.3,70.5,72.3,70.7,72.4C70.6,72.4,70.7,72.4,70.7,72.4z"/>
					</g>
					<g id="XMLID_295_">
						<path id="XMLID_296_" class="st13" d="M71.9,71.8C71.9,71.8,71.9,71.8,71.9,71.8c0.2-0.1,0.2-0.2,0.1-0.3c0,0-0.2-0.3-0.7-0.5
							c-0.1,0-0.2,0-0.2,0.1c0,0.1,0,0.2,0.1,0.2c0.3,0.1,0.5,0.4,0.5,0.4C71.8,71.8,71.8,71.8,71.9,71.8z"/>
					</g>
				</g>
				<path id="XMLID_291_" class="st11" d="M61.9,77.2v4.3c0,0,2,1.5,3.6,1.7c1.6,0.1,2.1-1.7,2.1-1.7v-4L61.9,77.2z"/>
				<path id="XMLID_288_" class="st12" d="M61.9,77.6v1.7c1,1.2,2.9,1.6,5.7,1.2l0-2.6L61.9,77.6z"/>
				<path id="XMLID_285_" class="st11" d="M71.3,71.5c0,0.4-0.1,0.8-0.2,1.3c-0.5,2.8-2.3,5.8-4.5,6.3c-4.8,1.1-6.8-2.7-7.6-5.5
					c-0.1-0.3,0.1-0.7,0-1c-0.2-0.9-0.5-1.9-0.6-2.8c-0.1-0.7-0.1-1.3-0.1-2c-0.1-1.7,0.9-3.3,2.5-3.9c2.2-0.9,5.6-1.6,8.8,0.3
					c1.2,0.7,1.9,2,1.9,3.4C71.5,68.6,71.5,70,71.3,71.5z"/>
				<g id="XMLID_277_">
					<g id="XMLID_142_">
						<g id="XMLID_143_">
							<path id="XMLID_144_" class="st12" d="M65.4,73.7c-0.1,0-0.2-0.1-0.2-0.2c0-0.1,0.1-0.2,0.2-0.2l0.6-0.1l-0.9-2.4
								c0-0.1,0-0.2,0.1-0.2c0.1,0,0.2,0,0.2,0.1l1,2.8L65.4,73.7C65.5,73.7,65.5,73.7,65.4,73.7z"/>
						</g>
					</g>
				</g>
				<path id="XMLID_274_" class="st5" d="M69.5,66.8c1.9,0.9,1.3,3.1,1.9,4.2c0,0.1,0.1,0.1,0.1,0c0.2-1.5,0.2-2.9,0.2-4
					c0-1.4-0.8-2.7-2.1-3.4c-3.4-1.9-6.9-1.2-9.3-0.3c-1.6,0.6-2.7,2.2-2.6,4c0,0.6,0.1,1.3,0.1,2c0.3,0.2,1.1,0.3,1.1,0.8
					c0.1,1.3,0.1,2.2,0.4,2.2c0.5-0.1,0.8-1.7,0.2-2.8c0,0,0.4-0.7,2.2-1.4c2.3-0.9,4.4-2.2,4.4-2.2s0.9-0.5,1.2-1.1
					C67.5,64.8,68,66.1,69.5,66.8z"/>
				<ellipse id="XMLID_271_" class="st5" cx="68.1" cy="70.5" rx="0.5" ry="0.7"/>
				<ellipse id="XMLID_268_" class="st5" cx="63" cy="70.5" rx="0.5" ry="0.7"/>
				<path id="XMLID_265_" class="st5" d="M69.4,68.6c-0.4-0.1-1.2-0.2-2-0.2c-0.2,0-0.4,0.2-0.4,0.3l0,0c0,0.1,0.2,0.2,0.3,0.2
					c0.6,0,2,0,2.7,0.2c0-0.1,0-0.2-0.1-0.3C69.8,68.7,69.6,68.6,69.4,68.6z"/>
				<path id="XMLID_262_" class="st5" d="M61.7,68.7c0.4-0.1,1.2-0.2,2-0.2c0.2,0,0.4,0.2,0.4,0.3l0,0c0,0.1-0.2,0.2-0.3,0.2
					c-0.6,0-2,0-2.7,0.2c0-0.1,0-0.2,0.1-0.3C61.3,68.8,61.5,68.7,61.7,68.7z"/>
				<path id="XMLID_261_" class="st7" d="M67.5,74.8c-0.1,0.7-0.6,1.9-2.2,1.9c-1.6,0-2-1.1-2.2-1.9H67.5z"/>
				<g id="XMLID_257_">
					<path id="XMLID_258_" class="st12" d="M65.4,77.8c0.4,0,0.8-0.2,0.9-0.3c0.1-0.1,0.1-0.2,0.1-0.3c-0.1-0.1-0.2-0.1-0.3-0.1l0,0
						c0,0-0.3,0.2-0.7,0.2c-0.4,0-0.7-0.2-0.7-0.2c-0.1-0.1-0.2,0-0.3,0.1c-0.1,0.1,0,0.2,0.1,0.3C64.5,77.5,64.9,77.8,65.4,77.8z"
						/>
				</g>
			</g>
			<g id="XMLID_239_">
				<path id="XMLID_253_" class="st11" d="M59,69.9c0,0-1.3-1.6-2.1-0.4c-0.8,1.2,0.3,4.6,2.2,3.7L59,69.9z"/>
				<circle id="XMLID_252_" class="st7" cx="58.3" cy="73.2" r="0.4"/>
				<g id="XMLID_248_">
					<path id="XMLID_249_" class="st12" d="M58.7,72.1c-0.1,0-0.1,0-0.2-0.1c-0.3-1.1-1.4-1.5-1.4-1.5c-0.1,0-0.1-0.1-0.1-0.2
						c0-0.1,0.1-0.1,0.2-0.1c0.1,0,1.3,0.5,1.6,1.7C58.9,72,58.9,72.1,58.7,72.1C58.8,72.1,58.7,72.1,58.7,72.1z"/>
				</g>
				<g id="XMLID_240_">
					<g id="XMLID_95_">
						<g id="XMLID_96_">
							<path id="XMLID_97_" class="st12" d="M57.6,71.6C57.6,71.6,57.6,71.5,57.6,71.6c-0.2-0.1-0.2-0.2-0.1-0.2
								c0,0,0.2-0.3,0.6-0.5c0.1,0,0.2,0,0.2,0.1c0,0.1,0,0.2-0.1,0.2c-0.3,0.1-0.5,0.4-0.5,0.4C57.7,71.5,57.7,71.6,57.6,71.6z"/>
						</g>
					</g>
				</g>
			</g>
		</g>
	</g>
	<g id="XMLID_207_">
		<g id="XMLID_220_">
			<path id="XMLID_234_" class="st4" d="M212,83.9h-46.2c-1.4,0-2.6-1.2-2.6-2.6v-5.4c0-1.4,1.2-2.6,2.6-2.6H212
				c1.4,0,2.6,1.2,2.6,2.6v5.4C214.6,82.7,213.4,83.9,212,83.9z"/>
			<path id="XMLID_231_" class="st14" d="M209,81.4L209,81.4c-1.7,0-3-1.3-3-3v0c0-1.7,1.3-3,3-3h0c1.7,0,3,1.3,3,3v0
				C212,80,210.7,81.4,209,81.4z"/>
			<g id="XMLID_221_">
				<path id="XMLID_228_" class="st14" d="M200.9,76.5h-33.8c-0.3,0-0.6-0.3-0.6-0.6l0,0c0-0.3,0.3-0.6,0.6-0.6h33.8
					c0.3,0,0.6,0.3,0.6,0.6l0,0C201.5,76.2,201.2,76.5,200.9,76.5z"/>
				<path id="XMLID_225_" class="st14" d="M200.9,78.9h-33.8c-0.3,0-0.6-0.3-0.6-0.6l0,0c0-0.3,0.3-0.6,0.6-0.6h33.8
					c0.3,0,0.6,0.3,0.6,0.6l0,0C201.5,78.7,201.2,78.9,200.9,78.9z"/>
				<path id="XMLID_222_" class="st14" d="M200.9,81.4h-33.8c-0.3,0-0.6-0.3-0.6-0.6l0,0c0-0.3,0.3-0.6,0.6-0.6h33.8
					c0.3,0,0.6,0.3,0.6,0.6l0,0C201.5,81.1,201.2,81.4,200.9,81.4z"/>
			</g>
		</g>
		<g id="XMLID_208_">
			<path id="XMLID_219_" class="st3" d="M212.3,99.5h-46.2c-1.4,0-2.6-1.2-2.6-2.6v-5.4c0-1.4,1.2-2.6,2.6-2.6h46.2
				c1.4,0,2.6,1.2,2.6,2.6v5.4C214.9,98.3,213.7,99.5,212.3,99.5z"/>
			<path id="XMLID_218_" class="st15" d="M209,97.2L209,97.2c-1.7,0-3-1.3-3-3v0c0-1.7,1.3-3,3-3h0c1.7,0,3,1.3,3,3v0
				C212,95.8,210.7,97.2,209,97.2z"/>
			<g id="XMLID_209_">
				<g id="XMLID_84_">
					<path id="XMLID_87_" class="st15" d="M200.9,92.3h-33.8c-0.3,0-0.6-0.3-0.6-0.6l0,0c0-0.3,0.3-0.6,0.6-0.6h33.8
						c0.3,0,0.6,0.3,0.6,0.6v0C201.5,92.1,201.2,92.3,200.9,92.3z"/>
					<path id="XMLID_86_" class="st15" d="M200.9,94.8h-33.8c-0.3,0-0.6-0.3-0.6-0.6v0c0-0.3,0.3-0.6,0.6-0.6h33.8
						c0.3,0,0.6,0.3,0.6,0.6v0C201.5,94.5,201.2,94.8,200.9,94.8z"/>
					<path id="XMLID_85_" class="st15" d="M200.9,97.2h-33.8c-0.3,0-0.6-0.3-0.6-0.6v0c0-0.3,0.3-0.6,0.6-0.6h33.8
						c0.3,0,0.6,0.3,0.6,0.6v0C201.5,96.9,201.2,97.2,200.9,97.2z"/>
				</g>
			</g>
		</g>
	</g>
	<g id="XMLID_56_">
		<g id="XMLID_125_">
			<g id="XMLID_203_">
				<path id="XMLID_204_" class="st3" d="M199.8,52.9c0-1.5,1.2-2.8,2.8-2.8c1.5,0,2.8,1.2,2.8,2.8c0,1.5-1.2,2.8-2.8,2.8
					C201.1,55.7,199.8,54.4,199.8,52.9z M200.7,52.9c0,1,0.9,1.9,1.9,1.9c1,0,1.9-0.9,1.9-1.9c0-1-0.9-1.9-1.9-1.9
					C201.5,51,200.7,51.8,200.7,52.9z"/>
			</g>
			<g id="XMLID_199_">
				<path id="XMLID_200_" class="st3" d="M204.7,41.1c0-1.5,1.2-2.8,2.8-2.8s2.8,1.2,2.8,2.8c0,1.5-1.2,2.8-2.8,2.8
					S204.7,42.7,204.7,41.1z M205.6,41.1c0,1,0.9,1.9,1.9,1.9s1.9-0.9,1.9-1.9c0-1-0.9-1.9-1.9-1.9S205.6,40.1,205.6,41.1z"/>
			</g>
			<g id="XMLID_164_">
				<g id="XMLID_269_">
					<g id="XMLID_280_">
						<g id="XMLID_286_">
							<g id="XMLID_287_">
								<path id="XMLID_289_" class="st4" d="M196.6,63.9c0.2,0,0.4-0.2,0.4-0.4v-1.9c0-0.2-0.2-0.4-0.4-0.4c-0.2,0-0.4,0.2-0.4,0.4
									v1.9C196.2,63.7,196.4,63.9,196.6,63.9z"/>
							</g>
						</g>
						<g id="XMLID_281_">
							<g id="XMLID_283_">
								<path id="XMLID_284_" class="st4" d="M196.6,67.3c0.2,0,0.4-0.2,0.4-0.4v-1.9c0-0.2-0.2-0.4-0.4-0.4c-0.2,0-0.4,0.2-0.4,0.4
									v1.9C196.2,67.1,196.4,67.3,196.6,67.3z"/>
							</g>
						</g>
					</g>
					<g id="XMLID_270_">
						<g id="XMLID_276_">
							<g id="XMLID_278_">
								<path id="XMLID_279_" class="st4" d="M193.9,64.6h1.7c0.2,0,0.4-0.2,0.4-0.4c0-0.2-0.2-0.4-0.4-0.4h-1.7
									c-0.2,0-0.4,0.2-0.4,0.4C193.5,64.4,193.7,64.6,193.9,64.6z"/>
							</g>
						</g>
						<g id="XMLID_272_">
							<g id="XMLID_273_">
								<path id="XMLID_275_" class="st4" d="M197.6,64.6h1.7c0.2,0,0.4-0.2,0.4-0.4c0-0.2-0.2-0.4-0.4-0.4h-1.7
									c-0.2,0-0.4,0.2-0.4,0.4C197.2,64.4,197.4,64.6,197.6,64.6z"/>
							</g>
						</g>
					</g>
				</g>
			</g>
			<g id="XMLID_126_">
				<g id="XMLID_172_">
					<g id="XMLID_178_">
						<g id="XMLID_184_">
							<path id="XMLID_185_" class="st4" d="M216.6,50.2c0.2,0,0.4-0.2,0.4-0.4v-1.9c0-0.2-0.2-0.4-0.4-0.4c-0.2,0-0.4,0.2-0.4,0.4
								v1.9C216.1,50,216.3,50.2,216.6,50.2z"/>
						</g>
						<g id="XMLID_179_">
							<path id="XMLID_180_" class="st4" d="M216.6,53.5c0.2,0,0.4-0.2,0.4-0.4v-1.9c0-0.2-0.2-0.4-0.4-0.4c-0.2,0-0.4,0.2-0.4,0.4
								v1.9C216.1,53.3,216.3,53.5,216.6,53.5z"/>
						</g>
					</g>
					<g id="XMLID_173_">
						<g id="XMLID_176_">
							<path id="XMLID_177_" class="st4" d="M213.9,50.9h1.7c0.2,0,0.4-0.2,0.4-0.4c0-0.2-0.2-0.4-0.4-0.4h-1.7
								c-0.2,0-0.4,0.2-0.4,0.4C213.5,50.7,213.6,50.9,213.9,50.9z"/>
						</g>
						<g id="XMLID_174_">
							<path id="XMLID_175_" class="st4" d="M217.5,50.9h1.7c0.2,0,0.4-0.2,0.4-0.4c0-0.2-0.2-0.4-0.4-0.4h-1.7
								c-0.2,0-0.4,0.2-0.4,0.4C217.1,50.7,217.3,50.9,217.5,50.9z"/>
						</g>
					</g>
				</g>
			</g>
		</g>
		<g id="XMLID_57_">
			<g id="XMLID_121_">
				<path id="XMLID_122_" class="st3" d="M43.5,56c0-1.5,1.2-2.8,2.8-2.8c1.5,0,2.8,1.2,2.8,2.8c0,1.5-1.2,2.8-2.8,2.8
					C44.8,58.8,43.5,57.5,43.5,56z M44.4,56c0,1,0.9,1.9,1.9,1.9s1.9-0.9,1.9-1.9c0-1-0.9-1.9-1.9-1.9S44.4,54.9,44.4,56z"/>
			</g>
			<g id="XMLID_117_">
				<path id="XMLID_118_" class="st4" d="M33.4,76.6c0-1.5,1.2-2.8,2.8-2.8s2.8,1.2,2.8,2.8c0,1.5-1.2,2.8-2.8,2.8
					S33.4,78.1,33.4,76.6z M34.3,76.6c0,1,0.9,1.9,1.9,1.9s1.9-0.9,1.9-1.9c0-1-0.9-1.9-1.9-1.9S34.3,75.6,34.3,76.6z"/>
			</g>
			<g id="XMLID_105_">
				<g id="XMLID_111_">
					<g id="XMLID_114_">
						<path id="XMLID_115_" class="st3" d="M43.5,68.1c0.2,0,0.4-0.2,0.4-0.4v-1.9c0-0.2-0.2-0.4-0.4-0.4c-0.2,0-0.4,0.2-0.4,0.4
							v1.9C43.1,67.9,43.3,68.1,43.5,68.1z"/>
					</g>
					<g id="XMLID_112_">
						<path id="XMLID_113_" class="st3" d="M43.5,71.4c0.2,0,0.4-0.2,0.4-0.4v-1.9c0-0.2-0.2-0.4-0.4-0.4c-0.2,0-0.4,0.2-0.4,0.4V71
							C43.1,71.3,43.3,71.4,43.5,71.4z"/>
					</g>
				</g>
				<g id="XMLID_106_">
					<g id="XMLID_109_">
						<path id="XMLID_110_" class="st3" d="M40.8,68.8h1.7c0.2,0,0.4-0.2,0.4-0.4c0-0.2-0.2-0.4-0.4-0.4h-1.7
							c-0.2,0-0.4,0.2-0.4,0.4C40.4,68.6,40.6,68.8,40.8,68.8z"/>
					</g>
					<g id="XMLID_107_">
						<path id="XMLID_108_" class="st3" d="M44.5,68.8h1.7c0.2,0,0.4-0.2,0.4-0.4c0-0.2-0.2-0.4-0.4-0.4h-1.7
							c-0.2,0-0.4,0.2-0.4,0.4C44,68.6,44.2,68.8,44.5,68.8z"/>
					</g>
				</g>
			</g>
			<g id="XMLID_58_">
				<g id="XMLID_149_">
					<g id="XMLID_166_">
						<g id="XMLID_169_">
							<path id="XMLID_170_" class="st4" d="M38.5,48.8c0.2,0,0.4-0.2,0.4-0.4v-1.9c0-0.2-0.2-0.4-0.4-0.4c-0.2,0-0.4,0.2-0.4,0.4
								v1.9C38,48.6,38.2,48.8,38.5,48.8z"/>
						</g>
						<g id="XMLID_167_">
							<path id="XMLID_168_" class="st4" d="M38.5,52.1c0.2,0,0.4-0.2,0.4-0.4v-1.9c0-0.2-0.2-0.4-0.4-0.4c-0.2,0-0.4,0.2-0.4,0.4
								v1.9C38,51.9,38.2,52.1,38.5,52.1z"/>
						</g>
					</g>
					<g id="XMLID_150_">
						<g id="XMLID_153_">
							<path id="XMLID_165_" class="st4" d="M35.8,49.5h1.7c0.2,0,0.4-0.2,0.4-0.4c0-0.2-0.2-0.4-0.4-0.4h-1.7
								c-0.2,0-0.4,0.2-0.4,0.4C35.4,49.3,35.5,49.5,35.8,49.5z"/>
						</g>
						<g id="XMLID_151_">
							<path id="XMLID_152_" class="st4" d="M39.4,49.5h1.7c0.2,0,0.4-0.2,0.4-0.4c0-0.2-0.2-0.4-0.4-0.4h-1.7
								c-0.2,0-0.4,0.2-0.4,0.4C39,49.3,39.2,49.5,39.4,49.5z"/>
						</g>
					</g>
				</g>
			</g>
		</g>
	</g>
	<g id="XMLID_3_">
		<g id="XMLID_43_">
			<polygon id="XMLID_53_" class="st4" points="222,197.1 182.8,197.1 188.2,153.5 216.6,153.5 			"/>
			<g id="XMLID_44_">
				<circle id="XMLID_50_" class="st16" cx="196.1" cy="155.7" r="1.3"/>
				<circle id="XMLID_47_" class="st16" cx="209.8" cy="155.7" r="1.3"/>
				<g id="XMLID_45_">
					<path id="XMLID_46_" class="st7" d="M196.2,155.5L196.2,155.5c-0.3,0-0.6-0.3-0.5-0.6c0.1-1.4,0.3-4.9,1-8.5
						c1.3-6.2,3.5-9.4,6.5-9.4c3,0,5.1,3.2,6.3,9.4c0.7,3.5,0.8,7.1,0.9,8.5c0,0.3-0.2,0.6-0.6,0.6l0,0c-0.3,0-0.6-0.2-0.6-0.5
						c-0.1-5.2-1.4-16.8-6.1-16.8c-4.7,0-6.2,11.7-6.4,16.8C196.7,155.3,196.5,155.5,196.2,155.5z"/>
				</g>
			</g>
		</g>
		<g id="XMLID_11_">
			<polygon id="XMLID_39_" class="st3" points="219,200.5 159.1,200.5 164.6,172.5 213.4,172.5 			"/>
			<g id="XMLID_12_">
				<g id="XMLID_16_">
					<circle id="XMLID_28_" class="st1" cx="177.2" cy="175" r="1.3"/>
					<circle id="XMLID_19_" class="st1" cx="200.6" cy="175" r="1.3"/>
				</g>
				<g id="XMLID_13_">
					<path id="XMLID_15_" class="st7" d="M177.2,174.9L177.2,174.9c-0.4,0-0.6-0.3-0.6-0.7c0.1-1.2,0.5-3.8,1.6-6.4
						c2.1-4.7,5.9-7.2,10.8-7.2c5,0,8.7,2.5,10.6,7.2c1.1,2.6,1.4,5.2,1.5,6.4c0,0.4-0.3,0.7-0.6,0.7l0,0c-0.3,0-0.6-0.3-0.6-0.6
						c-0.1-1.1-0.3-3.6-1.4-6c-1.8-4.3-5-6.4-9.5-6.4c-4.5,0-7.8,2.2-9.7,6.5c-1.1,2.4-1.4,4.9-1.5,6
						C177.8,174.6,177.5,174.9,177.2,174.9z"/>
				</g>
			</g>
		</g>
		<g id="XMLID_4_">
			<rect id="XMLID_10_" x="81" y="176.1" class="st3" width="33.3" height="25.3"/>
			<rect id="XMLID_9_" x="79.9" y="174.9" class="st17" width="35.5" height="4.2"/>
			<rect id="XMLID_8_" x="81" y="179.1" class="st1" width="33.3" height="2.3"/>
			<rect id="XMLID_7_" x="96.2" y="174.9" class="st7" width="2.9" height="26.6"/>
			<rect id="XMLID_6_" x="96.2" y="181.2" class="st18" width="2.9" height="20.2"/>
			<rect id="XMLID_5_" x="96.2" y="179.1" class="st19" width="2.9" height="2.3"/>
		</g>
	</g>
</g>
</svg>
