<?xml version="1.0" encoding="utf-8"?>
<!-- Generator: Adobe Illustrator 19.0.0, SVG Export Plug-In . SVG Version: 6.00 Build 0)  -->
<svg version="1.1" id="Layer_1" xmlns="http://www.w3.org/2000/svg" xmlns:xlink="http://www.w3.org/1999/xlink" x="0px" y="0px"
	 viewBox="0 0 258 208.7" style="enable-background:new 0 0 258 208.7;" xml:space="preserve">
<style type="text/css">
	.st0{opacity:0.37;clip-path:url(#XMLID_6_);fill:#FFFFFF;}
	.st1{opacity:0.64;clip-path:url(#XMLID_6_);fill:url(#XMLID_7_);}
	.st2{opacity:0.64;clip-path:url(#XMLID_6_);fill:url(#XMLID_8_);}
	.st3{opacity:0.17;fill:#433391;}
	.st4{fill:#302F2F;}
	.st5{fill:#DC3673;}
	.st6{fill:#B42A62;}
	.st7{fill:#F3F3F3;}
	.st8{opacity:0.3;fill:#2E3379;}
	.st9{fill:#ECBC5B;}
	.st10{fill:#422354;}
	.st11{fill:#988DC4;}
	.st12{fill:#2E3379;}
	.st13{fill:#8CD4DF;}
	.st14{fill:#433391;}
	.st15{fill:#F7F8F8;}
	.st16{fill:#7A73B5;}
	.st17{clip-path:url(#XMLID_12_);fill:#988DC4;}
	.st18{clip-path:url(#XMLID_12_);fill:#F7F8F8;}
	.st19{clip-path:url(#XMLID_12_);fill:#433391;}
	.st20{clip-path:url(#XMLID_12_);fill:#F2CF31;}
	.st21{clip-path:url(#XMLID_12_);fill:#DC3673;}
	.st22{clip-path:url(#XMLID_12_);fill:#A8DFF2;}
	.st23{clip-path:url(#XMLID_12_);fill:#D2CFE0;}
	.st24{opacity:0.21;}
	.st25{clip-path:url(#XMLID_13_);fill:#FFFFFF;}
	.st26{fill:#F6F6F4;}
	.st27{fill:#FFFFFF;}
	.st28{fill:#D2CFE0;}
	.st29{fill:#F0CD33;}
	.st30{clip-path:url(#XMLID_14_);fill:#221C41;}
	.st31{fill:#CF3362;}
	.st32{fill:#ECE9F4;}
	.st33{opacity:0.24;}
	.st34{clip-path:url(#XMLID_15_);fill:#FFFFFF;}
	.st35{fill:#E2B19D;}
	.st36{clip-path:url(#XMLID_16_);fill:#422354;}
	.st37{opacity:0.48;clip-path:url(#XMLID_16_);fill:#EBABAC;}
	.st38{clip-path:url(#XMLID_17_);fill:#422354;}
	.st39{opacity:0.48;clip-path:url(#XMLID_17_);fill:#EBABAC;}
	.st40{fill:#EBABAC;}
	.st41{fill:#423390;}
	.st42{opacity:0.23;clip-path:url(#XMLID_18_);fill:#EBABAC;}
	.st43{fill:#8B99CD;}
	.st44{opacity:0.15;fill:#35375A;}
</style>
<g id="XMLID_24_">
	<g id="XMLID_219_">
		<defs>
			<rect id="XMLID_220_" x="3.4" y="-24.6" width="256.6" height="256.6"/>
		</defs>
		<clipPath id="XMLID_6_">
			<use xlink:href="#XMLID_220_"  style="overflow:visible;"/>
		</clipPath>
		<path id="XMLID_229_" class="st0" d="M105.9,115.8c-4.6,0-8.9,0.4-12.6,1.1c-0.2-0.3-0.4-0.6-0.7-0.8c-2.2-2.4-5.2-3.3-6.7-2
			c-0.9,0.8-1.1,2.1-0.7,3.6c-0.2,0-0.5-0.1-0.7-0.1c-2.6-0.4-4.9,0.4-5.9,1.7c-1.7-1.7-4-3.2-6.6-4.2c-2.2-0.8-4.4-1.2-6.5-1.2
			c2.5-9.6-0.3-18.6-6.3-20.3c-4.8-1.4-10.2,2.1-13.8,8.2c-1.8-1-3.6-1.3-5-0.5c-2.4,1.4-2.7,5.4-0.9,9.3c-0.9-0.1-1.9-0.1-2.8-0.1
			c-10.3,0-18.7,5.3-18.7,11.8c0,0.3,0,0.6,0.1,1h24.6h18.6h18.1h0.1h1.8h8h0.7h3.3h38.8C129.4,118.9,118.7,115.8,105.9,115.8z"/>
		<path id="XMLID_228_" class="st0" d="M96.6,112.9c0.1-2.2,7.7-3.8,17.1-3.6c0,0,0,0,0.1,0c0-0.4-0.1-0.9,0-1.3
			c0.1-6.6,5.5-11.8,12.1-11.6c3.6,0.1,6.9,1.8,9,4.4c0.6-0.2,1.3-0.3,2-0.3c1.6,0,3.1,0.8,4.1,2c1.2-0.9,2.5-1.2,3.5-0.7
			c0.8,0.5,1.3,1.4,1.4,2.5c0.6-0.2,1.2-0.2,1.8-0.2c2.7,0.1,4.9,1.8,5.7,4.2c0.9-0.6,2-0.9,3.1-0.9c2.7,0.1,4.9,2.1,5.2,4.6
			c0.5-0.1,1.1-0.2,1.8-0.2c2.6,0.1,4.8,1.5,4.7,3.3c0,0.1,0,0.2,0,0.3H84.1C84.2,114.1,89.4,113.1,96.6,112.9z"/>
		<path id="XMLID_227_" class="st0" d="M197.2,18.8c-3.9,0-7.6,0.3-10.8,1c-0.2-0.2-0.4-0.5-0.6-0.7c-1.9-2.1-4.4-2.8-5.7-1.7
			c-0.8,0.7-0.9,1.8-0.6,3.1c-0.2,0-0.4-0.1-0.6-0.1c-2.2-0.3-4.2,0.3-5,1.5c-1.5-1.5-3.4-2.7-5.7-3.6c-1.9-0.7-3.8-1-5.6-1
			c2.1-8.2-0.3-15.9-5.4-17.4c-4.1-1.2-8.7,1.8-11.8,7.1c-1.5-0.9-3.1-1.1-4.3-0.4c-2.1,1.2-2.3,4.6-0.8,7.9
			c-0.8-0.1-1.6-0.1-2.4-0.1c-8.9,0-16.1,4.5-16.1,10.1c0,0.3,0,0.6,0.1,0.8h21.2h16h15.5h0.1h1.5h6.9h0.6h2.8h33.3
			C217.3,21.5,208.1,18.8,197.2,18.8z"/>
		<path id="XMLID_226_" class="st0" d="M25.5,66.2c0.1-3.2,11.5-5.6,25.4-5.4c0,0,0.1,0,0.1,0c-0.1-0.6-0.1-1.3-0.1-2
			c0.2-9.7,8.2-17.5,18-17.3c5.4,0.1,10.2,2.6,13.3,6.5c0.9-0.3,1.9-0.5,2.9-0.5c2.4,0,4.6,1.2,6,2.9c1.7-1.4,3.7-1.9,5.2-1
			c1.2,0.7,1.9,2.1,2,3.7c0.8-0.2,1.7-0.4,2.7-0.3c4,0.1,7.3,2.7,8.5,6.3c1.3-0.9,2.9-1.4,4.6-1.4c4,0.1,7.3,3.1,7.8,6.9
			c0.8-0.2,1.7-0.3,2.6-0.3c3.9,0.1,7.1,2.3,7,5c0,0.1,0,0.2,0,0.4H6.9C6.9,67.9,14.8,66.5,25.5,66.2z"/>
		<path id="XMLID_225_" class="st0" d="M233.8,125.9c-0.1-2.2-7.7-3.8-17.1-3.6c0,0,0,0-0.1,0c0-0.4,0.1-0.9,0-1.3
			c-0.1-6.6-5.5-11.8-12.1-11.6c-3.6,0.1-6.9,1.8-9,4.4c-0.6-0.2-1.3-0.3-2-0.3c-1.6,0-3.1,0.8-4.1,2c-1.2-0.9-2.5-1.2-3.5-0.7
			c-0.8,0.5-1.3,1.4-1.4,2.5c-0.6-0.2-1.2-0.2-1.8-0.2c-2.7,0.1-4.9,1.8-5.7,4.2c-0.9-0.6-2-0.9-3.1-0.9c-2.7,0.1-4.9,2.1-5.2,4.6
			c-0.5-0.1-1.1-0.2-1.8-0.2c-2.6,0.1-4.8,1.5-4.7,3.3c0,0.1,0,0.2,0,0.3h83.9C246.3,127.1,241,126.1,233.8,125.9z"/>
		<path id="XMLID_224_" class="st0" d="M190.6,155.4c-4.1,0-7.9,0.4-11.3,1c-0.2-0.3-0.4-0.5-0.6-0.7c-1.9-2.2-4.6-3-6-1.8
			c-0.8,0.7-1,1.9-0.6,3.2c-0.2,0-0.4-0.1-0.6-0.1c-2.3-0.3-4.4,0.3-5.3,1.5c-1.5-1.5-3.6-2.9-5.9-3.7c-2-0.7-4-1.1-5.8-1.1
			c2.2-8.6-0.3-16.7-5.7-18.2c-4.3-1.2-9.1,1.9-12.4,7.4c-1.6-0.9-3.2-1.2-4.5-0.4c-2.2,1.2-2.5,4.8-0.8,8.3
			c-0.8-0.1-1.7-0.1-2.5-0.1c-9.3,0-16.8,4.7-16.8,10.6c0,0.3,0,0.6,0.1,0.9H134h16.7h16.2h0.1h1.6h7.2h0.6h2.9h34.8
			C211.7,158.3,202.1,155.4,190.6,155.4z"/>
		<path id="XMLID_223_" class="st0" d="M158.6,159.6c0.2-3.9,13.8-6.8,30.6-6.5c0,0,0.1,0,0.1,0c-0.1-0.8-0.1-1.6-0.1-2.4
			c0.2-11.7,9.9-21.1,21.7-20.9c6.5,0.1,12.3,3.2,16.1,7.9c1.1-0.4,2.3-0.6,3.5-0.6c2.9,0.1,5.6,1.4,7.3,3.5
			c2.1-1.7,4.4-2.2,6.3-1.2c1.5,0.8,2.3,2.5,2.4,4.5c1-0.3,2.1-0.4,3.2-0.4c4.8,0.1,8.8,3.2,10.2,7.5c1.6-1.1,3.5-1.7,5.6-1.6
			c4.8,0.1,8.7,3.7,9.4,8.3c1-0.2,2-0.4,3.1-0.3c4.7,0.1,8.5,2.8,8.5,6c0,0.2,0,0.3,0,0.4H136.2
			C136.3,161.6,145.8,159.9,158.6,159.6z"/>
		
			<linearGradient id="XMLID_7_" gradientUnits="userSpaceOnUse" x1="484.1073" y1="82.8243" x2="484.1073" y2="109.8399" gradientTransform="matrix(-1 0 0 1 684 0)">
			<stop  offset="0" style="stop-color:#FFFFFF;stop-opacity:0"/>
			<stop  offset="1" style="stop-color:#FFFFFF"/>
		</linearGradient>
		<path id="XMLID_222_" class="st1" d="M148.8,90.1c0,0,6,1,7.9,7.4c0,0,0.8-5.5,3.9-3.6c0,0-3.8-2.5-1.3-4.9c2.5-2.4,4.6,0,4.6,0
			s2.7-8,9.7-5.8c7,2.2,7.6,9.6,5.1,10.6c0,0,4.9-0.1,3.4,1.4c-1.5,1.5,2.3,2.8,3.2,2.5c0,0,2-2.3,5.2-1c3.2,1.2,2.1,4.9,2.1,4.9
			s3.2,0.2,3.5,1.7c0,0,3.1-2.1,6.3,0c3.2,2.2,8.7,4.4,10.9,0.1c2.2-4.3,7.5-3.3,9.2-0.9c0,0-0.3-4.6,3.1-3.7
			c3.4,0.9,2.9,5.2,2.9,5.2s6.6-0.1,6,2.5c-0.6,2.6,5.5,1.9,6.7,1c1.2-0.9,10.3-0.1,10.1,2.2l-102.5-0.8L148.8,90.1z"/>
		
			<linearGradient id="XMLID_8_" gradientUnits="userSpaceOnUse" x1="519.7273" y1="116.5235" x2="519.7273" y2="167.8366" gradientTransform="matrix(1 0 0 1 -450 0)">
			<stop  offset="0" style="stop-color:#FFFFFF;stop-opacity:0"/>
			<stop  offset="1" style="stop-color:#FFFFFF"/>
		</linearGradient>
		<path id="XMLID_221_" class="st2" d="M166.8,130.3c0,0-11.3,1.8-15,14.1c0,0-1.5-10.5-7.3-6.9c0,0,7.2-4.7,2.6-9.3
			c-4.7-4.6-8.7,0.1-8.7,0.1s-5.1-15.1-18.4-10.9c-13.4,4.2-14.4,18.2-9.7,20.2c0,0-9.3-0.2-6.4,2.7c2.9,2.9-4.3,5.3-6.1,4.7
			c0,0-3.8-4.3-9.9-2c-6.1,2.4-4,9.3-4,9.3s-6.1,0.3-6.7,3.3c0,0-5.9-4-11.9,0.1c-6.1,4.1-16.5,8.3-20.7,0.2
			c-4.1-8.1-14.3-6.3-17.5-1.6c0,0,0.5-8.7-5.9-6.9c-6.4,1.8-5.5,9.9-5.5,9.9s-12.5-0.2-11.3,4.7c1.2,4.9-10.5,3.6-12.8,1.8
			c-2.3-1.7-19.5-0.1-19.2,4.2l194.7-1.4L166.8,130.3z"/>
	</g>
	<ellipse id="XMLID_218_" class="st3" cx="139.4" cy="176.2" rx="105.2" ry="7.4"/>
	<ellipse id="XMLID_217_" class="st3" cx="65.1" cy="201.4" rx="16.3" ry="3.1"/>
	<ellipse id="XMLID_216_" class="st3" cx="36.1" cy="181.3" rx="10.5" ry="1.9"/>
	<g id="XMLID_206_">
		<g id="XMLID_214_">
			<path id="XMLID_215_" class="st4" d="M192.7,118.5c-0.2,0-0.3-0.1-0.3-0.3c-0.1-1-0.2-4,0-7.4c0.3-5.6,1.4-9.7,3.1-12.2
				c1.2-1.6,2.7-2.5,4.5-2.5c2.6-0.1,4.7,0.9,6.3,2.8c3.4,4.1,3.9,12,3.9,19.3c0,0.2-0.1,0.3-0.3,0.3l0,0c-0.1,0-0.3-0.1-0.3-0.3
				c0-7.2-0.5-14.9-3.7-18.9c-1.5-1.8-3.4-2.7-5.9-2.6c-1.6,0-3,0.8-4.1,2.3c-3.7,5.1-3.1,16.9-3,19.1
				C193,118.4,192.9,118.5,192.7,118.5L192.7,118.5z"/>
		</g>
		<path id="XMLID_213_" class="st5" d="M220.9,167.5c0.5,0.4,6.4,1.3,6.4,1.3l2.2,4.1l-6.8,1.7L220.9,167.5z"/>
		<polygon id="XMLID_212_" class="st6" points="223.7,113.3 225.5,110.3 229.5,172.9 225.7,170.8 222.7,174.5 		"/>
		<polygon id="XMLID_211_" class="st5" points="181.1,109.5 225.5,110.3 222.7,174.5 179.9,174 		"/>
		<path id="XMLID_210_" class="st7" d="M192.9,119.2c-0.4,0.1-0.7-0.3-0.8-0.8c-0.1-0.5,0.1-1,0.5-1.1c0.4-0.1,0.7,0.3,0.8,0.8
			C193.5,118.6,193.3,119.1,192.9,119.2z"/>
		<path id="XMLID_209_" class="st7" d="M210,119.6c-0.4,0-0.7-0.4-0.7-0.9c0-0.5,0.2-1,0.6-1s0.7,0.4,0.7,0.9
			C210.6,119.1,210.3,119.6,210,119.6z"/>
		<g id="XMLID_207_">
			<path id="XMLID_208_" class="st4" d="M192.7,118.5c-0.2,0-0.3-0.1-0.3-0.3c-0.1-1-0.2-4,0-7.4c0.3-5.6,1.4-9.7,3.1-12.2
				c1.2-1.6,2.7-2.5,4.5-2.5c2.6-0.1,4.7,0.9,6.3,2.8c3.4,4.1,3.9,12,3.9,19.3c0,0.2-0.1,0.3-0.3,0.3l0,0c-0.1,0-0.3-0.1-0.3-0.3
				c0-7.2-0.5-14.9-3.7-18.9c-1.5-1.8-3.4-2.7-5.9-2.6c-1.6,0-3,0.8-4.1,2.3c-3.7,5.1-3.1,16.9-3,19.1
				C193,118.4,192.9,118.5,192.7,118.5L192.7,118.5z"/>
		</g>
	</g>
	<path id="XMLID_203_" class="st8" d="M210.3,139.4l-7.1-7.8l-3.2,4.4l-3.4-3.7l-6.2,8.6l7,7.6l3-4.2l3.6,3.9L210.3,139.4z
		 M200.1,136.3l3-4.2l6.8,7.4l-6,8.4l-3.4-3.7l3-4.1L200.1,136.3z"/>
	<g id="XMLID_193_">
		<g id="XMLID_201_">
			<path id="XMLID_202_" class="st4" d="M177.2,127.5c-0.2,0-0.3-0.1-0.3-0.3c-0.1-0.9-0.2-3.5,0-6.5c0.3-4.9,1.5-8.5,3.4-10.6
				c1.3-1.4,2.9-2.2,4.8-2.2c2.8-0.1,5.1,0.8,6.8,2.4c3.6,3.6,4.2,10.5,4.2,16.9c0,0.2-0.1,0.3-0.3,0.3l0,0c-0.2,0-0.3-0.1-0.3-0.3
				c0-6.3-0.5-13.1-4-16.5c-1.6-1.6-3.7-2.3-6.4-2.3c-1.7,0-3.2,0.7-4.4,2c-3.9,4.4-3.3,14.8-3.2,16.6
				C177.5,127.3,177.4,127.4,177.2,127.5L177.2,127.5z"/>
		</g>
		<path id="XMLID_200_" class="st9" d="M207.5,170.2c0.5,0.4,6.9,1.1,6.9,1.1l2.3,3.6l-7.3,1.5L207.5,170.2z"/>
		<polygon id="XMLID_199_" class="st10" points="210.5,122.9 212.4,120.3 216.7,175 212.6,173.1 209.5,176.4 		"/>
		<polygon id="XMLID_198_" class="st9" points="164.7,119.6 212.4,120.3 209.5,176.4 163.5,176 		"/>
		
			<ellipse id="XMLID_197_" transform="matrix(0.1963 0.9805 -0.9805 0.1963 267.183 -71.6229)" class="st7" cx="177.3" cy="127.2" rx="0.9" ry="0.7"/>
		
			<ellipse id="XMLID_196_" transform="matrix(5.597934e-002 0.9984 -0.9984 5.597934e-002 312.0785 -75.0095)" class="st7" cx="195.7" cy="127.5" rx="0.9" ry="0.7"/>
		<g id="XMLID_194_">
			<path id="XMLID_195_" class="st4" d="M177.2,127.5c-0.2,0-0.3-0.1-0.3-0.3c-0.1-0.9-0.2-3.5,0-6.5c0.3-4.9,1.5-8.5,3.4-10.6
				c1.3-1.4,2.9-2.2,4.8-2.2c2.8-0.1,5.1,0.8,6.8,2.4c3.6,3.6,4.2,10.5,4.2,16.9c0,0.2-0.1,0.3-0.3,0.3l0,0c-0.2,0-0.3-0.1-0.3-0.3
				c0-6.3-0.5-13.1-4-16.5c-1.6-1.6-3.7-2.3-6.4-2.3c-1.7,0-3.2,0.7-4.4,2c-3.9,4.4-3.3,14.8-3.2,16.6
				C177.5,127.3,177.4,127.4,177.2,127.5L177.2,127.5z"/>
		</g>
	</g>
	<g id="XMLID_183_">
		<g id="XMLID_191_">
			<path id="XMLID_192_" class="st4" d="M64.2,128.1c-0.2,0-0.3-0.1-0.3-0.3c-0.1-0.9-0.2-3.5,0-6.5c0.3-4.9,1.5-8.5,3.4-10.6
				c1.3-1.4,2.9-2.2,4.8-2.2c2.8-0.1,5.1,0.8,6.8,2.4c3.6,3.6,4.2,10.5,4.2,16.9c0,0.2-0.1,0.3-0.3,0.3l0,0c-0.2,0-0.3-0.1-0.3-0.3
				c0-6.3-0.5-13.1-4-16.5c-1.6-1.6-3.7-2.3-6.4-2.3c-1.7,0-3.2,0.7-4.4,2c-3.9,4.4-3.3,14.8-3.2,16.6
				C64.5,127.9,64.4,128.1,64.2,128.1L64.2,128.1z"/>
		</g>
		<path id="XMLID_190_" class="st11" d="M94.5,170.9c0.5,0.4,6.9,1.1,6.9,1.1l2.3,3.6l-7.3,1.5L94.5,170.9z"/>
		<polygon id="XMLID_189_" class="st12" points="97.5,123.5 99.4,120.9 103.7,175.6 99.6,173.7 96.4,177 		"/>
		<polygon id="XMLID_188_" class="st13" points="51.7,120.2 99.4,120.9 96.4,177 50.4,176.6 		"/>
		
			<ellipse id="XMLID_187_" transform="matrix(0.1963 0.9805 -0.9805 0.1963 176.9412 39.7084)" class="st7" cx="64.2" cy="127.8" rx="0.9" ry="0.7"/>
		
			<ellipse id="XMLID_186_" transform="matrix(5.600993e-002 0.9984 -0.9984 5.600993e-002 205.9893 38.4298)" class="st7" cx="82.7" cy="128.1" rx="0.9" ry="0.7"/>
		<g id="XMLID_184_">
			<path id="XMLID_185_" class="st4" d="M64.2,128.1c-0.2,0-0.3-0.1-0.3-0.3c-0.1-0.9-0.2-3.5,0-6.5c0.3-4.9,1.5-8.5,3.4-10.6
				c1.3-1.4,2.9-2.2,4.8-2.2c2.8-0.1,5.1,0.8,6.8,2.4c3.6,3.6,4.2,10.5,4.2,16.9c0,0.2-0.1,0.3-0.3,0.3l0,0c-0.2,0-0.3-0.1-0.3-0.3
				c0-6.3-0.5-13.1-4-16.5c-1.6-1.6-3.7-2.3-6.4-2.3c-1.7,0-3.2,0.7-4.4,2c-3.9,4.4-3.3,14.8-3.2,16.6
				C64.5,127.9,64.4,128.1,64.2,128.1L64.2,128.1z"/>
		</g>
	</g>
	<path id="XMLID_180_" class="st8" d="M196.1,145.7l-7.7-6.8l-3.4,3.9l-3.7-3.3l-6.6,7.5l7.5,6.6l3.3-3.7l3.9,3.4L196.1,145.7z
		 M185.2,143l3.3-3.7l7.3,6.5l-6.5,7.3l-3.7-3.3l3.2-3.6L185.2,143z"/>
	<path id="XMLID_174_" class="st9" d="M73,59.3h2.4c0.3,0,0.4-0.1,0.4-0.4v-2.5c0-2.2-1.2-3.3-3.3-3.3h-0.6v-2.4h-0.6v2.4h-0.4v-2.4
		h-0.6v2.4h-0.5c-2.2,0-3.3,1.2-3.3,3.3v5.5c0,0.4,0.2,0.7,0.6,0.9l3.2,1.1v4.7c-0.4-0.1-0.7-0.4-0.7-0.9v-1.8
		c0-0.3-0.1-0.4-0.4-0.4h-2.4c-0.2,0-0.4,0.1-0.4,0.4v2.4c0,2.2,1.2,3.3,3.3,3.3h0.5v1.7h0.6v-1.7h0.4v1.7h0.6v-1.7h0.6
		c2.2,0,3.3-1.2,3.3-3.3v-5.3c0-0.4-0.2-0.7-0.6-0.9L71.8,61v-4.8c0.5,0.1,0.8,0.4,0.8,0.9v1.8C72.6,59.1,72.8,59.3,73,59.3z
		 M69.7,60.3v-3.2c0-0.5,0.3-0.8,0.7-0.9v4.3L69.7,60.3z M70.9,68.6V64l0.4,0.1v4.4H70.9z M72.6,64.6v3.1c0,0.6-0.3,0.9-0.8,0.9
		v-4.2L72.6,64.6z M70.9,60.7v-4.5h0.4v4.6L70.9,60.7z"/>
	<path id="XMLID_168_" class="st9" d="M94,22.7h4.3c0.5,0,0.7-0.2,0.7-0.7v-4.4c0-3.9-2.1-5.9-5.9-5.9h-1V7.3h-1v4.4h-0.6V7.3h-1
		v4.4h-0.9c-3.8,0-5.9,2.1-5.9,5.9v9.7c0,0.8,0.4,1.3,1.1,1.5l5.8,1.9v8.4c-0.8-0.1-1.3-0.7-1.3-1.6v-3.2c0-0.5-0.2-0.7-0.7-0.7
		h-4.3c-0.4,0-0.7,0.2-0.7,0.7v4.3c0,3.9,2.1,5.9,5.9,5.9h0.9v3h1v-3H91v3h1v-3h1c3.9,0,5.9-2.1,5.9-5.9v-9.5c0-0.8-0.4-1.2-1.1-1.5
		L92,25.8v-8.6c0.9,0.1,1.4,0.7,1.4,1.6V22C93.3,22.4,93.6,22.7,94,22.7z M88.1,24.5v-5.7c0-0.9,0.5-1.5,1.3-1.6v7.7L88.1,24.5z
		 M90.3,39.2v-8.1l0.6,0.2v7.9H90.3z M93.3,32.1v5.5c0,1-0.5,1.5-1.4,1.6v-7.6L93.3,32.1z M90.3,25.2v-8.1H91v8.3L90.3,25.2z"/>
	<g id="XMLID_163_">
		<path id="XMLID_167_" class="st5" d="M39.8,136.3l-2.2-0.1c0.1-0.2,0.1-0.5,0.2-0.7c0.4-1.2,0.7-2.3,1.1-3.2l1.7-0.6
			c1.3,0,10-0.2,7.9-4.2c-2-3.8-7,2.7-7.9,3.9l-1.6,0.6c0.7-1.9,1.4-3.2,1.8-4c1-0.8,7.9-6.1,3.9-8.1c-3.9-1.9-4.1,6.2-4.1,7.9
			c-0.5,0.9-1.2,2.2-2,4.3l0,0l0,0c-0.2,0.6-0.4,1.2-0.6,1.8l-0.4-0.6c0-1.7-0.1-9.8-3.9-7.9c-4.1,2,3.1,7.6,3.8,8.2l0.4,0.6
			c-0.1,0.4-0.2,0.8-0.4,1.2c-0.1,0.4-0.2,0.9-0.4,1.3l-2.3-0.7c-0.5-0.6-6.5-7.9-8.3-3.6c-1.6,3.8,5.7,3.8,7.8,3.7l2.7,0.8
			c-0.2,0.7-0.3,1.4-0.5,2l-1.7,0.6c0,0,0,0,0,0s-10.3,0.3-7.9,4.5c2.1,3.7,6.7-2.7,7.7-4.2l1.9-0.7c-2.1,9.6-2.2,20.5-1.9,28.4
			l0.2,0c-0.3-8.2-0.2-19.6,2.2-29.4l0.8,1.7c-0.1,2-0.5,9.6,3.4,8c4.4-1.8-3.3-8.5-3.3-8.5s0,0,0,0.1l-0.8-1.6
			c0.1-0.5,0.2-1,0.4-1.5l2.4,0.1c1.4,0.9,8.2,5.4,8.8,1.1C49.2,133.2,40.8,136,39.8,136.3z"/>
		<path id="XMLID_166_" class="st5" d="M46,150.9l-1.2-0.4c0.1-0.1,0.2-0.2,0.2-0.4c0.4-0.6,0.8-1.2,1.1-1.6l1.1-0.1
			c0.7,0.2,5.7,1.6,5.1-1c-0.5-2.5-4.4,0.3-5.1,0.9l-1,0.1c0.7-0.9,1.3-1.5,1.7-1.9c0.7-0.3,5.5-2.1,3.6-3.9
			c-1.9-1.7-3.3,2.8-3.6,3.7c-0.4,0.4-1.1,1.1-1.8,2.1l0,0l0,0c-0.2,0.3-0.4,0.6-0.7,0.9l-0.1-0.4c0.3-1,1.6-5.5-0.9-5.1
			c-2.6,0.4,0.5,4.8,0.8,5.2l0.1,0.4c-0.1,0.2-0.3,0.4-0.4,0.6c-0.1,0.2-0.3,0.5-0.4,0.7l-1.2-0.8c-0.2-0.4-2.3-5.5-4-3.4
			c-1.5,1.9,2.6,3.1,3.7,3.4l1.4,0.9c-0.2,0.3-0.4,0.7-0.6,1.1l-1.1,0.1c0,0,0,0,0,0s-5.8-1.5-5.2,1.2c0.6,2.4,4.2-0.4,5-1l1.2-0.1
			c-2.8,5-4.7,11.1-5.8,15.6l0.1,0c1.2-4.6,3.2-11,6.2-16.1l0.2,1.1c-0.4,1.1-1.9,5.3,0.6,5c2.8-0.3-0.5-5.3-0.5-5.3s0,0,0,0l-0.1-1
			c0.1-0.3,0.3-0.5,0.5-0.8l1.3,0.4c0.6,0.8,3.7,4.4,4.7,2.1C51.9,150.8,46.7,150.9,46,150.9z"/>
		<path id="XMLID_165_" class="st5" d="M27.3,153.2l0.7-0.4c-0.1-0.1-0.1-0.1-0.2-0.2c-0.3-0.3-0.6-0.6-0.9-0.8l-0.6,0.1
			c-0.4,0.2-3.1,1.8-3.2,0.2c-0.1-1.5,2.6-0.5,3.1-0.3l0.6-0.1c-0.6-0.4-1-0.7-1.3-0.9c-0.4,0-3.5-0.4-2.7-1.7
			c0.8-1.3,2.4,1.1,2.7,1.6c0.3,0.2,0.8,0.5,1.4,0.9l0,0l0,0c0.2,0.1,0.3,0.3,0.5,0.4l0-0.3c-0.3-0.5-1.8-3-0.3-3.1
			c1.6-0.1,0.5,2.9,0.3,3.2l0,0.3c0.1,0.1,0.2,0.2,0.3,0.3c0.1,0.1,0.2,0.2,0.4,0.3l0.6-0.6c0-0.3,0.5-3.6,1.8-2.6
			c1.2,0.9-1,2.2-1.7,2.6l-0.7,0.7c0.2,0.2,0.4,0.3,0.5,0.5l0.6-0.1c0,0,0,0,0,0s3.2-1.8,3.2-0.1c0,1.5-2.5,0.4-3.1,0.2l-0.7,0.1
			c2.4,2.5,4.4,5.8,5.8,8.3l-0.1,0c-1.4-2.5-3.6-6-6.1-8.5l0.1,0.7c0.4,0.6,1.9,2.8,0.4,3c-1.7,0.3-0.5-3.2-0.5-3.2s0,0,0,0
			l-0.1-0.6c-0.1-0.1-0.3-0.3-0.4-0.4L27.3,153.2c-0.2,0.6-1.5,3.2-2.4,2C23.9,154,26.9,153.3,27.3,153.2z"/>
		<path id="XMLID_164_" class="st14" d="M29.3,165h10.5c0,0-2.3,8.2-1.3,16.3h-6.3C32.1,181.3,32.6,173.8,29.3,165z"/>
	</g>
	<path id="XMLID_162_" class="st14" d="M171.8,15.5L83,29.6c-3.4,0.5-5.9,3.4-5.9,6.9V170c0,3.8,3.1,6.9,6.9,6.9h88.7
		c3.8,0,6.9-3.1,6.9-6.9V22.4C179.8,18.1,176,14.9,171.8,15.5z"/>
	<path id="XMLID_161_" class="st15" d="M168.2,22.1L86.7,35c-3.1,0.5-5.4,3.2-5.4,6.3v115.1c0,3.5,2.9,6.4,6.4,6.4h81.5
		c3.5,0,6.4-2.9,6.4-6.4v-128C175.6,24.5,172.1,21.5,168.2,22.1z"/>
	<ellipse id="XMLID_160_" class="st16" cx="123.5" cy="169.5" rx="2.8" ry="3.8"/>
	<g id="XMLID_143_">
		<defs>
			<path id="XMLID_144_" d="M168.2,22.1L86.7,35c-3.1,0.5-5.4,3.2-5.4,6.3v115.1c0,3.5,2.9,6.4,6.4,6.4h81.5c3.5,0,6.4-2.9,6.4-6.4
				v-128C175.6,24.5,172.1,21.5,168.2,22.1z"/>
		</defs>
		<clipPath id="XMLID_12_">
			<use xlink:href="#XMLID_144_"  style="overflow:visible;"/>
		</clipPath>
		<polygon id="XMLID_159_" class="st17" points="78.9,102.9 187.8,92.1 184.5,6.5 72.4,24.4 		"/>
		<ellipse id="XMLID_158_" class="st18" cx="130.1" cy="72.5" rx="18.7" ry="21.5"/>
		<ellipse id="XMLID_157_" class="st17" cx="130.1" cy="72.5" rx="14.6" ry="16.8"/>
		<ellipse id="XMLID_156_" class="st18" cx="130.1" cy="72.5" rx="10.6" ry="12.2"/>
		<polygon id="XMLID_155_" class="st19" points="155.3,78.6 156.7,82.1 157.6,81.2 159.1,82.8 159.9,82.1 158.3,80.7 159.1,80 		"/>
		<polygon id="XMLID_154_" class="st20" points="116.1,151 109.6,155.2 116.8,157.7 		"/>
		<polygon id="XMLID_153_" class="st20" points="127.4,150.2 134.4,153.6 127.6,157 		"/>
		
			<rect id="XMLID_152_" x="133.3" y="128.9" transform="matrix(1 -5.626264e-003 5.626264e-003 1 -0.7641 0.8025)" class="st21" width="17.9" height="14.6"/>
		<path id="XMLID_151_" class="st22" d="M172.7,143.4l-5.6,0c-3.4,0-6.1-2.7-6.2-6.1l0-2.4c0-3.4,2.7-6.1,6.1-6.2l5.6,0
			c3.4,0,6.1,2.7,6.2,6.1l0,2.4C178.8,140.6,176.1,143.3,172.7,143.4z"/>
		<path id="XMLID_150_" class="st17" d="M112.5,144l-3.2,0c-4,0-7.3-3.2-7.4-7.3l0,0c0-4,3.2-7.3,7.3-7.4l3.2,0c4,0,7.3,3.2,7.4,7.3
			l0,0C119.8,140.7,116.6,143.9,112.5,144z"/>
		
			<rect id="XMLID_149_" x="106.6" y="146.7" transform="matrix(1 -5.631560e-003 5.631560e-003 1 -0.8281 0.6262)" class="st23" width="8.4" height="1.4"/>
		
			<rect id="XMLID_148_" x="138.3" y="146.5" transform="matrix(1 -5.625446e-003 5.625446e-003 1 -0.8257 0.8037)" class="st23" width="8.4" height="1.4"/>
		
			<rect id="XMLID_147_" x="75.7" y="129.7" transform="matrix(1 -5.626247e-003 5.626247e-003 1 -0.7696 0.4781)" class="st21" width="17.9" height="14.6"/>
		
			<rect id="XMLID_146_" x="80.6" y="147.3" transform="matrix(1 -5.625412e-003 5.625412e-003 1 -0.8312 0.4793)" class="st23" width="8.4" height="1.4"/>
		
			<rect id="XMLID_145_" x="165.9" y="146.4" transform="matrix(1 -5.631526e-003 5.631526e-003 1 -0.8253 0.9601)" class="st23" width="8.4" height="1.4"/>
	</g>
	<g id="XMLID_137_" class="st24">
		<defs>
			<path id="XMLID_4_" class="st24" d="M168.2,22.1L86.7,35c-3.1,0.5-5.4,3.2-5.4,6.3v115.1c0,3.5,2.9,6.4,6.4,6.4h81.5
				c3.5,0,6.4-2.9,6.4-6.4v-128C175.6,24.5,172.1,21.5,168.2,22.1z"/>
		</defs>
		<clipPath id="XMLID_13_">
			<use xlink:href="#XMLID_4_"  style="overflow:visible;"/>
		</clipPath>
		<polygon id="XMLID_142_" class="st25" points="73,63.4 177.7,11.9 194.3,39.6 63.2,102.7 		"/>
		<polygon id="XMLID_141_" class="st25" points="73,109.2 189.4,51.2 189.4,63.4 73,115.4 		"/>
		<path id="XMLID_140_" class="st25" d="M75.7,144.1c0-2.2,118.6-58.5,118.6-58.5v13L75.1,149L75.7,144.1z"/>
		<polyline id="XMLID_139_" class="st25" points="100.3,169.5 196.2,112.9 202.4,127.8 109,169.5 100.3,172 		"/>
	</g>
	<polygon id="XMLID_136_" class="st5" points="149.7,33.5 149.7,63.4 194.4,58.2 194.4,27.7 	"/>
	<polygon id="XMLID_135_" class="st26" points="144.7,39.9 189.4,34.4 189.4,51.2 144.7,57 	"/>
	<g id="XMLID_133_">
		<path id="XMLID_134_" class="st27" d="M125.1,36.5c-11.7,1.6-23.5,3.2-35.2,4.9c-1.7,0.2-3.4,0.5-5,0.7c-0.5,0.1-0.3,0.9,0.2,0.8
			c11.7-1.6,23.5-3.2,35.2-4.9c1.7-0.2,3.4-0.5,5-0.7C125.9,37.2,125.7,36.4,125.1,36.5L125.1,36.5z"/>
	</g>
	<g id="XMLID_131_">
		<path id="XMLID_132_" class="st27" d="M137.6,40.4c-5.8,0.8-11.7,1.5-17.5,2.3c-9.3,1.2-18.6,2.5-28,3.7c-2.1,0.3-4.3,0.6-6.4,0.8
			c-0.5,0.1-0.5,0.9,0,0.8c5.8-0.8,11.7-1.5,17.5-2.3c9.3-1.2,18.6-2.5,28-3.7c2.1-0.3,4.3-0.6,6.4-0.8
			C138.1,41.1,138.1,40.3,137.6,40.4L137.6,40.4z"/>
	</g>
	<g id="XMLID_129_">
		<path id="XMLID_130_" class="st28" d="M144.6,106.6c-11.8,0.5-23.7,1-35.5,1.4c-1.7,0.1-3.4,0.1-5.1,0.2c-0.5,0-0.4,0.8,0.1,0.8
			c11.8-0.5,23.7-1,35.5-1.4c1.7-0.1,3.4-0.1,5.1-0.2C145.2,107.4,145.1,106.6,144.6,106.6L144.6,106.6z"/>
	</g>
	<g id="XMLID_127_">
		<path id="XMLID_128_" class="st28" d="M156.6,111.7c-5.9,0.2-11.8,0.4-17.7,0.6c-9.4,0.3-18.8,0.6-28.2,1
			c-2.2,0.1-4.3,0.1-6.5,0.2c-0.5,0-0.6,0.8-0.1,0.8c5.9-0.2,11.8-0.4,17.7-0.6c9.4-0.3,18.8-0.6,28.2-1c2.2-0.1,4.3-0.1,6.5-0.2
			C157,112.5,157.1,111.7,156.6,111.7L156.6,111.7z"/>
	</g>
	<g id="XMLID_125_">
		<path id="XMLID_126_" class="st28" d="M156.3,115.5c-5.9,0.2-11.8,0.4-17.7,0.6c-9.4,0.3-18.8,0.6-28.2,1
			c-2.2,0.1-4.3,0.1-6.5,0.2c-0.5,0-0.6,0.8-0.1,0.8c5.9-0.2,11.8-0.4,17.7-0.6c9.4-0.3,18.8-0.6,28.2-1c2.2-0.1,4.3-0.1,6.5-0.2
			C156.8,116.3,156.9,115.4,156.3,115.5L156.3,115.5z"/>
	</g>
	<g id="XMLID_123_">
		<path id="XMLID_124_" class="st28" d="M156.6,119.3c-5.9,0.2-11.8,0.4-17.7,0.6c-9.4,0.3-18.8,0.6-28.2,1
			c-2.2,0.1-4.3,0.1-6.5,0.2c-0.5,0-0.6,0.8-0.1,0.8c5.9-0.2,11.8-0.4,17.7-0.6c9.4-0.3,18.8-0.6,28.2-1c2.2-0.1,4.3-0.1,6.5-0.2
			C157,120,157.1,119.2,156.6,119.3L156.6,119.3z"/>
	</g>
	<g id="XMLID_121_">
		<path id="XMLID_122_" class="st28" d="M156.3,123c-5.9,0.2-11.8,0.4-17.7,0.6c-9.4,0.3-18.8,0.6-28.2,1c-2.2,0.1-4.3,0.1-6.5,0.2
			c-0.5,0-0.6,0.8-0.1,0.8c5.9-0.2,11.8-0.4,17.7-0.6c9.4-0.3,18.8-0.6,28.2-1c2.2-0.1,4.3-0.1,6.5-0.2
			C156.8,123.8,156.9,123,156.3,123L156.3,123z"/>
	</g>
	<g id="XMLID_112_">
		<path id="XMLID_117_" class="st29" d="M159.6,45.3c0,0.6-0.6,1.1-1.4,1.2v0c0.8,0.1,1.4,0.6,1.4,1.2V51c0,1.6-1.1,2.5-3.2,2.5H151
			c-0.2,0-0.4-0.1-0.4-0.3V39.8c0-0.2,0.1-0.3,0.4-0.3h5.4c2.1,0,3.2,0.9,3.2,2.5V45.3z M156.7,42.6c0-0.5-0.3-0.7-0.9-0.7h-2v3.5h2
			c0.6,0,0.9-0.2,0.9-0.7V42.6z M156.7,48.4c0-0.5-0.3-0.7-0.9-0.7h-2v3.5h2c0.6,0,0.9-0.2,0.9-0.7V48.4z"/>
		<path id="XMLID_115_" class="st29" d="M170.3,39.6c0.2,0,0.4,0.2,0.4,0.3V51c0,1.6-1.1,2.5-3.2,2.5h-2.5c-2.1,0-3.2-0.9-3.2-2.5
			V39.9c0-0.2,0.2-0.3,0.4-0.3h2.1c0.2,0,0.4,0.2,0.4,0.3v10.6c0,0.5,0.3,0.7,0.9,0.7h1.2c0.6,0,0.9-0.2,0.9-0.7V39.9
			c0-0.2,0.2-0.3,0.4-0.3H170.3z"/>
		<path id="XMLID_113_" class="st29" d="M183,39.6c0.3,0,0.5,0.2,0.4,0.4l-4.1,7.8v5.4c0,0.2-0.2,0.3-0.4,0.3h-2.1
			c-0.3,0-0.4-0.1-0.4-0.3v-5.4l-4.1-7.8c-0.1-0.2,0-0.4,0.4-0.4h2.2c0.3,0,0.4,0.1,0.5,0.3l2.5,5l2.5-5c0.1-0.2,0.2-0.3,0.5-0.3
			H183z"/>
	</g>
	<g id="XMLID_96_">
		<g id="XMLID_109_">
			<defs>
				<path id="XMLID_10_" d="M212.5,62.4l-41.3,3.4c-1.5,0.1-2.6,1.4-2.5,2.8l0.5,19.2c0,1.5,1.3,2.7,2.8,2.7l41.4-1
					c1.5,0,2.7-1.3,2.7-2.8l-0.5-21.6C215.4,63.5,214.1,62.3,212.5,62.4z"/>
			</defs>
			<use xlink:href="#XMLID_10_"  style="overflow:visible;fill:#A8DFF2;"/>
			<clipPath id="XMLID_14_">
				<use xlink:href="#XMLID_10_"  style="overflow:visible;"/>
			</clipPath>
			<path id="XMLID_11_" class="st30" d="M216,35.6L165,42.1c-1.8,0.2-3.1,1.8-3,3.6l1.6,23.8c0.1,1.9,1.8,3.3,3.7,3.2l51.3-3.5
				c1.9-0.1,3.3-1.8,3.2-3.7l-1.8-26.8C219.8,36.8,218,35.4,216,35.6z"/>
		</g>
		<g id="XMLID_106_">
			<circle id="XMLID_108_" class="st31" cx="200.7" cy="76.6" r="3.7"/>
			<circle id="XMLID_107_" class="st32" cx="204.4" cy="76.5" r="3.7"/>
		</g>
		<polygon id="XMLID_105_" class="st32" points="207.9,87.3 173.2,88.7 173.2,86 207.8,84.6 		"/>
		<polygon id="XMLID_104_" class="st32" points="207.8,82.6 173.1,83.7 173.1,82.6 207.7,81.5 		"/>
		<polygon id="XMLID_103_" class="st32" points="179.1,80.3 173.1,80.6 173.4,77 179.4,76.7 		"/>
		<polygon id="XMLID_102_" class="st32" points="186.2,80.2 180.2,80.4 180.5,76.8 186.5,76.6 		"/>
		<g id="XMLID_97_" class="st33">
			<defs>
				<path id="XMLID_9_" class="st33" d="M212.5,62.4l-41.3,3.4c-1.5,0.1-2.6,1.4-2.5,2.8l0.5,19.2c0,1.5,1.3,2.7,2.8,2.7l41.4-1
					c1.5,0,2.7-1.3,2.7-2.8l-0.5-21.6C215.4,63.5,214.1,62.3,212.5,62.4z"/>
			</defs>
			<clipPath id="XMLID_15_">
				<use xlink:href="#XMLID_9_"  style="overflow:visible;"/>
			</clipPath>
			<polygon id="XMLID_101_" class="st34" points="164.1,80.8 198.8,58 204,58.7 163.3,85.6 			"/>
			<path id="XMLID_100_" class="st34" d="M166.8,87.3c0.6-0.6,40.4-27.2,40.4-27.2l4.8,0.3l-45.5,28.5L166.8,87.3z"/>
			<path id="XMLID_99_" class="st34" d="M181.4,92.3c0-0.7,40.3-26.8,40.3-26.8l0.4,4.1L183.7,94L181.4,92.3z"/>
		</g>
	</g>
	<path id="XMLID_90_" class="st9" d="M95,59.4h2.3c0.2,0,0.4-0.1,0.4-0.4v-2.4c0-2.1-1.1-3.2-3.2-3.2h-0.6v-2.3h-0.5v2.3H93v-2.3
		h-0.5v2.3h-0.5c-2.1,0-3.2,1.1-3.2,3.2v5.2c0,0.4,0.2,0.7,0.6,0.8l3.1,1v4.5c-0.4-0.1-0.7-0.4-0.7-0.9v-1.7c0-0.2-0.1-0.4-0.4-0.4
		h-2.3c-0.2,0-0.4,0.1-0.4,0.4V68c0,2.1,1.1,3.2,3.2,3.2h0.5v1.6H93v-1.6h0.3v1.6h0.5v-1.6h0.6c2.1,0,3.2-1.1,3.2-3.2v-5.1
		c0-0.4-0.2-0.7-0.6-0.8l-3.2-1v-4.6c0.5,0,0.7,0.4,0.7,0.9V59C94.6,59.2,94.7,59.4,95,59.4z M91.8,60.4v-3.1c0-0.5,0.3-0.8,0.7-0.9
		v4.2L91.8,60.4z M93,68.3v-4.4l0.3,0.1v4.3H93z M94.6,64.5v3c0,0.5-0.3,0.8-0.7,0.9v-4.1L94.6,64.5z M93,60.8v-4.3h0.3v4.5L93,60.8
		z"/>
	<g id="XMLID_74_">
		<path id="XMLID_89_" class="st35" d="M104.1,83.9l1.4,0.6l2.1-1.9c0,0-1.3-0.8-2.4,1L104.1,83.9z"/>
		<g id="XMLID_79_">
			<g id="XMLID_87_">
				<path id="XMLID_88_" class="st4" d="M98.5,95.7c-0.1,0-0.2,0-0.2-0.1c-0.1-0.6-0.5-2.3-0.7-4.3c-0.3-3.3,0.1-5.8,1.1-7.4
					c0.7-1.1,1.7-1.8,2.9-2c1.8-0.3,3.5,0,4.8,0.9c2.8,2,3.9,6.5,4.6,10.8c0,0.1-0.1,0.2-0.2,0.2l0,0c-0.1,0-0.2-0.1-0.2-0.2
					c-0.7-4.2-1.8-8.6-4.4-10.5c-1.2-0.9-2.7-1.1-4.5-0.8c-1.2,0.2-2.1,0.8-2.7,1.8c-2.1,3.4-0.6,10.2-0.3,11.4
					C98.7,95.6,98.6,95.7,98.5,95.7L98.5,95.7z"/>
			</g>
			<path id="XMLID_86_" class="st11" d="M123.2,120.9c0.4,0.2,4.7,0,4.7,0l1.9,2.1l-4.7,1.8L123.2,120.9z"/>
			<polygon id="XMLID_85_" class="st12" points="120.1,89.1 121.1,87.2 129.9,123 126.9,122.3 125.2,124.8 			"/>
			<polygon id="XMLID_84_" class="st13" points="89.3,91.8 121.1,87.2 125.2,124.8 94.6,129.5 			"/>
			
				<ellipse id="XMLID_83_" transform="matrix(0.3512 0.9363 -0.9363 0.3512 153.3598 -30.2214)" class="st7" cx="98.5" cy="95.5" rx="0.6" ry="0.5"/>
			
				<ellipse id="XMLID_82_" transform="matrix(0.2156 0.9765 -0.9765 0.2156 178.4765 -34.5875)" class="st7" cx="110.8" cy="93.8" rx="0.6" ry="0.5"/>
			<g id="XMLID_80_">
				<path id="XMLID_81_" class="st4" d="M98.5,95.7c-0.1,0-0.2,0-0.2-0.1c-0.1-0.6-0.5-2.3-0.7-4.3c-0.3-3.3,0.1-5.8,1.1-7.4
					c0.7-1.1,1.7-1.8,2.9-2c1.8-0.3,3.5,0,4.8,0.9c2.8,2,3.9,6.5,4.6,10.8c0,0.1-0.1,0.2-0.2,0.2l0,0c-0.1,0-0.2-0.1-0.2-0.2
					c-0.7-4.2-1.8-8.6-4.4-10.5c-1.2-0.9-2.7-1.1-4.5-0.8c-1.2,0.2-2.1,0.8-2.7,1.8c-2.1,3.4-0.6,10.2-0.3,11.4
					C98.7,95.6,98.6,95.7,98.5,95.7L98.5,95.7z"/>
			</g>
		</g>
		<path id="XMLID_78_" class="st35" d="M130.8,68c0,0-22.8,5.1-25,5.5c-2,0.3-6.4,3.5-7.1,5.2l0,0c0,0,0,0,0,0
			c-0.1,0.2-0.1,0.3-0.1,0.5c-0.2,1.2-0.6,4.2,0,4.9c0.8,0.8,6.4,1.3,7.1,0.5c0.5-0.6,0.3-2.1,0.1-2.9c1.7-1.2,1.7-5.1,1.7-5.1h23.4
			C133.3,72.8,130.8,68,130.8,68z"/>
		<path id="XMLID_75_" class="st8" d="M113,105.8l-5.8-3.7l-1.9,2.9l-2.8-1.8l-3.6,5.7l5.7,3.6l1.8-2.8l2.9,1.9L113,105.8z
			 M105.5,105.2l1.8-2.8l5.6,3.5l-3.5,5.6l-2.8-1.8l1.7-2.8L105.5,105.2z"/>
	</g>
	<g id="XMLID_70_">
		<defs>
			<path id="XMLID_2_" d="M68.9,167.9l-9.7,28.7v4.3l1.1,0.9c0.2,0.2,0.1,0.5-0.2,0.5h-1.7l-2.1-2.5c-0.4-0.4-0.4-1.1-0.1-1.5
				l1.6-2.4c0,0,2.2-24.1,5.1-27.9C65.9,164.1,68.9,167.9,68.9,167.9z"/>
		</defs>
		<use xlink:href="#XMLID_2_"  style="overflow:visible;fill:#EBABAC;"/>
		<clipPath id="XMLID_16_">
			<use xlink:href="#XMLID_2_"  style="overflow:visible;"/>
		</clipPath>
		<path id="XMLID_73_" class="st36" d="M57.3,195.3c0,0,1.6,4.3,2.7,2.7c1.1-1.6,1.6,4.9,1.6,4.9l-4.1,0.3l-3.5-3.8L57.3,195.3z"/>
		<path id="XMLID_72_" class="st37" d="M60.5,171.2c0,0,2.2,1.1,4.1,1.4c0,0-1.6,7-0.8,12.5c0.8,5.4,5.1-7.9,5.1-7.9l0.8-10.3
			l-7.9,0.3l-1.4,4.6"/>
	</g>
	<g id="XMLID_66_">
		<defs>
			<path id="XMLID_1_" d="M71.1,170.6l-4.3,29.2L71,202c0.2,0.1,0.1,0.3-0.1,0.3h-6.1c0,0-1.9-29.8,2.8-32.7L71.1,170.6z"/>
		</defs>
		<use xlink:href="#XMLID_1_"  style="overflow:visible;fill:#EBABAC;"/>
		<clipPath id="XMLID_17_">
			<use xlink:href="#XMLID_1_"  style="overflow:visible;"/>
		</clipPath>
		<path id="XMLID_69_" class="st38" d="M64.6,199.9c0,0,1.1,1.1,3.2-0.8c2.2-1.9,4.9,3.8,4.9,3.8l-3.5,0.8l-5.7-1.4L64.6,199.9z"/>
		<path id="XMLID_68_" class="st39" d="M63.7,172c0,0,4.6,1.9,8.4,0.5c3.8-1.4-2.4-3-2.4-3l-6,0.8V172z"/>
	</g>
	<path id="XMLID_65_" class="st40" d="M67,104.8c0,0,7.3-1.6,10-2.4c2.7-0.8,9.2-3.8,11.9-4.1c2.7-0.3,5.1-2.2,5.1-2.2
		s0.8-2.7,2.2-3c1.4-0.3,1.6-1.1,1.6-1.1s-0.3,1.1-1.6,2.2c0,0,2.2-0.5,3-1.1c0.8-0.5,3,2.7-3,3.8c0,0-8.7,5.7-16.2,7.9
		c-7.6,2.2-8.7,4.9-10.8,4.3C67,108.6,65.9,105.4,67,104.8z"/>
	<path id="XMLID_64_" class="st41" d="M62.4,127.6c-0.5,0-4.1,4.6-3.8,9.2c0.3,4.6-5.7,31.4-5.7,31.4s19.5,8.1,26.3,0.8
		c0,0-4.9-35.2-9.2-40.6C65.6,123,62.4,127.6,62.4,127.6z"/>
	<g id="XMLID_61_">
		<defs>
			<polygon id="XMLID_3_" points="68.1,98.1 68.1,104.8 63.2,102.7 64.6,96.2 			"/>
		</defs>
		<use xlink:href="#XMLID_3_"  style="overflow:visible;fill:#EBABAC;"/>
		<clipPath id="XMLID_18_">
			<use xlink:href="#XMLID_3_"  style="overflow:visible;"/>
		</clipPath>
		<path id="XMLID_63_" class="st42" d="M65.6,98.1c0,0,1.1,3.5,3.8,3c2.7-0.5-1.4-3-1.4-3H65.6z"/>
	</g>
	<path id="XMLID_60_" class="st9" d="M68.1,104.4c0,0,2.4,4.5,4.1,6.1c1.6,1.6,0.5,6.8-0.8,8.7c-1.4,1.9-1.4,9.2-1.4,9.2l-8.1-0.5
		c0,0,0.5-8.7-1.1-12.5c-1.6-3.8-0.8-11.1,2.4-12.7L68.1,104.4z"/>
	<g id="XMLID_50_">
		<g id="XMLID_58_">
			<path id="XMLID_59_" class="st4" d="M63.8,146.4c-0.1,0-0.1,0-0.1-0.1c0-0.3,0-1.4,0.1-2.6c0.2-1.9,0.7-3.3,1.5-4.1
				c0.5-0.5,1.2-0.8,1.9-0.8c1.1,0,2,0.4,2.6,1.1c1.4,1.5,1.5,4.2,1.4,6.7c0,0.1-0.1,0.1-0.1,0.1l0,0c-0.1,0-0.1-0.1-0.1-0.1
				c0.1-2.5,0-5.2-1.3-6.6c-0.6-0.6-1.4-1-2.5-1c-0.7,0-1.3,0.2-1.8,0.7c-1.6,1.7-1.6,5.8-1.5,6.5C63.9,146.3,63.8,146.4,63.8,146.4
				L63.8,146.4z"/>
		</g>
		<path id="XMLID_57_" class="st32" d="M75.1,163.8c0.2,0.2,2.7,0.6,2.7,0.6l0.9,1.5l-2.9,0.5L75.1,163.8z"/>
		<polygon id="XMLID_56_" class="st43" points="77,145.1 77.8,144.1 78.6,165.8 77,165 75.7,166.3 		"/>
		<polygon id="XMLID_55_" class="st32" points="58.9,143.1 77.8,144.1 75.7,166.3 57.6,165.3 		"/>
		
			<ellipse id="XMLID_54_" transform="matrix(0.1569 0.9876 -0.9876 0.1569 198.2372 60.3206)" class="st7" cx="63.8" cy="146.3" rx="0.3" ry="0.3"/>
		
			<ellipse id="XMLID_53_" transform="matrix(1.596930e-002 0.9999 -0.9999 1.596930e-002 216.6155 73.2906)" class="st7" cx="71.1" cy="146.7" rx="0.3" ry="0.3"/>
		<g id="XMLID_51_">
			<path id="XMLID_52_" class="st4" d="M63.8,146.4c-0.1,0-0.1,0-0.1-0.1c0-0.3,0-1.4,0.1-2.6c0.2-1.9,0.7-3.3,1.5-4.1
				c0.5-0.5,1.2-0.8,1.9-0.8c1.1,0,2,0.4,2.6,1.1c1.4,1.5,1.5,4.2,1.4,6.7c0,0.1-0.1,0.1-0.1,0.1l0,0c-0.1,0-0.1-0.1-0.1-0.1
				c0.1-2.5,0-5.2-1.3-6.6c-0.6-0.6-1.4-1-2.5-1c-0.7,0-1.3,0.2-1.8,0.7c-1.6,1.7-1.6,5.8-1.5,6.5C63.9,146.3,63.8,146.4,63.8,146.4
				L63.8,146.4z"/>
		</g>
	</g>
	<path id="XMLID_49_" class="st44" d="M68.2,107.6c0,0-0.2,7.7-0.4,10.5c-0.1,2.8,0.4,10.1-0.3,12.7c-0.6,2.6,0,5.1,0,5.1
		s2.1,1.7,1.9,3.1c-0.1,0.5-0.1,0.9-0.1,1.2c0,0.2-0.2,0.2-0.3,0.1c-0.2-0.4-0.4-0.9-0.7-1.7c0,0-0.3-0.2-0.1,0.8
		c0.2,0.9-3,1.9-2.5-1.7c0,0-2.5-10.1-2-17.9c0.5-7.9-0.7-9.4-0.5-11.7C63.7,104,68.6,104.5,68.2,107.6z"/>
	<path id="XMLID_48_" class="st40" d="M67.9,107.3c0,0-0.9,7.4-1,10.3c-0.1,2.8,0.5,9.9-0.1,12.6c-0.6,2.6,0.3,5.6,0.3,5.6
		s2.3,1.7,2.1,3c-0.1,0.5-0.1,0.9-0.1,1.2c0,0.2-0.2,0.2-0.3,0.1c-0.2-0.4-0.4-0.9-0.7-1.7c0,0-0.3-0.2-0.1,0.8
		c0.2,0.9-3,1.9-2.5-1.7c0,0-2.5-10.1-2-17.9c0.5-7.9-0.7-9.4-0.5-11.7C63.5,103.7,68.4,104.3,67.9,107.3z"/>
	<path id="XMLID_47_" class="st40" d="M67.8,88.6c0,0,5.4,7,2.7,10.3c-2.7,3.2-8.7-3.5-8.7-3.5S62.9,88.3,67.8,88.6z"/>
	<path id="XMLID_44_" class="st10" d="M64.6,86.7c-2.8,0.9-4.7,3.5-5.6,5.1c0-1.7-0.5-4.3-3.1-3.2C52.5,90,55,99.1,58,94.9
		c0,0,0,0.1,0,0.1c0,0,0,0,0,0c-0.1,0.4-0.3,0.8-0.6,1.1c-0.3,0.3-0.8,0.4-1.2,0.3c-0.4-0.1-0.8-0.3-1.2-0.5
		c0.4,0.2,0.7,0.5,1.2,0.6c0.4,0.1,0.9,0.1,1.3-0.2c0.3-0.2,0.4-0.5,0.6-0.9c0,0,0,0,0,0c0,0.3,0,0.7-0.2,1
		c-0.1,0.3-0.4,0.6-0.7,0.8c-0.1,0.1-0.1,0.1-0.2,0.1l-0.2,0.1c-0.2,0.1-0.3,0.1-0.5,0.2c0.2-0.1,0.3-0.1,0.5-0.2l0.2-0.1
		c0.1,0,0.2-0.1,0.2-0.1c0.3-0.2,0.5-0.5,0.7-0.8c0.2-0.3,0.2-0.7,0.2-1c0-0.2,0-0.3,0-0.4c0-0.1,0-0.2,0.1-0.3
		c0.1,1.6,0.8,3.7,3.6,3.9c4.6,0.3,3.5-3,3.5-3l-0.8-1.1c0.7-0.2,1.3-0.6,1.8-1c0.2,0,0.3-0.1,0.5-0.2c0.2-0.1,0.4-0.3,0.6-0.5
		c0.4-0.4,0.6-0.9,0.7-1.4c0.1-0.5,0.1-1,0.1-1.6c0-0.3-0.1-0.5-0.1-0.8c0-0.1-0.1-0.2-0.1-0.4l0.6,0.8
		C68.5,89.6,68.6,85.3,64.6,86.7z M67.9,91.5c-0.1,0.5-0.3,1-0.6,1.4c-0.2,0.2-0.4,0.4-0.6,0.5c-0.1,0.1-0.3,0.1-0.4,0.2
		c1.3-1.2,1.5-3,1.5-4c0,0.2,0.1,0.3,0.1,0.5C68,90.4,68,91,67.9,91.5z"/>
	
		<ellipse id="XMLID_43_" transform="matrix(0.883 -0.4693 0.4693 0.883 -36.9729 41.5328)" class="st40" cx="64.8" cy="94.9" rx="0.8" ry="1.2"/>
	<ellipse id="XMLID_42_" class="st3" cx="171" cy="196.2" rx="14.4" ry="2.6"/>
	<g id="XMLID_35_">
		<path id="XMLID_41_" class="st13" d="M176.1,134.7l-3-0.1c0.1-0.3,0.2-0.6,0.3-1c0.5-1.7,1-3.2,1.5-4.5l2.4-0.9
			c1.8,0,13.8-0.3,10.9-5.7c-2.8-5.3-9.6,3.7-10.9,5.4l-2.3,0.8c1-2.6,1.9-4.3,2.5-5.5c1.4-1,10.9-8.4,5.4-11.1
			c-5.3-2.6-5.6,8.6-5.6,10.8c-0.7,1.2-1.7,3.1-2.7,5.9l0,0l0,0c-0.3,0.8-0.6,1.6-0.9,2.5l-0.6-0.9c0-2.4-0.1-13.5-5.4-10.9
			c-5.6,2.8,4.3,10.5,5.3,11.3l0.6,0.8c-0.2,0.5-0.3,1.1-0.5,1.6c-0.2,0.6-0.3,1.2-0.5,1.9l-3.1-0.9c-0.7-0.9-8.9-10.8-11.4-5
			c-2.2,5.2,7.9,5.2,10.7,5.1l3.7,1.1c-0.2,0.9-0.5,1.9-0.7,2.8l-2.4,0.8c0,0,0,0,0,0s-14.2,0.5-10.9,6.2c2.9,5,9.2-3.7,10.6-5.7
			l2.6-0.9c-2.9,13.2-3.1,28.3-2.6,39.1l0.3,0c-0.4-11.3-0.2-27,3-40.6l1.1,2.4c-0.2,2.8-0.6,13.2,4.7,11c6.1-2.5-4.6-11.6-4.6-11.6
			s0,0,0,0.1l-1-2.3c0.2-0.7,0.3-1.3,0.5-2l3.3,0.1c1.9,1.3,11.3,7.4,12.1,1.6C189.1,130.4,177.5,134.2,176.1,134.7z"/>
		<path id="XMLID_40_" class="st13" d="M184.7,154.8l-1.7-0.6c0.1-0.2,0.2-0.3,0.3-0.5c0.6-0.9,1.1-1.6,1.6-2.3l1.5-0.1
			c1,0.3,7.8,2.1,7.1-1.4c-0.7-3.4-6,0.4-7,1.2l-1.4,0.1c1-1.3,1.8-2.1,2.3-2.6c1-0.4,7.5-2.9,4.9-5.3c-2.6-2.3-4.6,3.9-4.9,5.1
			c-0.6,0.5-1.5,1.5-2.5,2.8l0,0l0,0c-0.3,0.4-0.6,0.8-0.9,1.3l-0.2-0.6c0.4-1.3,2.2-7.6-1.2-7c-3.6,0.6,0.6,6.6,1.1,7.2l0.2,0.6
			c-0.2,0.3-0.4,0.5-0.6,0.8c-0.2,0.3-0.4,0.6-0.6,1l-1.6-1c-0.2-0.6-3.2-7.6-5.5-4.7c-2.1,2.5,3.5,4.3,5.1,4.7l1.9,1.2
			c-0.3,0.5-0.6,1-0.8,1.5l-1.5,0.1c0,0,0,0,0,0s-8-2.1-7.1,1.6c0.8,3.3,5.8-0.5,6.9-1.4l1.6-0.1c-3.8,6.9-6.5,15.3-8.1,21.5l0.2,0
			c1.6-6.4,4.4-15.2,8.5-22.2l0.2,1.5c-0.6,1.5-2.6,7.3,0.8,6.9c3.8-0.4-0.6-7.3-0.6-7.3s0,0,0,0.1l-0.2-1.4c0.2-0.4,0.4-0.7,0.6-1
			l1.8,0.6c0.8,1,5.1,6.1,6.5,2.9C192.8,154.6,185.6,154.8,184.7,154.8z"/>
		<path id="XMLID_39_" class="st13" d="M159,157.9l0.9-0.6c-0.1-0.1-0.2-0.2-0.3-0.2c-0.5-0.4-0.9-0.8-1.3-1.1l-0.9,0.2
			c-0.5,0.3-4.2,2.4-4.4,0.3c-0.1-2.1,3.6-0.7,4.3-0.4l0.8-0.2c-0.8-0.6-1.4-1-1.8-1.2c-0.6-0.1-4.9-0.6-3.7-2.4
			c1.1-1.8,3.3,1.6,3.7,2.3c0.4,0.2,1.1,0.6,1.9,1.3l0,0l0,0c0.2,0.2,0.5,0.4,0.7,0.6l0-0.4c-0.4-0.7-2.5-4.1-0.4-4.3
			c2.2-0.2,0.6,4,0.5,4.4l0,0.4c0.1,0.1,0.3,0.3,0.5,0.4c0.2,0.2,0.3,0.3,0.5,0.5l0.8-0.8c0.1-0.4,0.7-4.9,2.5-3.6
			c1.6,1.2-1.4,3-2.3,3.5l-0.9,1c0.2,0.2,0.5,0.5,0.7,0.7l0.9-0.2c0,0,0,0,0,0s4.4-2.5,4.4-0.1c0,2.1-3.5,0.6-4.3,0.2l-0.9,0.2
			c3.3,3.5,6.1,8,8,11.4l-0.1,0c-1.9-3.5-4.9-8.2-8.4-11.8l0.1,0.9c0.6,0.8,2.6,3.9,0.6,4.2c-2.3,0.4-0.7-4.4-0.7-4.4s0,0,0,0
			l-0.1-0.9c-0.2-0.2-0.3-0.3-0.5-0.5l-1,0.6c-0.3,0.7-2.1,4.3-3.4,2.7C154.2,159,158.4,158.1,159,157.9z"/>
		<path id="XMLID_37_" class="st9" d="M161.7,174.2h14.4c0,0-3.2,11.2-1.8,22.5h-8.7C165.6,196.6,166.3,186.3,161.7,174.2z"/>
	</g>
</g>
</svg>
